solid OpenSCAD_Model
  facet normal 0 -1 0
    outer loop
      vertex 0 19.091 13.409
      vertex 2.8 19.091 16.591
      vertex 0 19.091 16.591
    endloop
  endfacet
  facet normal 0 -1 -0
    outer loop
      vertex 2.8 19.091 16.591
      vertex 0 19.091 13.409
      vertex 2.8 19.091 13.409
    endloop
  endfacet
  facet normal 0 0 -1
    outer loop
      vertex 0 15.909 16.591
      vertex 2.8 19.091 16.591
      vertex 2.8 15.909 16.591
    endloop
  endfacet
  facet normal -0 0 -1
    outer loop
      vertex 2.8 19.091 16.591
      vertex 0 15.909 16.591
      vertex 0 19.091 16.591
    endloop
  endfacet
  facet normal -0 0 1
    outer loop
      vertex 0 19.091 13.409
      vertex 2.8 15.909 13.409
      vertex 2.8 19.091 13.409
    endloop
  endfacet
  facet normal 0 0 1
    outer loop
      vertex 2.8 15.909 13.409
      vertex 0 19.091 13.409
      vertex 0 15.909 13.409
    endloop
  endfacet
  facet normal 0 1 -0
    outer loop
      vertex 2.8 15.909 13.409
      vertex 0 15.909 16.591
      vertex 2.8 15.909 16.591
    endloop
  endfacet
  facet normal 0 1 0
    outer loop
      vertex 0 15.909 16.591
      vertex 2.8 15.909 13.409
      vertex 0 15.909 13.409
    endloop
  endfacet
  facet normal 0.568887 0 0.822416
    outer loop
      vertex 2.8 19.091 13.409
      vertex 5 14.3872 11.8872
      vertex 5 20.6128 11.8872
    endloop
  endfacet
  facet normal 0.568887 0 0.822416
    outer loop
      vertex 5 14.3872 11.8872
      vertex 2.8 19.091 13.409
      vertex 2.8 15.909 13.409
    endloop
  endfacet
  facet normal 0.568887 -0.822416 0
    outer loop
      vertex 2.8 19.091 13.409
      vertex 5 20.6128 18.1128
      vertex 2.8 19.091 16.591
    endloop
  endfacet
  facet normal 0.568887 -0.822416 0
    outer loop
      vertex 5 20.6128 18.1128
      vertex 2.8 19.091 13.409
      vertex 5 20.6128 11.8872
    endloop
  endfacet
  facet normal 0.568887 0.822416 0
    outer loop
      vertex 5 14.3872 18.1128
      vertex 2.8 15.909 13.409
      vertex 2.8 15.909 16.591
    endloop
  endfacet
  facet normal 0.568887 0.822416 0
    outer loop
      vertex 2.8 15.909 13.409
      vertex 5 14.3872 18.1128
      vertex 5 14.3872 11.8872
    endloop
  endfacet
  facet normal 0.568887 0 -0.822416
    outer loop
      vertex 2.8 15.909 16.591
      vertex 5 20.6128 18.1128
      vertex 5 14.3872 18.1128
    endloop
  endfacet
  facet normal 0.568887 0 -0.822416
    outer loop
      vertex 5 20.6128 18.1128
      vertex 2.8 15.909 16.591
      vertex 2.8 19.091 16.591
    endloop
  endfacet
  facet normal 0 -1 0
    outer loop
      vertex 0 57.591 13.409
      vertex 2.8 57.591 16.591
      vertex 0 57.591 16.591
    endloop
  endfacet
  facet normal 0 -1 -0
    outer loop
      vertex 2.8 57.591 16.591
      vertex 0 57.591 13.409
      vertex 2.8 57.591 13.409
    endloop
  endfacet
  facet normal 0 0 -1
    outer loop
      vertex 0 54.409 16.591
      vertex 2.8 57.591 16.591
      vertex 2.8 54.409 16.591
    endloop
  endfacet
  facet normal -0 0 -1
    outer loop
      vertex 2.8 57.591 16.591
      vertex 0 54.409 16.591
      vertex 0 57.591 16.591
    endloop
  endfacet
  facet normal -0 0 1
    outer loop
      vertex 0 57.591 13.409
      vertex 2.8 54.409 13.409
      vertex 2.8 57.591 13.409
    endloop
  endfacet
  facet normal 0 0 1
    outer loop
      vertex 2.8 54.409 13.409
      vertex 0 57.591 13.409
      vertex 0 54.409 13.409
    endloop
  endfacet
  facet normal 0 1 -0
    outer loop
      vertex 2.8 54.409 13.409
      vertex 0 54.409 16.591
      vertex 2.8 54.409 16.591
    endloop
  endfacet
  facet normal 0 1 0
    outer loop
      vertex 0 54.409 16.591
      vertex 2.8 54.409 13.409
      vertex 0 54.409 13.409
    endloop
  endfacet
  facet normal 0.568887 0 0.822416
    outer loop
      vertex 2.8 57.591 13.409
      vertex 5 52.8872 11.8872
      vertex 5 59.1128 11.8872
    endloop
  endfacet
  facet normal 0.568887 0 0.822416
    outer loop
      vertex 5 52.8872 11.8872
      vertex 2.8 57.591 13.409
      vertex 2.8 54.409 13.409
    endloop
  endfacet
  facet normal 0.568887 -0.822416 0
    outer loop
      vertex 2.8 57.591 13.409
      vertex 5 59.1128 18.1128
      vertex 2.8 57.591 16.591
    endloop
  endfacet
  facet normal 0.568887 -0.822416 0
    outer loop
      vertex 5 59.1128 18.1128
      vertex 2.8 57.591 13.409
      vertex 5 59.1128 11.8872
    endloop
  endfacet
  facet normal 0.568887 0.822416 0
    outer loop
      vertex 5 52.8872 18.1128
      vertex 2.8 54.409 13.409
      vertex 2.8 54.409 16.591
    endloop
  endfacet
  facet normal 0.568887 0.822416 0
    outer loop
      vertex 2.8 54.409 13.409
      vertex 5 52.8872 18.1128
      vertex 5 52.8872 11.8872
    endloop
  endfacet
  facet normal 0.568887 0 -0.822416
    outer loop
      vertex 2.8 54.409 16.591
      vertex 5 59.1128 18.1128
      vertex 5 52.8872 18.1128
    endloop
  endfacet
  facet normal 0.568887 0 -0.822416
    outer loop
      vertex 5 59.1128 18.1128
      vertex 2.8 54.409 16.591
      vertex 2.8 57.591 16.591
    endloop
  endfacet
  facet normal 0 0 -1
    outer loop
      vertex 55 -2.5 0
      vertex 57.5 0 0
      vertex 57.488 -0.245041 0
    endloop
  endfacet
  facet normal 0 0 -1
    outer loop
      vertex 57.5 0 0
      vertex 52.5 2.6252 0
      vertex 57.5 28 0
    endloop
  endfacet
  facet normal 0 0 -1
    outer loop
      vertex 55 -2.5 0
      vertex 57.488 -0.245041 0
      vertex 57.452 -0.487717 0
    endloop
  endfacet
  facet normal 0 0 -1
    outer loop
      vertex 52.5 28 0
      vertex 57.5 28 0
      vertex 52.5 2.6252 0
    endloop
  endfacet
  facet normal 0 0 -1
    outer loop
      vertex 55 -2.5 0
      vertex 57.452 -0.487717 0
      vertex 57.3923 -0.725708 0
    endloop
  endfacet
  facet normal 0 0 -1
    outer loop
      vertex 57.5 28 0
      vertex 52.5 28 0
      vertex 57.488 28.245 0
    endloop
  endfacet
  facet normal 0 0 -1
    outer loop
      vertex 55 -2.5 0
      vertex 57.3923 -0.725708 0
      vertex 57.3097 -0.956696 0
    endloop
  endfacet
  facet normal -0 0 -1
    outer loop
      vertex 57.488 28.245 0
      vertex 52.5 28 0
      vertex 57.452 28.4877 0
    endloop
  endfacet
  facet normal 0 0 -1
    outer loop
      vertex 55 -2.5 0
      vertex 57.3097 -0.956696 0
      vertex 57.2048 -1.17848 0
    endloop
  endfacet
  facet normal -0 0 -1
    outer loop
      vertex 57.452 28.4877 0
      vertex 52.5 28 0
      vertex 57.3923 28.7257 0
    endloop
  endfacet
  facet normal 0 0 -1
    outer loop
      vertex 55 -2.5 0
      vertex 57.2048 -1.17848 0
      vertex 57.0787 -1.38892 0
    endloop
  endfacet
  facet normal -0 0 -1
    outer loop
      vertex 57.3923 28.7257 0
      vertex 52.5 28 0
      vertex 57.3097 28.9567 0
    endloop
  endfacet
  facet normal 0 0 -1
    outer loop
      vertex 55 -2.5 0
      vertex 57.0787 -1.38892 0
      vertex 56.9325 -1.58597 0
    endloop
  endfacet
  facet normal -0 0 -1
    outer loop
      vertex 57.3097 28.9567 0
      vertex 52.5 28 0
      vertex 57.2048 29.1785 0
    endloop
  endfacet
  facet normal 0 0 -1
    outer loop
      vertex 55 -2.5 0
      vertex 56.9325 -1.58597 0
      vertex 56.7678 -1.76776 0
    endloop
  endfacet
  facet normal -0 0 -1
    outer loop
      vertex 57.2048 29.1785 0
      vertex 52.5 28 0
      vertex 57.0787 29.3889 0
    endloop
  endfacet
  facet normal 0 0 -1
    outer loop
      vertex 55 -2.5 0
      vertex 56.7678 -1.76776 0
      vertex 56.586 -1.93253 0
    endloop
  endfacet
  facet normal -0 0 -1
    outer loop
      vertex 57.0787 29.3889 0
      vertex 52.5 28 0
      vertex 56.9325 29.586 0
    endloop
  endfacet
  facet normal 0 0 -1
    outer loop
      vertex 55 -2.5 0
      vertex 56.586 -1.93253 0
      vertex 56.3889 -2.07866 0
    endloop
  endfacet
  facet normal -0 0 -1
    outer loop
      vertex 56.9325 29.586 0
      vertex 52.5 28 0
      vertex 56.7678 29.7678 0
    endloop
  endfacet
  facet normal 0 0 -1
    outer loop
      vertex 55 -2.5 0
      vertex 56.3889 -2.07866 0
      vertex 56.1785 -2.20479 0
    endloop
  endfacet
  facet normal -0 0 -1
    outer loop
      vertex 56.7678 29.7678 0
      vertex 52.5 28 0
      vertex 56.586 29.9325 0
    endloop
  endfacet
  facet normal 0 0 -1
    outer loop
      vertex 55 -2.5 0
      vertex 56.1785 -2.20479 0
      vertex 55.9567 -2.30969 0
    endloop
  endfacet
  facet normal -0 0 -1
    outer loop
      vertex 56.586 29.9325 0
      vertex 52.5 28 0
      vertex 56.3889 30.0787 0
    endloop
  endfacet
  facet normal 0 0 -1
    outer loop
      vertex 55 -2.5 0
      vertex 55.9567 -2.30969 0
      vertex 55.7257 -2.39235 0
    endloop
  endfacet
  facet normal -0 0 -1
    outer loop
      vertex 56.3889 30.0787 0
      vertex 52.5 28 0
      vertex 56.1785 30.2048 0
    endloop
  endfacet
  facet normal 0 0 -1
    outer loop
      vertex 55 -2.5 0
      vertex 55.7257 -2.39235 0
      vertex 55.4877 -2.45195 0
    endloop
  endfacet
  facet normal -0 0 -1
    outer loop
      vertex 56.1785 30.2048 0
      vertex 52.5 28 0
      vertex 55.9567 30.3097 0
    endloop
  endfacet
  facet normal 0 0 -1
    outer loop
      vertex 55 -2.5 0
      vertex 55.4877 -2.45195 0
      vertex 55.245 -2.48796 0
    endloop
  endfacet
  facet normal -0 0 -1
    outer loop
      vertex 55.9567 30.3097 0
      vertex 52.5 28 0
      vertex 55.7257 30.3923 0
    endloop
  endfacet
  facet normal -0 0 -1
    outer loop
      vertex 57.5 0 0
      vertex 55 -2.5 0
      vertex 52.5 2.6252 0
    endloop
  endfacet
  facet normal -0 0 -1
    outer loop
      vertex 55.7257 30.3923 0
      vertex 52.5 28 0
      vertex 55.4877 30.452 0
    endloop
  endfacet
  facet normal -0 0 -1
    outer loop
      vertex 55.4877 30.452 0
      vertex 52.5 28 0
      vertex 55.245 30.488 0
    endloop
  endfacet
  facet normal -0 0 -1
    outer loop
      vertex 55.245 30.488 0
      vertex 52.5 28 0
      vertex 55 30.5 0
    endloop
  endfacet
  facet normal 0 0 -1
    outer loop
      vertex 55 30.5 0
      vertex 52.5 28 0
      vertex 54.7549 30.488 0
    endloop
  endfacet
  facet normal 0 0 -1
    outer loop
      vertex 54.7549 30.488 0
      vertex 52.5 28 0
      vertex 54.5123 30.452 0
    endloop
  endfacet
  facet normal 0 0 -1
    outer loop
      vertex 54.5123 30.452 0
      vertex 52.5 28 0
      vertex 54.2743 30.3923 0
    endloop
  endfacet
  facet normal 0 0 -1
    outer loop
      vertex 54.2743 30.3923 0
      vertex 52.5 28 0
      vertex 54.0433 30.3097 0
    endloop
  endfacet
  facet normal 0 0 -1
    outer loop
      vertex 54.0433 30.3097 0
      vertex 52.5 28 0
      vertex 53.8215 30.2048 0
    endloop
  endfacet
  facet normal 0 0 -1
    outer loop
      vertex 53.8215 30.2048 0
      vertex 52.5 28 0
      vertex 53.6111 30.0787 0
    endloop
  endfacet
  facet normal 0 0 -1
    outer loop
      vertex 53.414 29.9325 0
      vertex 52.5 28 0
      vertex 53.2322 29.7678 0
    endloop
  endfacet
  facet normal 0 0 -1
    outer loop
      vertex 53.2322 29.7678 0
      vertex 52.5 28 0
      vertex 53.0675 29.586 0
    endloop
  endfacet
  facet normal 0 0 -1
    outer loop
      vertex 53.0675 29.586 0
      vertex 52.5 28 0
      vertex 52.9213 29.3889 0
    endloop
  endfacet
  facet normal 0 0 -1
    outer loop
      vertex 52.9213 29.3889 0
      vertex 52.5 28 0
      vertex 52.7952 29.1785 0
    endloop
  endfacet
  facet normal 0 0 -1
    outer loop
      vertex 52.7952 29.1785 0
      vertex 52.5 28 0
      vertex 52.6903 28.9567 0
    endloop
  endfacet
  facet normal 0 0 -1
    outer loop
      vertex 52.6903 28.9567 0
      vertex 52.5 28 0
      vertex 52.6076 28.7257 0
    endloop
  endfacet
  facet normal 0 0 -1
    outer loop
      vertex 52.6076 28.7257 0
      vertex 52.5 28 0
      vertex 52.548 28.4877 0
    endloop
  endfacet
  facet normal 0 0 -1
    outer loop
      vertex 53.6111 30.0787 0
      vertex 52.5 28 0
      vertex 53.414 29.9325 0
    endloop
  endfacet
  facet normal 0 0 -1
    outer loop
      vertex 55 -2.5 0
      vertex 12.3684 4.63161 0
      vertex 52.5 2.6252 0
    endloop
  endfacet
  facet normal 0 0 -1
    outer loop
      vertex 0 0 0
      vertex 12.3684 4.63161 0
      vertex 55 -2.5 0
    endloop
  endfacet
  facet normal 0 0 -1
    outer loop
      vertex 0 0 0
      vertex 5 12 0
      vertex 12.3684 4.63161 0
    endloop
  endfacet
  facet normal 0 0 -1
    outer loop
      vertex 0 70 0
      vertex 5 12 0
      vertex 0 0 0
    endloop
  endfacet
  facet normal 0 0 -1
    outer loop
      vertex 5 12 0
      vertex 0 70 0
      vertex 5 70 0
    endloop
  endfacet
  facet normal 0 0 -1
    outer loop
      vertex 52.548 28.4877 0
      vertex 52.5 28 0
      vertex 52.512 28.245 0
    endloop
  endfacet
  facet normal 0 0 1
    outer loop
      vertex 5 70 30
      vertex 0 70 30
      vertex 5 12 30
    endloop
  endfacet
  facet normal 0 0 1
    outer loop
      vertex 52.5 28 30
      vertex 57.5 28 30
      vertex 57.488 28.245 30
    endloop
  endfacet
  facet normal 0 0 1
    outer loop
      vertex 57.5 28 30
      vertex 52.5 2.6252 30
      vertex 57.5 0 30
    endloop
  endfacet
  facet normal 0 0 1
    outer loop
      vertex 52.5 28 30
      vertex 57.488 28.245 30
      vertex 57.452 28.4877 30
    endloop
  endfacet
  facet normal 0 -0 1
    outer loop
      vertex 55 -2.5 30
      vertex 57.5 0 30
      vertex 52.5 2.6252 30
    endloop
  endfacet
  facet normal 0 0 1
    outer loop
      vertex 52.5 28 30
      vertex 57.452 28.4877 30
      vertex 57.3923 28.7257 30
    endloop
  endfacet
  facet normal 0 0 1
    outer loop
      vertex 57.5 0 30
      vertex 55 -2.5 30
      vertex 57.488 -0.245041 30
    endloop
  endfacet
  facet normal 0 0 1
    outer loop
      vertex 52.5 28 30
      vertex 57.3923 28.7257 30
      vertex 57.3097 28.9567 30
    endloop
  endfacet
  facet normal 0 0 1
    outer loop
      vertex 57.488 -0.245041 30
      vertex 55 -2.5 30
      vertex 57.452 -0.487717 30
    endloop
  endfacet
  facet normal 0 0 1
    outer loop
      vertex 52.5 28 30
      vertex 57.3097 28.9567 30
      vertex 57.2048 29.1785 30
    endloop
  endfacet
  facet normal 0 0 1
    outer loop
      vertex 57.452 -0.487717 30
      vertex 55 -2.5 30
      vertex 57.3923 -0.725708 30
    endloop
  endfacet
  facet normal 0 0 1
    outer loop
      vertex 52.5 28 30
      vertex 57.2048 29.1785 30
      vertex 57.0787 29.3889 30
    endloop
  endfacet
  facet normal 0 0 1
    outer loop
      vertex 57.3923 -0.725708 30
      vertex 55 -2.5 30
      vertex 57.3097 -0.956696 30
    endloop
  endfacet
  facet normal 0 0 1
    outer loop
      vertex 52.5 28 30
      vertex 57.0787 29.3889 30
      vertex 56.9325 29.586 30
    endloop
  endfacet
  facet normal 0 0 1
    outer loop
      vertex 57.3097 -0.956696 30
      vertex 55 -2.5 30
      vertex 57.2048 -1.17848 30
    endloop
  endfacet
  facet normal 0 0 1
    outer loop
      vertex 52.5 28 30
      vertex 56.9325 29.586 30
      vertex 56.7678 29.7678 30
    endloop
  endfacet
  facet normal 0 0 1
    outer loop
      vertex 57.2048 -1.17848 30
      vertex 55 -2.5 30
      vertex 57.0787 -1.38892 30
    endloop
  endfacet
  facet normal 0 0 1
    outer loop
      vertex 52.5 28 30
      vertex 56.7678 29.7678 30
      vertex 56.586 29.9325 30
    endloop
  endfacet
  facet normal 0 0 1
    outer loop
      vertex 57.0787 -1.38892 30
      vertex 55 -2.5 30
      vertex 56.9325 -1.58597 30
    endloop
  endfacet
  facet normal 0 0 1
    outer loop
      vertex 52.5 28 30
      vertex 56.586 29.9325 30
      vertex 56.3889 30.0787 30
    endloop
  endfacet
  facet normal 0 0 1
    outer loop
      vertex 56.9325 -1.58597 30
      vertex 55 -2.5 30
      vertex 56.7678 -1.76776 30
    endloop
  endfacet
  facet normal 0 0 1
    outer loop
      vertex 52.5 28 30
      vertex 56.3889 30.0787 30
      vertex 56.1785 30.2048 30
    endloop
  endfacet
  facet normal 0 0 1
    outer loop
      vertex 56.7678 -1.76776 30
      vertex 55 -2.5 30
      vertex 56.586 -1.93253 30
    endloop
  endfacet
  facet normal 0 0 1
    outer loop
      vertex 52.5 28 30
      vertex 56.1785 30.2048 30
      vertex 55.9567 30.3097 30
    endloop
  endfacet
  facet normal 0 0 1
    outer loop
      vertex 56.586 -1.93253 30
      vertex 55 -2.5 30
      vertex 56.3889 -2.07866 30
    endloop
  endfacet
  facet normal 0 0 1
    outer loop
      vertex 52.5 28 30
      vertex 55.9567 30.3097 30
      vertex 55.7257 30.3923 30
    endloop
  endfacet
  facet normal 0 0 1
    outer loop
      vertex 56.3889 -2.07866 30
      vertex 55 -2.5 30
      vertex 56.1785 -2.20479 30
    endloop
  endfacet
  facet normal 0 0 1
    outer loop
      vertex 52.5 28 30
      vertex 55.7257 30.3923 30
      vertex 55.4877 30.452 30
    endloop
  endfacet
  facet normal 0 0 1
    outer loop
      vertex 56.1785 -2.20479 30
      vertex 55 -2.5 30
      vertex 55.9567 -2.30969 30
    endloop
  endfacet
  facet normal 0 0 1
    outer loop
      vertex 52.5 28 30
      vertex 55.4877 30.452 30
      vertex 55.245 30.488 30
    endloop
  endfacet
  facet normal 0 0 1
    outer loop
      vertex 55.9567 -2.30969 30
      vertex 55 -2.5 30
      vertex 55.7257 -2.39235 30
    endloop
  endfacet
  facet normal 0 0 1
    outer loop
      vertex 52.5 28 30
      vertex 55.245 30.488 30
      vertex 55 30.5 30
    endloop
  endfacet
  facet normal 0 0 1
    outer loop
      vertex 55.7257 -2.39235 30
      vertex 55 -2.5 30
      vertex 55.4877 -2.45195 30
    endloop
  endfacet
  facet normal 0 0 1
    outer loop
      vertex 52.5 28 30
      vertex 55 30.5 30
      vertex 54.7549 30.488 30
    endloop
  endfacet
  facet normal 0 0 1
    outer loop
      vertex 52.5 28 30
      vertex 54.7549 30.488 30
      vertex 54.5123 30.452 30
    endloop
  endfacet
  facet normal 0 0 1
    outer loop
      vertex 52.5 28 30
      vertex 54.5123 30.452 30
      vertex 54.2743 30.3923 30
    endloop
  endfacet
  facet normal 0 0 1
    outer loop
      vertex 52.5 28 30
      vertex 54.2743 30.3923 30
      vertex 54.0433 30.3097 30
    endloop
  endfacet
  facet normal 0 0 1
    outer loop
      vertex 52.5 28 30
      vertex 54.0433 30.3097 30
      vertex 53.8215 30.2048 30
    endloop
  endfacet
  facet normal 0 0 1
    outer loop
      vertex 52.5 28 30
      vertex 53.8215 30.2048 30
      vertex 53.6111 30.0787 30
    endloop
  endfacet
  facet normal 0 0 1
    outer loop
      vertex 52.5 28 30
      vertex 53.6111 30.0787 30
      vertex 53.414 29.9325 30
    endloop
  endfacet
  facet normal 0 0 1
    outer loop
      vertex 52.5 28 30
      vertex 53.414 29.9325 30
      vertex 53.2322 29.7678 30
    endloop
  endfacet
  facet normal 0 0 1
    outer loop
      vertex 52.5 28 30
      vertex 53.2322 29.7678 30
      vertex 53.0675 29.586 30
    endloop
  endfacet
  facet normal 0 0 1
    outer loop
      vertex 52.5 28 30
      vertex 53.0675 29.586 30
      vertex 52.9213 29.3889 30
    endloop
  endfacet
  facet normal 0 0 1
    outer loop
      vertex 52.5 28 30
      vertex 52.9213 29.3889 30
      vertex 52.7952 29.1785 30
    endloop
  endfacet
  facet normal 0 0 1
    outer loop
      vertex 52.5 28 30
      vertex 52.7952 29.1785 30
      vertex 52.6903 28.9567 30
    endloop
  endfacet
  facet normal 0 0 1
    outer loop
      vertex 52.5 28 30
      vertex 52.6903 28.9567 30
      vertex 52.6076 28.7257 30
    endloop
  endfacet
  facet normal 0 0 1
    outer loop
      vertex 52.5 28 30
      vertex 52.6076 28.7257 30
      vertex 52.548 28.4877 30
    endloop
  endfacet
  facet normal 0 0 1
    outer loop
      vertex 52.5 28 30
      vertex 52.548 28.4877 30
      vertex 52.512 28.245 30
    endloop
  endfacet
  facet normal 0 0 1
    outer loop
      vertex 57.5 28 30
      vertex 52.5 28 30
      vertex 52.5 2.6252 30
    endloop
  endfacet
  facet normal 0 0 1
    outer loop
      vertex 55.4877 -2.45195 30
      vertex 55 -2.5 30
      vertex 55.245 -2.48796 30
    endloop
  endfacet
  facet normal 0 0 1
    outer loop
      vertex 12.3684 4.63161 30
      vertex 55 -2.5 30
      vertex 52.5 2.6252 30
    endloop
  endfacet
  facet normal 0 0 1
    outer loop
      vertex 12.3684 4.63161 30
      vertex 0 0 30
      vertex 55 -2.5 30
    endloop
  endfacet
  facet normal 0 0 1
    outer loop
      vertex 5 12 30
      vertex 0 0 30
      vertex 12.3684 4.63161 30
    endloop
  endfacet
  facet normal 0 0 1
    outer loop
      vertex 0 0 30
      vertex 5 12 30
      vertex 0 70 30
    endloop
  endfacet
  facet normal -1 0 0
    outer loop
      vertex 0 70 0
      vertex 0 57.591 13.409
      vertex 0 70 30
    endloop
  endfacet
  facet normal -1 0 0
    outer loop
      vertex 0 70 0
      vertex 0 54.409 13.409
      vertex 0 57.591 13.409
    endloop
  endfacet
  facet normal -1 0 0
    outer loop
      vertex 0 54.409 13.409
      vertex 0 19.091 13.409
      vertex 0 54.409 16.591
    endloop
  endfacet
  facet normal -1 0 0
    outer loop
      vertex 0 70 0
      vertex 0 19.091 13.409
      vertex 0 54.409 13.409
    endloop
  endfacet
  facet normal -1 0 0
    outer loop
      vertex 0 0 0
      vertex 0 19.091 13.409
      vertex 0 70 0
    endloop
  endfacet
  facet normal -1 -0 0
    outer loop
      vertex 0 15.909 13.409
      vertex 0 0 0
      vertex 0 15.909 16.591
    endloop
  endfacet
  facet normal -1 -0 0
    outer loop
      vertex 0 19.091 13.409
      vertex 0 0 0
      vertex 0 15.909 13.409
    endloop
  endfacet
  facet normal -1 0 0
    outer loop
      vertex 0 57.591 16.591
      vertex 0 70 30
      vertex 0 57.591 13.409
    endloop
  endfacet
  facet normal -1 0 0
    outer loop
      vertex 0 54.409 16.591
      vertex 0 70 30
      vertex 0 57.591 16.591
    endloop
  endfacet
  facet normal -1 0 0
    outer loop
      vertex 0 19.091 16.591
      vertex 0 54.409 16.591
      vertex 0 19.091 13.409
    endloop
  endfacet
  facet normal -1 0 0
    outer loop
      vertex 0 54.409 16.591
      vertex 0 19.091 16.591
      vertex 0 70 30
    endloop
  endfacet
  facet normal -1 0 0
    outer loop
      vertex 0 0 30
      vertex 0 19.091 16.591
      vertex 0 15.909 16.591
    endloop
  endfacet
  facet normal -1 0 0
    outer loop
      vertex 0 19.091 16.591
      vertex 0 0 30
      vertex 0 70 30
    endloop
  endfacet
  facet normal -1 0 0
    outer loop
      vertex 0 0 30
      vertex 0 15.909 16.591
      vertex 0 0 0
    endloop
  endfacet
  facet normal -0.0454077 -0.998969 0
    outer loop
      vertex 0 0 0
      vertex 55 -2.5 30
      vertex 0 0 30
    endloop
  endfacet
  facet normal -0.0454077 -0.998969 -0
    outer loop
      vertex 55 -2.5 30
      vertex 0 0 0
      vertex 55 -2.5 0
    endloop
  endfacet
  facet normal 0.0490836 -0.998795 0
    outer loop
      vertex 55 -2.5 0
      vertex 55.245 -2.48796 30
      vertex 55 -2.5 30
    endloop
  endfacet
  facet normal 0.0490836 -0.998795 0
    outer loop
      vertex 55.245 -2.48796 30
      vertex 55 -2.5 0
      vertex 55.245 -2.48796 0
    endloop
  endfacet
  facet normal 0.146766 -0.989171 0
    outer loop
      vertex 55.245 -2.48796 0
      vertex 55.4877 -2.45195 30
      vertex 55.245 -2.48796 30
    endloop
  endfacet
  facet normal 0.146766 -0.989171 0
    outer loop
      vertex 55.4877 -2.45195 30
      vertex 55.245 -2.48796 0
      vertex 55.4877 -2.45195 0
    endloop
  endfacet
  facet normal 0.242919 -0.970047 0
    outer loop
      vertex 55.4877 -2.45195 0
      vertex 55.7257 -2.39235 30
      vertex 55.4877 -2.45195 30
    endloop
  endfacet
  facet normal 0.242919 -0.970047 0
    outer loop
      vertex 55.7257 -2.39235 30
      vertex 55.4877 -2.45195 0
      vertex 55.7257 -2.39235 0
    endloop
  endfacet
  facet normal 0.336915 -0.941535 0
    outer loop
      vertex 55.7257 -2.39235 0
      vertex 55.9567 -2.30969 30
      vertex 55.7257 -2.39235 30
    endloop
  endfacet
  facet normal 0.336915 -0.941535 0
    outer loop
      vertex 55.9567 -2.30969 30
      vertex 55.7257 -2.39235 0
      vertex 55.9567 -2.30969 0
    endloop
  endfacet
  facet normal 0.427543 -0.903995 0
    outer loop
      vertex 55.9567 -2.30969 0
      vertex 56.1785 -2.20479 30
      vertex 55.9567 -2.30969 30
    endloop
  endfacet
  facet normal 0.427543 -0.903995 0
    outer loop
      vertex 56.1785 -2.20479 30
      vertex 55.9567 -2.30969 0
      vertex 56.1785 -2.20479 0
    endloop
  endfacet
  facet normal 0.514166 -0.857691 0
    outer loop
      vertex 56.1785 -2.20479 0
      vertex 56.3889 -2.07866 30
      vertex 56.1785 -2.20479 30
    endloop
  endfacet
  facet normal 0.514166 -0.857691 0
    outer loop
      vertex 56.3889 -2.07866 30
      vertex 56.1785 -2.20479 0
      vertex 56.3889 -2.07866 0
    endloop
  endfacet
  facet normal 0.59557 -0.803304 0
    outer loop
      vertex 56.3889 -2.07866 0
      vertex 56.586 -1.93253 30
      vertex 56.3889 -2.07866 30
    endloop
  endfacet
  facet normal 0.59557 -0.803304 0
    outer loop
      vertex 56.586 -1.93253 30
      vertex 56.3889 -2.07866 0
      vertex 56.586 -1.93253 0
    endloop
  endfacet
  facet normal 0.67155 -0.740959 0
    outer loop
      vertex 56.586 -1.93253 0
      vertex 56.7678 -1.76776 30
      vertex 56.586 -1.93253 30
    endloop
  endfacet
  facet normal 0.67155 -0.740959 0
    outer loop
      vertex 56.7678 -1.76776 30
      vertex 56.586 -1.93253 0
      vertex 56.7678 -1.76776 0
    endloop
  endfacet
  facet normal 0.741083 -0.671414 0
    outer loop
      vertex 56.7678 -1.76776 30
      vertex 56.9325 -1.58597 0
      vertex 56.9325 -1.58597 30
    endloop
  endfacet
  facet normal 0.741083 -0.671414 0
    outer loop
      vertex 56.9325 -1.58597 0
      vertex 56.7678 -1.76776 30
      vertex 56.7678 -1.76776 0
    endloop
  endfacet
  facet normal 0.803095 -0.595851 0
    outer loop
      vertex 56.9325 -1.58597 30
      vertex 57.0787 -1.38892 0
      vertex 57.0787 -1.38892 30
    endloop
  endfacet
  facet normal 0.803095 -0.595851 0
    outer loop
      vertex 57.0787 -1.38892 0
      vertex 56.9325 -1.58597 30
      vertex 56.9325 -1.58597 0
    endloop
  endfacet
  facet normal 0.857788 -0.514004 0
    outer loop
      vertex 57.0787 -1.38892 30
      vertex 57.2048 -1.17848 0
      vertex 57.2048 -1.17848 30
    endloop
  endfacet
  facet normal 0.857788 -0.514004 0
    outer loop
      vertex 57.2048 -1.17848 0
      vertex 57.0787 -1.38892 30
      vertex 57.0787 -1.38892 0
    endloop
  endfacet
  facet normal 0.903983 -0.427568 0
    outer loop
      vertex 57.2048 -1.17848 30
      vertex 57.3097 -0.956696 0
      vertex 57.3097 -0.956696 30
    endloop
  endfacet
  facet normal 0.903983 -0.427568 0
    outer loop
      vertex 57.3097 -0.956696 0
      vertex 57.2048 -1.17848 30
      vertex 57.2048 -1.17848 0
    endloop
  endfacet
  facet normal 0.941607 -0.336713 0
    outer loop
      vertex 57.3097 -0.956696 30
      vertex 57.3923 -0.725708 0
      vertex 57.3923 -0.725708 30
    endloop
  endfacet
  facet normal 0.941607 -0.336713 0
    outer loop
      vertex 57.3923 -0.725708 0
      vertex 57.3097 -0.956696 30
      vertex 57.3097 -0.956696 0
    endloop
  endfacet
  facet normal 0.969948 -0.243311 0
    outer loop
      vertex 57.3923 -0.725708 30
      vertex 57.452 -0.487717 0
      vertex 57.452 -0.487717 30
    endloop
  endfacet
  facet normal 0.969948 -0.243311 0
    outer loop
      vertex 57.452 -0.487717 0
      vertex 57.3923 -0.725708 30
      vertex 57.3923 -0.725708 0
    endloop
  endfacet
  facet normal 0.989175 -0.14674 0
    outer loop
      vertex 57.452 -0.487717 30
      vertex 57.488 -0.245041 0
      vertex 57.488 -0.245041 30
    endloop
  endfacet
  facet normal 0.989175 -0.14674 0
    outer loop
      vertex 57.488 -0.245041 0
      vertex 57.452 -0.487717 30
      vertex 57.452 -0.487717 0
    endloop
  endfacet
  facet normal 0.998803 -0.0489128 0
    outer loop
      vertex 57.488 -0.245041 30
      vertex 57.5 0 0
      vertex 57.5 0 30
    endloop
  endfacet
  facet normal 0.998803 -0.0489128 0
    outer loop
      vertex 57.5 0 0
      vertex 57.488 -0.245041 30
      vertex 57.488 -0.245041 0
    endloop
  endfacet
  facet normal 1 -0 0
    outer loop
      vertex 57.5 0 30
      vertex 57.5 28 0
      vertex 57.5 28 30
    endloop
  endfacet
  facet normal 1 0 0
    outer loop
      vertex 57.5 28 0
      vertex 57.5 0 30
      vertex 57.5 0 0
    endloop
  endfacet
  facet normal 0.998803 0.0489209 0
    outer loop
      vertex 57.5 28 30
      vertex 57.488 28.245 0
      vertex 57.488 28.245 30
    endloop
  endfacet
  facet normal 0.998803 0.0489209 0
    outer loop
      vertex 57.488 28.245 0
      vertex 57.5 28 30
      vertex 57.5 28 0
    endloop
  endfacet
  facet normal 0.989177 0.146726 0
    outer loop
      vertex 57.488 28.245 30
      vertex 57.452 28.4877 0
      vertex 57.452 28.4877 30
    endloop
  endfacet
  facet normal 0.989177 0.146726 0
    outer loop
      vertex 57.452 28.4877 0
      vertex 57.488 28.245 30
      vertex 57.488 28.245 0
    endloop
  endfacet
  facet normal 0.96995 0.243303 0
    outer loop
      vertex 57.452 28.4877 30
      vertex 57.3923 28.7257 0
      vertex 57.3923 28.7257 30
    endloop
  endfacet
  facet normal 0.96995 0.243303 0
    outer loop
      vertex 57.3923 28.7257 0
      vertex 57.452 28.4877 30
      vertex 57.452 28.4877 0
    endloop
  endfacet
  facet normal 0.941613 0.336698 0
    outer loop
      vertex 57.3923 28.7257 30
      vertex 57.3097 28.9567 0
      vertex 57.3097 28.9567 30
    endloop
  endfacet
  facet normal 0.941613 0.336698 0
    outer loop
      vertex 57.3097 28.9567 0
      vertex 57.3923 28.7257 30
      vertex 57.3923 28.7257 0
    endloop
  endfacet
  facet normal 0.903995 0.427543 0
    outer loop
      vertex 57.3097 28.9567 30
      vertex 57.2048 29.1785 0
      vertex 57.2048 29.1785 30
    endloop
  endfacet
  facet normal 0.903995 0.427543 0
    outer loop
      vertex 57.2048 29.1785 0
      vertex 57.3097 28.9567 30
      vertex 57.3097 28.9567 0
    endloop
  endfacet
  facet normal 0.857745 0.514076 0
    outer loop
      vertex 57.2048 29.1785 30
      vertex 57.0787 29.3889 0
      vertex 57.0787 29.3889 30
    endloop
  endfacet
  facet normal 0.857745 0.514076 0
    outer loop
      vertex 57.0787 29.3889 0
      vertex 57.2048 29.1785 30
      vertex 57.2048 29.1785 0
    endloop
  endfacet
  facet normal 0.803167 0.595754 0
    outer loop
      vertex 57.0787 29.3889 30
      vertex 56.9325 29.586 0
      vertex 56.9325 29.586 30
    endloop
  endfacet
  facet normal 0.803167 0.595754 0
    outer loop
      vertex 56.9325 29.586 0
      vertex 57.0787 29.3889 30
      vertex 57.0787 29.3889 0
    endloop
  endfacet
  facet normal 0.741101 0.671394 0
    outer loop
      vertex 56.9325 29.586 30
      vertex 56.7678 29.7678 0
      vertex 56.7678 29.7678 30
    endloop
  endfacet
  facet normal 0.741101 0.671394 0
    outer loop
      vertex 56.7678 29.7678 0
      vertex 56.9325 29.586 30
      vertex 56.9325 29.586 0
    endloop
  endfacet
  facet normal 0.671394 0.741101 -0
    outer loop
      vertex 56.7678 29.7678 0
      vertex 56.586 29.9325 30
      vertex 56.7678 29.7678 30
    endloop
  endfacet
  facet normal 0.671394 0.741101 0
    outer loop
      vertex 56.586 29.9325 30
      vertex 56.7678 29.7678 0
      vertex 56.586 29.9325 0
    endloop
  endfacet
  facet normal 0.595754 0.803167 -0
    outer loop
      vertex 56.586 29.9325 0
      vertex 56.3889 30.0787 30
      vertex 56.586 29.9325 30
    endloop
  endfacet
  facet normal 0.595754 0.803167 0
    outer loop
      vertex 56.3889 30.0787 30
      vertex 56.586 29.9325 0
      vertex 56.3889 30.0787 0
    endloop
  endfacet
  facet normal 0.514076 0.857745 -0
    outer loop
      vertex 56.3889 30.0787 0
      vertex 56.1785 30.2048 30
      vertex 56.3889 30.0787 30
    endloop
  endfacet
  facet normal 0.514076 0.857745 0
    outer loop
      vertex 56.1785 30.2048 30
      vertex 56.3889 30.0787 0
      vertex 56.1785 30.2048 0
    endloop
  endfacet
  facet normal 0.427543 0.903995 -0
    outer loop
      vertex 56.1785 30.2048 0
      vertex 55.9567 30.3097 30
      vertex 56.1785 30.2048 30
    endloop
  endfacet
  facet normal 0.427543 0.903995 0
    outer loop
      vertex 55.9567 30.3097 30
      vertex 56.1785 30.2048 0
      vertex 55.9567 30.3097 0
    endloop
  endfacet
  facet normal 0.336698 0.941613 -0
    outer loop
      vertex 55.9567 30.3097 0
      vertex 55.7257 30.3923 30
      vertex 55.9567 30.3097 30
    endloop
  endfacet
  facet normal 0.336698 0.941613 0
    outer loop
      vertex 55.7257 30.3923 30
      vertex 55.9567 30.3097 0
      vertex 55.7257 30.3923 0
    endloop
  endfacet
  facet normal 0.243303 0.96995 -0
    outer loop
      vertex 55.7257 30.3923 0
      vertex 55.4877 30.452 30
      vertex 55.7257 30.3923 30
    endloop
  endfacet
  facet normal 0.243303 0.96995 0
    outer loop
      vertex 55.4877 30.452 30
      vertex 55.7257 30.3923 0
      vertex 55.4877 30.452 0
    endloop
  endfacet
  facet normal 0.146726 0.989177 -0
    outer loop
      vertex 55.4877 30.452 0
      vertex 55.245 30.488 30
      vertex 55.4877 30.452 30
    endloop
  endfacet
  facet normal 0.146726 0.989177 0
    outer loop
      vertex 55.245 30.488 30
      vertex 55.4877 30.452 0
      vertex 55.245 30.488 0
    endloop
  endfacet
  facet normal 0.0489209 0.998803 -0
    outer loop
      vertex 55.245 30.488 0
      vertex 55 30.5 30
      vertex 55.245 30.488 30
    endloop
  endfacet
  facet normal 0.0489209 0.998803 0
    outer loop
      vertex 55 30.5 30
      vertex 55.245 30.488 0
      vertex 55 30.5 0
    endloop
  endfacet
  facet normal -0.048901 0.998804 0
    outer loop
      vertex 55 30.5 0
      vertex 54.7549 30.488 30
      vertex 55 30.5 30
    endloop
  endfacet
  facet normal -0.048901 0.998804 0
    outer loop
      vertex 54.7549 30.488 30
      vertex 55 30.5 0
      vertex 54.7549 30.488 0
    endloop
  endfacet
  facet normal -0.146785 0.989168 0
    outer loop
      vertex 54.7549 30.488 0
      vertex 54.5123 30.452 30
      vertex 54.7549 30.488 30
    endloop
  endfacet
  facet normal -0.146785 0.989168 0
    outer loop
      vertex 54.5123 30.452 30
      vertex 54.7549 30.488 0
      vertex 54.5123 30.452 0
    endloop
  endfacet
  facet normal -0.243303 0.96995 0
    outer loop
      vertex 54.5123 30.452 0
      vertex 54.2743 30.3923 30
      vertex 54.5123 30.452 30
    endloop
  endfacet
  facet normal -0.243303 0.96995 0
    outer loop
      vertex 54.2743 30.3923 30
      vertex 54.5123 30.452 0
      vertex 54.2743 30.3923 0
    endloop
  endfacet
  facet normal -0.336698 0.941613 0
    outer loop
      vertex 54.2743 30.3923 0
      vertex 54.0433 30.3097 30
      vertex 54.2743 30.3923 30
    endloop
  endfacet
  facet normal -0.336698 0.941613 0
    outer loop
      vertex 54.0433 30.3097 30
      vertex 54.2743 30.3923 0
      vertex 54.0433 30.3097 0
    endloop
  endfacet
  facet normal -0.427543 0.903995 0
    outer loop
      vertex 54.0433 30.3097 0
      vertex 53.8215 30.2048 30
      vertex 54.0433 30.3097 30
    endloop
  endfacet
  facet normal -0.427543 0.903995 0
    outer loop
      vertex 53.8215 30.2048 30
      vertex 54.0433 30.3097 0
      vertex 53.8215 30.2048 0
    endloop
  endfacet
  facet normal -0.514076 0.857745 0
    outer loop
      vertex 53.8215 30.2048 0
      vertex 53.6111 30.0787 30
      vertex 53.8215 30.2048 30
    endloop
  endfacet
  facet normal -0.514076 0.857745 0
    outer loop
      vertex 53.6111 30.0787 30
      vertex 53.8215 30.2048 0
      vertex 53.6111 30.0787 0
    endloop
  endfacet
  facet normal -0.595754 0.803167 0
    outer loop
      vertex 53.6111 30.0787 0
      vertex 53.414 29.9325 30
      vertex 53.6111 30.0787 30
    endloop
  endfacet
  facet normal -0.595754 0.803167 0
    outer loop
      vertex 53.414 29.9325 30
      vertex 53.6111 30.0787 0
      vertex 53.414 29.9325 0
    endloop
  endfacet
  facet normal -0.671394 0.741101 0
    outer loop
      vertex 53.414 29.9325 0
      vertex 53.2322 29.7678 30
      vertex 53.414 29.9325 30
    endloop
  endfacet
  facet normal -0.671394 0.741101 0
    outer loop
      vertex 53.2322 29.7678 30
      vertex 53.414 29.9325 0
      vertex 53.2322 29.7678 0
    endloop
  endfacet
  facet normal -0.741101 0.671394 0
    outer loop
      vertex 53.0675 29.586 0
      vertex 53.2322 29.7678 30
      vertex 53.2322 29.7678 0
    endloop
  endfacet
  facet normal -0.741101 0.671394 0
    outer loop
      vertex 53.2322 29.7678 30
      vertex 53.0675 29.586 0
      vertex 53.0675 29.586 30
    endloop
  endfacet
  facet normal -0.803167 0.595754 0
    outer loop
      vertex 52.9213 29.3889 0
      vertex 53.0675 29.586 30
      vertex 53.0675 29.586 0
    endloop
  endfacet
  facet normal -0.803167 0.595754 0
    outer loop
      vertex 53.0675 29.586 30
      vertex 52.9213 29.3889 0
      vertex 52.9213 29.3889 30
    endloop
  endfacet
  facet normal -0.857745 0.514076 0
    outer loop
      vertex 52.7952 29.1785 0
      vertex 52.9213 29.3889 30
      vertex 52.9213 29.3889 0
    endloop
  endfacet
  facet normal -0.857745 0.514076 0
    outer loop
      vertex 52.9213 29.3889 30
      vertex 52.7952 29.1785 0
      vertex 52.7952 29.1785 30
    endloop
  endfacet
  facet normal -0.903995 0.427543 0
    outer loop
      vertex 52.6903 28.9567 0
      vertex 52.7952 29.1785 30
      vertex 52.7952 29.1785 0
    endloop
  endfacet
  facet normal -0.903995 0.427543 0
    outer loop
      vertex 52.7952 29.1785 30
      vertex 52.6903 28.9567 0
      vertex 52.6903 28.9567 30
    endloop
  endfacet
  facet normal -0.941483 0.337059 0
    outer loop
      vertex 52.6076 28.7257 0
      vertex 52.6903 28.9567 30
      vertex 52.6903 28.9567 0
    endloop
  endfacet
  facet normal -0.941483 0.337059 0
    outer loop
      vertex 52.6903 28.9567 30
      vertex 52.6076 28.7257 0
      vertex 52.6076 28.7257 30
    endloop
  endfacet
  facet normal -0.970047 0.242919 0
    outer loop
      vertex 52.548 28.4877 0
      vertex 52.6076 28.7257 30
      vertex 52.6076 28.7257 0
    endloop
  endfacet
  facet normal -0.970047 0.242919 0
    outer loop
      vertex 52.6076 28.7257 30
      vertex 52.548 28.4877 0
      vertex 52.548 28.4877 30
    endloop
  endfacet
  facet normal -0.989177 0.146726 0
    outer loop
      vertex 52.512 28.245 0
      vertex 52.548 28.4877 30
      vertex 52.548 28.4877 0
    endloop
  endfacet
  facet normal -0.989177 0.146726 0
    outer loop
      vertex 52.548 28.4877 30
      vertex 52.512 28.245 0
      vertex 52.512 28.245 30
    endloop
  endfacet
  facet normal -0.998803 0.0489209 0
    outer loop
      vertex 52.5 28 0
      vertex 52.512 28.245 30
      vertex 52.512 28.245 0
    endloop
  endfacet
  facet normal -0.998803 0.0489209 0
    outer loop
      vertex 52.512 28.245 30
      vertex 52.5 28 0
      vertex 52.5 28 30
    endloop
  endfacet
  facet normal -1 0 0
    outer loop
      vertex 52.5 2.6252 0
      vertex 52.5 28 30
      vertex 52.5 28 0
    endloop
  endfacet
  facet normal -1 -0 0
    outer loop
      vertex 52.5 28 30
      vertex 52.5 2.6252 0
      vertex 52.5 2.6252 30
    endloop
  endfacet
  facet normal 0.0499334 0.998753 -0
    outer loop
      vertex 52.5 2.6252 0
      vertex 12.3684 4.63161 30
      vertex 52.5 2.6252 30
    endloop
  endfacet
  facet normal 0.0499334 0.998753 0
    outer loop
      vertex 12.3684 4.63161 30
      vertex 52.5 2.6252 0
      vertex 12.3684 4.63161 0
    endloop
  endfacet
  facet normal 0.707106 0.707107 0
    outer loop
      vertex 12.3684 4.63161 30
      vertex 5 12 0
      vertex 5 12 30
    endloop
  endfacet
  facet normal 0.707106 0.707107 0
    outer loop
      vertex 5 12 0
      vertex 12.3684 4.63161 30
      vertex 12.3684 4.63161 0
    endloop
  endfacet
  facet normal 1 0 0
    outer loop
      vertex 5 70 30
      vertex 5 59.1128 18.1128
      vertex 5 70 0
    endloop
  endfacet
  facet normal 1 0 0
    outer loop
      vertex 5 70 30
      vertex 5 52.8872 18.1128
      vertex 5 59.1128 18.1128
    endloop
  endfacet
  facet normal 1 0 0
    outer loop
      vertex 5 52.8872 18.1128
      vertex 5 20.6128 18.1128
      vertex 5 52.8872 11.8872
    endloop
  endfacet
  facet normal 1 -0 0
    outer loop
      vertex 5 12 30
      vertex 5 52.8872 18.1128
      vertex 5 70 30
    endloop
  endfacet
  facet normal 1 0 0
    outer loop
      vertex 5 52.8872 18.1128
      vertex 5 12 30
      vertex 5 20.6128 18.1128
    endloop
  endfacet
  facet normal 1 0 0
    outer loop
      vertex 5 14.3872 18.1128
      vertex 5 12 30
      vertex 5 14.3872 11.8872
    endloop
  endfacet
  facet normal 1 0 0
    outer loop
      vertex 5 20.6128 18.1128
      vertex 5 12 30
      vertex 5 14.3872 18.1128
    endloop
  endfacet
  facet normal 1 -0 0
    outer loop
      vertex 5 59.1128 11.8872
      vertex 5 70 0
      vertex 5 59.1128 18.1128
    endloop
  endfacet
  facet normal 1 -0 0
    outer loop
      vertex 5 52.8872 11.8872
      vertex 5 70 0
      vertex 5 59.1128 11.8872
    endloop
  endfacet
  facet normal 1 0 0
    outer loop
      vertex 5 20.6128 11.8872
      vertex 5 52.8872 11.8872
      vertex 5 20.6128 18.1128
    endloop
  endfacet
  facet normal 1 0 0
    outer loop
      vertex 5 12 0
      vertex 5 52.8872 11.8872
      vertex 5 20.6128 11.8872
    endloop
  endfacet
  facet normal 1 0 0
    outer loop
      vertex 5 12 0
      vertex 5 20.6128 11.8872
      vertex 5 14.3872 11.8872
    endloop
  endfacet
  facet normal 1 0 0
    outer loop
      vertex 5 52.8872 11.8872
      vertex 5 12 0
      vertex 5 70 0
    endloop
  endfacet
  facet normal 1 0 0
    outer loop
      vertex 5 12 0
      vertex 5 14.3872 11.8872
      vertex 5 12 30
    endloop
  endfacet
  facet normal 0 1 -0
    outer loop
      vertex 5 70 0
      vertex 0 70 30
      vertex 5 70 30
    endloop
  endfacet
  facet normal 0 1 0
    outer loop
      vertex 0 70 30
      vertex 5 70 0
      vertex 0 70 0
    endloop
  endfacet
endsolid OpenSCAD_Model
