<svg xmlns="http://www.w3.org/2000/svg" width="128" height="128" viewBox="0 0 128 128"><defs><linearGradient id="g1" x1="0" y1="0" x2="0" y2="1"><stop offset="0" stop-color="#b38054"/><stop offset="1" stop-color="#875830"/></linearGradient><linearGradient id="g2" x1="0" y1="0" x2="0" y2="1"><stop offset="0" stop-color="#e9c298"/><stop offset="1" stop-color="#e4b27c"/></linearGradient><linearGradient id="g3" x1="0" y1="0" x2="0" y2="1"><stop offset="0" stop-color="#f1cf9a"/><stop offset="1" stop-color="#d9a769"/></linearGradient><linearGradient id="g4" x1="0" y1="0" x2="0" y2="1"><stop offset="0" stop-color="#f4f7fb"/><stop offset="1" stop-color="#aeb7c4"/></linearGradient><linearGradient id="g5" x1="0" y1="0" x2="0" y2="1"><stop offset="0" stop-color="#a8693a"/><stop offset="1" stop-color="#6b3f1d"/></linearGradient></defs><ellipse cx="64" cy="112" rx="54" ry="8" fill="#000000" opacity="0.28"/><rect x="6" y="86" width="116" height="32" rx="12" fill="url(#g1)" stroke="#3b2618" stroke-width="5" stroke-linejoin="round" stroke-linecap="round" opacity="1.0"/><rect x="6" y="20" width="116" height="78" rx="12" fill="url(#g2)" stroke="#3b2618" stroke-width="5" stroke-linejoin="round" stroke-linecap="round" opacity="1.0"/><rect x="14" y="26" width="100" height="7" rx="3" fill="#ffffff" opacity="0.28"/><rect x="18" y="30" width="92" height="54" rx="10" fill="url(#g3)" stroke="#a96f3d" stroke-width="4" stroke-linejoin="round" stroke-linecap="round" opacity="1.0"/><line x1="26" y1="46" x2="102" y2="46" stroke="#b98350" stroke-width="3" stroke-linecap="round" opacity="0.5"/><line x1="26" y1="60" x2="102" y2="60" stroke="#b98350" stroke-width="3" stroke-linecap="round" opacity="0.5"/><line x1="26" y1="74" x2="102" y2="74" stroke="#b98350" stroke-width="3" stroke-linecap="round" opacity="0.5"/><path d="M34 78 L88 36 L100 44 L48 84 Z" fill="url(#g4)" stroke="#3b2618" stroke-width="4" stroke-linejoin="round" stroke-linecap="round" opacity="1.0"/><ellipse cx="70" cy="52" rx="14" ry="3" fill="#ffffff" opacity="0.8" transform="rotate(-38 70 52)"/><rect x="22" y="76" width="30" height="14" rx="6" fill="url(#g5)" stroke="#3b2618" stroke-width="4" stroke-linejoin="round" stroke-linecap="round" opacity="1.0"/></svg>