<svg xmlns="http://www.w3.org/2000/svg" width="112" height="120" viewBox="0 0 112 120"><defs><linearGradient id="g1" x1="0" y1="0" x2="0" y2="1"><stop offset="0" stop-color="#b17152"/><stop offset="1" stop-color="#884526"/></linearGradient><linearGradient id="g2" x1="0" y1="0" x2="0" y2="1"><stop offset="0" stop-color="#dca975"/><stop offset="1" stop-color="#c3905b"/></linearGradient><linearGradient id="g3" x1="0" y1="0" x2="0" y2="1"><stop offset="0" stop-color="#dca975"/><stop offset="1" stop-color="#c3905b"/></linearGradient><linearGradient id="g4" x1="0" y1="0" x2="0" y2="1"><stop offset="0" stop-color="#dfb181"/><stop offset="1" stop-color="#c7935d"/></linearGradient><linearGradient id="g5" x1="0" y1="0" x2="0" y2="1"><stop offset="0" stop-color="#ef476f"/><stop offset="1" stop-color="#b0233f"/></linearGradient><linearGradient id="g6" x1="0" y1="0" x2="0" y2="1"><stop offset="0" stop-color="#d63a5c"/><stop offset="1" stop-color="#9a1d38"/></linearGradient></defs><circle cx="18" cy="70" r="9" fill="url(#g2)" stroke="#3b2618" stroke-width="5" stroke-linejoin="round" stroke-linecap="round" opacity="1.0"/><circle cx="94" cy="70" r="9" fill="url(#g3)" stroke="#3b2618" stroke-width="5" stroke-linejoin="round" stroke-linecap="round" opacity="1.0"/><circle cx="56" cy="68" r="38" fill="url(#g4)" stroke="#3b2618" stroke-width="5" stroke-linejoin="round" stroke-linecap="round" opacity="1.0"/><circle cx="33" cy="80" r="7" fill="#ff6b81" opacity="0.35"/><circle cx="79" cy="80" r="7" fill="#ff6b81" opacity="0.35"/><ellipse cx="38" cy="48" rx="10" ry="4" fill="#ffffff" opacity="0.35" transform="rotate(-25 38 48)"/><path d="M16 58 C14 22 44 12 58 12 C82 12 100 28 96 58 Z" fill="url(#g5)" stroke="#3b2618" stroke-width="5" stroke-linejoin="round" stroke-linecap="round" opacity="1.0"/><path d="M52 52 L108 52 C112 52 112 60 106 60 L52 60 Z" fill="url(#g6)" stroke="#3b2618" stroke-width="5" stroke-linejoin="round" stroke-linecap="round" opacity="1.0"/><circle cx="56" cy="14" r="6" fill="#ffffff" stroke="#3b2618" stroke-width="4" stroke-linejoin="round" stroke-linecap="round" opacity="1.0"/></svg>