<svg xmlns="http://www.w3.org/2000/svg" width="96" height="96" viewBox="0 0 96 96"><defs><linearGradient id="g1" x1="0" y1="0" x2="0" y2="1"><stop offset="0" stop-color="#ff9aa6"/><stop offset="1" stop-color="#d0455d"/></linearGradient><linearGradient id="g2" x1="0" y1="0" x2="0" y2="1"><stop offset="0" stop-color="#ff9aa6"/><stop offset="1" stop-color="#d0455d"/></linearGradient><linearGradient id="g3" x1="0" y1="0" x2="0" y2="1"><stop offset="0" stop-color="#ff9aa6"/><stop offset="1" stop-color="#d0455d"/></linearGradient><linearGradient id="g4" x1="0" y1="0" x2="0" y2="1"><stop offset="0" stop-color="#ff9aa6"/><stop offset="1" stop-color="#d0455d"/></linearGradient><linearGradient id="g5" x1="0" y1="0" x2="0" y2="1"><stop offset="0" stop-color="#ff9aa6"/><stop offset="1" stop-color="#d0455d"/></linearGradient><linearGradient id="g6" x1="0" y1="0" x2="0" y2="1"><stop offset="0" stop-color="#ff9aa6"/><stop offset="1" stop-color="#d0455d"/></linearGradient><linearGradient id="g7" x1="0" y1="0" x2="0" y2="1"><stop offset="0" stop-color="#ff9aa6"/><stop offset="1" stop-color="#d0455d"/></linearGradient><linearGradient id="g8" x1="0" y1="0" x2="0" y2="1"><stop offset="0" stop-color="#ff9aa6"/><stop offset="1" stop-color="#d0455d"/></linearGradient></defs><ellipse cx="48" cy="82" rx="32" ry="6" fill="#000000" opacity="0.28"/><circle cx="30" cy="60" r="12" fill="url(#g1)" stroke="#3b2618" stroke-width="4" stroke-linejoin="round" stroke-linecap="round" opacity="1.0"/><ellipse cx="27" cy="56" rx="4" ry="2" fill="#ffffff" opacity="0.7" transform="rotate(-25 27 56)"/><circle cx="52" cy="66" r="12" fill="url(#g2)" stroke="#3b2618" stroke-width="4" stroke-linejoin="round" stroke-linecap="round" opacity="1.0"/><ellipse cx="49" cy="62" rx="4" ry="2" fill="#ffffff" opacity="0.7" transform="rotate(-25 49 62)"/><circle cx="66" cy="54" r="12" fill="url(#g3)" stroke="#3b2618" stroke-width="4" stroke-linejoin="round" stroke-linecap="round" opacity="1.0"/><ellipse cx="63" cy="50" rx="4" ry="2" fill="#ffffff" opacity="0.7" transform="rotate(-25 63 50)"/><circle cx="40" cy="44" r="12" fill="url(#g4)" stroke="#3b2618" stroke-width="4" stroke-linejoin="round" stroke-linecap="round" opacity="1.0"/><ellipse cx="37" cy="40" rx="4" ry="2" fill="#ffffff" opacity="0.7" transform="rotate(-25 37 40)"/><circle cx="58" cy="36" r="12" fill="url(#g5)" stroke="#3b2618" stroke-width="4" stroke-linejoin="round" stroke-linecap="round" opacity="1.0"/><ellipse cx="55" cy="32" rx="4" ry="2" fill="#ffffff" opacity="0.7" transform="rotate(-25 55 32)"/><circle cx="28" cy="40" r="12" fill="url(#g6)" stroke="#3b2618" stroke-width="4" stroke-linejoin="round" stroke-linecap="round" opacity="1.0"/><ellipse cx="25" cy="36" rx="4" ry="2" fill="#ffffff" opacity="0.7" transform="rotate(-25 25 36)"/><circle cx="70" cy="70" r="12" fill="url(#g7)" stroke="#3b2618" stroke-width="4" stroke-linejoin="round" stroke-linecap="round" opacity="1.0"/><ellipse cx="67" cy="66" rx="4" ry="2" fill="#ffffff" opacity="0.7" transform="rotate(-25 67 66)"/><circle cx="46" cy="56" r="12" fill="url(#g8)" stroke="#3b2618" stroke-width="4" stroke-linejoin="round" stroke-linecap="round" opacity="1.0"/><ellipse cx="43" cy="52" rx="4" ry="2" fill="#ffffff" opacity="0.7" transform="rotate(-25 43 52)"/></svg>