%TF.GenerationSoftware,KiCad,Pcbnew,7.0.11+dfsg-1build4*%
%TF.CreationDate,2026-09-21T08:37:54+00:00*%
%TF.ProjectId,SKYWARD-COMPUTE-CARRIER,534b5957-4152-4442-9d43-4f4d50555445,rev?*%
%TF.SameCoordinates,Original*%
%TF.FileFunction,Copper,L1,Top*%
%TF.FilePolarity,Positive*%
%FSLAX46Y46*%
G04 Gerber Fmt 4.6, Leading zero omitted, Abs format (unit mm)*
G04 Created by KiCad (PCBNEW 7.0.11+dfsg-1build4) date 2026-09-21 08:37:54*
%MOMM*%
%LPD*%
G01*
G04 APERTURE LIST*
G04 Aperture macros list*
%AMRoundRect*
0 Rectangle with rounded corners*
0 $1 Rounding radius*
0 $2 $3 $4 $5 $6 $7 $8 $9 X,Y pos of 4 corners*
0 Add a 4 corners polygon primitive as box body*
4,1,4,$2,$3,$4,$5,$6,$7,$8,$9,$2,$3,0*
0 Add four circle primitives for the rounded corners*
1,1,$1+$1,$2,$3*
1,1,$1+$1,$4,$5*
1,1,$1+$1,$6,$7*
1,1,$1+$1,$8,$9*
0 Add four rect primitives between the rounded corners*
20,1,$1+$1,$2,$3,$4,$5,0*
20,1,$1+$1,$4,$5,$6,$7,0*
20,1,$1+$1,$6,$7,$8,$9,0*
20,1,$1+$1,$8,$9,$2,$3,0*%
G04 Aperture macros list end*
%TA.AperFunction,SMDPad,CuDef*%
%ADD10RoundRect,0.250000X-1.000000X-0.900000X1.000000X-0.900000X1.000000X0.900000X-1.000000X0.900000X0*%
%TD*%
%TA.AperFunction,SMDPad,CuDef*%
%ADD11RoundRect,0.250000X-0.375000X-0.625000X0.375000X-0.625000X0.375000X0.625000X-0.375000X0.625000X0*%
%TD*%
%TA.AperFunction,SMDPad,CuDef*%
%ADD12RoundRect,0.225000X-0.225000X-0.250000X0.225000X-0.250000X0.225000X0.250000X-0.225000X0.250000X0*%
%TD*%
%TA.AperFunction,SMDPad,CuDef*%
%ADD13RoundRect,0.150000X-0.700000X0.150000X-0.700000X-0.150000X0.700000X-0.150000X0.700000X0.150000X0*%
%TD*%
%TA.AperFunction,SMDPad,CuDef*%
%ADD14RoundRect,0.250000X-1.100000X0.250000X-1.100000X-0.250000X1.100000X-0.250000X1.100000X0.250000X0*%
%TD*%
%TA.AperFunction,SMDPad,CuDef*%
%ADD15RoundRect,0.100000X-0.637500X-0.100000X0.637500X-0.100000X0.637500X0.100000X-0.637500X0.100000X0*%
%TD*%
%TA.AperFunction,ComponentPad*%
%ADD16R,1.700000X1.700000*%
%TD*%
%TA.AperFunction,ComponentPad*%
%ADD17O,1.700000X1.700000*%
%TD*%
%TA.AperFunction,SMDPad,CuDef*%
%ADD18RoundRect,0.140000X-0.140000X-0.170000X0.140000X-0.170000X0.140000X0.170000X-0.140000X0.170000X0*%
%TD*%
%TA.AperFunction,SMDPad,CuDef*%
%ADD19RoundRect,0.250000X-0.312500X-0.625000X0.312500X-0.625000X0.312500X0.625000X-0.312500X0.625000X0*%
%TD*%
%TA.AperFunction,SMDPad,CuDef*%
%ADD20RoundRect,0.250000X-0.250000X-0.475000X0.250000X-0.475000X0.250000X0.475000X-0.250000X0.475000X0*%
%TD*%
%TA.AperFunction,SMDPad,CuDef*%
%ADD21RoundRect,0.150000X-0.512500X-0.150000X0.512500X-0.150000X0.512500X0.150000X-0.512500X0.150000X0*%
%TD*%
%TA.AperFunction,SMDPad,CuDef*%
%ADD22RoundRect,0.135000X-0.135000X-0.185000X0.135000X-0.185000X0.135000X0.185000X-0.135000X0.185000X0*%
%TD*%
%TA.AperFunction,SMDPad,CuDef*%
%ADD23RoundRect,0.150000X0.700000X-0.150000X0.700000X0.150000X-0.700000X0.150000X-0.700000X-0.150000X0*%
%TD*%
%TA.AperFunction,SMDPad,CuDef*%
%ADD24RoundRect,0.250000X1.100000X-0.250000X1.100000X0.250000X-1.100000X0.250000X-1.100000X-0.250000X0*%
%TD*%
%TA.AperFunction,SMDPad,CuDef*%
%ADD25RoundRect,0.062500X-0.350000X-0.062500X0.350000X-0.062500X0.350000X0.062500X-0.350000X0.062500X0*%
%TD*%
%TA.AperFunction,SMDPad,CuDef*%
%ADD26RoundRect,0.062500X-0.062500X-0.350000X0.062500X-0.350000X0.062500X0.350000X-0.062500X0.350000X0*%
%TD*%
%TA.AperFunction,HeatsinkPad*%
%ADD27R,2.600000X2.600000*%
%TD*%
%TA.AperFunction,SMDPad,CuDef*%
%ADD28R,0.980000X3.400000*%
%TD*%
%TA.AperFunction,SMDPad,CuDef*%
%ADD29RoundRect,0.250000X-0.325000X-1.100000X0.325000X-1.100000X0.325000X1.100000X-0.325000X1.100000X0*%
%TD*%
%TA.AperFunction,SMDPad,CuDef*%
%ADD30C,1.500000*%
%TD*%
%TA.AperFunction,SMDPad,CuDef*%
%ADD31RoundRect,0.150000X-0.587500X-0.150000X0.587500X-0.150000X0.587500X0.150000X-0.587500X0.150000X0*%
%TD*%
%TA.AperFunction,SMDPad,CuDef*%
%ADD32R,0.900000X1.700000*%
%TD*%
%TA.AperFunction,SMDPad,CuDef*%
%ADD33RoundRect,0.200000X-0.200000X-0.275000X0.200000X-0.275000X0.200000X0.275000X-0.200000X0.275000X0*%
%TD*%
%TA.AperFunction,SMDPad,CuDef*%
%ADD34R,1.550000X0.600000*%
%TD*%
%TA.AperFunction,ComponentPad*%
%ADD35C,0.600000*%
%TD*%
%TA.AperFunction,SMDPad,CuDef*%
%ADD36R,2.600000X3.100000*%
%TD*%
%TA.AperFunction,SMDPad,CuDef*%
%ADD37R,2.950000X4.500000*%
%TD*%
%TA.AperFunction,SMDPad,CuDef*%
%ADD38R,1.000000X1.500000*%
%TD*%
%TA.AperFunction,SMDPad,CuDef*%
%ADD39RoundRect,0.250000X-1.000000X-0.650000X1.000000X-0.650000X1.000000X0.650000X-1.000000X0.650000X0*%
%TD*%
%TA.AperFunction,SMDPad,CuDef*%
%ADD40RoundRect,0.218750X-0.218750X-0.256250X0.218750X-0.256250X0.218750X0.256250X-0.218750X0.256250X0*%
%TD*%
%TA.AperFunction,SMDPad,CuDef*%
%ADD41R,0.250000X0.900000*%
%TD*%
%TA.AperFunction,SMDPad,CuDef*%
%ADD42RoundRect,0.062500X-0.062500X-0.387500X0.062500X-0.387500X0.062500X0.387500X-0.062500X0.387500X0*%
%TD*%
%TA.AperFunction,SMDPad,CuDef*%
%ADD43RoundRect,0.150000X-0.625000X0.150000X-0.625000X-0.150000X0.625000X-0.150000X0.625000X0.150000X0*%
%TD*%
%TA.AperFunction,SMDPad,CuDef*%
%ADD44RoundRect,0.250000X-0.650000X0.350000X-0.650000X-0.350000X0.650000X-0.350000X0.650000X0.350000X0*%
%TD*%
%TA.AperFunction,SMDPad,CuDef*%
%ADD45R,0.600000X1.300000*%
%TD*%
%TA.AperFunction,SMDPad,CuDef*%
%ADD46RoundRect,0.150000X0.150000X0.500000X-0.150000X0.500000X-0.150000X-0.500000X0.150000X-0.500000X0*%
%TD*%
G04 APERTURE END LIST*
%TA.AperFunction,EtchedComponent*%
%TO.C,JP1*%
G36*
X81100000Y-51900000D02*
G01*
X80600000Y-51900000D01*
X80600000Y-51300000D01*
X81100000Y-51300000D01*
X81100000Y-51900000D01*
G37*
%TD.AperFunction*%
%TD*%
D10*
%TO.P,D1,1*%
%TO.N,BATT_F*%
X21475000Y-33000000D03*
%TO.P,D1,2*%
%TO.N,GND*%
X25775000Y-33000000D03*
%TD*%
D11*
%TO.P,F1,1*%
%TO.N,BATT_IN*%
X14475000Y-33000000D03*
%TO.P,F1,2*%
%TO.N,BATT_F*%
X17275000Y-33000000D03*
%TD*%
D12*
%TO.P,C15,1*%
%TO.N,+5V0*%
X75725000Y-21000000D03*
%TO.P,C15,2*%
%TO.N,GND*%
X77275000Y-21000000D03*
%TD*%
D13*
%TO.P,J6,1*%
%TO.N,GND*%
X105850000Y-29875000D03*
%TO.P,J6,2*%
%TO.N,+5V0*%
X105850000Y-31125000D03*
%TO.P,J6,3*%
%TO.N,UART1_RXD1*%
X105850000Y-32375000D03*
%TO.P,J6,4*%
%TO.N,UART1_TXD1*%
X105850000Y-33625000D03*
%TO.P,J6,5*%
%TO.N,GPIO_GNSS_PPS*%
X105850000Y-34875000D03*
%TO.P,J6,6*%
%TO.N,N/C*%
X105850000Y-36125000D03*
D14*
%TO.P,J6,MP*%
X102650000Y-28025000D03*
X102650000Y-37975000D03*
%TD*%
D15*
%TO.P,U6,1*%
%TO.N,+5V0*%
X59512500Y-45725000D03*
%TO.P,U6,2*%
%TO.N,5V0_PRE*%
X59512500Y-46375000D03*
%TO.P,U6,3*%
%TO.N,GND*%
X59512500Y-47025000D03*
%TO.P,U6,4*%
%TO.N,+3V3*%
X59512500Y-47675000D03*
%TO.P,U6,5*%
%TO.N,GND*%
X59512500Y-48325000D03*
%TO.P,U6,6*%
%TO.N,I2C0_SCL*%
X59512500Y-48975000D03*
%TO.P,U6,7*%
%TO.N,I2C0_SDA*%
X59512500Y-49625000D03*
%TO.P,U6,8*%
%TO.N,N/C*%
X59512500Y-50275000D03*
%TO.P,U6,9*%
X65237500Y-50275000D03*
%TO.P,U6,10*%
X65237500Y-49625000D03*
%TO.P,U6,11*%
%TO.N,VBAT_BUS*%
X65237500Y-48975000D03*
%TO.P,U6,12*%
%TO.N,VBAT_MAIN_OUT*%
X65237500Y-48325000D03*
%TO.P,U6,13*%
%TO.N,N/C*%
X65237500Y-47675000D03*
%TO.P,U6,14*%
%TO.N,VBAT_BUS*%
X65237500Y-47025000D03*
%TO.P,U6,15*%
%TO.N,VBAT_P1_OUT*%
X65237500Y-46375000D03*
%TO.P,U6,16*%
%TO.N,+3V3*%
X65237500Y-45725000D03*
%TD*%
D16*
%TO.P,J10,1*%
%TO.N,GND*%
X76500000Y-28000000D03*
D17*
%TO.P,J10,2*%
%TO.N,+3V3*%
X76500000Y-30540000D03*
%TO.P,J10,3*%
%TO.N,UART3_TXD*%
X76500000Y-33080000D03*
%TO.P,J10,4*%
%TO.N,UART3_RXD*%
X76500000Y-35620000D03*
%TO.P,J10,5*%
%TO.N,nRPIBOOT*%
X76500000Y-38160000D03*
%TO.P,J10,6*%
%TO.N,RUN_PG_N*%
X76500000Y-40700000D03*
%TD*%
D18*
%TO.P,C18,1*%
%TO.N,5V0_SW*%
X15395000Y-48000000D03*
%TO.P,C18,2*%
%TO.N,BOOT_5V*%
X16355000Y-48000000D03*
%TD*%
D19*
%TO.P,RSH3,1*%
%TO.N,5V0_PRE*%
X22162500Y-55500000D03*
%TO.P,RSH3,2*%
%TO.N,+5V0*%
X25087500Y-55500000D03*
%TD*%
D20*
%TO.P,C4,1*%
%TO.N,+5V0*%
X69175000Y-40500000D03*
%TO.P,C4,2*%
%TO.N,GND*%
X71075000Y-40500000D03*
%TD*%
D21*
%TO.P,U5,1*%
%TO.N,+5V0*%
X37987500Y-47050000D03*
%TO.P,U5,2*%
%TO.N,GND*%
X37987500Y-48000000D03*
%TO.P,U5,3*%
%TO.N,+5V0*%
X37987500Y-48950000D03*
%TO.P,U5,4*%
%TO.N,N/C*%
X40262500Y-48950000D03*
%TO.P,U5,5*%
%TO.N,+3V3*%
X40262500Y-47050000D03*
%TD*%
D22*
%TO.P,R7,1*%
%TO.N,+3V3*%
X90323333Y-21000000D03*
%TO.P,R7,2*%
%TO.N,nRPIBOOT*%
X91343333Y-21000000D03*
%TD*%
D23*
%TO.P,J4,1*%
%TO.N,DOCK_PWR_RAW*%
X4150000Y-69250000D03*
%TO.P,J4,2*%
%TO.N,GND*%
X4150000Y-68000000D03*
%TO.P,J4,3*%
%TO.N,GPIO_DOCK_DET*%
X4150000Y-66750000D03*
D24*
%TO.P,J4,MP*%
%TO.N,N/C*%
X7350000Y-71100000D03*
X7350000Y-64900000D03*
%TD*%
D20*
%TO.P,C8,1*%
%TO.N,BATT_F*%
X14925000Y-63000000D03*
%TO.P,C8,2*%
%TO.N,GND*%
X16825000Y-63000000D03*
%TD*%
D25*
%TO.P,U3,1*%
%TO.N,DOCK_OK*%
X52687500Y-54250000D03*
%TO.P,U3,2*%
%TO.N,GND*%
X52687500Y-54750000D03*
%TO.P,U3,3*%
%TO.N,CHG_SW*%
X52687500Y-55250000D03*
%TO.P,U3,4*%
%TO.N,+3V3*%
X52687500Y-55750000D03*
%TO.P,U3,5*%
%TO.N,I2C0_SDA*%
X52687500Y-56250000D03*
%TO.P,U3,6*%
%TO.N,I2C0_SCL*%
X52687500Y-56750000D03*
D26*
%TO.P,U3,7*%
%TO.N,PROG*%
X53375000Y-57437500D03*
%TO.P,U3,8*%
%TO.N,GND*%
X53875000Y-57437500D03*
%TO.P,U3,9*%
%TO.N,N/C*%
X54375000Y-57437500D03*
%TO.P,U3,10*%
X54875000Y-57437500D03*
%TO.P,U3,11*%
X55375000Y-57437500D03*
%TO.P,U3,12*%
X55875000Y-57437500D03*
D25*
%TO.P,U3,13*%
X56562500Y-56750000D03*
%TO.P,U3,14*%
X56562500Y-56250000D03*
%TO.P,U3,15*%
X56562500Y-55750000D03*
%TO.P,U3,16*%
X56562500Y-55250000D03*
%TO.P,U3,17*%
X56562500Y-54750000D03*
%TO.P,U3,18*%
X56562500Y-54250000D03*
D26*
%TO.P,U3,19*%
X55875000Y-53562500D03*
%TO.P,U3,20*%
X55375000Y-53562500D03*
%TO.P,U3,21*%
X54875000Y-53562500D03*
%TO.P,U3,22*%
X54375000Y-53562500D03*
%TO.P,U3,23*%
X53875000Y-53562500D03*
%TO.P,U3,24*%
X53375000Y-53562500D03*
D27*
%TO.P,U3,25*%
X54625000Y-55500000D03*
%TD*%
D18*
%TO.P,C11,1*%
%TO.N,+5V0*%
X18686666Y-21000000D03*
%TO.P,C11,2*%
%TO.N,GND*%
X19646666Y-21000000D03*
%TD*%
D12*
%TO.P,C5,1*%
%TO.N,+5V0*%
X46100000Y-48000000D03*
%TO.P,C5,2*%
%TO.N,GND*%
X47650000Y-48000000D03*
%TD*%
D28*
%TO.P,L2,1*%
%TO.N,CHG_SW*%
X61190000Y-55500000D03*
%TO.P,L2,2*%
%TO.N,BATT_F*%
X63560000Y-55500000D03*
%TD*%
D29*
%TO.P,C1,1*%
%TO.N,BATT_F*%
X45400000Y-33000000D03*
%TO.P,C1,2*%
%TO.N,GND*%
X48350000Y-33000000D03*
%TD*%
D30*
%TO.P,TP1,1*%
%TO.N,VBAT_BUS*%
X92500000Y-57800000D03*
%TD*%
%TO.P,TP2,1*%
%TO.N,+5V0*%
X81500000Y-64000000D03*
%TD*%
D22*
%TO.P,R3,1*%
%TO.N,PROG*%
X38615000Y-63000000D03*
%TO.P,R3,2*%
%TO.N,GND*%
X39635000Y-63000000D03*
%TD*%
%TO.P,R14,1*%
%TO.N,+3V3*%
X80990000Y-45400000D03*
%TO.P,R14,2*%
%TO.N,TERRA_PRESENCE_N*%
X82010000Y-45400000D03*
%TD*%
D18*
%TO.P,C17,1*%
%TO.N,VCAP2*%
X38645000Y-40500000D03*
%TO.P,C17,2*%
%TO.N,GND*%
X39605000Y-40500000D03*
%TD*%
D20*
%TO.P,C3,1*%
%TO.N,VBAT_BUS*%
X61425000Y-40500000D03*
%TO.P,C3,2*%
%TO.N,GND*%
X63325000Y-40500000D03*
%TD*%
D22*
%TO.P,R2,1*%
%TO.N,FB5V*%
X30865000Y-48000000D03*
%TO.P,R2,2*%
%TO.N,GND*%
X31885000Y-48000000D03*
%TD*%
%TO.P,R1,1*%
%TO.N,+5V0*%
X23115000Y-48000000D03*
%TO.P,R1,2*%
%TO.N,FB5V*%
X24135000Y-48000000D03*
%TD*%
D12*
%TO.P,C6,1*%
%TO.N,+3V3*%
X53850000Y-48000000D03*
%TO.P,C6,2*%
%TO.N,GND*%
X55400000Y-48000000D03*
%TD*%
D28*
%TO.P,L1,1*%
%TO.N,5V0_SW*%
X53440000Y-40500000D03*
%TO.P,L1,2*%
%TO.N,5V0_PRE*%
X55810000Y-40500000D03*
%TD*%
D22*
%TO.P,R10,1*%
%TO.N,+3V3*%
X80990000Y-33000000D03*
%TO.P,R10,2*%
%TO.N,I2C0_SDA*%
X82010000Y-33000000D03*
%TD*%
%TO.P,R11,1*%
%TO.N,+3V3*%
X91990000Y-33000000D03*
%TO.P,R11,2*%
%TO.N,I2C0_SCL*%
X93010000Y-33000000D03*
%TD*%
D31*
%TO.P,Q2,1*%
%TO.N,Q2_GATE*%
X22687500Y-39550000D03*
%TO.P,Q2,2*%
%TO.N,P1_F*%
X22687500Y-41450000D03*
%TO.P,Q2,3*%
%TO.N,VBAT_P1_OUT*%
X24562500Y-40500000D03*
%TD*%
D22*
%TO.P,R8,1*%
%TO.N,+3V3*%
X18656666Y-28000000D03*
%TO.P,R8,2*%
%TO.N,RUN_PG_N*%
X19676666Y-28000000D03*
%TD*%
D30*
%TO.P,TP4,1*%
%TO.N,GND*%
X81500000Y-70200000D03*
%TD*%
D22*
%TO.P,R13,1*%
%TO.N,+3V3*%
X91990000Y-39200000D03*
%TO.P,R13,2*%
%TO.N,I2C1_SCL*%
X93010000Y-39200000D03*
%TD*%
%TO.P,R9,1*%
%TO.N,+3V3*%
X32990000Y-28000000D03*
%TO.P,R9,2*%
%TO.N,EEPROM_nWP*%
X34010000Y-28000000D03*
%TD*%
D32*
%TO.P,SW2,1*%
%TO.N,RUN_PG_N*%
X60466666Y-28000000D03*
%TO.P,SW2,2*%
%TO.N,GND*%
X63866666Y-28000000D03*
%TD*%
D12*
%TO.P,C14,1*%
%TO.N,+5V0*%
X61391666Y-21000000D03*
%TO.P,C14,2*%
%TO.N,GND*%
X62941666Y-21000000D03*
%TD*%
D33*
%TO.P,R6,1*%
%TO.N,GPIO_STATUS_LED*%
X80675000Y-57800000D03*
%TO.P,R6,2*%
%TO.N,LED_A*%
X82325000Y-57800000D03*
%TD*%
D19*
%TO.P,RSH2,1*%
%TO.N,VBAT_P1_OUT*%
X14412500Y-55500000D03*
%TO.P,RSH2,2*%
%TO.N,VBAT_BUS*%
X17337500Y-55500000D03*
%TD*%
D23*
%TO.P,J3,1*%
%TO.N,BATT_IN*%
X4150000Y-55625000D03*
%TO.P,J3,2*%
%TO.N,GND*%
X4150000Y-54375000D03*
D24*
%TO.P,J3,MP*%
%TO.N,N/C*%
X7350000Y-57475000D03*
X7350000Y-52525000D03*
%TD*%
D18*
%TO.P,C16,1*%
%TO.N,VCAP1*%
X54145000Y-33000000D03*
%TO.P,C16,2*%
%TO.N,GND*%
X55105000Y-33000000D03*
%TD*%
%TO.P,C12,1*%
%TO.N,+5V0*%
X33020000Y-21000000D03*
%TO.P,C12,2*%
%TO.N,GND*%
X33980000Y-21000000D03*
%TD*%
D11*
%TO.P,F3,1*%
%TO.N,DOCK_PWR_RAW*%
X29975000Y-55500000D03*
%TO.P,F3,2*%
%TO.N,DOCK_F*%
X32775000Y-55500000D03*
%TD*%
D22*
%TO.P,R5,1*%
%TO.N,+3V3*%
X46365000Y-63000000D03*
%TO.P,R5,2*%
%TO.N,GPIO_DOCK_DET*%
X47385000Y-63000000D03*
%TD*%
D18*
%TO.P,C13,1*%
%TO.N,+5V0*%
X47353333Y-21000000D03*
%TO.P,C13,2*%
%TO.N,GND*%
X48313333Y-21000000D03*
%TD*%
D34*
%TO.P,U4,1*%
%TO.N,BOOT_5V*%
X44175000Y-38595000D03*
%TO.P,U4,2*%
%TO.N,N/C*%
X44175000Y-39865000D03*
%TO.P,U4,3*%
X44175000Y-41135000D03*
%TO.P,U4,4*%
%TO.N,FB5V*%
X44175000Y-42405000D03*
%TO.P,U4,5*%
%TO.N,VBAT_BUS*%
X49575000Y-42405000D03*
%TO.P,U4,6*%
%TO.N,GND*%
X49575000Y-41135000D03*
%TO.P,U4,7*%
%TO.N,VBAT_BUS*%
X49575000Y-39865000D03*
%TO.P,U4,8*%
%TO.N,5V0_SW*%
X49575000Y-38595000D03*
D35*
%TO.P,U4,9*%
%TO.N,GND*%
X46275000Y-38700000D03*
X46275000Y-39900000D03*
X46275000Y-41200000D03*
X46275000Y-42300000D03*
D36*
X46875000Y-40500000D03*
D37*
X46875000Y-40500000D03*
D35*
X47475000Y-38700000D03*
X47475000Y-39900000D03*
X47475000Y-41200000D03*
X47475000Y-42300000D03*
%TD*%
D32*
%TO.P,SW1,1*%
%TO.N,nRPIBOOT*%
X46133333Y-28000000D03*
%TO.P,SW1,2*%
%TO.N,GND*%
X49533333Y-28000000D03*
%TD*%
D38*
%TO.P,JP1,1*%
%TO.N,+3V3*%
X80200000Y-51600000D03*
%TO.P,JP1,2*%
%TO.N,XSHUT*%
X81500000Y-51600000D03*
%TO.P,JP1,3*%
%TO.N,N/C*%
X82800000Y-51600000D03*
%TD*%
D39*
%TO.P,D3,1*%
%TO.N,DOCK_OK*%
X37125000Y-55500000D03*
%TO.P,D3,2*%
%TO.N,DOCK_F*%
X41125000Y-55500000D03*
%TD*%
D40*
%TO.P,LED1,1*%
%TO.N,LED_A*%
X91712500Y-51600000D03*
%TO.P,LED1,2*%
%TO.N,GND*%
X93287500Y-51600000D03*
%TD*%
D21*
%TO.P,U1,1*%
%TO.N,BATT_F*%
X30237500Y-32050000D03*
%TO.P,U1,2*%
%TO.N,GND*%
X30237500Y-33000000D03*
%TO.P,U1,3*%
%TO.N,VCAP1*%
X30237500Y-33950000D03*
%TO.P,U1,4*%
%TO.N,Q1_GATE*%
X32512500Y-33950000D03*
%TO.P,U1,5*%
%TO.N,VBAT_MAIN_OUT*%
X32512500Y-33000000D03*
%TO.P,U1,6*%
%TO.N,N/C*%
X32512500Y-32050000D03*
%TD*%
D41*
%TO.P,J1,1*%
%TO.N,GND*%
X25200000Y-10500000D03*
D42*
%TO.P,J1,2*%
X25600000Y-10500000D03*
%TO.P,J1,3*%
%TO.N,+5V0*%
X26000000Y-10500000D03*
%TO.P,J1,4*%
X26400000Y-10500000D03*
%TO.P,J1,5*%
X26800000Y-10500000D03*
%TO.P,J1,6*%
%TO.N,GND*%
X27200000Y-10500000D03*
%TO.P,J1,7*%
%TO.N,RUN_PG_N*%
X27600000Y-10500000D03*
%TO.P,J1,8*%
%TO.N,EEPROM_nWP*%
X28000000Y-10500000D03*
%TO.P,J1,9*%
%TO.N,nRPIBOOT*%
X28400000Y-10500000D03*
%TO.P,J1,10*%
%TO.N,+3V3*%
X28800000Y-10500000D03*
%TO.P,J1,11*%
%TO.N,GND*%
X29200000Y-10500000D03*
%TO.P,J1,12*%
%TO.N,UART0_TXD0*%
X29600000Y-10500000D03*
%TO.P,J1,13*%
%TO.N,UART0_RXD0*%
X30000000Y-10500000D03*
%TO.P,J1,14*%
%TO.N,UART1_TXD1*%
X30400000Y-10500000D03*
%TO.P,J1,15*%
%TO.N,UART1_RXD1*%
X30800000Y-10500000D03*
%TO.P,J1,16*%
%TO.N,GND*%
X31200000Y-10500000D03*
%TO.P,J1,17*%
%TO.N,UART2_TXD*%
X31600000Y-10500000D03*
%TO.P,J1,18*%
%TO.N,UART2_RXD*%
X32000000Y-10500000D03*
%TO.P,J1,19*%
%TO.N,UART3_TXD*%
X32400000Y-10500000D03*
%TO.P,J1,20*%
%TO.N,UART3_RXD*%
X32800000Y-10500000D03*
%TO.P,J1,21*%
%TO.N,GND*%
X33200000Y-10500000D03*
%TO.P,J1,22*%
%TO.N,I2C0_SDA*%
X33600000Y-10500000D03*
%TO.P,J1,23*%
%TO.N,I2C0_SCL*%
X34000000Y-10500000D03*
%TO.P,J1,24*%
%TO.N,I2C1_SDA*%
X34400000Y-10500000D03*
%TO.P,J1,25*%
%TO.N,I2C1_SCL*%
X34800000Y-10500000D03*
%TO.P,J1,26*%
%TO.N,GND*%
X35200000Y-10500000D03*
%TO.P,J1,27*%
%TO.N,SPI0_SCLK*%
X35600000Y-10500000D03*
%TO.P,J1,28*%
%TO.N,SPI0_MOSI*%
X36000000Y-10500000D03*
%TO.P,J1,29*%
%TO.N,SPI0_MISO*%
X36400000Y-10500000D03*
%TO.P,J1,30*%
%TO.N,SPI0_CE0_N*%
X36800000Y-10500000D03*
%TO.P,J1,31*%
%TO.N,GND*%
X37200000Y-10500000D03*
%TO.P,J1,32*%
%TO.N,USB2_0_DP*%
X37600000Y-10500000D03*
%TO.P,J1,33*%
%TO.N,USB2_0_DN*%
X38000000Y-10500000D03*
%TO.P,J1,34*%
%TO.N,GND*%
X38400000Y-10500000D03*
%TO.P,J1,35*%
%TO.N,GPIO_DOCK_DET*%
X38800000Y-10500000D03*
%TO.P,J1,36*%
%TO.N,GPIO_GNSS_PPS*%
X39200000Y-10500000D03*
%TO.P,J1,37*%
%TO.N,GPIO_TOF_INT*%
X39600000Y-10500000D03*
%TO.P,J1,38*%
%TO.N,GPIO_TERRA_IRQ*%
X40000000Y-10500000D03*
%TO.P,J1,39*%
%TO.N,GPIO_TERRA_TRIG*%
X40400000Y-10500000D03*
%TO.P,J1,40*%
%TO.N,GPIO_TERRA_A*%
X40800000Y-10500000D03*
%TO.P,J1,41*%
%TO.N,GPIO_TERRA_B*%
X41200000Y-10500000D03*
%TO.P,J1,42*%
%TO.N,GPIO_FC_RESET*%
X41600000Y-10500000D03*
%TO.P,J1,43*%
%TO.N,GPIO_FC_AUX*%
X42000000Y-10500000D03*
%TO.P,J1,44*%
%TO.N,GPIO_STATUS_LED*%
X42400000Y-10500000D03*
%TO.P,J1,45*%
%TO.N,GND*%
X42800000Y-10500000D03*
%TO.P,J1,46*%
%TO.N,UART4_TXD*%
X43200000Y-10500000D03*
%TO.P,J1,47*%
%TO.N,UART4_RXD*%
X43600000Y-10500000D03*
%TO.P,J1,48*%
%TO.N,N/C*%
X44000000Y-10500000D03*
%TO.P,J1,49*%
X44400000Y-10500000D03*
%TO.P,J1,50*%
X44800000Y-10500000D03*
%TO.P,J1,51*%
X25200000Y-13500000D03*
%TO.P,J1,52*%
X25600000Y-13500000D03*
%TO.P,J1,53*%
X26000000Y-13500000D03*
%TO.P,J1,54*%
X26400000Y-13500000D03*
%TO.P,J1,55*%
X26800000Y-13500000D03*
%TO.P,J1,56*%
X27200000Y-13500000D03*
%TO.P,J1,57*%
X27600000Y-13500000D03*
%TO.P,J1,58*%
X28000000Y-13500000D03*
%TO.P,J1,59*%
X28400000Y-13500000D03*
%TO.P,J1,60*%
X28800000Y-13500000D03*
%TO.P,J1,61*%
X29200000Y-13500000D03*
%TO.P,J1,62*%
X29600000Y-13500000D03*
%TO.P,J1,63*%
X30000000Y-13500000D03*
%TO.P,J1,64*%
X30400000Y-13500000D03*
%TO.P,J1,65*%
X30800000Y-13500000D03*
%TO.P,J1,66*%
X31200000Y-13500000D03*
%TO.P,J1,67*%
X31600000Y-13500000D03*
%TO.P,J1,68*%
X32000000Y-13500000D03*
%TO.P,J1,69*%
X32400000Y-13500000D03*
%TO.P,J1,70*%
X32800000Y-13500000D03*
%TO.P,J1,71*%
X33200000Y-13500000D03*
%TO.P,J1,72*%
X33600000Y-13500000D03*
%TO.P,J1,73*%
X34000000Y-13500000D03*
%TO.P,J1,74*%
X34400000Y-13500000D03*
%TO.P,J1,75*%
X34800000Y-13500000D03*
%TO.P,J1,76*%
X35200000Y-13500000D03*
%TO.P,J1,77*%
X35600000Y-13500000D03*
%TO.P,J1,78*%
X36000000Y-13500000D03*
%TO.P,J1,79*%
X36400000Y-13500000D03*
%TO.P,J1,80*%
X36800000Y-13500000D03*
%TO.P,J1,81*%
X37200000Y-13500000D03*
%TO.P,J1,82*%
X37600000Y-13500000D03*
%TO.P,J1,83*%
X38000000Y-13500000D03*
%TO.P,J1,84*%
X38400000Y-13500000D03*
%TO.P,J1,85*%
X38800000Y-13500000D03*
%TO.P,J1,86*%
X39200000Y-13500000D03*
%TO.P,J1,87*%
X39600000Y-13500000D03*
%TO.P,J1,88*%
X40000000Y-13500000D03*
%TO.P,J1,89*%
X40400000Y-13500000D03*
%TO.P,J1,90*%
X40800000Y-13500000D03*
%TO.P,J1,91*%
X41200000Y-13500000D03*
%TO.P,J1,92*%
X41600000Y-13500000D03*
%TO.P,J1,93*%
X42000000Y-13500000D03*
%TO.P,J1,94*%
X42400000Y-13500000D03*
%TO.P,J1,95*%
X42800000Y-13500000D03*
%TO.P,J1,96*%
X43200000Y-13500000D03*
%TO.P,J1,97*%
X43600000Y-13500000D03*
%TO.P,J1,98*%
X44000000Y-13500000D03*
%TO.P,J1,99*%
X44400000Y-13500000D03*
%TO.P,J1,100*%
X44800000Y-13500000D03*
%TD*%
D10*
%TO.P,D2,1*%
%TO.N,P1_F*%
X67975000Y-33000000D03*
%TO.P,D2,2*%
%TO.N,GND*%
X72275000Y-33000000D03*
%TD*%
D11*
%TO.P,F4,1*%
%TO.N,+5V0*%
X53225000Y-63000000D03*
%TO.P,F4,2*%
%TO.N,TERRA_PWR*%
X56025000Y-63000000D03*
%TD*%
D30*
%TO.P,TP3,1*%
%TO.N,+3V3*%
X92500000Y-64000000D03*
%TD*%
D18*
%TO.P,C10,1*%
%TO.N,+3V3*%
X30895000Y-63000000D03*
%TO.P,C10,2*%
%TO.N,GND*%
X31855000Y-63000000D03*
%TD*%
D13*
%TO.P,J5,1*%
%TO.N,GND*%
X105850000Y-16875000D03*
%TO.P,J5,2*%
%TO.N,+5V0*%
X105850000Y-18125000D03*
%TO.P,J5,3*%
%TO.N,UART0_TXD0*%
X105850000Y-19375000D03*
%TO.P,J5,4*%
%TO.N,UART0_RXD0*%
X105850000Y-20625000D03*
%TO.P,J5,5*%
%TO.N,GPIO_FC_RESET*%
X105850000Y-21875000D03*
%TO.P,J5,6*%
%TO.N,GPIO_FC_AUX*%
X105850000Y-23125000D03*
D14*
%TO.P,J5,MP*%
%TO.N,N/C*%
X102650000Y-15025000D03*
X102650000Y-24975000D03*
%TD*%
D19*
%TO.P,RSH1,1*%
%TO.N,VBAT_MAIN_OUT*%
X68662500Y-48000000D03*
%TO.P,RSH1,2*%
%TO.N,VBAT_BUS*%
X71587500Y-48000000D03*
%TD*%
D10*
%TO.P,D4,1*%
%TO.N,DOCK_OK*%
X44725000Y-55500000D03*
%TO.P,D4,2*%
%TO.N,GND*%
X49025000Y-55500000D03*
%TD*%
D43*
%TO.P,J8,1*%
%TO.N,GND*%
X106000000Y-57000000D03*
%TO.P,J8,2*%
%TO.N,+3V3*%
X106000000Y-58000000D03*
%TO.P,J8,3*%
%TO.N,I2C0_SDA*%
X106000000Y-59000000D03*
%TO.P,J8,4*%
%TO.N,I2C0_SCL*%
X106000000Y-60000000D03*
%TO.P,J8,5*%
%TO.N,GPIO_TOF_INT*%
X106000000Y-61000000D03*
D44*
%TO.P,J8,MP*%
%TO.N,N/C*%
X102125000Y-55700000D03*
X102125000Y-62300000D03*
%TD*%
D29*
%TO.P,C2,1*%
%TO.N,P1_F*%
X29900000Y-40500000D03*
%TO.P,C2,2*%
%TO.N,GND*%
X32850000Y-40500000D03*
%TD*%
D31*
%TO.P,Q1,1*%
%TO.N,Q1_GATE*%
X38187500Y-32050000D03*
%TO.P,Q1,2*%
%TO.N,BATT_F*%
X38187500Y-33950000D03*
%TO.P,Q1,3*%
%TO.N,VBAT_MAIN_OUT*%
X40062500Y-33000000D03*
%TD*%
D13*
%TO.P,J7,1*%
%TO.N,GND*%
X105850000Y-44125000D03*
%TO.P,J7,2*%
%TO.N,+3V3*%
X105850000Y-45375000D03*
%TO.P,J7,3*%
%TO.N,UART2_RXD*%
X105850000Y-46625000D03*
%TO.P,J7,4*%
%TO.N,UART2_TXD*%
X105850000Y-47875000D03*
D14*
%TO.P,J7,MP*%
%TO.N,N/C*%
X102650000Y-42275000D03*
X102650000Y-49725000D03*
%TD*%
D22*
%TO.P,R15,1*%
%TO.N,+3V3*%
X91990000Y-45400000D03*
%TO.P,R15,2*%
%TO.N,XSHUT*%
X93010000Y-45400000D03*
%TD*%
D21*
%TO.P,U2,1*%
%TO.N,P1_F*%
X14737500Y-39550000D03*
%TO.P,U2,2*%
%TO.N,GND*%
X14737500Y-40500000D03*
%TO.P,U2,3*%
%TO.N,VCAP2*%
X14737500Y-41450000D03*
%TO.P,U2,4*%
%TO.N,Q2_GATE*%
X17012500Y-41450000D03*
%TO.P,U2,5*%
%TO.N,VBAT_P1_OUT*%
X17012500Y-40500000D03*
%TO.P,U2,6*%
%TO.N,N/C*%
X17012500Y-39550000D03*
%TD*%
D18*
%TO.P,C9,1*%
%TO.N,+3V3*%
X23145000Y-63000000D03*
%TO.P,C9,2*%
%TO.N,GND*%
X24105000Y-63000000D03*
%TD*%
D22*
%TO.P,R12,1*%
%TO.N,+3V3*%
X80990000Y-39200000D03*
%TO.P,R12,2*%
%TO.N,I2C1_SDA*%
X82010000Y-39200000D03*
%TD*%
D41*
%TO.P,J2,1*%
%TO.N,GND*%
X65200000Y-10500000D03*
D42*
%TO.P,J2,2*%
%TO.N,+5V0*%
X65600000Y-10500000D03*
%TO.P,J2,3*%
%TO.N,GND*%
X66000000Y-10500000D03*
%TO.P,J2,4*%
%TO.N,+5V0*%
X66400000Y-10500000D03*
%TO.P,J2,5*%
%TO.N,GND*%
X66800000Y-10500000D03*
%TO.P,J2,6*%
%TO.N,+5V0*%
X67200000Y-10500000D03*
%TO.P,J2,7*%
%TO.N,GND*%
X67600000Y-10500000D03*
%TO.P,J2,8*%
%TO.N,+5V0*%
X68000000Y-10500000D03*
%TO.P,J2,9*%
%TO.N,GND*%
X68400000Y-10500000D03*
%TO.P,J2,10*%
X68800000Y-10500000D03*
%TO.P,J2,11*%
%TO.N,N/C*%
X69200000Y-10500000D03*
%TO.P,J2,12*%
X69600000Y-10500000D03*
%TO.P,J2,13*%
X70000000Y-10500000D03*
%TO.P,J2,14*%
X70400000Y-10500000D03*
%TO.P,J2,15*%
X70800000Y-10500000D03*
%TO.P,J2,16*%
X71200000Y-10500000D03*
%TO.P,J2,17*%
X71600000Y-10500000D03*
%TO.P,J2,18*%
X72000000Y-10500000D03*
%TO.P,J2,19*%
X72400000Y-10500000D03*
%TO.P,J2,20*%
X72800000Y-10500000D03*
%TO.P,J2,21*%
X73200000Y-10500000D03*
%TO.P,J2,22*%
X73600000Y-10500000D03*
%TO.P,J2,23*%
X74000000Y-10500000D03*
%TO.P,J2,24*%
X74400000Y-10500000D03*
%TO.P,J2,25*%
X74800000Y-10500000D03*
%TO.P,J2,26*%
X75200000Y-10500000D03*
%TO.P,J2,27*%
X75600000Y-10500000D03*
%TO.P,J2,28*%
X76000000Y-10500000D03*
%TO.P,J2,29*%
X76400000Y-10500000D03*
%TO.P,J2,30*%
X76800000Y-10500000D03*
%TO.P,J2,31*%
X77200000Y-10500000D03*
%TO.P,J2,32*%
X77600000Y-10500000D03*
%TO.P,J2,33*%
X78000000Y-10500000D03*
%TO.P,J2,34*%
X78400000Y-10500000D03*
%TO.P,J2,35*%
X78800000Y-10500000D03*
%TO.P,J2,36*%
X79200000Y-10500000D03*
%TO.P,J2,37*%
X79600000Y-10500000D03*
%TO.P,J2,38*%
X80000000Y-10500000D03*
%TO.P,J2,39*%
X80400000Y-10500000D03*
%TO.P,J2,40*%
X80800000Y-10500000D03*
%TO.P,J2,41*%
X81200000Y-10500000D03*
%TO.P,J2,42*%
X81600000Y-10500000D03*
%TO.P,J2,43*%
X82000000Y-10500000D03*
%TO.P,J2,44*%
X82400000Y-10500000D03*
%TO.P,J2,45*%
X82800000Y-10500000D03*
%TO.P,J2,46*%
X83200000Y-10500000D03*
%TO.P,J2,47*%
X83600000Y-10500000D03*
%TO.P,J2,48*%
X84000000Y-10500000D03*
%TO.P,J2,49*%
X84400000Y-10500000D03*
%TO.P,J2,50*%
X84800000Y-10500000D03*
%TO.P,J2,51*%
X65200000Y-13500000D03*
%TO.P,J2,52*%
X65600000Y-13500000D03*
%TO.P,J2,53*%
X66000000Y-13500000D03*
%TO.P,J2,54*%
X66400000Y-13500000D03*
%TO.P,J2,55*%
X66800000Y-13500000D03*
%TO.P,J2,56*%
X67200000Y-13500000D03*
%TO.P,J2,57*%
X67600000Y-13500000D03*
%TO.P,J2,58*%
X68000000Y-13500000D03*
%TO.P,J2,59*%
X68400000Y-13500000D03*
%TO.P,J2,60*%
X68800000Y-13500000D03*
%TO.P,J2,61*%
X69200000Y-13500000D03*
%TO.P,J2,62*%
X69600000Y-13500000D03*
%TO.P,J2,63*%
X70000000Y-13500000D03*
%TO.P,J2,64*%
X70400000Y-13500000D03*
%TO.P,J2,65*%
X70800000Y-13500000D03*
%TO.P,J2,66*%
X71200000Y-13500000D03*
%TO.P,J2,67*%
X71600000Y-13500000D03*
%TO.P,J2,68*%
X72000000Y-13500000D03*
%TO.P,J2,69*%
X72400000Y-13500000D03*
%TO.P,J2,70*%
X72800000Y-13500000D03*
%TO.P,J2,71*%
X73200000Y-13500000D03*
%TO.P,J2,72*%
X73600000Y-13500000D03*
%TO.P,J2,73*%
X74000000Y-13500000D03*
%TO.P,J2,74*%
X74400000Y-13500000D03*
%TO.P,J2,75*%
X74800000Y-13500000D03*
%TO.P,J2,76*%
X75200000Y-13500000D03*
%TO.P,J2,77*%
X75600000Y-13500000D03*
%TO.P,J2,78*%
X76000000Y-13500000D03*
%TO.P,J2,79*%
X76400000Y-13500000D03*
%TO.P,J2,80*%
X76800000Y-13500000D03*
%TO.P,J2,81*%
X77200000Y-13500000D03*
%TO.P,J2,82*%
X77600000Y-13500000D03*
%TO.P,J2,83*%
X78000000Y-13500000D03*
%TO.P,J2,84*%
X78400000Y-13500000D03*
%TO.P,J2,85*%
X78800000Y-13500000D03*
%TO.P,J2,86*%
X79200000Y-13500000D03*
%TO.P,J2,87*%
X79600000Y-13500000D03*
%TO.P,J2,88*%
X80000000Y-13500000D03*
%TO.P,J2,89*%
X80400000Y-13500000D03*
%TO.P,J2,90*%
X80800000Y-13500000D03*
%TO.P,J2,91*%
X81200000Y-13500000D03*
%TO.P,J2,92*%
X81600000Y-13500000D03*
%TO.P,J2,93*%
X82000000Y-13500000D03*
%TO.P,J2,94*%
X82400000Y-13500000D03*
%TO.P,J2,95*%
X82800000Y-13500000D03*
%TO.P,J2,96*%
X83200000Y-13500000D03*
%TO.P,J2,97*%
X83600000Y-13500000D03*
%TO.P,J2,98*%
X84000000Y-13500000D03*
%TO.P,J2,99*%
X84400000Y-13500000D03*
%TO.P,J2,100*%
X84800000Y-13500000D03*
%TD*%
D45*
%TO.P,J9,1*%
%TO.N,TERRA_PWR*%
X61250000Y-85000000D03*
D46*
%TO.P,J9,2*%
%TO.N,GND*%
X60000000Y-85000000D03*
%TO.P,J9,3*%
X58750000Y-85000000D03*
%TO.P,J9,4*%
%TO.N,I2C1_SDA*%
X57500000Y-85000000D03*
%TO.P,J9,5*%
%TO.N,I2C1_SCL*%
X56250000Y-85000000D03*
%TO.P,J9,6*%
%TO.N,SPI0_SCLK*%
X55000000Y-85000000D03*
%TO.P,J9,7*%
%TO.N,SPI0_MOSI*%
X53750000Y-85000000D03*
%TO.P,J9,8*%
%TO.N,SPI0_MISO*%
X52500000Y-85000000D03*
%TO.P,J9,9*%
%TO.N,SPI0_CE0_N*%
X51250000Y-85000000D03*
%TO.P,J9,10*%
%TO.N,UART4_TXD*%
X50000000Y-85000000D03*
%TO.P,J9,11*%
%TO.N,UART4_RXD*%
X48750000Y-85000000D03*
%TO.P,J9,12*%
%TO.N,USB2_0_DP*%
X61250000Y-83000000D03*
%TO.P,J9,13*%
%TO.N,USB2_0_DN*%
X60000000Y-83000000D03*
%TO.P,J9,14*%
%TO.N,GPIO_TERRA_A*%
X58750000Y-83000000D03*
%TO.P,J9,15*%
%TO.N,GPIO_TERRA_B*%
X57500000Y-83000000D03*
%TO.P,J9,16*%
%TO.N,GPIO_TERRA_IRQ*%
X56250000Y-83000000D03*
%TO.P,J9,17*%
%TO.N,GPIO_TERRA_TRIG*%
X55000000Y-83000000D03*
%TO.P,J9,18*%
%TO.N,TERRA_PRESENCE_N*%
X53750000Y-83000000D03*
%TO.P,J9,19*%
%TO.N,GND*%
X52500000Y-83000000D03*
%TO.P,J9,20*%
%TO.N,TERRA_PWR*%
X51250000Y-83000000D03*
%TO.P,J9,21*%
%TO.N,TERRA_BATT_RAW*%
X50000000Y-83000000D03*
%TO.P,J9,22*%
X48750000Y-83000000D03*
%TD*%
D11*
%TO.P,F2,1*%
%TO.N,TERRA_BATT_RAW*%
X60975000Y-33000000D03*
%TO.P,F2,2*%
%TO.N,P1_F*%
X63775000Y-33000000D03*
%TD*%
D20*
%TO.P,C7,1*%
%TO.N,DOCK_OK*%
X69175000Y-55500000D03*
%TO.P,C7,2*%
%TO.N,GND*%
X71075000Y-55500000D03*
%TD*%
M02*
