%TF.GenerationSoftware,KiCad,Pcbnew,7.0.11+dfsg-1build4*%
%TF.CreationDate,2026-09-21T08:37:54+00:00*%
%TF.ProjectId,SKYWARD-COMPUTE-CARRIER,534b5957-4152-4442-9d43-4f4d50555445,rev?*%
%TF.SameCoordinates,Original*%
%TF.FileFunction,Legend,Top*%
%TF.FilePolarity,Positive*%
%FSLAX46Y46*%
G04 Gerber Fmt 4.6, Leading zero omitted, Abs format (unit mm)*
G04 Created by KiCad (PCBNEW 7.0.11+dfsg-1build4) date 2026-09-21 08:37:54*
%MOMM*%
%LPD*%
G01*
G04 APERTURE LIST*
%ADD10C,0.150000*%
%ADD11C,0.120000*%
G04 APERTURE END LIST*
D10*
X22495238Y-9862295D02*
X22495238Y-9062295D01*
X22495238Y-9062295D02*
X22800000Y-9062295D01*
X22800000Y-9062295D02*
X22876190Y-9100390D01*
X22876190Y-9100390D02*
X22914285Y-9138485D01*
X22914285Y-9138485D02*
X22952381Y-9214676D01*
X22952381Y-9214676D02*
X22952381Y-9328961D01*
X22952381Y-9328961D02*
X22914285Y-9405152D01*
X22914285Y-9405152D02*
X22876190Y-9443247D01*
X22876190Y-9443247D02*
X22800000Y-9481342D01*
X22800000Y-9481342D02*
X22495238Y-9481342D01*
X23295238Y-9862295D02*
X23295238Y-9062295D01*
X23676190Y-9862295D02*
X23676190Y-9062295D01*
X23676190Y-9062295D02*
X24133333Y-9862295D01*
X24133333Y-9862295D02*
X24133333Y-9062295D01*
X25542856Y-9862295D02*
X25085713Y-9862295D01*
X25314285Y-9862295D02*
X25314285Y-9062295D01*
X25314285Y-9062295D02*
X25238094Y-9176580D01*
X25238094Y-9176580D02*
X25161904Y-9252771D01*
X25161904Y-9252771D02*
X25085713Y-9290866D01*
X8214286Y-64454819D02*
X8214286Y-63454819D01*
X8214286Y-63454819D02*
X8452381Y-63454819D01*
X8452381Y-63454819D02*
X8595238Y-63502438D01*
X8595238Y-63502438D02*
X8690476Y-63597676D01*
X8690476Y-63597676D02*
X8738095Y-63692914D01*
X8738095Y-63692914D02*
X8785714Y-63883390D01*
X8785714Y-63883390D02*
X8785714Y-64026247D01*
X8785714Y-64026247D02*
X8738095Y-64216723D01*
X8738095Y-64216723D02*
X8690476Y-64311961D01*
X8690476Y-64311961D02*
X8595238Y-64407200D01*
X8595238Y-64407200D02*
X8452381Y-64454819D01*
X8452381Y-64454819D02*
X8214286Y-64454819D01*
X9404762Y-63454819D02*
X9595238Y-63454819D01*
X9595238Y-63454819D02*
X9690476Y-63502438D01*
X9690476Y-63502438D02*
X9785714Y-63597676D01*
X9785714Y-63597676D02*
X9833333Y-63788152D01*
X9833333Y-63788152D02*
X9833333Y-64121485D01*
X9833333Y-64121485D02*
X9785714Y-64311961D01*
X9785714Y-64311961D02*
X9690476Y-64407200D01*
X9690476Y-64407200D02*
X9595238Y-64454819D01*
X9595238Y-64454819D02*
X9404762Y-64454819D01*
X9404762Y-64454819D02*
X9309524Y-64407200D01*
X9309524Y-64407200D02*
X9214286Y-64311961D01*
X9214286Y-64311961D02*
X9166667Y-64121485D01*
X9166667Y-64121485D02*
X9166667Y-63788152D01*
X9166667Y-63788152D02*
X9214286Y-63597676D01*
X9214286Y-63597676D02*
X9309524Y-63502438D01*
X9309524Y-63502438D02*
X9404762Y-63454819D01*
X10833333Y-64359580D02*
X10785714Y-64407200D01*
X10785714Y-64407200D02*
X10642857Y-64454819D01*
X10642857Y-64454819D02*
X10547619Y-64454819D01*
X10547619Y-64454819D02*
X10404762Y-64407200D01*
X10404762Y-64407200D02*
X10309524Y-64311961D01*
X10309524Y-64311961D02*
X10261905Y-64216723D01*
X10261905Y-64216723D02*
X10214286Y-64026247D01*
X10214286Y-64026247D02*
X10214286Y-63883390D01*
X10214286Y-63883390D02*
X10261905Y-63692914D01*
X10261905Y-63692914D02*
X10309524Y-63597676D01*
X10309524Y-63597676D02*
X10404762Y-63502438D01*
X10404762Y-63502438D02*
X10547619Y-63454819D01*
X10547619Y-63454819D02*
X10642857Y-63454819D01*
X10642857Y-63454819D02*
X10785714Y-63502438D01*
X10785714Y-63502438D02*
X10833333Y-63550057D01*
X11261905Y-64454819D02*
X11261905Y-63454819D01*
X11833333Y-64454819D02*
X11404762Y-63883390D01*
X11833333Y-63454819D02*
X11261905Y-64026247D01*
X8880952Y-50931009D02*
X9023809Y-50978628D01*
X9023809Y-50978628D02*
X9071428Y-51026247D01*
X9071428Y-51026247D02*
X9119047Y-51121485D01*
X9119047Y-51121485D02*
X9119047Y-51264342D01*
X9119047Y-51264342D02*
X9071428Y-51359580D01*
X9071428Y-51359580D02*
X9023809Y-51407200D01*
X9023809Y-51407200D02*
X8928571Y-51454819D01*
X8928571Y-51454819D02*
X8547619Y-51454819D01*
X8547619Y-51454819D02*
X8547619Y-50454819D01*
X8547619Y-50454819D02*
X8880952Y-50454819D01*
X8880952Y-50454819D02*
X8976190Y-50502438D01*
X8976190Y-50502438D02*
X9023809Y-50550057D01*
X9023809Y-50550057D02*
X9071428Y-50645295D01*
X9071428Y-50645295D02*
X9071428Y-50740533D01*
X9071428Y-50740533D02*
X9023809Y-50835771D01*
X9023809Y-50835771D02*
X8976190Y-50883390D01*
X8976190Y-50883390D02*
X8880952Y-50931009D01*
X8880952Y-50931009D02*
X8547619Y-50931009D01*
X9500000Y-51169104D02*
X9976190Y-51169104D01*
X9404762Y-51454819D02*
X9738095Y-50454819D01*
X9738095Y-50454819D02*
X10071428Y-51454819D01*
X10261905Y-50454819D02*
X10833333Y-50454819D01*
X10547619Y-51454819D02*
X10547619Y-50454819D01*
X11023810Y-50454819D02*
X11595238Y-50454819D01*
X11309524Y-51454819D02*
X11309524Y-50454819D01*
X52400000Y-78347342D02*
X53085715Y-78347342D01*
X52742857Y-79547342D02*
X52742857Y-78347342D01*
X53485715Y-78918771D02*
X53885715Y-78918771D01*
X54057143Y-79547342D02*
X53485715Y-79547342D01*
X53485715Y-79547342D02*
X53485715Y-78347342D01*
X53485715Y-78347342D02*
X54057143Y-78347342D01*
X55257143Y-79547342D02*
X54857143Y-78975914D01*
X54571429Y-79547342D02*
X54571429Y-78347342D01*
X54571429Y-78347342D02*
X55028572Y-78347342D01*
X55028572Y-78347342D02*
X55142857Y-78404485D01*
X55142857Y-78404485D02*
X55200000Y-78461628D01*
X55200000Y-78461628D02*
X55257143Y-78575914D01*
X55257143Y-78575914D02*
X55257143Y-78747342D01*
X55257143Y-78747342D02*
X55200000Y-78861628D01*
X55200000Y-78861628D02*
X55142857Y-78918771D01*
X55142857Y-78918771D02*
X55028572Y-78975914D01*
X55028572Y-78975914D02*
X54571429Y-78975914D01*
X56457143Y-79547342D02*
X56057143Y-78975914D01*
X55771429Y-79547342D02*
X55771429Y-78347342D01*
X55771429Y-78347342D02*
X56228572Y-78347342D01*
X56228572Y-78347342D02*
X56342857Y-78404485D01*
X56342857Y-78404485D02*
X56400000Y-78461628D01*
X56400000Y-78461628D02*
X56457143Y-78575914D01*
X56457143Y-78575914D02*
X56457143Y-78747342D01*
X56457143Y-78747342D02*
X56400000Y-78861628D01*
X56400000Y-78861628D02*
X56342857Y-78918771D01*
X56342857Y-78918771D02*
X56228572Y-78975914D01*
X56228572Y-78975914D02*
X55771429Y-78975914D01*
X56914286Y-79204485D02*
X57485715Y-79204485D01*
X56800000Y-79547342D02*
X57200000Y-78347342D01*
X57200000Y-78347342D02*
X57600000Y-79547342D01*
X10228571Y-31547342D02*
X10228571Y-30347342D01*
X10228571Y-30347342D02*
X10685714Y-30347342D01*
X10685714Y-30347342D02*
X10799999Y-30404485D01*
X10799999Y-30404485D02*
X10857142Y-30461628D01*
X10857142Y-30461628D02*
X10914285Y-30575914D01*
X10914285Y-30575914D02*
X10914285Y-30747342D01*
X10914285Y-30747342D02*
X10857142Y-30861628D01*
X10857142Y-30861628D02*
X10799999Y-30918771D01*
X10799999Y-30918771D02*
X10685714Y-30975914D01*
X10685714Y-30975914D02*
X10228571Y-30975914D01*
X11657142Y-30347342D02*
X11885714Y-30347342D01*
X11885714Y-30347342D02*
X11999999Y-30404485D01*
X11999999Y-30404485D02*
X12114285Y-30518771D01*
X12114285Y-30518771D02*
X12171428Y-30747342D01*
X12171428Y-30747342D02*
X12171428Y-31147342D01*
X12171428Y-31147342D02*
X12114285Y-31375914D01*
X12114285Y-31375914D02*
X11999999Y-31490200D01*
X11999999Y-31490200D02*
X11885714Y-31547342D01*
X11885714Y-31547342D02*
X11657142Y-31547342D01*
X11657142Y-31547342D02*
X11542857Y-31490200D01*
X11542857Y-31490200D02*
X11428571Y-31375914D01*
X11428571Y-31375914D02*
X11371428Y-31147342D01*
X11371428Y-31147342D02*
X11371428Y-30747342D01*
X11371428Y-30747342D02*
X11428571Y-30518771D01*
X11428571Y-30518771D02*
X11542857Y-30404485D01*
X11542857Y-30404485D02*
X11657142Y-30347342D01*
X12571428Y-30347342D02*
X12857142Y-31547342D01*
X12857142Y-31547342D02*
X13085714Y-30690200D01*
X13085714Y-30690200D02*
X13314285Y-31547342D01*
X13314285Y-31547342D02*
X13600000Y-30347342D01*
X14057143Y-30918771D02*
X14457143Y-30918771D01*
X14628571Y-31547342D02*
X14057143Y-31547342D01*
X14057143Y-31547342D02*
X14057143Y-30347342D01*
X14057143Y-30347342D02*
X14628571Y-30347342D01*
X15828571Y-31547342D02*
X15428571Y-30975914D01*
X15142857Y-31547342D02*
X15142857Y-30347342D01*
X15142857Y-30347342D02*
X15600000Y-30347342D01*
X15600000Y-30347342D02*
X15714285Y-30404485D01*
X15714285Y-30404485D02*
X15771428Y-30461628D01*
X15771428Y-30461628D02*
X15828571Y-30575914D01*
X15828571Y-30575914D02*
X15828571Y-30747342D01*
X15828571Y-30747342D02*
X15771428Y-30861628D01*
X15771428Y-30861628D02*
X15714285Y-30918771D01*
X15714285Y-30918771D02*
X15600000Y-30975914D01*
X15600000Y-30975914D02*
X15142857Y-30975914D01*
X43799999Y-2894295D02*
X43266666Y-2894295D01*
X43266666Y-3732390D02*
X43266666Y-2132390D01*
X43266666Y-2132390D02*
X44028571Y-2132390D01*
X45552381Y-3732390D02*
X45019047Y-2970485D01*
X44638095Y-3732390D02*
X44638095Y-2132390D01*
X44638095Y-2132390D02*
X45247619Y-2132390D01*
X45247619Y-2132390D02*
X45400000Y-2208580D01*
X45400000Y-2208580D02*
X45476190Y-2284771D01*
X45476190Y-2284771D02*
X45552381Y-2437152D01*
X45552381Y-2437152D02*
X45552381Y-2665723D01*
X45552381Y-2665723D02*
X45476190Y-2818104D01*
X45476190Y-2818104D02*
X45400000Y-2894295D01*
X45400000Y-2894295D02*
X45247619Y-2970485D01*
X45247619Y-2970485D02*
X44638095Y-2970485D01*
X46542857Y-2132390D02*
X46847619Y-2132390D01*
X46847619Y-2132390D02*
X47000000Y-2208580D01*
X47000000Y-2208580D02*
X47152381Y-2360961D01*
X47152381Y-2360961D02*
X47228571Y-2665723D01*
X47228571Y-2665723D02*
X47228571Y-3199057D01*
X47228571Y-3199057D02*
X47152381Y-3503819D01*
X47152381Y-3503819D02*
X47000000Y-3656200D01*
X47000000Y-3656200D02*
X46847619Y-3732390D01*
X46847619Y-3732390D02*
X46542857Y-3732390D01*
X46542857Y-3732390D02*
X46390476Y-3656200D01*
X46390476Y-3656200D02*
X46238095Y-3503819D01*
X46238095Y-3503819D02*
X46161904Y-3199057D01*
X46161904Y-3199057D02*
X46161904Y-2665723D01*
X46161904Y-2665723D02*
X46238095Y-2360961D01*
X46238095Y-2360961D02*
X46390476Y-2208580D01*
X46390476Y-2208580D02*
X46542857Y-2132390D01*
X47914285Y-3732390D02*
X47914285Y-2132390D01*
X47914285Y-2132390D02*
X48828571Y-3732390D01*
X48828571Y-3732390D02*
X48828571Y-2132390D01*
X49361903Y-2132390D02*
X50276189Y-2132390D01*
X49819046Y-3732390D02*
X49819046Y-2132390D01*
X50809523Y-3732390D02*
X50809523Y-2132390D01*
X51571428Y-2894295D02*
X52104761Y-2894295D01*
X52333333Y-3732390D02*
X51571428Y-3732390D01*
X51571428Y-3732390D02*
X51571428Y-2132390D01*
X51571428Y-2132390D02*
X52333333Y-2132390D01*
X53933333Y-3732390D02*
X53399999Y-2970485D01*
X53019047Y-3732390D02*
X53019047Y-2132390D01*
X53019047Y-2132390D02*
X53628571Y-2132390D01*
X53628571Y-2132390D02*
X53780952Y-2208580D01*
X53780952Y-2208580D02*
X53857142Y-2284771D01*
X53857142Y-2284771D02*
X53933333Y-2437152D01*
X53933333Y-2437152D02*
X53933333Y-2665723D01*
X53933333Y-2665723D02*
X53857142Y-2818104D01*
X53857142Y-2818104D02*
X53780952Y-2894295D01*
X53780952Y-2894295D02*
X53628571Y-2970485D01*
X53628571Y-2970485D02*
X53019047Y-2970485D01*
X56752381Y-3732390D02*
X56219047Y-2970485D01*
X55838095Y-3732390D02*
X55838095Y-2132390D01*
X55838095Y-2132390D02*
X56447619Y-2132390D01*
X56447619Y-2132390D02*
X56600000Y-2208580D01*
X56600000Y-2208580D02*
X56676190Y-2284771D01*
X56676190Y-2284771D02*
X56752381Y-2437152D01*
X56752381Y-2437152D02*
X56752381Y-2665723D01*
X56752381Y-2665723D02*
X56676190Y-2818104D01*
X56676190Y-2818104D02*
X56600000Y-2894295D01*
X56600000Y-2894295D02*
X56447619Y-2970485D01*
X56447619Y-2970485D02*
X55838095Y-2970485D01*
X57742857Y-2132390D02*
X58047619Y-2132390D01*
X58047619Y-2132390D02*
X58200000Y-2208580D01*
X58200000Y-2208580D02*
X58352381Y-2360961D01*
X58352381Y-2360961D02*
X58428571Y-2665723D01*
X58428571Y-2665723D02*
X58428571Y-3199057D01*
X58428571Y-3199057D02*
X58352381Y-3503819D01*
X58352381Y-3503819D02*
X58200000Y-3656200D01*
X58200000Y-3656200D02*
X58047619Y-3732390D01*
X58047619Y-3732390D02*
X57742857Y-3732390D01*
X57742857Y-3732390D02*
X57590476Y-3656200D01*
X57590476Y-3656200D02*
X57438095Y-3503819D01*
X57438095Y-3503819D02*
X57361904Y-3199057D01*
X57361904Y-3199057D02*
X57361904Y-2665723D01*
X57361904Y-2665723D02*
X57438095Y-2360961D01*
X57438095Y-2360961D02*
X57590476Y-2208580D01*
X57590476Y-2208580D02*
X57742857Y-2132390D01*
X59647618Y-2894295D02*
X59876190Y-2970485D01*
X59876190Y-2970485D02*
X59952380Y-3046676D01*
X59952380Y-3046676D02*
X60028571Y-3199057D01*
X60028571Y-3199057D02*
X60028571Y-3427628D01*
X60028571Y-3427628D02*
X59952380Y-3580009D01*
X59952380Y-3580009D02*
X59876190Y-3656200D01*
X59876190Y-3656200D02*
X59723809Y-3732390D01*
X59723809Y-3732390D02*
X59114285Y-3732390D01*
X59114285Y-3732390D02*
X59114285Y-2132390D01*
X59114285Y-2132390D02*
X59647618Y-2132390D01*
X59647618Y-2132390D02*
X59799999Y-2208580D01*
X59799999Y-2208580D02*
X59876190Y-2284771D01*
X59876190Y-2284771D02*
X59952380Y-2437152D01*
X59952380Y-2437152D02*
X59952380Y-2589533D01*
X59952380Y-2589533D02*
X59876190Y-2741914D01*
X59876190Y-2741914D02*
X59799999Y-2818104D01*
X59799999Y-2818104D02*
X59647618Y-2894295D01*
X59647618Y-2894295D02*
X59114285Y-2894295D01*
X61019047Y-2132390D02*
X61323809Y-2132390D01*
X61323809Y-2132390D02*
X61476190Y-2208580D01*
X61476190Y-2208580D02*
X61628571Y-2360961D01*
X61628571Y-2360961D02*
X61704761Y-2665723D01*
X61704761Y-2665723D02*
X61704761Y-3199057D01*
X61704761Y-3199057D02*
X61628571Y-3503819D01*
X61628571Y-3503819D02*
X61476190Y-3656200D01*
X61476190Y-3656200D02*
X61323809Y-3732390D01*
X61323809Y-3732390D02*
X61019047Y-3732390D01*
X61019047Y-3732390D02*
X60866666Y-3656200D01*
X60866666Y-3656200D02*
X60714285Y-3503819D01*
X60714285Y-3503819D02*
X60638094Y-3199057D01*
X60638094Y-3199057D02*
X60638094Y-2665723D01*
X60638094Y-2665723D02*
X60714285Y-2360961D01*
X60714285Y-2360961D02*
X60866666Y-2208580D01*
X60866666Y-2208580D02*
X61019047Y-2132390D01*
X62161903Y-2132390D02*
X63076189Y-2132390D01*
X62619046Y-3732390D02*
X62619046Y-2132390D01*
X63609523Y-3732390D02*
X63609523Y-2132390D01*
X65285714Y-3580009D02*
X65209523Y-3656200D01*
X65209523Y-3656200D02*
X64980952Y-3732390D01*
X64980952Y-3732390D02*
X64828571Y-3732390D01*
X64828571Y-3732390D02*
X64599999Y-3656200D01*
X64599999Y-3656200D02*
X64447618Y-3503819D01*
X64447618Y-3503819D02*
X64371428Y-3351438D01*
X64371428Y-3351438D02*
X64295237Y-3046676D01*
X64295237Y-3046676D02*
X64295237Y-2818104D01*
X64295237Y-2818104D02*
X64371428Y-2513342D01*
X64371428Y-2513342D02*
X64447618Y-2360961D01*
X64447618Y-2360961D02*
X64599999Y-2208580D01*
X64599999Y-2208580D02*
X64828571Y-2132390D01*
X64828571Y-2132390D02*
X64980952Y-2132390D01*
X64980952Y-2132390D02*
X65209523Y-2208580D01*
X65209523Y-2208580D02*
X65285714Y-2284771D01*
X65895237Y-3656200D02*
X66123809Y-3732390D01*
X66123809Y-3732390D02*
X66504761Y-3732390D01*
X66504761Y-3732390D02*
X66657142Y-3656200D01*
X66657142Y-3656200D02*
X66733333Y-3580009D01*
X66733333Y-3580009D02*
X66809523Y-3427628D01*
X66809523Y-3427628D02*
X66809523Y-3275247D01*
X66809523Y-3275247D02*
X66733333Y-3122866D01*
X66733333Y-3122866D02*
X66657142Y-3046676D01*
X66657142Y-3046676D02*
X66504761Y-2970485D01*
X66504761Y-2970485D02*
X66199999Y-2894295D01*
X66199999Y-2894295D02*
X66047618Y-2818104D01*
X66047618Y-2818104D02*
X65971428Y-2741914D01*
X65971428Y-2741914D02*
X65895237Y-2589533D01*
X65895237Y-2589533D02*
X65895237Y-2437152D01*
X65895237Y-2437152D02*
X65971428Y-2284771D01*
X65971428Y-2284771D02*
X66047618Y-2208580D01*
X66047618Y-2208580D02*
X66199999Y-2132390D01*
X66199999Y-2132390D02*
X66580952Y-2132390D01*
X66580952Y-2132390D02*
X66809523Y-2208580D01*
X99642857Y-15431009D02*
X99309524Y-15431009D01*
X99309524Y-15954819D02*
X99309524Y-14954819D01*
X99309524Y-14954819D02*
X99785714Y-14954819D01*
X100738095Y-15859580D02*
X100690476Y-15907200D01*
X100690476Y-15907200D02*
X100547619Y-15954819D01*
X100547619Y-15954819D02*
X100452381Y-15954819D01*
X100452381Y-15954819D02*
X100309524Y-15907200D01*
X100309524Y-15907200D02*
X100214286Y-15811961D01*
X100214286Y-15811961D02*
X100166667Y-15716723D01*
X100166667Y-15716723D02*
X100119048Y-15526247D01*
X100119048Y-15526247D02*
X100119048Y-15383390D01*
X100119048Y-15383390D02*
X100166667Y-15192914D01*
X100166667Y-15192914D02*
X100214286Y-15097676D01*
X100214286Y-15097676D02*
X100309524Y-15002438D01*
X100309524Y-15002438D02*
X100452381Y-14954819D01*
X100452381Y-14954819D02*
X100547619Y-14954819D01*
X100547619Y-14954819D02*
X100690476Y-15002438D01*
X100690476Y-15002438D02*
X100738095Y-15050057D01*
X96785714Y-28002438D02*
X96690476Y-27954819D01*
X96690476Y-27954819D02*
X96547619Y-27954819D01*
X96547619Y-27954819D02*
X96404762Y-28002438D01*
X96404762Y-28002438D02*
X96309524Y-28097676D01*
X96309524Y-28097676D02*
X96261905Y-28192914D01*
X96261905Y-28192914D02*
X96214286Y-28383390D01*
X96214286Y-28383390D02*
X96214286Y-28526247D01*
X96214286Y-28526247D02*
X96261905Y-28716723D01*
X96261905Y-28716723D02*
X96309524Y-28811961D01*
X96309524Y-28811961D02*
X96404762Y-28907200D01*
X96404762Y-28907200D02*
X96547619Y-28954819D01*
X96547619Y-28954819D02*
X96642857Y-28954819D01*
X96642857Y-28954819D02*
X96785714Y-28907200D01*
X96785714Y-28907200D02*
X96833333Y-28859580D01*
X96833333Y-28859580D02*
X96833333Y-28526247D01*
X96833333Y-28526247D02*
X96642857Y-28526247D01*
X97261905Y-28954819D02*
X97261905Y-27954819D01*
X97261905Y-27954819D02*
X97833333Y-28954819D01*
X97833333Y-28954819D02*
X97833333Y-27954819D01*
X98261905Y-28907200D02*
X98404762Y-28954819D01*
X98404762Y-28954819D02*
X98642857Y-28954819D01*
X98642857Y-28954819D02*
X98738095Y-28907200D01*
X98738095Y-28907200D02*
X98785714Y-28859580D01*
X98785714Y-28859580D02*
X98833333Y-28764342D01*
X98833333Y-28764342D02*
X98833333Y-28669104D01*
X98833333Y-28669104D02*
X98785714Y-28573866D01*
X98785714Y-28573866D02*
X98738095Y-28526247D01*
X98738095Y-28526247D02*
X98642857Y-28478628D01*
X98642857Y-28478628D02*
X98452381Y-28431009D01*
X98452381Y-28431009D02*
X98357143Y-28383390D01*
X98357143Y-28383390D02*
X98309524Y-28335771D01*
X98309524Y-28335771D02*
X98261905Y-28240533D01*
X98261905Y-28240533D02*
X98261905Y-28145295D01*
X98261905Y-28145295D02*
X98309524Y-28050057D01*
X98309524Y-28050057D02*
X98357143Y-28002438D01*
X98357143Y-28002438D02*
X98452381Y-27954819D01*
X98452381Y-27954819D02*
X98690476Y-27954819D01*
X98690476Y-27954819D02*
X98833333Y-28002438D01*
X99214286Y-28907200D02*
X99357143Y-28954819D01*
X99357143Y-28954819D02*
X99595238Y-28954819D01*
X99595238Y-28954819D02*
X99690476Y-28907200D01*
X99690476Y-28907200D02*
X99738095Y-28859580D01*
X99738095Y-28859580D02*
X99785714Y-28764342D01*
X99785714Y-28764342D02*
X99785714Y-28669104D01*
X99785714Y-28669104D02*
X99738095Y-28573866D01*
X99738095Y-28573866D02*
X99690476Y-28526247D01*
X99690476Y-28526247D02*
X99595238Y-28478628D01*
X99595238Y-28478628D02*
X99404762Y-28431009D01*
X99404762Y-28431009D02*
X99309524Y-28383390D01*
X99309524Y-28383390D02*
X99261905Y-28335771D01*
X99261905Y-28335771D02*
X99214286Y-28240533D01*
X99214286Y-28240533D02*
X99214286Y-28145295D01*
X99214286Y-28145295D02*
X99261905Y-28050057D01*
X99261905Y-28050057D02*
X99309524Y-28002438D01*
X99309524Y-28002438D02*
X99404762Y-27954819D01*
X99404762Y-27954819D02*
X99642857Y-27954819D01*
X99642857Y-27954819D02*
X99785714Y-28002438D01*
X30404761Y-6454819D02*
X30404761Y-5454819D01*
X30404761Y-5454819D02*
X30738094Y-6169104D01*
X30738094Y-6169104D02*
X31071427Y-5454819D01*
X31071427Y-5454819D02*
X31071427Y-6454819D01*
X31499999Y-6169104D02*
X31976189Y-6169104D01*
X31404761Y-6454819D02*
X31738094Y-5454819D01*
X31738094Y-5454819D02*
X32071427Y-6454819D01*
X32261904Y-5454819D02*
X32595237Y-6454819D01*
X32595237Y-6454819D02*
X32928570Y-5454819D01*
X33261904Y-5931009D02*
X33595237Y-5931009D01*
X33738094Y-6454819D02*
X33261904Y-6454819D01*
X33261904Y-6454819D02*
X33261904Y-5454819D01*
X33261904Y-5454819D02*
X33738094Y-5454819D01*
X34738094Y-6454819D02*
X34404761Y-5978628D01*
X34166666Y-6454819D02*
X34166666Y-5454819D01*
X34166666Y-5454819D02*
X34547618Y-5454819D01*
X34547618Y-5454819D02*
X34642856Y-5502438D01*
X34642856Y-5502438D02*
X34690475Y-5550057D01*
X34690475Y-5550057D02*
X34738094Y-5645295D01*
X34738094Y-5645295D02*
X34738094Y-5788152D01*
X34738094Y-5788152D02*
X34690475Y-5883390D01*
X34690475Y-5883390D02*
X34642856Y-5931009D01*
X34642856Y-5931009D02*
X34547618Y-5978628D01*
X34547618Y-5978628D02*
X34166666Y-5978628D01*
X35166666Y-6454819D02*
X35166666Y-5454819D01*
X36214284Y-6359580D02*
X36166665Y-6407200D01*
X36166665Y-6407200D02*
X36023808Y-6454819D01*
X36023808Y-6454819D02*
X35928570Y-6454819D01*
X35928570Y-6454819D02*
X35785713Y-6407200D01*
X35785713Y-6407200D02*
X35690475Y-6311961D01*
X35690475Y-6311961D02*
X35642856Y-6216723D01*
X35642856Y-6216723D02*
X35595237Y-6026247D01*
X35595237Y-6026247D02*
X35595237Y-5883390D01*
X35595237Y-5883390D02*
X35642856Y-5692914D01*
X35642856Y-5692914D02*
X35690475Y-5597676D01*
X35690475Y-5597676D02*
X35785713Y-5502438D01*
X35785713Y-5502438D02*
X35928570Y-5454819D01*
X35928570Y-5454819D02*
X36023808Y-5454819D01*
X36023808Y-5454819D02*
X36166665Y-5502438D01*
X36166665Y-5502438D02*
X36214284Y-5550057D01*
X36642856Y-6454819D02*
X36642856Y-5454819D01*
X37214284Y-6454819D02*
X36785713Y-5883390D01*
X37214284Y-5454819D02*
X36642856Y-6026247D01*
X38928570Y-6454819D02*
X38357142Y-6454819D01*
X38642856Y-6454819D02*
X38642856Y-5454819D01*
X38642856Y-5454819D02*
X38547618Y-5597676D01*
X38547618Y-5597676D02*
X38452380Y-5692914D01*
X38452380Y-5692914D02*
X38357142Y-5740533D01*
X39547618Y-5454819D02*
X39642856Y-5454819D01*
X39642856Y-5454819D02*
X39738094Y-5502438D01*
X39738094Y-5502438D02*
X39785713Y-5550057D01*
X39785713Y-5550057D02*
X39833332Y-5645295D01*
X39833332Y-5645295D02*
X39880951Y-5835771D01*
X39880951Y-5835771D02*
X39880951Y-6073866D01*
X39880951Y-6073866D02*
X39833332Y-6264342D01*
X39833332Y-6264342D02*
X39785713Y-6359580D01*
X39785713Y-6359580D02*
X39738094Y-6407200D01*
X39738094Y-6407200D02*
X39642856Y-6454819D01*
X39642856Y-6454819D02*
X39547618Y-6454819D01*
X39547618Y-6454819D02*
X39452380Y-6407200D01*
X39452380Y-6407200D02*
X39404761Y-6359580D01*
X39404761Y-6359580D02*
X39357142Y-6264342D01*
X39357142Y-6264342D02*
X39309523Y-6073866D01*
X39309523Y-6073866D02*
X39309523Y-5835771D01*
X39309523Y-5835771D02*
X39357142Y-5645295D01*
X39357142Y-5645295D02*
X39404761Y-5550057D01*
X39404761Y-5550057D02*
X39452380Y-5502438D01*
X39452380Y-5502438D02*
X39547618Y-5454819D01*
X40499999Y-5454819D02*
X40595237Y-5454819D01*
X40595237Y-5454819D02*
X40690475Y-5502438D01*
X40690475Y-5502438D02*
X40738094Y-5550057D01*
X40738094Y-5550057D02*
X40785713Y-5645295D01*
X40785713Y-5645295D02*
X40833332Y-5835771D01*
X40833332Y-5835771D02*
X40833332Y-6073866D01*
X40833332Y-6073866D02*
X40785713Y-6264342D01*
X40785713Y-6264342D02*
X40738094Y-6359580D01*
X40738094Y-6359580D02*
X40690475Y-6407200D01*
X40690475Y-6407200D02*
X40595237Y-6454819D01*
X40595237Y-6454819D02*
X40499999Y-6454819D01*
X40499999Y-6454819D02*
X40404761Y-6407200D01*
X40404761Y-6407200D02*
X40357142Y-6359580D01*
X40357142Y-6359580D02*
X40309523Y-6264342D01*
X40309523Y-6264342D02*
X40261904Y-6073866D01*
X40261904Y-6073866D02*
X40261904Y-5835771D01*
X40261904Y-5835771D02*
X40309523Y-5645295D01*
X40309523Y-5645295D02*
X40357142Y-5550057D01*
X40357142Y-5550057D02*
X40404761Y-5502438D01*
X40404761Y-5502438D02*
X40499999Y-5454819D01*
X41452380Y-5454819D02*
X41547618Y-5454819D01*
X41547618Y-5454819D02*
X41642856Y-5502438D01*
X41642856Y-5502438D02*
X41690475Y-5550057D01*
X41690475Y-5550057D02*
X41738094Y-5645295D01*
X41738094Y-5645295D02*
X41785713Y-5835771D01*
X41785713Y-5835771D02*
X41785713Y-6073866D01*
X41785713Y-6073866D02*
X41738094Y-6264342D01*
X41738094Y-6264342D02*
X41690475Y-6359580D01*
X41690475Y-6359580D02*
X41642856Y-6407200D01*
X41642856Y-6407200D02*
X41547618Y-6454819D01*
X41547618Y-6454819D02*
X41452380Y-6454819D01*
X41452380Y-6454819D02*
X41357142Y-6407200D01*
X41357142Y-6407200D02*
X41309523Y-6359580D01*
X41309523Y-6359580D02*
X41261904Y-6264342D01*
X41261904Y-6264342D02*
X41214285Y-6073866D01*
X41214285Y-6073866D02*
X41214285Y-5835771D01*
X41214285Y-5835771D02*
X41261904Y-5645295D01*
X41261904Y-5645295D02*
X41309523Y-5550057D01*
X41309523Y-5550057D02*
X41357142Y-5502438D01*
X41357142Y-5502438D02*
X41452380Y-5454819D01*
X43738095Y-6073866D02*
X44500000Y-6073866D01*
X44976190Y-6073866D02*
X45738095Y-6073866D01*
X47690476Y-6407200D02*
X47833333Y-6454819D01*
X47833333Y-6454819D02*
X48071428Y-6454819D01*
X48071428Y-6454819D02*
X48166666Y-6407200D01*
X48166666Y-6407200D02*
X48214285Y-6359580D01*
X48214285Y-6359580D02*
X48261904Y-6264342D01*
X48261904Y-6264342D02*
X48261904Y-6169104D01*
X48261904Y-6169104D02*
X48214285Y-6073866D01*
X48214285Y-6073866D02*
X48166666Y-6026247D01*
X48166666Y-6026247D02*
X48071428Y-5978628D01*
X48071428Y-5978628D02*
X47880952Y-5931009D01*
X47880952Y-5931009D02*
X47785714Y-5883390D01*
X47785714Y-5883390D02*
X47738095Y-5835771D01*
X47738095Y-5835771D02*
X47690476Y-5740533D01*
X47690476Y-5740533D02*
X47690476Y-5645295D01*
X47690476Y-5645295D02*
X47738095Y-5550057D01*
X47738095Y-5550057D02*
X47785714Y-5502438D01*
X47785714Y-5502438D02*
X47880952Y-5454819D01*
X47880952Y-5454819D02*
X48119047Y-5454819D01*
X48119047Y-5454819D02*
X48261904Y-5502438D01*
X48690476Y-6454819D02*
X48690476Y-5454819D01*
X49261904Y-6454819D02*
X48833333Y-5883390D01*
X49261904Y-5454819D02*
X48690476Y-6026247D01*
X49880952Y-5978628D02*
X49880952Y-6454819D01*
X49547619Y-5454819D02*
X49880952Y-5978628D01*
X49880952Y-5978628D02*
X50214285Y-5454819D01*
X50452381Y-5454819D02*
X50690476Y-6454819D01*
X50690476Y-6454819D02*
X50880952Y-5740533D01*
X50880952Y-5740533D02*
X51071428Y-6454819D01*
X51071428Y-6454819D02*
X51309524Y-5454819D01*
X51642857Y-6169104D02*
X52119047Y-6169104D01*
X51547619Y-6454819D02*
X51880952Y-5454819D01*
X51880952Y-5454819D02*
X52214285Y-6454819D01*
X53119047Y-6454819D02*
X52785714Y-5978628D01*
X52547619Y-6454819D02*
X52547619Y-5454819D01*
X52547619Y-5454819D02*
X52928571Y-5454819D01*
X52928571Y-5454819D02*
X53023809Y-5502438D01*
X53023809Y-5502438D02*
X53071428Y-5550057D01*
X53071428Y-5550057D02*
X53119047Y-5645295D01*
X53119047Y-5645295D02*
X53119047Y-5788152D01*
X53119047Y-5788152D02*
X53071428Y-5883390D01*
X53071428Y-5883390D02*
X53023809Y-5931009D01*
X53023809Y-5931009D02*
X52928571Y-5978628D01*
X52928571Y-5978628D02*
X52547619Y-5978628D01*
X53547619Y-6454819D02*
X53547619Y-5454819D01*
X53547619Y-5454819D02*
X53785714Y-5454819D01*
X53785714Y-5454819D02*
X53928571Y-5502438D01*
X53928571Y-5502438D02*
X54023809Y-5597676D01*
X54023809Y-5597676D02*
X54071428Y-5692914D01*
X54071428Y-5692914D02*
X54119047Y-5883390D01*
X54119047Y-5883390D02*
X54119047Y-6026247D01*
X54119047Y-6026247D02*
X54071428Y-6216723D01*
X54071428Y-6216723D02*
X54023809Y-6311961D01*
X54023809Y-6311961D02*
X53928571Y-6407200D01*
X53928571Y-6407200D02*
X53785714Y-6454819D01*
X53785714Y-6454819D02*
X53547619Y-6454819D01*
X54547619Y-6073866D02*
X55309524Y-6073866D01*
X56357142Y-6359580D02*
X56309523Y-6407200D01*
X56309523Y-6407200D02*
X56166666Y-6454819D01*
X56166666Y-6454819D02*
X56071428Y-6454819D01*
X56071428Y-6454819D02*
X55928571Y-6407200D01*
X55928571Y-6407200D02*
X55833333Y-6311961D01*
X55833333Y-6311961D02*
X55785714Y-6216723D01*
X55785714Y-6216723D02*
X55738095Y-6026247D01*
X55738095Y-6026247D02*
X55738095Y-5883390D01*
X55738095Y-5883390D02*
X55785714Y-5692914D01*
X55785714Y-5692914D02*
X55833333Y-5597676D01*
X55833333Y-5597676D02*
X55928571Y-5502438D01*
X55928571Y-5502438D02*
X56071428Y-5454819D01*
X56071428Y-5454819D02*
X56166666Y-5454819D01*
X56166666Y-5454819D02*
X56309523Y-5502438D01*
X56309523Y-5502438D02*
X56357142Y-5550057D01*
X56976190Y-5454819D02*
X57166666Y-5454819D01*
X57166666Y-5454819D02*
X57261904Y-5502438D01*
X57261904Y-5502438D02*
X57357142Y-5597676D01*
X57357142Y-5597676D02*
X57404761Y-5788152D01*
X57404761Y-5788152D02*
X57404761Y-6121485D01*
X57404761Y-6121485D02*
X57357142Y-6311961D01*
X57357142Y-6311961D02*
X57261904Y-6407200D01*
X57261904Y-6407200D02*
X57166666Y-6454819D01*
X57166666Y-6454819D02*
X56976190Y-6454819D01*
X56976190Y-6454819D02*
X56880952Y-6407200D01*
X56880952Y-6407200D02*
X56785714Y-6311961D01*
X56785714Y-6311961D02*
X56738095Y-6121485D01*
X56738095Y-6121485D02*
X56738095Y-5788152D01*
X56738095Y-5788152D02*
X56785714Y-5597676D01*
X56785714Y-5597676D02*
X56880952Y-5502438D01*
X56880952Y-5502438D02*
X56976190Y-5454819D01*
X57833333Y-6454819D02*
X57833333Y-5454819D01*
X57833333Y-5454819D02*
X58166666Y-6169104D01*
X58166666Y-6169104D02*
X58499999Y-5454819D01*
X58499999Y-5454819D02*
X58499999Y-6454819D01*
X58976190Y-6454819D02*
X58976190Y-5454819D01*
X58976190Y-5454819D02*
X59357142Y-5454819D01*
X59357142Y-5454819D02*
X59452380Y-5502438D01*
X59452380Y-5502438D02*
X59499999Y-5550057D01*
X59499999Y-5550057D02*
X59547618Y-5645295D01*
X59547618Y-5645295D02*
X59547618Y-5788152D01*
X59547618Y-5788152D02*
X59499999Y-5883390D01*
X59499999Y-5883390D02*
X59452380Y-5931009D01*
X59452380Y-5931009D02*
X59357142Y-5978628D01*
X59357142Y-5978628D02*
X58976190Y-5978628D01*
X59976190Y-5454819D02*
X59976190Y-6264342D01*
X59976190Y-6264342D02*
X60023809Y-6359580D01*
X60023809Y-6359580D02*
X60071428Y-6407200D01*
X60071428Y-6407200D02*
X60166666Y-6454819D01*
X60166666Y-6454819D02*
X60357142Y-6454819D01*
X60357142Y-6454819D02*
X60452380Y-6407200D01*
X60452380Y-6407200D02*
X60499999Y-6359580D01*
X60499999Y-6359580D02*
X60547618Y-6264342D01*
X60547618Y-6264342D02*
X60547618Y-5454819D01*
X60880952Y-5454819D02*
X61452380Y-5454819D01*
X61166666Y-6454819D02*
X61166666Y-5454819D01*
X61785714Y-5931009D02*
X62119047Y-5931009D01*
X62261904Y-6454819D02*
X61785714Y-6454819D01*
X61785714Y-6454819D02*
X61785714Y-5454819D01*
X61785714Y-5454819D02*
X62261904Y-5454819D01*
X62690476Y-6073866D02*
X63452381Y-6073866D01*
X64499999Y-6359580D02*
X64452380Y-6407200D01*
X64452380Y-6407200D02*
X64309523Y-6454819D01*
X64309523Y-6454819D02*
X64214285Y-6454819D01*
X64214285Y-6454819D02*
X64071428Y-6407200D01*
X64071428Y-6407200D02*
X63976190Y-6311961D01*
X63976190Y-6311961D02*
X63928571Y-6216723D01*
X63928571Y-6216723D02*
X63880952Y-6026247D01*
X63880952Y-6026247D02*
X63880952Y-5883390D01*
X63880952Y-5883390D02*
X63928571Y-5692914D01*
X63928571Y-5692914D02*
X63976190Y-5597676D01*
X63976190Y-5597676D02*
X64071428Y-5502438D01*
X64071428Y-5502438D02*
X64214285Y-5454819D01*
X64214285Y-5454819D02*
X64309523Y-5454819D01*
X64309523Y-5454819D02*
X64452380Y-5502438D01*
X64452380Y-5502438D02*
X64499999Y-5550057D01*
X64880952Y-6169104D02*
X65357142Y-6169104D01*
X64785714Y-6454819D02*
X65119047Y-5454819D01*
X65119047Y-5454819D02*
X65452380Y-6454819D01*
X66357142Y-6454819D02*
X66023809Y-5978628D01*
X65785714Y-6454819D02*
X65785714Y-5454819D01*
X65785714Y-5454819D02*
X66166666Y-5454819D01*
X66166666Y-5454819D02*
X66261904Y-5502438D01*
X66261904Y-5502438D02*
X66309523Y-5550057D01*
X66309523Y-5550057D02*
X66357142Y-5645295D01*
X66357142Y-5645295D02*
X66357142Y-5788152D01*
X66357142Y-5788152D02*
X66309523Y-5883390D01*
X66309523Y-5883390D02*
X66261904Y-5931009D01*
X66261904Y-5931009D02*
X66166666Y-5978628D01*
X66166666Y-5978628D02*
X65785714Y-5978628D01*
X67357142Y-6454819D02*
X67023809Y-5978628D01*
X66785714Y-6454819D02*
X66785714Y-5454819D01*
X66785714Y-5454819D02*
X67166666Y-5454819D01*
X67166666Y-5454819D02*
X67261904Y-5502438D01*
X67261904Y-5502438D02*
X67309523Y-5550057D01*
X67309523Y-5550057D02*
X67357142Y-5645295D01*
X67357142Y-5645295D02*
X67357142Y-5788152D01*
X67357142Y-5788152D02*
X67309523Y-5883390D01*
X67309523Y-5883390D02*
X67261904Y-5931009D01*
X67261904Y-5931009D02*
X67166666Y-5978628D01*
X67166666Y-5978628D02*
X66785714Y-5978628D01*
X67785714Y-6454819D02*
X67785714Y-5454819D01*
X68261904Y-5931009D02*
X68595237Y-5931009D01*
X68738094Y-6454819D02*
X68261904Y-6454819D01*
X68261904Y-6454819D02*
X68261904Y-5454819D01*
X68261904Y-5454819D02*
X68738094Y-5454819D01*
X69738094Y-6454819D02*
X69404761Y-5978628D01*
X69166666Y-6454819D02*
X69166666Y-5454819D01*
X69166666Y-5454819D02*
X69547618Y-5454819D01*
X69547618Y-5454819D02*
X69642856Y-5502438D01*
X69642856Y-5502438D02*
X69690475Y-5550057D01*
X69690475Y-5550057D02*
X69738094Y-5645295D01*
X69738094Y-5645295D02*
X69738094Y-5788152D01*
X69738094Y-5788152D02*
X69690475Y-5883390D01*
X69690475Y-5883390D02*
X69642856Y-5931009D01*
X69642856Y-5931009D02*
X69547618Y-5978628D01*
X69547618Y-5978628D02*
X69166666Y-5978628D01*
X71690476Y-6073866D02*
X72452381Y-6073866D01*
X72928571Y-6073866D02*
X73690476Y-6073866D01*
X76261904Y-6454819D02*
X75928571Y-5978628D01*
X75690476Y-6454819D02*
X75690476Y-5454819D01*
X75690476Y-5454819D02*
X76071428Y-5454819D01*
X76071428Y-5454819D02*
X76166666Y-5502438D01*
X76166666Y-5502438D02*
X76214285Y-5550057D01*
X76214285Y-5550057D02*
X76261904Y-5645295D01*
X76261904Y-5645295D02*
X76261904Y-5788152D01*
X76261904Y-5788152D02*
X76214285Y-5883390D01*
X76214285Y-5883390D02*
X76166666Y-5931009D01*
X76166666Y-5931009D02*
X76071428Y-5978628D01*
X76071428Y-5978628D02*
X75690476Y-5978628D01*
X76690476Y-5931009D02*
X77023809Y-5931009D01*
X77166666Y-6454819D02*
X76690476Y-6454819D01*
X76690476Y-6454819D02*
X76690476Y-5454819D01*
X76690476Y-5454819D02*
X77166666Y-5454819D01*
X77452381Y-5454819D02*
X77785714Y-6454819D01*
X77785714Y-6454819D02*
X78119047Y-5454819D01*
X79166667Y-6169104D02*
X79642857Y-6169104D01*
X79071429Y-6454819D02*
X79404762Y-5454819D01*
X79404762Y-5454819D02*
X79738095Y-6454819D01*
X34114285Y-8433057D02*
X34057142Y-8490200D01*
X34057142Y-8490200D02*
X33885714Y-8547342D01*
X33885714Y-8547342D02*
X33771428Y-8547342D01*
X33771428Y-8547342D02*
X33599999Y-8490200D01*
X33599999Y-8490200D02*
X33485714Y-8375914D01*
X33485714Y-8375914D02*
X33428571Y-8261628D01*
X33428571Y-8261628D02*
X33371428Y-8033057D01*
X33371428Y-8033057D02*
X33371428Y-7861628D01*
X33371428Y-7861628D02*
X33428571Y-7633057D01*
X33428571Y-7633057D02*
X33485714Y-7518771D01*
X33485714Y-7518771D02*
X33599999Y-7404485D01*
X33599999Y-7404485D02*
X33771428Y-7347342D01*
X33771428Y-7347342D02*
X33885714Y-7347342D01*
X33885714Y-7347342D02*
X34057142Y-7404485D01*
X34057142Y-7404485D02*
X34114285Y-7461628D01*
X34628571Y-8547342D02*
X34628571Y-7347342D01*
X34628571Y-7347342D02*
X35028571Y-8204485D01*
X35028571Y-8204485D02*
X35428571Y-7347342D01*
X35428571Y-7347342D02*
X35428571Y-8547342D01*
X36514286Y-7747342D02*
X36514286Y-8547342D01*
X36228571Y-7290200D02*
X35942857Y-8147342D01*
X35942857Y-8147342D02*
X36685714Y-8147342D01*
X74114285Y-8433057D02*
X74057142Y-8490200D01*
X74057142Y-8490200D02*
X73885714Y-8547342D01*
X73885714Y-8547342D02*
X73771428Y-8547342D01*
X73771428Y-8547342D02*
X73599999Y-8490200D01*
X73599999Y-8490200D02*
X73485714Y-8375914D01*
X73485714Y-8375914D02*
X73428571Y-8261628D01*
X73428571Y-8261628D02*
X73371428Y-8033057D01*
X73371428Y-8033057D02*
X73371428Y-7861628D01*
X73371428Y-7861628D02*
X73428571Y-7633057D01*
X73428571Y-7633057D02*
X73485714Y-7518771D01*
X73485714Y-7518771D02*
X73599999Y-7404485D01*
X73599999Y-7404485D02*
X73771428Y-7347342D01*
X73771428Y-7347342D02*
X73885714Y-7347342D01*
X73885714Y-7347342D02*
X74057142Y-7404485D01*
X74057142Y-7404485D02*
X74114285Y-7461628D01*
X74628571Y-8547342D02*
X74628571Y-7347342D01*
X74628571Y-7347342D02*
X75028571Y-8204485D01*
X75028571Y-8204485D02*
X75428571Y-7347342D01*
X75428571Y-7347342D02*
X75428571Y-8547342D01*
X76514286Y-7747342D02*
X76514286Y-8547342D01*
X76228571Y-7290200D02*
X75942857Y-8147342D01*
X75942857Y-8147342D02*
X76685714Y-8147342D01*
X62495238Y-9862295D02*
X62495238Y-9062295D01*
X62495238Y-9062295D02*
X62800000Y-9062295D01*
X62800000Y-9062295D02*
X62876190Y-9100390D01*
X62876190Y-9100390D02*
X62914285Y-9138485D01*
X62914285Y-9138485D02*
X62952381Y-9214676D01*
X62952381Y-9214676D02*
X62952381Y-9328961D01*
X62952381Y-9328961D02*
X62914285Y-9405152D01*
X62914285Y-9405152D02*
X62876190Y-9443247D01*
X62876190Y-9443247D02*
X62800000Y-9481342D01*
X62800000Y-9481342D02*
X62495238Y-9481342D01*
X63295238Y-9862295D02*
X63295238Y-9062295D01*
X63676190Y-9862295D02*
X63676190Y-9062295D01*
X63676190Y-9062295D02*
X64133333Y-9862295D01*
X64133333Y-9862295D02*
X64133333Y-9062295D01*
X65542856Y-9862295D02*
X65085713Y-9862295D01*
X65314285Y-9862295D02*
X65314285Y-9062295D01*
X65314285Y-9062295D02*
X65238094Y-9176580D01*
X65238094Y-9176580D02*
X65161904Y-9252771D01*
X65161904Y-9252771D02*
X65085713Y-9290866D01*
X96404762Y-41431009D02*
X96738095Y-41431009D01*
X96880952Y-41954819D02*
X96404762Y-41954819D01*
X96404762Y-41954819D02*
X96404762Y-40954819D01*
X96404762Y-40954819D02*
X96880952Y-40954819D01*
X97785714Y-41954819D02*
X97309524Y-41954819D01*
X97309524Y-41954819D02*
X97309524Y-40954819D01*
X98690476Y-41954819D02*
X98357143Y-41478628D01*
X98119048Y-41954819D02*
X98119048Y-40954819D01*
X98119048Y-40954819D02*
X98500000Y-40954819D01*
X98500000Y-40954819D02*
X98595238Y-41002438D01*
X98595238Y-41002438D02*
X98642857Y-41050057D01*
X98642857Y-41050057D02*
X98690476Y-41145295D01*
X98690476Y-41145295D02*
X98690476Y-41288152D01*
X98690476Y-41288152D02*
X98642857Y-41383390D01*
X98642857Y-41383390D02*
X98595238Y-41431009D01*
X98595238Y-41431009D02*
X98500000Y-41478628D01*
X98500000Y-41478628D02*
X98119048Y-41478628D01*
X99071429Y-41907200D02*
X99214286Y-41954819D01*
X99214286Y-41954819D02*
X99452381Y-41954819D01*
X99452381Y-41954819D02*
X99547619Y-41907200D01*
X99547619Y-41907200D02*
X99595238Y-41859580D01*
X99595238Y-41859580D02*
X99642857Y-41764342D01*
X99642857Y-41764342D02*
X99642857Y-41669104D01*
X99642857Y-41669104D02*
X99595238Y-41573866D01*
X99595238Y-41573866D02*
X99547619Y-41526247D01*
X99547619Y-41526247D02*
X99452381Y-41478628D01*
X99452381Y-41478628D02*
X99261905Y-41431009D01*
X99261905Y-41431009D02*
X99166667Y-41383390D01*
X99166667Y-41383390D02*
X99119048Y-41335771D01*
X99119048Y-41335771D02*
X99071429Y-41240533D01*
X99071429Y-41240533D02*
X99071429Y-41145295D01*
X99071429Y-41145295D02*
X99119048Y-41050057D01*
X99119048Y-41050057D02*
X99166667Y-41002438D01*
X99166667Y-41002438D02*
X99261905Y-40954819D01*
X99261905Y-40954819D02*
X99500000Y-40954819D01*
X99500000Y-40954819D02*
X99642857Y-41002438D01*
X98761905Y-53954819D02*
X99333333Y-53954819D01*
X99047619Y-54954819D02*
X99047619Y-53954819D01*
X99857143Y-53954819D02*
X100047619Y-53954819D01*
X100047619Y-53954819D02*
X100142857Y-54002438D01*
X100142857Y-54002438D02*
X100238095Y-54097676D01*
X100238095Y-54097676D02*
X100285714Y-54288152D01*
X100285714Y-54288152D02*
X100285714Y-54621485D01*
X100285714Y-54621485D02*
X100238095Y-54811961D01*
X100238095Y-54811961D02*
X100142857Y-54907200D01*
X100142857Y-54907200D02*
X100047619Y-54954819D01*
X100047619Y-54954819D02*
X99857143Y-54954819D01*
X99857143Y-54954819D02*
X99761905Y-54907200D01*
X99761905Y-54907200D02*
X99666667Y-54811961D01*
X99666667Y-54811961D02*
X99619048Y-54621485D01*
X99619048Y-54621485D02*
X99619048Y-54288152D01*
X99619048Y-54288152D02*
X99666667Y-54097676D01*
X99666667Y-54097676D02*
X99761905Y-54002438D01*
X99761905Y-54002438D02*
X99857143Y-53954819D01*
X101047619Y-54431009D02*
X100714286Y-54431009D01*
X100714286Y-54954819D02*
X100714286Y-53954819D01*
X100714286Y-53954819D02*
X101190476Y-53954819D01*
X22886905Y-30454819D02*
X22886905Y-29454819D01*
X22886905Y-29454819D02*
X23125000Y-29454819D01*
X23125000Y-29454819D02*
X23267857Y-29502438D01*
X23267857Y-29502438D02*
X23363095Y-29597676D01*
X23363095Y-29597676D02*
X23410714Y-29692914D01*
X23410714Y-29692914D02*
X23458333Y-29883390D01*
X23458333Y-29883390D02*
X23458333Y-30026247D01*
X23458333Y-30026247D02*
X23410714Y-30216723D01*
X23410714Y-30216723D02*
X23363095Y-30311961D01*
X23363095Y-30311961D02*
X23267857Y-30407200D01*
X23267857Y-30407200D02*
X23125000Y-30454819D01*
X23125000Y-30454819D02*
X22886905Y-30454819D01*
X24410714Y-30454819D02*
X23839286Y-30454819D01*
X24125000Y-30454819D02*
X24125000Y-29454819D01*
X24125000Y-29454819D02*
X24029762Y-29597676D01*
X24029762Y-29597676D02*
X23934524Y-29692914D01*
X23934524Y-29692914D02*
X23839286Y-29740533D01*
X15541666Y-31111009D02*
X15208333Y-31111009D01*
X15208333Y-31634819D02*
X15208333Y-30634819D01*
X15208333Y-30634819D02*
X15684523Y-30634819D01*
X16589285Y-31634819D02*
X16017857Y-31634819D01*
X16303571Y-31634819D02*
X16303571Y-30634819D01*
X16303571Y-30634819D02*
X16208333Y-30777676D01*
X16208333Y-30777676D02*
X16113095Y-30872914D01*
X16113095Y-30872914D02*
X16017857Y-30920533D01*
X75857142Y-19929580D02*
X75809523Y-19977200D01*
X75809523Y-19977200D02*
X75666666Y-20024819D01*
X75666666Y-20024819D02*
X75571428Y-20024819D01*
X75571428Y-20024819D02*
X75428571Y-19977200D01*
X75428571Y-19977200D02*
X75333333Y-19881961D01*
X75333333Y-19881961D02*
X75285714Y-19786723D01*
X75285714Y-19786723D02*
X75238095Y-19596247D01*
X75238095Y-19596247D02*
X75238095Y-19453390D01*
X75238095Y-19453390D02*
X75285714Y-19262914D01*
X75285714Y-19262914D02*
X75333333Y-19167676D01*
X75333333Y-19167676D02*
X75428571Y-19072438D01*
X75428571Y-19072438D02*
X75571428Y-19024819D01*
X75571428Y-19024819D02*
X75666666Y-19024819D01*
X75666666Y-19024819D02*
X75809523Y-19072438D01*
X75809523Y-19072438D02*
X75857142Y-19120057D01*
X76809523Y-20024819D02*
X76238095Y-20024819D01*
X76523809Y-20024819D02*
X76523809Y-19024819D01*
X76523809Y-19024819D02*
X76428571Y-19167676D01*
X76428571Y-19167676D02*
X76333333Y-19262914D01*
X76333333Y-19262914D02*
X76238095Y-19310533D01*
X77714285Y-19024819D02*
X77238095Y-19024819D01*
X77238095Y-19024819D02*
X77190476Y-19501009D01*
X77190476Y-19501009D02*
X77238095Y-19453390D01*
X77238095Y-19453390D02*
X77333333Y-19405771D01*
X77333333Y-19405771D02*
X77571428Y-19405771D01*
X77571428Y-19405771D02*
X77666666Y-19453390D01*
X77666666Y-19453390D02*
X77714285Y-19501009D01*
X77714285Y-19501009D02*
X77761904Y-19596247D01*
X77761904Y-19596247D02*
X77761904Y-19834342D01*
X77761904Y-19834342D02*
X77714285Y-19929580D01*
X77714285Y-19929580D02*
X77666666Y-19977200D01*
X77666666Y-19977200D02*
X77571428Y-20024819D01*
X77571428Y-20024819D02*
X77333333Y-20024819D01*
X77333333Y-20024819D02*
X77238095Y-19977200D01*
X77238095Y-19977200D02*
X77190476Y-19929580D01*
X107354819Y-33333333D02*
X108069104Y-33333333D01*
X108069104Y-33333333D02*
X108211961Y-33380952D01*
X108211961Y-33380952D02*
X108307200Y-33476190D01*
X108307200Y-33476190D02*
X108354819Y-33619047D01*
X108354819Y-33619047D02*
X108354819Y-33714285D01*
X107354819Y-32428571D02*
X107354819Y-32619047D01*
X107354819Y-32619047D02*
X107402438Y-32714285D01*
X107402438Y-32714285D02*
X107450057Y-32761904D01*
X107450057Y-32761904D02*
X107592914Y-32857142D01*
X107592914Y-32857142D02*
X107783390Y-32904761D01*
X107783390Y-32904761D02*
X108164342Y-32904761D01*
X108164342Y-32904761D02*
X108259580Y-32857142D01*
X108259580Y-32857142D02*
X108307200Y-32809523D01*
X108307200Y-32809523D02*
X108354819Y-32714285D01*
X108354819Y-32714285D02*
X108354819Y-32523809D01*
X108354819Y-32523809D02*
X108307200Y-32428571D01*
X108307200Y-32428571D02*
X108259580Y-32380952D01*
X108259580Y-32380952D02*
X108164342Y-32333333D01*
X108164342Y-32333333D02*
X107926247Y-32333333D01*
X107926247Y-32333333D02*
X107831009Y-32380952D01*
X107831009Y-32380952D02*
X107783390Y-32428571D01*
X107783390Y-32428571D02*
X107735771Y-32523809D01*
X107735771Y-32523809D02*
X107735771Y-32714285D01*
X107735771Y-32714285D02*
X107783390Y-32809523D01*
X107783390Y-32809523D02*
X107831009Y-32857142D01*
X107831009Y-32857142D02*
X107926247Y-32904761D01*
X61613095Y-44004819D02*
X61613095Y-44814342D01*
X61613095Y-44814342D02*
X61660714Y-44909580D01*
X61660714Y-44909580D02*
X61708333Y-44957200D01*
X61708333Y-44957200D02*
X61803571Y-45004819D01*
X61803571Y-45004819D02*
X61994047Y-45004819D01*
X61994047Y-45004819D02*
X62089285Y-44957200D01*
X62089285Y-44957200D02*
X62136904Y-44909580D01*
X62136904Y-44909580D02*
X62184523Y-44814342D01*
X62184523Y-44814342D02*
X62184523Y-44004819D01*
X63089285Y-44004819D02*
X62898809Y-44004819D01*
X62898809Y-44004819D02*
X62803571Y-44052438D01*
X62803571Y-44052438D02*
X62755952Y-44100057D01*
X62755952Y-44100057D02*
X62660714Y-44242914D01*
X62660714Y-44242914D02*
X62613095Y-44433390D01*
X62613095Y-44433390D02*
X62613095Y-44814342D01*
X62613095Y-44814342D02*
X62660714Y-44909580D01*
X62660714Y-44909580D02*
X62708333Y-44957200D01*
X62708333Y-44957200D02*
X62803571Y-45004819D01*
X62803571Y-45004819D02*
X62994047Y-45004819D01*
X62994047Y-45004819D02*
X63089285Y-44957200D01*
X63089285Y-44957200D02*
X63136904Y-44909580D01*
X63136904Y-44909580D02*
X63184523Y-44814342D01*
X63184523Y-44814342D02*
X63184523Y-44576247D01*
X63184523Y-44576247D02*
X63136904Y-44481009D01*
X63136904Y-44481009D02*
X63089285Y-44433390D01*
X63089285Y-44433390D02*
X62994047Y-44385771D01*
X62994047Y-44385771D02*
X62803571Y-44385771D01*
X62803571Y-44385771D02*
X62708333Y-44433390D01*
X62708333Y-44433390D02*
X62660714Y-44481009D01*
X62660714Y-44481009D02*
X62613095Y-44576247D01*
X103666667Y-81754819D02*
X103666667Y-80754819D01*
X103666667Y-80754819D02*
X104000000Y-81469104D01*
X104000000Y-81469104D02*
X104333333Y-80754819D01*
X104333333Y-80754819D02*
X104333333Y-81754819D01*
X104809524Y-81754819D02*
X104809524Y-80754819D01*
X104809524Y-81231009D02*
X105380952Y-81231009D01*
X105380952Y-81754819D02*
X105380952Y-80754819D01*
X106285714Y-81088152D02*
X106285714Y-81754819D01*
X106047619Y-80707200D02*
X105809524Y-81421485D01*
X105809524Y-81421485D02*
X106428571Y-81421485D01*
X75690476Y-25124819D02*
X75690476Y-25839104D01*
X75690476Y-25839104D02*
X75642857Y-25981961D01*
X75642857Y-25981961D02*
X75547619Y-26077200D01*
X75547619Y-26077200D02*
X75404762Y-26124819D01*
X75404762Y-26124819D02*
X75309524Y-26124819D01*
X76690476Y-26124819D02*
X76119048Y-26124819D01*
X76404762Y-26124819D02*
X76404762Y-25124819D01*
X76404762Y-25124819D02*
X76309524Y-25267676D01*
X76309524Y-25267676D02*
X76214286Y-25362914D01*
X76214286Y-25362914D02*
X76119048Y-25410533D01*
X77309524Y-25124819D02*
X77404762Y-25124819D01*
X77404762Y-25124819D02*
X77500000Y-25172438D01*
X77500000Y-25172438D02*
X77547619Y-25220057D01*
X77547619Y-25220057D02*
X77595238Y-25315295D01*
X77595238Y-25315295D02*
X77642857Y-25505771D01*
X77642857Y-25505771D02*
X77642857Y-25743866D01*
X77642857Y-25743866D02*
X77595238Y-25934342D01*
X77595238Y-25934342D02*
X77547619Y-26029580D01*
X77547619Y-26029580D02*
X77500000Y-26077200D01*
X77500000Y-26077200D02*
X77404762Y-26124819D01*
X77404762Y-26124819D02*
X77309524Y-26124819D01*
X77309524Y-26124819D02*
X77214286Y-26077200D01*
X77214286Y-26077200D02*
X77166667Y-26029580D01*
X77166667Y-26029580D02*
X77119048Y-25934342D01*
X77119048Y-25934342D02*
X77071429Y-25743866D01*
X77071429Y-25743866D02*
X77071429Y-25505771D01*
X77071429Y-25505771D02*
X77119048Y-25315295D01*
X77119048Y-25315295D02*
X77166667Y-25220057D01*
X77166667Y-25220057D02*
X77214286Y-25172438D01*
X77214286Y-25172438D02*
X77309524Y-25124819D01*
X15232142Y-47199580D02*
X15184523Y-47247200D01*
X15184523Y-47247200D02*
X15041666Y-47294819D01*
X15041666Y-47294819D02*
X14946428Y-47294819D01*
X14946428Y-47294819D02*
X14803571Y-47247200D01*
X14803571Y-47247200D02*
X14708333Y-47151961D01*
X14708333Y-47151961D02*
X14660714Y-47056723D01*
X14660714Y-47056723D02*
X14613095Y-46866247D01*
X14613095Y-46866247D02*
X14613095Y-46723390D01*
X14613095Y-46723390D02*
X14660714Y-46532914D01*
X14660714Y-46532914D02*
X14708333Y-46437676D01*
X14708333Y-46437676D02*
X14803571Y-46342438D01*
X14803571Y-46342438D02*
X14946428Y-46294819D01*
X14946428Y-46294819D02*
X15041666Y-46294819D01*
X15041666Y-46294819D02*
X15184523Y-46342438D01*
X15184523Y-46342438D02*
X15232142Y-46390057D01*
X16184523Y-47294819D02*
X15613095Y-47294819D01*
X15898809Y-47294819D02*
X15898809Y-46294819D01*
X15898809Y-46294819D02*
X15803571Y-46437676D01*
X15803571Y-46437676D02*
X15708333Y-46532914D01*
X15708333Y-46532914D02*
X15613095Y-46580533D01*
X16755952Y-46723390D02*
X16660714Y-46675771D01*
X16660714Y-46675771D02*
X16613095Y-46628152D01*
X16613095Y-46628152D02*
X16565476Y-46532914D01*
X16565476Y-46532914D02*
X16565476Y-46485295D01*
X16565476Y-46485295D02*
X16613095Y-46390057D01*
X16613095Y-46390057D02*
X16660714Y-46342438D01*
X16660714Y-46342438D02*
X16755952Y-46294819D01*
X16755952Y-46294819D02*
X16946428Y-46294819D01*
X16946428Y-46294819D02*
X17041666Y-46342438D01*
X17041666Y-46342438D02*
X17089285Y-46390057D01*
X17089285Y-46390057D02*
X17136904Y-46485295D01*
X17136904Y-46485295D02*
X17136904Y-46532914D01*
X17136904Y-46532914D02*
X17089285Y-46628152D01*
X17089285Y-46628152D02*
X17041666Y-46675771D01*
X17041666Y-46675771D02*
X16946428Y-46723390D01*
X16946428Y-46723390D02*
X16755952Y-46723390D01*
X16755952Y-46723390D02*
X16660714Y-46771009D01*
X16660714Y-46771009D02*
X16613095Y-46818628D01*
X16613095Y-46818628D02*
X16565476Y-46913866D01*
X16565476Y-46913866D02*
X16565476Y-47104342D01*
X16565476Y-47104342D02*
X16613095Y-47199580D01*
X16613095Y-47199580D02*
X16660714Y-47247200D01*
X16660714Y-47247200D02*
X16755952Y-47294819D01*
X16755952Y-47294819D02*
X16946428Y-47294819D01*
X16946428Y-47294819D02*
X17041666Y-47247200D01*
X17041666Y-47247200D02*
X17089285Y-47199580D01*
X17089285Y-47199580D02*
X17136904Y-47104342D01*
X17136904Y-47104342D02*
X17136904Y-46913866D01*
X17136904Y-46913866D02*
X17089285Y-46818628D01*
X17089285Y-46818628D02*
X17041666Y-46771009D01*
X17041666Y-46771009D02*
X16946428Y-46723390D01*
X22458333Y-54134819D02*
X22125000Y-53658628D01*
X21886905Y-54134819D02*
X21886905Y-53134819D01*
X21886905Y-53134819D02*
X22267857Y-53134819D01*
X22267857Y-53134819D02*
X22363095Y-53182438D01*
X22363095Y-53182438D02*
X22410714Y-53230057D01*
X22410714Y-53230057D02*
X22458333Y-53325295D01*
X22458333Y-53325295D02*
X22458333Y-53468152D01*
X22458333Y-53468152D02*
X22410714Y-53563390D01*
X22410714Y-53563390D02*
X22363095Y-53611009D01*
X22363095Y-53611009D02*
X22267857Y-53658628D01*
X22267857Y-53658628D02*
X21886905Y-53658628D01*
X22839286Y-54087200D02*
X22982143Y-54134819D01*
X22982143Y-54134819D02*
X23220238Y-54134819D01*
X23220238Y-54134819D02*
X23315476Y-54087200D01*
X23315476Y-54087200D02*
X23363095Y-54039580D01*
X23363095Y-54039580D02*
X23410714Y-53944342D01*
X23410714Y-53944342D02*
X23410714Y-53849104D01*
X23410714Y-53849104D02*
X23363095Y-53753866D01*
X23363095Y-53753866D02*
X23315476Y-53706247D01*
X23315476Y-53706247D02*
X23220238Y-53658628D01*
X23220238Y-53658628D02*
X23029762Y-53611009D01*
X23029762Y-53611009D02*
X22934524Y-53563390D01*
X22934524Y-53563390D02*
X22886905Y-53515771D01*
X22886905Y-53515771D02*
X22839286Y-53420533D01*
X22839286Y-53420533D02*
X22839286Y-53325295D01*
X22839286Y-53325295D02*
X22886905Y-53230057D01*
X22886905Y-53230057D02*
X22934524Y-53182438D01*
X22934524Y-53182438D02*
X23029762Y-53134819D01*
X23029762Y-53134819D02*
X23267857Y-53134819D01*
X23267857Y-53134819D02*
X23410714Y-53182438D01*
X23839286Y-54134819D02*
X23839286Y-53134819D01*
X23839286Y-53611009D02*
X24410714Y-53611009D01*
X24410714Y-54134819D02*
X24410714Y-53134819D01*
X24791667Y-53134819D02*
X25410714Y-53134819D01*
X25410714Y-53134819D02*
X25077381Y-53515771D01*
X25077381Y-53515771D02*
X25220238Y-53515771D01*
X25220238Y-53515771D02*
X25315476Y-53563390D01*
X25315476Y-53563390D02*
X25363095Y-53611009D01*
X25363095Y-53611009D02*
X25410714Y-53706247D01*
X25410714Y-53706247D02*
X25410714Y-53944342D01*
X25410714Y-53944342D02*
X25363095Y-54039580D01*
X25363095Y-54039580D02*
X25315476Y-54087200D01*
X25315476Y-54087200D02*
X25220238Y-54134819D01*
X25220238Y-54134819D02*
X24934524Y-54134819D01*
X24934524Y-54134819D02*
X24839286Y-54087200D01*
X24839286Y-54087200D02*
X24791667Y-54039580D01*
X69958333Y-39179580D02*
X69910714Y-39227200D01*
X69910714Y-39227200D02*
X69767857Y-39274819D01*
X69767857Y-39274819D02*
X69672619Y-39274819D01*
X69672619Y-39274819D02*
X69529762Y-39227200D01*
X69529762Y-39227200D02*
X69434524Y-39131961D01*
X69434524Y-39131961D02*
X69386905Y-39036723D01*
X69386905Y-39036723D02*
X69339286Y-38846247D01*
X69339286Y-38846247D02*
X69339286Y-38703390D01*
X69339286Y-38703390D02*
X69386905Y-38512914D01*
X69386905Y-38512914D02*
X69434524Y-38417676D01*
X69434524Y-38417676D02*
X69529762Y-38322438D01*
X69529762Y-38322438D02*
X69672619Y-38274819D01*
X69672619Y-38274819D02*
X69767857Y-38274819D01*
X69767857Y-38274819D02*
X69910714Y-38322438D01*
X69910714Y-38322438D02*
X69958333Y-38370057D01*
X70815476Y-38608152D02*
X70815476Y-39274819D01*
X70577381Y-38227200D02*
X70339286Y-38941485D01*
X70339286Y-38941485D02*
X70958333Y-38941485D01*
X38363095Y-45054819D02*
X38363095Y-45864342D01*
X38363095Y-45864342D02*
X38410714Y-45959580D01*
X38410714Y-45959580D02*
X38458333Y-46007200D01*
X38458333Y-46007200D02*
X38553571Y-46054819D01*
X38553571Y-46054819D02*
X38744047Y-46054819D01*
X38744047Y-46054819D02*
X38839285Y-46007200D01*
X38839285Y-46007200D02*
X38886904Y-45959580D01*
X38886904Y-45959580D02*
X38934523Y-45864342D01*
X38934523Y-45864342D02*
X38934523Y-45054819D01*
X39886904Y-45054819D02*
X39410714Y-45054819D01*
X39410714Y-45054819D02*
X39363095Y-45531009D01*
X39363095Y-45531009D02*
X39410714Y-45483390D01*
X39410714Y-45483390D02*
X39505952Y-45435771D01*
X39505952Y-45435771D02*
X39744047Y-45435771D01*
X39744047Y-45435771D02*
X39839285Y-45483390D01*
X39839285Y-45483390D02*
X39886904Y-45531009D01*
X39886904Y-45531009D02*
X39934523Y-45626247D01*
X39934523Y-45626247D02*
X39934523Y-45864342D01*
X39934523Y-45864342D02*
X39886904Y-45959580D01*
X39886904Y-45959580D02*
X39839285Y-46007200D01*
X39839285Y-46007200D02*
X39744047Y-46054819D01*
X39744047Y-46054819D02*
X39505952Y-46054819D01*
X39505952Y-46054819D02*
X39410714Y-46007200D01*
X39410714Y-46007200D02*
X39363095Y-45959580D01*
X90666666Y-20284819D02*
X90333333Y-19808628D01*
X90095238Y-20284819D02*
X90095238Y-19284819D01*
X90095238Y-19284819D02*
X90476190Y-19284819D01*
X90476190Y-19284819D02*
X90571428Y-19332438D01*
X90571428Y-19332438D02*
X90619047Y-19380057D01*
X90619047Y-19380057D02*
X90666666Y-19475295D01*
X90666666Y-19475295D02*
X90666666Y-19618152D01*
X90666666Y-19618152D02*
X90619047Y-19713390D01*
X90619047Y-19713390D02*
X90571428Y-19761009D01*
X90571428Y-19761009D02*
X90476190Y-19808628D01*
X90476190Y-19808628D02*
X90095238Y-19808628D01*
X91000000Y-19284819D02*
X91666666Y-19284819D01*
X91666666Y-19284819D02*
X91238095Y-20284819D01*
X1554819Y-68333333D02*
X2269104Y-68333333D01*
X2269104Y-68333333D02*
X2411961Y-68380952D01*
X2411961Y-68380952D02*
X2507200Y-68476190D01*
X2507200Y-68476190D02*
X2554819Y-68619047D01*
X2554819Y-68619047D02*
X2554819Y-68714285D01*
X1888152Y-67428571D02*
X2554819Y-67428571D01*
X1507200Y-67666666D02*
X2221485Y-67904761D01*
X2221485Y-67904761D02*
X2221485Y-67285714D01*
X15708333Y-61679580D02*
X15660714Y-61727200D01*
X15660714Y-61727200D02*
X15517857Y-61774819D01*
X15517857Y-61774819D02*
X15422619Y-61774819D01*
X15422619Y-61774819D02*
X15279762Y-61727200D01*
X15279762Y-61727200D02*
X15184524Y-61631961D01*
X15184524Y-61631961D02*
X15136905Y-61536723D01*
X15136905Y-61536723D02*
X15089286Y-61346247D01*
X15089286Y-61346247D02*
X15089286Y-61203390D01*
X15089286Y-61203390D02*
X15136905Y-61012914D01*
X15136905Y-61012914D02*
X15184524Y-60917676D01*
X15184524Y-60917676D02*
X15279762Y-60822438D01*
X15279762Y-60822438D02*
X15422619Y-60774819D01*
X15422619Y-60774819D02*
X15517857Y-60774819D01*
X15517857Y-60774819D02*
X15660714Y-60822438D01*
X15660714Y-60822438D02*
X15708333Y-60870057D01*
X16279762Y-61203390D02*
X16184524Y-61155771D01*
X16184524Y-61155771D02*
X16136905Y-61108152D01*
X16136905Y-61108152D02*
X16089286Y-61012914D01*
X16089286Y-61012914D02*
X16089286Y-60965295D01*
X16089286Y-60965295D02*
X16136905Y-60870057D01*
X16136905Y-60870057D02*
X16184524Y-60822438D01*
X16184524Y-60822438D02*
X16279762Y-60774819D01*
X16279762Y-60774819D02*
X16470238Y-60774819D01*
X16470238Y-60774819D02*
X16565476Y-60822438D01*
X16565476Y-60822438D02*
X16613095Y-60870057D01*
X16613095Y-60870057D02*
X16660714Y-60965295D01*
X16660714Y-60965295D02*
X16660714Y-61012914D01*
X16660714Y-61012914D02*
X16613095Y-61108152D01*
X16613095Y-61108152D02*
X16565476Y-61155771D01*
X16565476Y-61155771D02*
X16470238Y-61203390D01*
X16470238Y-61203390D02*
X16279762Y-61203390D01*
X16279762Y-61203390D02*
X16184524Y-61251009D01*
X16184524Y-61251009D02*
X16136905Y-61298628D01*
X16136905Y-61298628D02*
X16089286Y-61393866D01*
X16089286Y-61393866D02*
X16089286Y-61584342D01*
X16089286Y-61584342D02*
X16136905Y-61679580D01*
X16136905Y-61679580D02*
X16184524Y-61727200D01*
X16184524Y-61727200D02*
X16279762Y-61774819D01*
X16279762Y-61774819D02*
X16470238Y-61774819D01*
X16470238Y-61774819D02*
X16565476Y-61727200D01*
X16565476Y-61727200D02*
X16613095Y-61679580D01*
X16613095Y-61679580D02*
X16660714Y-61584342D01*
X16660714Y-61584342D02*
X16660714Y-61393866D01*
X16660714Y-61393866D02*
X16613095Y-61298628D01*
X16613095Y-61298628D02*
X16565476Y-61251009D01*
X16565476Y-61251009D02*
X16470238Y-61203390D01*
X53863095Y-51654819D02*
X53863095Y-52464342D01*
X53863095Y-52464342D02*
X53910714Y-52559580D01*
X53910714Y-52559580D02*
X53958333Y-52607200D01*
X53958333Y-52607200D02*
X54053571Y-52654819D01*
X54053571Y-52654819D02*
X54244047Y-52654819D01*
X54244047Y-52654819D02*
X54339285Y-52607200D01*
X54339285Y-52607200D02*
X54386904Y-52559580D01*
X54386904Y-52559580D02*
X54434523Y-52464342D01*
X54434523Y-52464342D02*
X54434523Y-51654819D01*
X54815476Y-51654819D02*
X55434523Y-51654819D01*
X55434523Y-51654819D02*
X55101190Y-52035771D01*
X55101190Y-52035771D02*
X55244047Y-52035771D01*
X55244047Y-52035771D02*
X55339285Y-52083390D01*
X55339285Y-52083390D02*
X55386904Y-52131009D01*
X55386904Y-52131009D02*
X55434523Y-52226247D01*
X55434523Y-52226247D02*
X55434523Y-52464342D01*
X55434523Y-52464342D02*
X55386904Y-52559580D01*
X55386904Y-52559580D02*
X55339285Y-52607200D01*
X55339285Y-52607200D02*
X55244047Y-52654819D01*
X55244047Y-52654819D02*
X54958333Y-52654819D01*
X54958333Y-52654819D02*
X54863095Y-52607200D01*
X54863095Y-52607200D02*
X54815476Y-52559580D01*
X18523808Y-20199580D02*
X18476189Y-20247200D01*
X18476189Y-20247200D02*
X18333332Y-20294819D01*
X18333332Y-20294819D02*
X18238094Y-20294819D01*
X18238094Y-20294819D02*
X18095237Y-20247200D01*
X18095237Y-20247200D02*
X17999999Y-20151961D01*
X17999999Y-20151961D02*
X17952380Y-20056723D01*
X17952380Y-20056723D02*
X17904761Y-19866247D01*
X17904761Y-19866247D02*
X17904761Y-19723390D01*
X17904761Y-19723390D02*
X17952380Y-19532914D01*
X17952380Y-19532914D02*
X17999999Y-19437676D01*
X17999999Y-19437676D02*
X18095237Y-19342438D01*
X18095237Y-19342438D02*
X18238094Y-19294819D01*
X18238094Y-19294819D02*
X18333332Y-19294819D01*
X18333332Y-19294819D02*
X18476189Y-19342438D01*
X18476189Y-19342438D02*
X18523808Y-19390057D01*
X19476189Y-20294819D02*
X18904761Y-20294819D01*
X19190475Y-20294819D02*
X19190475Y-19294819D01*
X19190475Y-19294819D02*
X19095237Y-19437676D01*
X19095237Y-19437676D02*
X18999999Y-19532914D01*
X18999999Y-19532914D02*
X18904761Y-19580533D01*
X20428570Y-20294819D02*
X19857142Y-20294819D01*
X20142856Y-20294819D02*
X20142856Y-19294819D01*
X20142856Y-19294819D02*
X20047618Y-19437676D01*
X20047618Y-19437676D02*
X19952380Y-19532914D01*
X19952380Y-19532914D02*
X19857142Y-19580533D01*
X46708333Y-46929580D02*
X46660714Y-46977200D01*
X46660714Y-46977200D02*
X46517857Y-47024819D01*
X46517857Y-47024819D02*
X46422619Y-47024819D01*
X46422619Y-47024819D02*
X46279762Y-46977200D01*
X46279762Y-46977200D02*
X46184524Y-46881961D01*
X46184524Y-46881961D02*
X46136905Y-46786723D01*
X46136905Y-46786723D02*
X46089286Y-46596247D01*
X46089286Y-46596247D02*
X46089286Y-46453390D01*
X46089286Y-46453390D02*
X46136905Y-46262914D01*
X46136905Y-46262914D02*
X46184524Y-46167676D01*
X46184524Y-46167676D02*
X46279762Y-46072438D01*
X46279762Y-46072438D02*
X46422619Y-46024819D01*
X46422619Y-46024819D02*
X46517857Y-46024819D01*
X46517857Y-46024819D02*
X46660714Y-46072438D01*
X46660714Y-46072438D02*
X46708333Y-46120057D01*
X47613095Y-46024819D02*
X47136905Y-46024819D01*
X47136905Y-46024819D02*
X47089286Y-46501009D01*
X47089286Y-46501009D02*
X47136905Y-46453390D01*
X47136905Y-46453390D02*
X47232143Y-46405771D01*
X47232143Y-46405771D02*
X47470238Y-46405771D01*
X47470238Y-46405771D02*
X47565476Y-46453390D01*
X47565476Y-46453390D02*
X47613095Y-46501009D01*
X47613095Y-46501009D02*
X47660714Y-46596247D01*
X47660714Y-46596247D02*
X47660714Y-46834342D01*
X47660714Y-46834342D02*
X47613095Y-46929580D01*
X47613095Y-46929580D02*
X47565476Y-46977200D01*
X47565476Y-46977200D02*
X47470238Y-47024819D01*
X47470238Y-47024819D02*
X47232143Y-47024819D01*
X47232143Y-47024819D02*
X47136905Y-46977200D01*
X47136905Y-46977200D02*
X47089286Y-46929580D01*
X62208333Y-52804819D02*
X61732143Y-52804819D01*
X61732143Y-52804819D02*
X61732143Y-51804819D01*
X62494048Y-51900057D02*
X62541667Y-51852438D01*
X62541667Y-51852438D02*
X62636905Y-51804819D01*
X62636905Y-51804819D02*
X62875000Y-51804819D01*
X62875000Y-51804819D02*
X62970238Y-51852438D01*
X62970238Y-51852438D02*
X63017857Y-51900057D01*
X63017857Y-51900057D02*
X63065476Y-51995295D01*
X63065476Y-51995295D02*
X63065476Y-52090533D01*
X63065476Y-52090533D02*
X63017857Y-52233390D01*
X63017857Y-52233390D02*
X62446429Y-52804819D01*
X62446429Y-52804819D02*
X63065476Y-52804819D01*
X46708333Y-31059580D02*
X46660714Y-31107200D01*
X46660714Y-31107200D02*
X46517857Y-31154819D01*
X46517857Y-31154819D02*
X46422619Y-31154819D01*
X46422619Y-31154819D02*
X46279762Y-31107200D01*
X46279762Y-31107200D02*
X46184524Y-31011961D01*
X46184524Y-31011961D02*
X46136905Y-30916723D01*
X46136905Y-30916723D02*
X46089286Y-30726247D01*
X46089286Y-30726247D02*
X46089286Y-30583390D01*
X46089286Y-30583390D02*
X46136905Y-30392914D01*
X46136905Y-30392914D02*
X46184524Y-30297676D01*
X46184524Y-30297676D02*
X46279762Y-30202438D01*
X46279762Y-30202438D02*
X46422619Y-30154819D01*
X46422619Y-30154819D02*
X46517857Y-30154819D01*
X46517857Y-30154819D02*
X46660714Y-30202438D01*
X46660714Y-30202438D02*
X46708333Y-30250057D01*
X47660714Y-31154819D02*
X47089286Y-31154819D01*
X47375000Y-31154819D02*
X47375000Y-30154819D01*
X47375000Y-30154819D02*
X47279762Y-30297676D01*
X47279762Y-30297676D02*
X47184524Y-30392914D01*
X47184524Y-30392914D02*
X47089286Y-30440533D01*
X91238095Y-55606819D02*
X91809523Y-55606819D01*
X91523809Y-56606819D02*
X91523809Y-55606819D01*
X92142857Y-56606819D02*
X92142857Y-55606819D01*
X92142857Y-55606819D02*
X92523809Y-55606819D01*
X92523809Y-55606819D02*
X92619047Y-55654438D01*
X92619047Y-55654438D02*
X92666666Y-55702057D01*
X92666666Y-55702057D02*
X92714285Y-55797295D01*
X92714285Y-55797295D02*
X92714285Y-55940152D01*
X92714285Y-55940152D02*
X92666666Y-56035390D01*
X92666666Y-56035390D02*
X92619047Y-56083009D01*
X92619047Y-56083009D02*
X92523809Y-56130628D01*
X92523809Y-56130628D02*
X92142857Y-56130628D01*
X93666666Y-56606819D02*
X93095238Y-56606819D01*
X93380952Y-56606819D02*
X93380952Y-55606819D01*
X93380952Y-55606819D02*
X93285714Y-55749676D01*
X93285714Y-55749676D02*
X93190476Y-55844914D01*
X93190476Y-55844914D02*
X93095238Y-55892533D01*
X80238095Y-61806819D02*
X80809523Y-61806819D01*
X80523809Y-62806819D02*
X80523809Y-61806819D01*
X81142857Y-62806819D02*
X81142857Y-61806819D01*
X81142857Y-61806819D02*
X81523809Y-61806819D01*
X81523809Y-61806819D02*
X81619047Y-61854438D01*
X81619047Y-61854438D02*
X81666666Y-61902057D01*
X81666666Y-61902057D02*
X81714285Y-61997295D01*
X81714285Y-61997295D02*
X81714285Y-62140152D01*
X81714285Y-62140152D02*
X81666666Y-62235390D01*
X81666666Y-62235390D02*
X81619047Y-62283009D01*
X81619047Y-62283009D02*
X81523809Y-62330628D01*
X81523809Y-62330628D02*
X81142857Y-62330628D01*
X82095238Y-61902057D02*
X82142857Y-61854438D01*
X82142857Y-61854438D02*
X82238095Y-61806819D01*
X82238095Y-61806819D02*
X82476190Y-61806819D01*
X82476190Y-61806819D02*
X82571428Y-61854438D01*
X82571428Y-61854438D02*
X82619047Y-61902057D01*
X82619047Y-61902057D02*
X82666666Y-61997295D01*
X82666666Y-61997295D02*
X82666666Y-62092533D01*
X82666666Y-62092533D02*
X82619047Y-62235390D01*
X82619047Y-62235390D02*
X82047619Y-62806819D01*
X82047619Y-62806819D02*
X82666666Y-62806819D01*
X38958333Y-62284819D02*
X38625000Y-61808628D01*
X38386905Y-62284819D02*
X38386905Y-61284819D01*
X38386905Y-61284819D02*
X38767857Y-61284819D01*
X38767857Y-61284819D02*
X38863095Y-61332438D01*
X38863095Y-61332438D02*
X38910714Y-61380057D01*
X38910714Y-61380057D02*
X38958333Y-61475295D01*
X38958333Y-61475295D02*
X38958333Y-61618152D01*
X38958333Y-61618152D02*
X38910714Y-61713390D01*
X38910714Y-61713390D02*
X38863095Y-61761009D01*
X38863095Y-61761009D02*
X38767857Y-61808628D01*
X38767857Y-61808628D02*
X38386905Y-61808628D01*
X39291667Y-61284819D02*
X39910714Y-61284819D01*
X39910714Y-61284819D02*
X39577381Y-61665771D01*
X39577381Y-61665771D02*
X39720238Y-61665771D01*
X39720238Y-61665771D02*
X39815476Y-61713390D01*
X39815476Y-61713390D02*
X39863095Y-61761009D01*
X39863095Y-61761009D02*
X39910714Y-61856247D01*
X39910714Y-61856247D02*
X39910714Y-62094342D01*
X39910714Y-62094342D02*
X39863095Y-62189580D01*
X39863095Y-62189580D02*
X39815476Y-62237200D01*
X39815476Y-62237200D02*
X39720238Y-62284819D01*
X39720238Y-62284819D02*
X39434524Y-62284819D01*
X39434524Y-62284819D02*
X39339286Y-62237200D01*
X39339286Y-62237200D02*
X39291667Y-62189580D01*
X80857142Y-44684819D02*
X80523809Y-44208628D01*
X80285714Y-44684819D02*
X80285714Y-43684819D01*
X80285714Y-43684819D02*
X80666666Y-43684819D01*
X80666666Y-43684819D02*
X80761904Y-43732438D01*
X80761904Y-43732438D02*
X80809523Y-43780057D01*
X80809523Y-43780057D02*
X80857142Y-43875295D01*
X80857142Y-43875295D02*
X80857142Y-44018152D01*
X80857142Y-44018152D02*
X80809523Y-44113390D01*
X80809523Y-44113390D02*
X80761904Y-44161009D01*
X80761904Y-44161009D02*
X80666666Y-44208628D01*
X80666666Y-44208628D02*
X80285714Y-44208628D01*
X81809523Y-44684819D02*
X81238095Y-44684819D01*
X81523809Y-44684819D02*
X81523809Y-43684819D01*
X81523809Y-43684819D02*
X81428571Y-43827676D01*
X81428571Y-43827676D02*
X81333333Y-43922914D01*
X81333333Y-43922914D02*
X81238095Y-43970533D01*
X82666666Y-44018152D02*
X82666666Y-44684819D01*
X82428571Y-43637200D02*
X82190476Y-44351485D01*
X82190476Y-44351485D02*
X82809523Y-44351485D01*
X38482142Y-39699580D02*
X38434523Y-39747200D01*
X38434523Y-39747200D02*
X38291666Y-39794819D01*
X38291666Y-39794819D02*
X38196428Y-39794819D01*
X38196428Y-39794819D02*
X38053571Y-39747200D01*
X38053571Y-39747200D02*
X37958333Y-39651961D01*
X37958333Y-39651961D02*
X37910714Y-39556723D01*
X37910714Y-39556723D02*
X37863095Y-39366247D01*
X37863095Y-39366247D02*
X37863095Y-39223390D01*
X37863095Y-39223390D02*
X37910714Y-39032914D01*
X37910714Y-39032914D02*
X37958333Y-38937676D01*
X37958333Y-38937676D02*
X38053571Y-38842438D01*
X38053571Y-38842438D02*
X38196428Y-38794819D01*
X38196428Y-38794819D02*
X38291666Y-38794819D01*
X38291666Y-38794819D02*
X38434523Y-38842438D01*
X38434523Y-38842438D02*
X38482142Y-38890057D01*
X39434523Y-39794819D02*
X38863095Y-39794819D01*
X39148809Y-39794819D02*
X39148809Y-38794819D01*
X39148809Y-38794819D02*
X39053571Y-38937676D01*
X39053571Y-38937676D02*
X38958333Y-39032914D01*
X38958333Y-39032914D02*
X38863095Y-39080533D01*
X39767857Y-38794819D02*
X40434523Y-38794819D01*
X40434523Y-38794819D02*
X40005952Y-39794819D01*
X62208333Y-39179580D02*
X62160714Y-39227200D01*
X62160714Y-39227200D02*
X62017857Y-39274819D01*
X62017857Y-39274819D02*
X61922619Y-39274819D01*
X61922619Y-39274819D02*
X61779762Y-39227200D01*
X61779762Y-39227200D02*
X61684524Y-39131961D01*
X61684524Y-39131961D02*
X61636905Y-39036723D01*
X61636905Y-39036723D02*
X61589286Y-38846247D01*
X61589286Y-38846247D02*
X61589286Y-38703390D01*
X61589286Y-38703390D02*
X61636905Y-38512914D01*
X61636905Y-38512914D02*
X61684524Y-38417676D01*
X61684524Y-38417676D02*
X61779762Y-38322438D01*
X61779762Y-38322438D02*
X61922619Y-38274819D01*
X61922619Y-38274819D02*
X62017857Y-38274819D01*
X62017857Y-38274819D02*
X62160714Y-38322438D01*
X62160714Y-38322438D02*
X62208333Y-38370057D01*
X62541667Y-38274819D02*
X63160714Y-38274819D01*
X63160714Y-38274819D02*
X62827381Y-38655771D01*
X62827381Y-38655771D02*
X62970238Y-38655771D01*
X62970238Y-38655771D02*
X63065476Y-38703390D01*
X63065476Y-38703390D02*
X63113095Y-38751009D01*
X63113095Y-38751009D02*
X63160714Y-38846247D01*
X63160714Y-38846247D02*
X63160714Y-39084342D01*
X63160714Y-39084342D02*
X63113095Y-39179580D01*
X63113095Y-39179580D02*
X63065476Y-39227200D01*
X63065476Y-39227200D02*
X62970238Y-39274819D01*
X62970238Y-39274819D02*
X62684524Y-39274819D01*
X62684524Y-39274819D02*
X62589286Y-39227200D01*
X62589286Y-39227200D02*
X62541667Y-39179580D01*
X31208333Y-47284819D02*
X30875000Y-46808628D01*
X30636905Y-47284819D02*
X30636905Y-46284819D01*
X30636905Y-46284819D02*
X31017857Y-46284819D01*
X31017857Y-46284819D02*
X31113095Y-46332438D01*
X31113095Y-46332438D02*
X31160714Y-46380057D01*
X31160714Y-46380057D02*
X31208333Y-46475295D01*
X31208333Y-46475295D02*
X31208333Y-46618152D01*
X31208333Y-46618152D02*
X31160714Y-46713390D01*
X31160714Y-46713390D02*
X31113095Y-46761009D01*
X31113095Y-46761009D02*
X31017857Y-46808628D01*
X31017857Y-46808628D02*
X30636905Y-46808628D01*
X31589286Y-46380057D02*
X31636905Y-46332438D01*
X31636905Y-46332438D02*
X31732143Y-46284819D01*
X31732143Y-46284819D02*
X31970238Y-46284819D01*
X31970238Y-46284819D02*
X32065476Y-46332438D01*
X32065476Y-46332438D02*
X32113095Y-46380057D01*
X32113095Y-46380057D02*
X32160714Y-46475295D01*
X32160714Y-46475295D02*
X32160714Y-46570533D01*
X32160714Y-46570533D02*
X32113095Y-46713390D01*
X32113095Y-46713390D02*
X31541667Y-47284819D01*
X31541667Y-47284819D02*
X32160714Y-47284819D01*
X103666667Y-1754819D02*
X103666667Y-754819D01*
X103666667Y-754819D02*
X104000000Y-1469104D01*
X104000000Y-1469104D02*
X104333333Y-754819D01*
X104333333Y-754819D02*
X104333333Y-1754819D01*
X104809524Y-1754819D02*
X104809524Y-754819D01*
X104809524Y-1231009D02*
X105380952Y-1231009D01*
X105380952Y-1754819D02*
X105380952Y-754819D01*
X105809524Y-850057D02*
X105857143Y-802438D01*
X105857143Y-802438D02*
X105952381Y-754819D01*
X105952381Y-754819D02*
X106190476Y-754819D01*
X106190476Y-754819D02*
X106285714Y-802438D01*
X106285714Y-802438D02*
X106333333Y-850057D01*
X106333333Y-850057D02*
X106380952Y-945295D01*
X106380952Y-945295D02*
X106380952Y-1040533D01*
X106380952Y-1040533D02*
X106333333Y-1183390D01*
X106333333Y-1183390D02*
X105761905Y-1754819D01*
X105761905Y-1754819D02*
X106380952Y-1754819D01*
X23458333Y-47284819D02*
X23125000Y-46808628D01*
X22886905Y-47284819D02*
X22886905Y-46284819D01*
X22886905Y-46284819D02*
X23267857Y-46284819D01*
X23267857Y-46284819D02*
X23363095Y-46332438D01*
X23363095Y-46332438D02*
X23410714Y-46380057D01*
X23410714Y-46380057D02*
X23458333Y-46475295D01*
X23458333Y-46475295D02*
X23458333Y-46618152D01*
X23458333Y-46618152D02*
X23410714Y-46713390D01*
X23410714Y-46713390D02*
X23363095Y-46761009D01*
X23363095Y-46761009D02*
X23267857Y-46808628D01*
X23267857Y-46808628D02*
X22886905Y-46808628D01*
X24410714Y-47284819D02*
X23839286Y-47284819D01*
X24125000Y-47284819D02*
X24125000Y-46284819D01*
X24125000Y-46284819D02*
X24029762Y-46427676D01*
X24029762Y-46427676D02*
X23934524Y-46522914D01*
X23934524Y-46522914D02*
X23839286Y-46570533D01*
X54458333Y-46929580D02*
X54410714Y-46977200D01*
X54410714Y-46977200D02*
X54267857Y-47024819D01*
X54267857Y-47024819D02*
X54172619Y-47024819D01*
X54172619Y-47024819D02*
X54029762Y-46977200D01*
X54029762Y-46977200D02*
X53934524Y-46881961D01*
X53934524Y-46881961D02*
X53886905Y-46786723D01*
X53886905Y-46786723D02*
X53839286Y-46596247D01*
X53839286Y-46596247D02*
X53839286Y-46453390D01*
X53839286Y-46453390D02*
X53886905Y-46262914D01*
X53886905Y-46262914D02*
X53934524Y-46167676D01*
X53934524Y-46167676D02*
X54029762Y-46072438D01*
X54029762Y-46072438D02*
X54172619Y-46024819D01*
X54172619Y-46024819D02*
X54267857Y-46024819D01*
X54267857Y-46024819D02*
X54410714Y-46072438D01*
X54410714Y-46072438D02*
X54458333Y-46120057D01*
X55315476Y-46024819D02*
X55125000Y-46024819D01*
X55125000Y-46024819D02*
X55029762Y-46072438D01*
X55029762Y-46072438D02*
X54982143Y-46120057D01*
X54982143Y-46120057D02*
X54886905Y-46262914D01*
X54886905Y-46262914D02*
X54839286Y-46453390D01*
X54839286Y-46453390D02*
X54839286Y-46834342D01*
X54839286Y-46834342D02*
X54886905Y-46929580D01*
X54886905Y-46929580D02*
X54934524Y-46977200D01*
X54934524Y-46977200D02*
X55029762Y-47024819D01*
X55029762Y-47024819D02*
X55220238Y-47024819D01*
X55220238Y-47024819D02*
X55315476Y-46977200D01*
X55315476Y-46977200D02*
X55363095Y-46929580D01*
X55363095Y-46929580D02*
X55410714Y-46834342D01*
X55410714Y-46834342D02*
X55410714Y-46596247D01*
X55410714Y-46596247D02*
X55363095Y-46501009D01*
X55363095Y-46501009D02*
X55315476Y-46453390D01*
X55315476Y-46453390D02*
X55220238Y-46405771D01*
X55220238Y-46405771D02*
X55029762Y-46405771D01*
X55029762Y-46405771D02*
X54934524Y-46453390D01*
X54934524Y-46453390D02*
X54886905Y-46501009D01*
X54886905Y-46501009D02*
X54839286Y-46596247D01*
X54458333Y-37804819D02*
X53982143Y-37804819D01*
X53982143Y-37804819D02*
X53982143Y-36804819D01*
X55315476Y-37804819D02*
X54744048Y-37804819D01*
X55029762Y-37804819D02*
X55029762Y-36804819D01*
X55029762Y-36804819D02*
X54934524Y-36947676D01*
X54934524Y-36947676D02*
X54839286Y-37042914D01*
X54839286Y-37042914D02*
X54744048Y-37090533D01*
X80857142Y-32284819D02*
X80523809Y-31808628D01*
X80285714Y-32284819D02*
X80285714Y-31284819D01*
X80285714Y-31284819D02*
X80666666Y-31284819D01*
X80666666Y-31284819D02*
X80761904Y-31332438D01*
X80761904Y-31332438D02*
X80809523Y-31380057D01*
X80809523Y-31380057D02*
X80857142Y-31475295D01*
X80857142Y-31475295D02*
X80857142Y-31618152D01*
X80857142Y-31618152D02*
X80809523Y-31713390D01*
X80809523Y-31713390D02*
X80761904Y-31761009D01*
X80761904Y-31761009D02*
X80666666Y-31808628D01*
X80666666Y-31808628D02*
X80285714Y-31808628D01*
X81809523Y-32284819D02*
X81238095Y-32284819D01*
X81523809Y-32284819D02*
X81523809Y-31284819D01*
X81523809Y-31284819D02*
X81428571Y-31427676D01*
X81428571Y-31427676D02*
X81333333Y-31522914D01*
X81333333Y-31522914D02*
X81238095Y-31570533D01*
X82428571Y-31284819D02*
X82523809Y-31284819D01*
X82523809Y-31284819D02*
X82619047Y-31332438D01*
X82619047Y-31332438D02*
X82666666Y-31380057D01*
X82666666Y-31380057D02*
X82714285Y-31475295D01*
X82714285Y-31475295D02*
X82761904Y-31665771D01*
X82761904Y-31665771D02*
X82761904Y-31903866D01*
X82761904Y-31903866D02*
X82714285Y-32094342D01*
X82714285Y-32094342D02*
X82666666Y-32189580D01*
X82666666Y-32189580D02*
X82619047Y-32237200D01*
X82619047Y-32237200D02*
X82523809Y-32284819D01*
X82523809Y-32284819D02*
X82428571Y-32284819D01*
X82428571Y-32284819D02*
X82333333Y-32237200D01*
X82333333Y-32237200D02*
X82285714Y-32189580D01*
X82285714Y-32189580D02*
X82238095Y-32094342D01*
X82238095Y-32094342D02*
X82190476Y-31903866D01*
X82190476Y-31903866D02*
X82190476Y-31665771D01*
X82190476Y-31665771D02*
X82238095Y-31475295D01*
X82238095Y-31475295D02*
X82285714Y-31380057D01*
X82285714Y-31380057D02*
X82333333Y-31332438D01*
X82333333Y-31332438D02*
X82428571Y-31284819D01*
X91857142Y-32284819D02*
X91523809Y-31808628D01*
X91285714Y-32284819D02*
X91285714Y-31284819D01*
X91285714Y-31284819D02*
X91666666Y-31284819D01*
X91666666Y-31284819D02*
X91761904Y-31332438D01*
X91761904Y-31332438D02*
X91809523Y-31380057D01*
X91809523Y-31380057D02*
X91857142Y-31475295D01*
X91857142Y-31475295D02*
X91857142Y-31618152D01*
X91857142Y-31618152D02*
X91809523Y-31713390D01*
X91809523Y-31713390D02*
X91761904Y-31761009D01*
X91761904Y-31761009D02*
X91666666Y-31808628D01*
X91666666Y-31808628D02*
X91285714Y-31808628D01*
X92809523Y-32284819D02*
X92238095Y-32284819D01*
X92523809Y-32284819D02*
X92523809Y-31284819D01*
X92523809Y-31284819D02*
X92428571Y-31427676D01*
X92428571Y-31427676D02*
X92333333Y-31522914D01*
X92333333Y-31522914D02*
X92238095Y-31570533D01*
X93761904Y-32284819D02*
X93190476Y-32284819D01*
X93476190Y-32284819D02*
X93476190Y-31284819D01*
X93476190Y-31284819D02*
X93380952Y-31427676D01*
X93380952Y-31427676D02*
X93285714Y-31522914D01*
X93285714Y-31522914D02*
X93190476Y-31570533D01*
X23529761Y-38650057D02*
X23434523Y-38602438D01*
X23434523Y-38602438D02*
X23339285Y-38507200D01*
X23339285Y-38507200D02*
X23196428Y-38364342D01*
X23196428Y-38364342D02*
X23101190Y-38316723D01*
X23101190Y-38316723D02*
X23005952Y-38316723D01*
X23053571Y-38554819D02*
X22958333Y-38507200D01*
X22958333Y-38507200D02*
X22863095Y-38411961D01*
X22863095Y-38411961D02*
X22815476Y-38221485D01*
X22815476Y-38221485D02*
X22815476Y-37888152D01*
X22815476Y-37888152D02*
X22863095Y-37697676D01*
X22863095Y-37697676D02*
X22958333Y-37602438D01*
X22958333Y-37602438D02*
X23053571Y-37554819D01*
X23053571Y-37554819D02*
X23244047Y-37554819D01*
X23244047Y-37554819D02*
X23339285Y-37602438D01*
X23339285Y-37602438D02*
X23434523Y-37697676D01*
X23434523Y-37697676D02*
X23482142Y-37888152D01*
X23482142Y-37888152D02*
X23482142Y-38221485D01*
X23482142Y-38221485D02*
X23434523Y-38411961D01*
X23434523Y-38411961D02*
X23339285Y-38507200D01*
X23339285Y-38507200D02*
X23244047Y-38554819D01*
X23244047Y-38554819D02*
X23053571Y-38554819D01*
X23863095Y-37650057D02*
X23910714Y-37602438D01*
X23910714Y-37602438D02*
X24005952Y-37554819D01*
X24005952Y-37554819D02*
X24244047Y-37554819D01*
X24244047Y-37554819D02*
X24339285Y-37602438D01*
X24339285Y-37602438D02*
X24386904Y-37650057D01*
X24386904Y-37650057D02*
X24434523Y-37745295D01*
X24434523Y-37745295D02*
X24434523Y-37840533D01*
X24434523Y-37840533D02*
X24386904Y-37983390D01*
X24386904Y-37983390D02*
X23815476Y-38554819D01*
X23815476Y-38554819D02*
X24434523Y-38554819D01*
X18999999Y-27284819D02*
X18666666Y-26808628D01*
X18428571Y-27284819D02*
X18428571Y-26284819D01*
X18428571Y-26284819D02*
X18809523Y-26284819D01*
X18809523Y-26284819D02*
X18904761Y-26332438D01*
X18904761Y-26332438D02*
X18952380Y-26380057D01*
X18952380Y-26380057D02*
X18999999Y-26475295D01*
X18999999Y-26475295D02*
X18999999Y-26618152D01*
X18999999Y-26618152D02*
X18952380Y-26713390D01*
X18952380Y-26713390D02*
X18904761Y-26761009D01*
X18904761Y-26761009D02*
X18809523Y-26808628D01*
X18809523Y-26808628D02*
X18428571Y-26808628D01*
X19571428Y-26713390D02*
X19476190Y-26665771D01*
X19476190Y-26665771D02*
X19428571Y-26618152D01*
X19428571Y-26618152D02*
X19380952Y-26522914D01*
X19380952Y-26522914D02*
X19380952Y-26475295D01*
X19380952Y-26475295D02*
X19428571Y-26380057D01*
X19428571Y-26380057D02*
X19476190Y-26332438D01*
X19476190Y-26332438D02*
X19571428Y-26284819D01*
X19571428Y-26284819D02*
X19761904Y-26284819D01*
X19761904Y-26284819D02*
X19857142Y-26332438D01*
X19857142Y-26332438D02*
X19904761Y-26380057D01*
X19904761Y-26380057D02*
X19952380Y-26475295D01*
X19952380Y-26475295D02*
X19952380Y-26522914D01*
X19952380Y-26522914D02*
X19904761Y-26618152D01*
X19904761Y-26618152D02*
X19857142Y-26665771D01*
X19857142Y-26665771D02*
X19761904Y-26713390D01*
X19761904Y-26713390D02*
X19571428Y-26713390D01*
X19571428Y-26713390D02*
X19476190Y-26761009D01*
X19476190Y-26761009D02*
X19428571Y-26808628D01*
X19428571Y-26808628D02*
X19380952Y-26903866D01*
X19380952Y-26903866D02*
X19380952Y-27094342D01*
X19380952Y-27094342D02*
X19428571Y-27189580D01*
X19428571Y-27189580D02*
X19476190Y-27237200D01*
X19476190Y-27237200D02*
X19571428Y-27284819D01*
X19571428Y-27284819D02*
X19761904Y-27284819D01*
X19761904Y-27284819D02*
X19857142Y-27237200D01*
X19857142Y-27237200D02*
X19904761Y-27189580D01*
X19904761Y-27189580D02*
X19952380Y-27094342D01*
X19952380Y-27094342D02*
X19952380Y-26903866D01*
X19952380Y-26903866D02*
X19904761Y-26808628D01*
X19904761Y-26808628D02*
X19857142Y-26761009D01*
X19857142Y-26761009D02*
X19761904Y-26713390D01*
X80238095Y-68006819D02*
X80809523Y-68006819D01*
X80523809Y-69006819D02*
X80523809Y-68006819D01*
X81142857Y-69006819D02*
X81142857Y-68006819D01*
X81142857Y-68006819D02*
X81523809Y-68006819D01*
X81523809Y-68006819D02*
X81619047Y-68054438D01*
X81619047Y-68054438D02*
X81666666Y-68102057D01*
X81666666Y-68102057D02*
X81714285Y-68197295D01*
X81714285Y-68197295D02*
X81714285Y-68340152D01*
X81714285Y-68340152D02*
X81666666Y-68435390D01*
X81666666Y-68435390D02*
X81619047Y-68483009D01*
X81619047Y-68483009D02*
X81523809Y-68530628D01*
X81523809Y-68530628D02*
X81142857Y-68530628D01*
X82571428Y-68340152D02*
X82571428Y-69006819D01*
X82333333Y-67959200D02*
X82095238Y-68673485D01*
X82095238Y-68673485D02*
X82714285Y-68673485D01*
X91857142Y-38484819D02*
X91523809Y-38008628D01*
X91285714Y-38484819D02*
X91285714Y-37484819D01*
X91285714Y-37484819D02*
X91666666Y-37484819D01*
X91666666Y-37484819D02*
X91761904Y-37532438D01*
X91761904Y-37532438D02*
X91809523Y-37580057D01*
X91809523Y-37580057D02*
X91857142Y-37675295D01*
X91857142Y-37675295D02*
X91857142Y-37818152D01*
X91857142Y-37818152D02*
X91809523Y-37913390D01*
X91809523Y-37913390D02*
X91761904Y-37961009D01*
X91761904Y-37961009D02*
X91666666Y-38008628D01*
X91666666Y-38008628D02*
X91285714Y-38008628D01*
X92809523Y-38484819D02*
X92238095Y-38484819D01*
X92523809Y-38484819D02*
X92523809Y-37484819D01*
X92523809Y-37484819D02*
X92428571Y-37627676D01*
X92428571Y-37627676D02*
X92333333Y-37722914D01*
X92333333Y-37722914D02*
X92238095Y-37770533D01*
X93142857Y-37484819D02*
X93761904Y-37484819D01*
X93761904Y-37484819D02*
X93428571Y-37865771D01*
X93428571Y-37865771D02*
X93571428Y-37865771D01*
X93571428Y-37865771D02*
X93666666Y-37913390D01*
X93666666Y-37913390D02*
X93714285Y-37961009D01*
X93714285Y-37961009D02*
X93761904Y-38056247D01*
X93761904Y-38056247D02*
X93761904Y-38294342D01*
X93761904Y-38294342D02*
X93714285Y-38389580D01*
X93714285Y-38389580D02*
X93666666Y-38437200D01*
X93666666Y-38437200D02*
X93571428Y-38484819D01*
X93571428Y-38484819D02*
X93285714Y-38484819D01*
X93285714Y-38484819D02*
X93190476Y-38437200D01*
X93190476Y-38437200D02*
X93142857Y-38389580D01*
X33333333Y-27284819D02*
X33000000Y-26808628D01*
X32761905Y-27284819D02*
X32761905Y-26284819D01*
X32761905Y-26284819D02*
X33142857Y-26284819D01*
X33142857Y-26284819D02*
X33238095Y-26332438D01*
X33238095Y-26332438D02*
X33285714Y-26380057D01*
X33285714Y-26380057D02*
X33333333Y-26475295D01*
X33333333Y-26475295D02*
X33333333Y-26618152D01*
X33333333Y-26618152D02*
X33285714Y-26713390D01*
X33285714Y-26713390D02*
X33238095Y-26761009D01*
X33238095Y-26761009D02*
X33142857Y-26808628D01*
X33142857Y-26808628D02*
X32761905Y-26808628D01*
X33809524Y-27284819D02*
X34000000Y-27284819D01*
X34000000Y-27284819D02*
X34095238Y-27237200D01*
X34095238Y-27237200D02*
X34142857Y-27189580D01*
X34142857Y-27189580D02*
X34238095Y-27046723D01*
X34238095Y-27046723D02*
X34285714Y-26856247D01*
X34285714Y-26856247D02*
X34285714Y-26475295D01*
X34285714Y-26475295D02*
X34238095Y-26380057D01*
X34238095Y-26380057D02*
X34190476Y-26332438D01*
X34190476Y-26332438D02*
X34095238Y-26284819D01*
X34095238Y-26284819D02*
X33904762Y-26284819D01*
X33904762Y-26284819D02*
X33809524Y-26332438D01*
X33809524Y-26332438D02*
X33761905Y-26380057D01*
X33761905Y-26380057D02*
X33714286Y-26475295D01*
X33714286Y-26475295D02*
X33714286Y-26713390D01*
X33714286Y-26713390D02*
X33761905Y-26808628D01*
X33761905Y-26808628D02*
X33809524Y-26856247D01*
X33809524Y-26856247D02*
X33904762Y-26903866D01*
X33904762Y-26903866D02*
X34095238Y-26903866D01*
X34095238Y-26903866D02*
X34190476Y-26856247D01*
X34190476Y-26856247D02*
X34238095Y-26808628D01*
X34238095Y-26808628D02*
X34285714Y-26713390D01*
X3666667Y-1754819D02*
X3666667Y-754819D01*
X3666667Y-754819D02*
X4000000Y-1469104D01*
X4000000Y-1469104D02*
X4333333Y-754819D01*
X4333333Y-754819D02*
X4333333Y-1754819D01*
X4809524Y-1754819D02*
X4809524Y-754819D01*
X4809524Y-1231009D02*
X5380952Y-1231009D01*
X5380952Y-1754819D02*
X5380952Y-754819D01*
X6380952Y-1754819D02*
X5809524Y-1754819D01*
X6095238Y-1754819D02*
X6095238Y-754819D01*
X6095238Y-754819D02*
X6000000Y-897676D01*
X6000000Y-897676D02*
X5904762Y-992914D01*
X5904762Y-992914D02*
X5809524Y-1040533D01*
X60833333Y-25907200D02*
X60976190Y-25954819D01*
X60976190Y-25954819D02*
X61214285Y-25954819D01*
X61214285Y-25954819D02*
X61309523Y-25907200D01*
X61309523Y-25907200D02*
X61357142Y-25859580D01*
X61357142Y-25859580D02*
X61404761Y-25764342D01*
X61404761Y-25764342D02*
X61404761Y-25669104D01*
X61404761Y-25669104D02*
X61357142Y-25573866D01*
X61357142Y-25573866D02*
X61309523Y-25526247D01*
X61309523Y-25526247D02*
X61214285Y-25478628D01*
X61214285Y-25478628D02*
X61023809Y-25431009D01*
X61023809Y-25431009D02*
X60928571Y-25383390D01*
X60928571Y-25383390D02*
X60880952Y-25335771D01*
X60880952Y-25335771D02*
X60833333Y-25240533D01*
X60833333Y-25240533D02*
X60833333Y-25145295D01*
X60833333Y-25145295D02*
X60880952Y-25050057D01*
X60880952Y-25050057D02*
X60928571Y-25002438D01*
X60928571Y-25002438D02*
X61023809Y-24954819D01*
X61023809Y-24954819D02*
X61261904Y-24954819D01*
X61261904Y-24954819D02*
X61404761Y-25002438D01*
X61738095Y-24954819D02*
X61976190Y-25954819D01*
X61976190Y-25954819D02*
X62166666Y-25240533D01*
X62166666Y-25240533D02*
X62357142Y-25954819D01*
X62357142Y-25954819D02*
X62595238Y-24954819D01*
X62928571Y-25050057D02*
X62976190Y-25002438D01*
X62976190Y-25002438D02*
X63071428Y-24954819D01*
X63071428Y-24954819D02*
X63309523Y-24954819D01*
X63309523Y-24954819D02*
X63404761Y-25002438D01*
X63404761Y-25002438D02*
X63452380Y-25050057D01*
X63452380Y-25050057D02*
X63499999Y-25145295D01*
X63499999Y-25145295D02*
X63499999Y-25240533D01*
X63499999Y-25240533D02*
X63452380Y-25383390D01*
X63452380Y-25383390D02*
X62880952Y-25954819D01*
X62880952Y-25954819D02*
X63499999Y-25954819D01*
X61523808Y-19929580D02*
X61476189Y-19977200D01*
X61476189Y-19977200D02*
X61333332Y-20024819D01*
X61333332Y-20024819D02*
X61238094Y-20024819D01*
X61238094Y-20024819D02*
X61095237Y-19977200D01*
X61095237Y-19977200D02*
X60999999Y-19881961D01*
X60999999Y-19881961D02*
X60952380Y-19786723D01*
X60952380Y-19786723D02*
X60904761Y-19596247D01*
X60904761Y-19596247D02*
X60904761Y-19453390D01*
X60904761Y-19453390D02*
X60952380Y-19262914D01*
X60952380Y-19262914D02*
X60999999Y-19167676D01*
X60999999Y-19167676D02*
X61095237Y-19072438D01*
X61095237Y-19072438D02*
X61238094Y-19024819D01*
X61238094Y-19024819D02*
X61333332Y-19024819D01*
X61333332Y-19024819D02*
X61476189Y-19072438D01*
X61476189Y-19072438D02*
X61523808Y-19120057D01*
X62476189Y-20024819D02*
X61904761Y-20024819D01*
X62190475Y-20024819D02*
X62190475Y-19024819D01*
X62190475Y-19024819D02*
X62095237Y-19167676D01*
X62095237Y-19167676D02*
X61999999Y-19262914D01*
X61999999Y-19262914D02*
X61904761Y-19310533D01*
X63333332Y-19358152D02*
X63333332Y-20024819D01*
X63095237Y-18977200D02*
X62857142Y-19691485D01*
X62857142Y-19691485D02*
X63476189Y-19691485D01*
X81333333Y-56824819D02*
X81000000Y-56348628D01*
X80761905Y-56824819D02*
X80761905Y-55824819D01*
X80761905Y-55824819D02*
X81142857Y-55824819D01*
X81142857Y-55824819D02*
X81238095Y-55872438D01*
X81238095Y-55872438D02*
X81285714Y-55920057D01*
X81285714Y-55920057D02*
X81333333Y-56015295D01*
X81333333Y-56015295D02*
X81333333Y-56158152D01*
X81333333Y-56158152D02*
X81285714Y-56253390D01*
X81285714Y-56253390D02*
X81238095Y-56301009D01*
X81238095Y-56301009D02*
X81142857Y-56348628D01*
X81142857Y-56348628D02*
X80761905Y-56348628D01*
X82190476Y-55824819D02*
X82000000Y-55824819D01*
X82000000Y-55824819D02*
X81904762Y-55872438D01*
X81904762Y-55872438D02*
X81857143Y-55920057D01*
X81857143Y-55920057D02*
X81761905Y-56062914D01*
X81761905Y-56062914D02*
X81714286Y-56253390D01*
X81714286Y-56253390D02*
X81714286Y-56634342D01*
X81714286Y-56634342D02*
X81761905Y-56729580D01*
X81761905Y-56729580D02*
X81809524Y-56777200D01*
X81809524Y-56777200D02*
X81904762Y-56824819D01*
X81904762Y-56824819D02*
X82095238Y-56824819D01*
X82095238Y-56824819D02*
X82190476Y-56777200D01*
X82190476Y-56777200D02*
X82238095Y-56729580D01*
X82238095Y-56729580D02*
X82285714Y-56634342D01*
X82285714Y-56634342D02*
X82285714Y-56396247D01*
X82285714Y-56396247D02*
X82238095Y-56301009D01*
X82238095Y-56301009D02*
X82190476Y-56253390D01*
X82190476Y-56253390D02*
X82095238Y-56205771D01*
X82095238Y-56205771D02*
X81904762Y-56205771D01*
X81904762Y-56205771D02*
X81809524Y-56253390D01*
X81809524Y-56253390D02*
X81761905Y-56301009D01*
X81761905Y-56301009D02*
X81714286Y-56396247D01*
X14708333Y-54134819D02*
X14375000Y-53658628D01*
X14136905Y-54134819D02*
X14136905Y-53134819D01*
X14136905Y-53134819D02*
X14517857Y-53134819D01*
X14517857Y-53134819D02*
X14613095Y-53182438D01*
X14613095Y-53182438D02*
X14660714Y-53230057D01*
X14660714Y-53230057D02*
X14708333Y-53325295D01*
X14708333Y-53325295D02*
X14708333Y-53468152D01*
X14708333Y-53468152D02*
X14660714Y-53563390D01*
X14660714Y-53563390D02*
X14613095Y-53611009D01*
X14613095Y-53611009D02*
X14517857Y-53658628D01*
X14517857Y-53658628D02*
X14136905Y-53658628D01*
X15089286Y-54087200D02*
X15232143Y-54134819D01*
X15232143Y-54134819D02*
X15470238Y-54134819D01*
X15470238Y-54134819D02*
X15565476Y-54087200D01*
X15565476Y-54087200D02*
X15613095Y-54039580D01*
X15613095Y-54039580D02*
X15660714Y-53944342D01*
X15660714Y-53944342D02*
X15660714Y-53849104D01*
X15660714Y-53849104D02*
X15613095Y-53753866D01*
X15613095Y-53753866D02*
X15565476Y-53706247D01*
X15565476Y-53706247D02*
X15470238Y-53658628D01*
X15470238Y-53658628D02*
X15279762Y-53611009D01*
X15279762Y-53611009D02*
X15184524Y-53563390D01*
X15184524Y-53563390D02*
X15136905Y-53515771D01*
X15136905Y-53515771D02*
X15089286Y-53420533D01*
X15089286Y-53420533D02*
X15089286Y-53325295D01*
X15089286Y-53325295D02*
X15136905Y-53230057D01*
X15136905Y-53230057D02*
X15184524Y-53182438D01*
X15184524Y-53182438D02*
X15279762Y-53134819D01*
X15279762Y-53134819D02*
X15517857Y-53134819D01*
X15517857Y-53134819D02*
X15660714Y-53182438D01*
X16089286Y-54134819D02*
X16089286Y-53134819D01*
X16089286Y-53611009D02*
X16660714Y-53611009D01*
X16660714Y-54134819D02*
X16660714Y-53134819D01*
X17089286Y-53230057D02*
X17136905Y-53182438D01*
X17136905Y-53182438D02*
X17232143Y-53134819D01*
X17232143Y-53134819D02*
X17470238Y-53134819D01*
X17470238Y-53134819D02*
X17565476Y-53182438D01*
X17565476Y-53182438D02*
X17613095Y-53230057D01*
X17613095Y-53230057D02*
X17660714Y-53325295D01*
X17660714Y-53325295D02*
X17660714Y-53420533D01*
X17660714Y-53420533D02*
X17613095Y-53563390D01*
X17613095Y-53563390D02*
X17041667Y-54134819D01*
X17041667Y-54134819D02*
X17660714Y-54134819D01*
X1554819Y-55333333D02*
X2269104Y-55333333D01*
X2269104Y-55333333D02*
X2411961Y-55380952D01*
X2411961Y-55380952D02*
X2507200Y-55476190D01*
X2507200Y-55476190D02*
X2554819Y-55619047D01*
X2554819Y-55619047D02*
X2554819Y-55714285D01*
X1554819Y-54952380D02*
X1554819Y-54333333D01*
X1554819Y-54333333D02*
X1935771Y-54666666D01*
X1935771Y-54666666D02*
X1935771Y-54523809D01*
X1935771Y-54523809D02*
X1983390Y-54428571D01*
X1983390Y-54428571D02*
X2031009Y-54380952D01*
X2031009Y-54380952D02*
X2126247Y-54333333D01*
X2126247Y-54333333D02*
X2364342Y-54333333D01*
X2364342Y-54333333D02*
X2459580Y-54380952D01*
X2459580Y-54380952D02*
X2507200Y-54428571D01*
X2507200Y-54428571D02*
X2554819Y-54523809D01*
X2554819Y-54523809D02*
X2554819Y-54809523D01*
X2554819Y-54809523D02*
X2507200Y-54904761D01*
X2507200Y-54904761D02*
X2459580Y-54952380D01*
X53982142Y-32199580D02*
X53934523Y-32247200D01*
X53934523Y-32247200D02*
X53791666Y-32294819D01*
X53791666Y-32294819D02*
X53696428Y-32294819D01*
X53696428Y-32294819D02*
X53553571Y-32247200D01*
X53553571Y-32247200D02*
X53458333Y-32151961D01*
X53458333Y-32151961D02*
X53410714Y-32056723D01*
X53410714Y-32056723D02*
X53363095Y-31866247D01*
X53363095Y-31866247D02*
X53363095Y-31723390D01*
X53363095Y-31723390D02*
X53410714Y-31532914D01*
X53410714Y-31532914D02*
X53458333Y-31437676D01*
X53458333Y-31437676D02*
X53553571Y-31342438D01*
X53553571Y-31342438D02*
X53696428Y-31294819D01*
X53696428Y-31294819D02*
X53791666Y-31294819D01*
X53791666Y-31294819D02*
X53934523Y-31342438D01*
X53934523Y-31342438D02*
X53982142Y-31390057D01*
X54934523Y-32294819D02*
X54363095Y-32294819D01*
X54648809Y-32294819D02*
X54648809Y-31294819D01*
X54648809Y-31294819D02*
X54553571Y-31437676D01*
X54553571Y-31437676D02*
X54458333Y-31532914D01*
X54458333Y-31532914D02*
X54363095Y-31580533D01*
X55791666Y-31294819D02*
X55601190Y-31294819D01*
X55601190Y-31294819D02*
X55505952Y-31342438D01*
X55505952Y-31342438D02*
X55458333Y-31390057D01*
X55458333Y-31390057D02*
X55363095Y-31532914D01*
X55363095Y-31532914D02*
X55315476Y-31723390D01*
X55315476Y-31723390D02*
X55315476Y-32104342D01*
X55315476Y-32104342D02*
X55363095Y-32199580D01*
X55363095Y-32199580D02*
X55410714Y-32247200D01*
X55410714Y-32247200D02*
X55505952Y-32294819D01*
X55505952Y-32294819D02*
X55696428Y-32294819D01*
X55696428Y-32294819D02*
X55791666Y-32247200D01*
X55791666Y-32247200D02*
X55839285Y-32199580D01*
X55839285Y-32199580D02*
X55886904Y-32104342D01*
X55886904Y-32104342D02*
X55886904Y-31866247D01*
X55886904Y-31866247D02*
X55839285Y-31771009D01*
X55839285Y-31771009D02*
X55791666Y-31723390D01*
X55791666Y-31723390D02*
X55696428Y-31675771D01*
X55696428Y-31675771D02*
X55505952Y-31675771D01*
X55505952Y-31675771D02*
X55410714Y-31723390D01*
X55410714Y-31723390D02*
X55363095Y-31771009D01*
X55363095Y-31771009D02*
X55315476Y-31866247D01*
X32857142Y-20199580D02*
X32809523Y-20247200D01*
X32809523Y-20247200D02*
X32666666Y-20294819D01*
X32666666Y-20294819D02*
X32571428Y-20294819D01*
X32571428Y-20294819D02*
X32428571Y-20247200D01*
X32428571Y-20247200D02*
X32333333Y-20151961D01*
X32333333Y-20151961D02*
X32285714Y-20056723D01*
X32285714Y-20056723D02*
X32238095Y-19866247D01*
X32238095Y-19866247D02*
X32238095Y-19723390D01*
X32238095Y-19723390D02*
X32285714Y-19532914D01*
X32285714Y-19532914D02*
X32333333Y-19437676D01*
X32333333Y-19437676D02*
X32428571Y-19342438D01*
X32428571Y-19342438D02*
X32571428Y-19294819D01*
X32571428Y-19294819D02*
X32666666Y-19294819D01*
X32666666Y-19294819D02*
X32809523Y-19342438D01*
X32809523Y-19342438D02*
X32857142Y-19390057D01*
X33809523Y-20294819D02*
X33238095Y-20294819D01*
X33523809Y-20294819D02*
X33523809Y-19294819D01*
X33523809Y-19294819D02*
X33428571Y-19437676D01*
X33428571Y-19437676D02*
X33333333Y-19532914D01*
X33333333Y-19532914D02*
X33238095Y-19580533D01*
X34190476Y-19390057D02*
X34238095Y-19342438D01*
X34238095Y-19342438D02*
X34333333Y-19294819D01*
X34333333Y-19294819D02*
X34571428Y-19294819D01*
X34571428Y-19294819D02*
X34666666Y-19342438D01*
X34666666Y-19342438D02*
X34714285Y-19390057D01*
X34714285Y-19390057D02*
X34761904Y-19485295D01*
X34761904Y-19485295D02*
X34761904Y-19580533D01*
X34761904Y-19580533D02*
X34714285Y-19723390D01*
X34714285Y-19723390D02*
X34142857Y-20294819D01*
X34142857Y-20294819D02*
X34761904Y-20294819D01*
X31041666Y-53611009D02*
X30708333Y-53611009D01*
X30708333Y-54134819D02*
X30708333Y-53134819D01*
X30708333Y-53134819D02*
X31184523Y-53134819D01*
X31470238Y-53134819D02*
X32089285Y-53134819D01*
X32089285Y-53134819D02*
X31755952Y-53515771D01*
X31755952Y-53515771D02*
X31898809Y-53515771D01*
X31898809Y-53515771D02*
X31994047Y-53563390D01*
X31994047Y-53563390D02*
X32041666Y-53611009D01*
X32041666Y-53611009D02*
X32089285Y-53706247D01*
X32089285Y-53706247D02*
X32089285Y-53944342D01*
X32089285Y-53944342D02*
X32041666Y-54039580D01*
X32041666Y-54039580D02*
X31994047Y-54087200D01*
X31994047Y-54087200D02*
X31898809Y-54134819D01*
X31898809Y-54134819D02*
X31613095Y-54134819D01*
X31613095Y-54134819D02*
X31517857Y-54087200D01*
X31517857Y-54087200D02*
X31470238Y-54039580D01*
X46708333Y-62284819D02*
X46375000Y-61808628D01*
X46136905Y-62284819D02*
X46136905Y-61284819D01*
X46136905Y-61284819D02*
X46517857Y-61284819D01*
X46517857Y-61284819D02*
X46613095Y-61332438D01*
X46613095Y-61332438D02*
X46660714Y-61380057D01*
X46660714Y-61380057D02*
X46708333Y-61475295D01*
X46708333Y-61475295D02*
X46708333Y-61618152D01*
X46708333Y-61618152D02*
X46660714Y-61713390D01*
X46660714Y-61713390D02*
X46613095Y-61761009D01*
X46613095Y-61761009D02*
X46517857Y-61808628D01*
X46517857Y-61808628D02*
X46136905Y-61808628D01*
X47613095Y-61284819D02*
X47136905Y-61284819D01*
X47136905Y-61284819D02*
X47089286Y-61761009D01*
X47089286Y-61761009D02*
X47136905Y-61713390D01*
X47136905Y-61713390D02*
X47232143Y-61665771D01*
X47232143Y-61665771D02*
X47470238Y-61665771D01*
X47470238Y-61665771D02*
X47565476Y-61713390D01*
X47565476Y-61713390D02*
X47613095Y-61761009D01*
X47613095Y-61761009D02*
X47660714Y-61856247D01*
X47660714Y-61856247D02*
X47660714Y-62094342D01*
X47660714Y-62094342D02*
X47613095Y-62189580D01*
X47613095Y-62189580D02*
X47565476Y-62237200D01*
X47565476Y-62237200D02*
X47470238Y-62284819D01*
X47470238Y-62284819D02*
X47232143Y-62284819D01*
X47232143Y-62284819D02*
X47136905Y-62237200D01*
X47136905Y-62237200D02*
X47089286Y-62189580D01*
X47190475Y-20199580D02*
X47142856Y-20247200D01*
X47142856Y-20247200D02*
X46999999Y-20294819D01*
X46999999Y-20294819D02*
X46904761Y-20294819D01*
X46904761Y-20294819D02*
X46761904Y-20247200D01*
X46761904Y-20247200D02*
X46666666Y-20151961D01*
X46666666Y-20151961D02*
X46619047Y-20056723D01*
X46619047Y-20056723D02*
X46571428Y-19866247D01*
X46571428Y-19866247D02*
X46571428Y-19723390D01*
X46571428Y-19723390D02*
X46619047Y-19532914D01*
X46619047Y-19532914D02*
X46666666Y-19437676D01*
X46666666Y-19437676D02*
X46761904Y-19342438D01*
X46761904Y-19342438D02*
X46904761Y-19294819D01*
X46904761Y-19294819D02*
X46999999Y-19294819D01*
X46999999Y-19294819D02*
X47142856Y-19342438D01*
X47142856Y-19342438D02*
X47190475Y-19390057D01*
X48142856Y-20294819D02*
X47571428Y-20294819D01*
X47857142Y-20294819D02*
X47857142Y-19294819D01*
X47857142Y-19294819D02*
X47761904Y-19437676D01*
X47761904Y-19437676D02*
X47666666Y-19532914D01*
X47666666Y-19532914D02*
X47571428Y-19580533D01*
X48476190Y-19294819D02*
X49095237Y-19294819D01*
X49095237Y-19294819D02*
X48761904Y-19675771D01*
X48761904Y-19675771D02*
X48904761Y-19675771D01*
X48904761Y-19675771D02*
X48999999Y-19723390D01*
X48999999Y-19723390D02*
X49047618Y-19771009D01*
X49047618Y-19771009D02*
X49095237Y-19866247D01*
X49095237Y-19866247D02*
X49095237Y-20104342D01*
X49095237Y-20104342D02*
X49047618Y-20199580D01*
X49047618Y-20199580D02*
X48999999Y-20247200D01*
X48999999Y-20247200D02*
X48904761Y-20294819D01*
X48904761Y-20294819D02*
X48619047Y-20294819D01*
X48619047Y-20294819D02*
X48523809Y-20247200D01*
X48523809Y-20247200D02*
X48476190Y-20199580D01*
X46113095Y-36454819D02*
X46113095Y-37264342D01*
X46113095Y-37264342D02*
X46160714Y-37359580D01*
X46160714Y-37359580D02*
X46208333Y-37407200D01*
X46208333Y-37407200D02*
X46303571Y-37454819D01*
X46303571Y-37454819D02*
X46494047Y-37454819D01*
X46494047Y-37454819D02*
X46589285Y-37407200D01*
X46589285Y-37407200D02*
X46636904Y-37359580D01*
X46636904Y-37359580D02*
X46684523Y-37264342D01*
X46684523Y-37264342D02*
X46684523Y-36454819D01*
X47589285Y-36788152D02*
X47589285Y-37454819D01*
X47351190Y-36407200D02*
X47113095Y-37121485D01*
X47113095Y-37121485D02*
X47732142Y-37121485D01*
X46500000Y-25907200D02*
X46642857Y-25954819D01*
X46642857Y-25954819D02*
X46880952Y-25954819D01*
X46880952Y-25954819D02*
X46976190Y-25907200D01*
X46976190Y-25907200D02*
X47023809Y-25859580D01*
X47023809Y-25859580D02*
X47071428Y-25764342D01*
X47071428Y-25764342D02*
X47071428Y-25669104D01*
X47071428Y-25669104D02*
X47023809Y-25573866D01*
X47023809Y-25573866D02*
X46976190Y-25526247D01*
X46976190Y-25526247D02*
X46880952Y-25478628D01*
X46880952Y-25478628D02*
X46690476Y-25431009D01*
X46690476Y-25431009D02*
X46595238Y-25383390D01*
X46595238Y-25383390D02*
X46547619Y-25335771D01*
X46547619Y-25335771D02*
X46500000Y-25240533D01*
X46500000Y-25240533D02*
X46500000Y-25145295D01*
X46500000Y-25145295D02*
X46547619Y-25050057D01*
X46547619Y-25050057D02*
X46595238Y-25002438D01*
X46595238Y-25002438D02*
X46690476Y-24954819D01*
X46690476Y-24954819D02*
X46928571Y-24954819D01*
X46928571Y-24954819D02*
X47071428Y-25002438D01*
X47404762Y-24954819D02*
X47642857Y-25954819D01*
X47642857Y-25954819D02*
X47833333Y-25240533D01*
X47833333Y-25240533D02*
X48023809Y-25954819D01*
X48023809Y-25954819D02*
X48261905Y-24954819D01*
X49166666Y-25954819D02*
X48595238Y-25954819D01*
X48880952Y-25954819D02*
X48880952Y-24954819D01*
X48880952Y-24954819D02*
X48785714Y-25097676D01*
X48785714Y-25097676D02*
X48690476Y-25192914D01*
X48690476Y-25192914D02*
X48595238Y-25240533D01*
X80666666Y-49254819D02*
X80666666Y-49969104D01*
X80666666Y-49969104D02*
X80619047Y-50111961D01*
X80619047Y-50111961D02*
X80523809Y-50207200D01*
X80523809Y-50207200D02*
X80380952Y-50254819D01*
X80380952Y-50254819D02*
X80285714Y-50254819D01*
X81142857Y-50254819D02*
X81142857Y-49254819D01*
X81142857Y-49254819D02*
X81523809Y-49254819D01*
X81523809Y-49254819D02*
X81619047Y-49302438D01*
X81619047Y-49302438D02*
X81666666Y-49350057D01*
X81666666Y-49350057D02*
X81714285Y-49445295D01*
X81714285Y-49445295D02*
X81714285Y-49588152D01*
X81714285Y-49588152D02*
X81666666Y-49683390D01*
X81666666Y-49683390D02*
X81619047Y-49731009D01*
X81619047Y-49731009D02*
X81523809Y-49778628D01*
X81523809Y-49778628D02*
X81142857Y-49778628D01*
X82666666Y-50254819D02*
X82095238Y-50254819D01*
X82380952Y-50254819D02*
X82380952Y-49254819D01*
X82380952Y-49254819D02*
X82285714Y-49397676D01*
X82285714Y-49397676D02*
X82190476Y-49492914D01*
X82190476Y-49492914D02*
X82095238Y-49540533D01*
X38386905Y-53454819D02*
X38386905Y-52454819D01*
X38386905Y-52454819D02*
X38625000Y-52454819D01*
X38625000Y-52454819D02*
X38767857Y-52502438D01*
X38767857Y-52502438D02*
X38863095Y-52597676D01*
X38863095Y-52597676D02*
X38910714Y-52692914D01*
X38910714Y-52692914D02*
X38958333Y-52883390D01*
X38958333Y-52883390D02*
X38958333Y-53026247D01*
X38958333Y-53026247D02*
X38910714Y-53216723D01*
X38910714Y-53216723D02*
X38863095Y-53311961D01*
X38863095Y-53311961D02*
X38767857Y-53407200D01*
X38767857Y-53407200D02*
X38625000Y-53454819D01*
X38625000Y-53454819D02*
X38386905Y-53454819D01*
X39291667Y-52454819D02*
X39910714Y-52454819D01*
X39910714Y-52454819D02*
X39577381Y-52835771D01*
X39577381Y-52835771D02*
X39720238Y-52835771D01*
X39720238Y-52835771D02*
X39815476Y-52883390D01*
X39815476Y-52883390D02*
X39863095Y-52931009D01*
X39863095Y-52931009D02*
X39910714Y-53026247D01*
X39910714Y-53026247D02*
X39910714Y-53264342D01*
X39910714Y-53264342D02*
X39863095Y-53359580D01*
X39863095Y-53359580D02*
X39815476Y-53407200D01*
X39815476Y-53407200D02*
X39720238Y-53454819D01*
X39720238Y-53454819D02*
X39434524Y-53454819D01*
X39434524Y-53454819D02*
X39339286Y-53407200D01*
X39339286Y-53407200D02*
X39291667Y-53359580D01*
X91380952Y-50624819D02*
X90904762Y-50624819D01*
X90904762Y-50624819D02*
X90904762Y-49624819D01*
X91714286Y-50101009D02*
X92047619Y-50101009D01*
X92190476Y-50624819D02*
X91714286Y-50624819D01*
X91714286Y-50624819D02*
X91714286Y-49624819D01*
X91714286Y-49624819D02*
X92190476Y-49624819D01*
X92619048Y-50624819D02*
X92619048Y-49624819D01*
X92619048Y-49624819D02*
X92857143Y-49624819D01*
X92857143Y-49624819D02*
X93000000Y-49672438D01*
X93000000Y-49672438D02*
X93095238Y-49767676D01*
X93095238Y-49767676D02*
X93142857Y-49862914D01*
X93142857Y-49862914D02*
X93190476Y-50053390D01*
X93190476Y-50053390D02*
X93190476Y-50196247D01*
X93190476Y-50196247D02*
X93142857Y-50386723D01*
X93142857Y-50386723D02*
X93095238Y-50481961D01*
X93095238Y-50481961D02*
X93000000Y-50577200D01*
X93000000Y-50577200D02*
X92857143Y-50624819D01*
X92857143Y-50624819D02*
X92619048Y-50624819D01*
X94142857Y-50624819D02*
X93571429Y-50624819D01*
X93857143Y-50624819D02*
X93857143Y-49624819D01*
X93857143Y-49624819D02*
X93761905Y-49767676D01*
X93761905Y-49767676D02*
X93666667Y-49862914D01*
X93666667Y-49862914D02*
X93571429Y-49910533D01*
X30613095Y-30054819D02*
X30613095Y-30864342D01*
X30613095Y-30864342D02*
X30660714Y-30959580D01*
X30660714Y-30959580D02*
X30708333Y-31007200D01*
X30708333Y-31007200D02*
X30803571Y-31054819D01*
X30803571Y-31054819D02*
X30994047Y-31054819D01*
X30994047Y-31054819D02*
X31089285Y-31007200D01*
X31089285Y-31007200D02*
X31136904Y-30959580D01*
X31136904Y-30959580D02*
X31184523Y-30864342D01*
X31184523Y-30864342D02*
X31184523Y-30054819D01*
X32184523Y-31054819D02*
X31613095Y-31054819D01*
X31898809Y-31054819D02*
X31898809Y-30054819D01*
X31898809Y-30054819D02*
X31803571Y-30197676D01*
X31803571Y-30197676D02*
X31708333Y-30292914D01*
X31708333Y-30292914D02*
X31613095Y-30340533D01*
X34666666Y-7854819D02*
X34666666Y-8569104D01*
X34666666Y-8569104D02*
X34619047Y-8711961D01*
X34619047Y-8711961D02*
X34523809Y-8807200D01*
X34523809Y-8807200D02*
X34380952Y-8854819D01*
X34380952Y-8854819D02*
X34285714Y-8854819D01*
X35666666Y-8854819D02*
X35095238Y-8854819D01*
X35380952Y-8854819D02*
X35380952Y-7854819D01*
X35380952Y-7854819D02*
X35285714Y-7997676D01*
X35285714Y-7997676D02*
X35190476Y-8092914D01*
X35190476Y-8092914D02*
X35095238Y-8140533D01*
X69386905Y-30454819D02*
X69386905Y-29454819D01*
X69386905Y-29454819D02*
X69625000Y-29454819D01*
X69625000Y-29454819D02*
X69767857Y-29502438D01*
X69767857Y-29502438D02*
X69863095Y-29597676D01*
X69863095Y-29597676D02*
X69910714Y-29692914D01*
X69910714Y-29692914D02*
X69958333Y-29883390D01*
X69958333Y-29883390D02*
X69958333Y-30026247D01*
X69958333Y-30026247D02*
X69910714Y-30216723D01*
X69910714Y-30216723D02*
X69863095Y-30311961D01*
X69863095Y-30311961D02*
X69767857Y-30407200D01*
X69767857Y-30407200D02*
X69625000Y-30454819D01*
X69625000Y-30454819D02*
X69386905Y-30454819D01*
X70339286Y-29550057D02*
X70386905Y-29502438D01*
X70386905Y-29502438D02*
X70482143Y-29454819D01*
X70482143Y-29454819D02*
X70720238Y-29454819D01*
X70720238Y-29454819D02*
X70815476Y-29502438D01*
X70815476Y-29502438D02*
X70863095Y-29550057D01*
X70863095Y-29550057D02*
X70910714Y-29645295D01*
X70910714Y-29645295D02*
X70910714Y-29740533D01*
X70910714Y-29740533D02*
X70863095Y-29883390D01*
X70863095Y-29883390D02*
X70291667Y-30454819D01*
X70291667Y-30454819D02*
X70910714Y-30454819D01*
X54291666Y-61111009D02*
X53958333Y-61111009D01*
X53958333Y-61634819D02*
X53958333Y-60634819D01*
X53958333Y-60634819D02*
X54434523Y-60634819D01*
X55244047Y-60968152D02*
X55244047Y-61634819D01*
X55005952Y-60587200D02*
X54767857Y-61301485D01*
X54767857Y-61301485D02*
X55386904Y-61301485D01*
X91238095Y-61806819D02*
X91809523Y-61806819D01*
X91523809Y-62806819D02*
X91523809Y-61806819D01*
X92142857Y-62806819D02*
X92142857Y-61806819D01*
X92142857Y-61806819D02*
X92523809Y-61806819D01*
X92523809Y-61806819D02*
X92619047Y-61854438D01*
X92619047Y-61854438D02*
X92666666Y-61902057D01*
X92666666Y-61902057D02*
X92714285Y-61997295D01*
X92714285Y-61997295D02*
X92714285Y-62140152D01*
X92714285Y-62140152D02*
X92666666Y-62235390D01*
X92666666Y-62235390D02*
X92619047Y-62283009D01*
X92619047Y-62283009D02*
X92523809Y-62330628D01*
X92523809Y-62330628D02*
X92142857Y-62330628D01*
X93047619Y-61806819D02*
X93666666Y-61806819D01*
X93666666Y-61806819D02*
X93333333Y-62187771D01*
X93333333Y-62187771D02*
X93476190Y-62187771D01*
X93476190Y-62187771D02*
X93571428Y-62235390D01*
X93571428Y-62235390D02*
X93619047Y-62283009D01*
X93619047Y-62283009D02*
X93666666Y-62378247D01*
X93666666Y-62378247D02*
X93666666Y-62616342D01*
X93666666Y-62616342D02*
X93619047Y-62711580D01*
X93619047Y-62711580D02*
X93571428Y-62759200D01*
X93571428Y-62759200D02*
X93476190Y-62806819D01*
X93476190Y-62806819D02*
X93190476Y-62806819D01*
X93190476Y-62806819D02*
X93095238Y-62759200D01*
X93095238Y-62759200D02*
X93047619Y-62711580D01*
X30732142Y-62199580D02*
X30684523Y-62247200D01*
X30684523Y-62247200D02*
X30541666Y-62294819D01*
X30541666Y-62294819D02*
X30446428Y-62294819D01*
X30446428Y-62294819D02*
X30303571Y-62247200D01*
X30303571Y-62247200D02*
X30208333Y-62151961D01*
X30208333Y-62151961D02*
X30160714Y-62056723D01*
X30160714Y-62056723D02*
X30113095Y-61866247D01*
X30113095Y-61866247D02*
X30113095Y-61723390D01*
X30113095Y-61723390D02*
X30160714Y-61532914D01*
X30160714Y-61532914D02*
X30208333Y-61437676D01*
X30208333Y-61437676D02*
X30303571Y-61342438D01*
X30303571Y-61342438D02*
X30446428Y-61294819D01*
X30446428Y-61294819D02*
X30541666Y-61294819D01*
X30541666Y-61294819D02*
X30684523Y-61342438D01*
X30684523Y-61342438D02*
X30732142Y-61390057D01*
X31684523Y-62294819D02*
X31113095Y-62294819D01*
X31398809Y-62294819D02*
X31398809Y-61294819D01*
X31398809Y-61294819D02*
X31303571Y-61437676D01*
X31303571Y-61437676D02*
X31208333Y-61532914D01*
X31208333Y-61532914D02*
X31113095Y-61580533D01*
X32303571Y-61294819D02*
X32398809Y-61294819D01*
X32398809Y-61294819D02*
X32494047Y-61342438D01*
X32494047Y-61342438D02*
X32541666Y-61390057D01*
X32541666Y-61390057D02*
X32589285Y-61485295D01*
X32589285Y-61485295D02*
X32636904Y-61675771D01*
X32636904Y-61675771D02*
X32636904Y-61913866D01*
X32636904Y-61913866D02*
X32589285Y-62104342D01*
X32589285Y-62104342D02*
X32541666Y-62199580D01*
X32541666Y-62199580D02*
X32494047Y-62247200D01*
X32494047Y-62247200D02*
X32398809Y-62294819D01*
X32398809Y-62294819D02*
X32303571Y-62294819D01*
X32303571Y-62294819D02*
X32208333Y-62247200D01*
X32208333Y-62247200D02*
X32160714Y-62199580D01*
X32160714Y-62199580D02*
X32113095Y-62104342D01*
X32113095Y-62104342D02*
X32065476Y-61913866D01*
X32065476Y-61913866D02*
X32065476Y-61675771D01*
X32065476Y-61675771D02*
X32113095Y-61485295D01*
X32113095Y-61485295D02*
X32160714Y-61390057D01*
X32160714Y-61390057D02*
X32208333Y-61342438D01*
X32208333Y-61342438D02*
X32303571Y-61294819D01*
X107354819Y-20333333D02*
X108069104Y-20333333D01*
X108069104Y-20333333D02*
X108211961Y-20380952D01*
X108211961Y-20380952D02*
X108307200Y-20476190D01*
X108307200Y-20476190D02*
X108354819Y-20619047D01*
X108354819Y-20619047D02*
X108354819Y-20714285D01*
X107354819Y-19380952D02*
X107354819Y-19857142D01*
X107354819Y-19857142D02*
X107831009Y-19904761D01*
X107831009Y-19904761D02*
X107783390Y-19857142D01*
X107783390Y-19857142D02*
X107735771Y-19761904D01*
X107735771Y-19761904D02*
X107735771Y-19523809D01*
X107735771Y-19523809D02*
X107783390Y-19428571D01*
X107783390Y-19428571D02*
X107831009Y-19380952D01*
X107831009Y-19380952D02*
X107926247Y-19333333D01*
X107926247Y-19333333D02*
X108164342Y-19333333D01*
X108164342Y-19333333D02*
X108259580Y-19380952D01*
X108259580Y-19380952D02*
X108307200Y-19428571D01*
X108307200Y-19428571D02*
X108354819Y-19523809D01*
X108354819Y-19523809D02*
X108354819Y-19761904D01*
X108354819Y-19761904D02*
X108307200Y-19857142D01*
X108307200Y-19857142D02*
X108259580Y-19904761D01*
X68958333Y-46634819D02*
X68625000Y-46158628D01*
X68386905Y-46634819D02*
X68386905Y-45634819D01*
X68386905Y-45634819D02*
X68767857Y-45634819D01*
X68767857Y-45634819D02*
X68863095Y-45682438D01*
X68863095Y-45682438D02*
X68910714Y-45730057D01*
X68910714Y-45730057D02*
X68958333Y-45825295D01*
X68958333Y-45825295D02*
X68958333Y-45968152D01*
X68958333Y-45968152D02*
X68910714Y-46063390D01*
X68910714Y-46063390D02*
X68863095Y-46111009D01*
X68863095Y-46111009D02*
X68767857Y-46158628D01*
X68767857Y-46158628D02*
X68386905Y-46158628D01*
X69339286Y-46587200D02*
X69482143Y-46634819D01*
X69482143Y-46634819D02*
X69720238Y-46634819D01*
X69720238Y-46634819D02*
X69815476Y-46587200D01*
X69815476Y-46587200D02*
X69863095Y-46539580D01*
X69863095Y-46539580D02*
X69910714Y-46444342D01*
X69910714Y-46444342D02*
X69910714Y-46349104D01*
X69910714Y-46349104D02*
X69863095Y-46253866D01*
X69863095Y-46253866D02*
X69815476Y-46206247D01*
X69815476Y-46206247D02*
X69720238Y-46158628D01*
X69720238Y-46158628D02*
X69529762Y-46111009D01*
X69529762Y-46111009D02*
X69434524Y-46063390D01*
X69434524Y-46063390D02*
X69386905Y-46015771D01*
X69386905Y-46015771D02*
X69339286Y-45920533D01*
X69339286Y-45920533D02*
X69339286Y-45825295D01*
X69339286Y-45825295D02*
X69386905Y-45730057D01*
X69386905Y-45730057D02*
X69434524Y-45682438D01*
X69434524Y-45682438D02*
X69529762Y-45634819D01*
X69529762Y-45634819D02*
X69767857Y-45634819D01*
X69767857Y-45634819D02*
X69910714Y-45682438D01*
X70339286Y-46634819D02*
X70339286Y-45634819D01*
X70339286Y-46111009D02*
X70910714Y-46111009D01*
X70910714Y-46634819D02*
X70910714Y-45634819D01*
X71910714Y-46634819D02*
X71339286Y-46634819D01*
X71625000Y-46634819D02*
X71625000Y-45634819D01*
X71625000Y-45634819D02*
X71529762Y-45777676D01*
X71529762Y-45777676D02*
X71434524Y-45872914D01*
X71434524Y-45872914D02*
X71339286Y-45920533D01*
X46136905Y-52954819D02*
X46136905Y-51954819D01*
X46136905Y-51954819D02*
X46375000Y-51954819D01*
X46375000Y-51954819D02*
X46517857Y-52002438D01*
X46517857Y-52002438D02*
X46613095Y-52097676D01*
X46613095Y-52097676D02*
X46660714Y-52192914D01*
X46660714Y-52192914D02*
X46708333Y-52383390D01*
X46708333Y-52383390D02*
X46708333Y-52526247D01*
X46708333Y-52526247D02*
X46660714Y-52716723D01*
X46660714Y-52716723D02*
X46613095Y-52811961D01*
X46613095Y-52811961D02*
X46517857Y-52907200D01*
X46517857Y-52907200D02*
X46375000Y-52954819D01*
X46375000Y-52954819D02*
X46136905Y-52954819D01*
X47565476Y-52288152D02*
X47565476Y-52954819D01*
X47327381Y-51907200D02*
X47089286Y-52621485D01*
X47089286Y-52621485D02*
X47708333Y-52621485D01*
X3666667Y-81754819D02*
X3666667Y-80754819D01*
X3666667Y-80754819D02*
X4000000Y-81469104D01*
X4000000Y-81469104D02*
X4333333Y-80754819D01*
X4333333Y-80754819D02*
X4333333Y-81754819D01*
X4809524Y-81754819D02*
X4809524Y-80754819D01*
X4809524Y-81231009D02*
X5380952Y-81231009D01*
X5380952Y-81754819D02*
X5380952Y-80754819D01*
X5761905Y-80754819D02*
X6380952Y-80754819D01*
X6380952Y-80754819D02*
X6047619Y-81135771D01*
X6047619Y-81135771D02*
X6190476Y-81135771D01*
X6190476Y-81135771D02*
X6285714Y-81183390D01*
X6285714Y-81183390D02*
X6333333Y-81231009D01*
X6333333Y-81231009D02*
X6380952Y-81326247D01*
X6380952Y-81326247D02*
X6380952Y-81564342D01*
X6380952Y-81564342D02*
X6333333Y-81659580D01*
X6333333Y-81659580D02*
X6285714Y-81707200D01*
X6285714Y-81707200D02*
X6190476Y-81754819D01*
X6190476Y-81754819D02*
X5904762Y-81754819D01*
X5904762Y-81754819D02*
X5809524Y-81707200D01*
X5809524Y-81707200D02*
X5761905Y-81659580D01*
X107434819Y-59333333D02*
X108149104Y-59333333D01*
X108149104Y-59333333D02*
X108291961Y-59380952D01*
X108291961Y-59380952D02*
X108387200Y-59476190D01*
X108387200Y-59476190D02*
X108434819Y-59619047D01*
X108434819Y-59619047D02*
X108434819Y-59714285D01*
X107863390Y-58714285D02*
X107815771Y-58809523D01*
X107815771Y-58809523D02*
X107768152Y-58857142D01*
X107768152Y-58857142D02*
X107672914Y-58904761D01*
X107672914Y-58904761D02*
X107625295Y-58904761D01*
X107625295Y-58904761D02*
X107530057Y-58857142D01*
X107530057Y-58857142D02*
X107482438Y-58809523D01*
X107482438Y-58809523D02*
X107434819Y-58714285D01*
X107434819Y-58714285D02*
X107434819Y-58523809D01*
X107434819Y-58523809D02*
X107482438Y-58428571D01*
X107482438Y-58428571D02*
X107530057Y-58380952D01*
X107530057Y-58380952D02*
X107625295Y-58333333D01*
X107625295Y-58333333D02*
X107672914Y-58333333D01*
X107672914Y-58333333D02*
X107768152Y-58380952D01*
X107768152Y-58380952D02*
X107815771Y-58428571D01*
X107815771Y-58428571D02*
X107863390Y-58523809D01*
X107863390Y-58523809D02*
X107863390Y-58714285D01*
X107863390Y-58714285D02*
X107911009Y-58809523D01*
X107911009Y-58809523D02*
X107958628Y-58857142D01*
X107958628Y-58857142D02*
X108053866Y-58904761D01*
X108053866Y-58904761D02*
X108244342Y-58904761D01*
X108244342Y-58904761D02*
X108339580Y-58857142D01*
X108339580Y-58857142D02*
X108387200Y-58809523D01*
X108387200Y-58809523D02*
X108434819Y-58714285D01*
X108434819Y-58714285D02*
X108434819Y-58523809D01*
X108434819Y-58523809D02*
X108387200Y-58428571D01*
X108387200Y-58428571D02*
X108339580Y-58380952D01*
X108339580Y-58380952D02*
X108244342Y-58333333D01*
X108244342Y-58333333D02*
X108053866Y-58333333D01*
X108053866Y-58333333D02*
X107958628Y-58380952D01*
X107958628Y-58380952D02*
X107911009Y-58428571D01*
X107911009Y-58428571D02*
X107863390Y-58523809D01*
X31208333Y-38559580D02*
X31160714Y-38607200D01*
X31160714Y-38607200D02*
X31017857Y-38654819D01*
X31017857Y-38654819D02*
X30922619Y-38654819D01*
X30922619Y-38654819D02*
X30779762Y-38607200D01*
X30779762Y-38607200D02*
X30684524Y-38511961D01*
X30684524Y-38511961D02*
X30636905Y-38416723D01*
X30636905Y-38416723D02*
X30589286Y-38226247D01*
X30589286Y-38226247D02*
X30589286Y-38083390D01*
X30589286Y-38083390D02*
X30636905Y-37892914D01*
X30636905Y-37892914D02*
X30684524Y-37797676D01*
X30684524Y-37797676D02*
X30779762Y-37702438D01*
X30779762Y-37702438D02*
X30922619Y-37654819D01*
X30922619Y-37654819D02*
X31017857Y-37654819D01*
X31017857Y-37654819D02*
X31160714Y-37702438D01*
X31160714Y-37702438D02*
X31208333Y-37750057D01*
X31589286Y-37750057D02*
X31636905Y-37702438D01*
X31636905Y-37702438D02*
X31732143Y-37654819D01*
X31732143Y-37654819D02*
X31970238Y-37654819D01*
X31970238Y-37654819D02*
X32065476Y-37702438D01*
X32065476Y-37702438D02*
X32113095Y-37750057D01*
X32113095Y-37750057D02*
X32160714Y-37845295D01*
X32160714Y-37845295D02*
X32160714Y-37940533D01*
X32160714Y-37940533D02*
X32113095Y-38083390D01*
X32113095Y-38083390D02*
X31541667Y-38654819D01*
X31541667Y-38654819D02*
X32160714Y-38654819D01*
X39029761Y-31150057D02*
X38934523Y-31102438D01*
X38934523Y-31102438D02*
X38839285Y-31007200D01*
X38839285Y-31007200D02*
X38696428Y-30864342D01*
X38696428Y-30864342D02*
X38601190Y-30816723D01*
X38601190Y-30816723D02*
X38505952Y-30816723D01*
X38553571Y-31054819D02*
X38458333Y-31007200D01*
X38458333Y-31007200D02*
X38363095Y-30911961D01*
X38363095Y-30911961D02*
X38315476Y-30721485D01*
X38315476Y-30721485D02*
X38315476Y-30388152D01*
X38315476Y-30388152D02*
X38363095Y-30197676D01*
X38363095Y-30197676D02*
X38458333Y-30102438D01*
X38458333Y-30102438D02*
X38553571Y-30054819D01*
X38553571Y-30054819D02*
X38744047Y-30054819D01*
X38744047Y-30054819D02*
X38839285Y-30102438D01*
X38839285Y-30102438D02*
X38934523Y-30197676D01*
X38934523Y-30197676D02*
X38982142Y-30388152D01*
X38982142Y-30388152D02*
X38982142Y-30721485D01*
X38982142Y-30721485D02*
X38934523Y-30911961D01*
X38934523Y-30911961D02*
X38839285Y-31007200D01*
X38839285Y-31007200D02*
X38744047Y-31054819D01*
X38744047Y-31054819D02*
X38553571Y-31054819D01*
X39934523Y-31054819D02*
X39363095Y-31054819D01*
X39648809Y-31054819D02*
X39648809Y-30054819D01*
X39648809Y-30054819D02*
X39553571Y-30197676D01*
X39553571Y-30197676D02*
X39458333Y-30292914D01*
X39458333Y-30292914D02*
X39363095Y-30340533D01*
X107354819Y-46333333D02*
X108069104Y-46333333D01*
X108069104Y-46333333D02*
X108211961Y-46380952D01*
X108211961Y-46380952D02*
X108307200Y-46476190D01*
X108307200Y-46476190D02*
X108354819Y-46619047D01*
X108354819Y-46619047D02*
X108354819Y-46714285D01*
X107354819Y-45952380D02*
X107354819Y-45285714D01*
X107354819Y-45285714D02*
X108354819Y-45714285D01*
X91857142Y-44684819D02*
X91523809Y-44208628D01*
X91285714Y-44684819D02*
X91285714Y-43684819D01*
X91285714Y-43684819D02*
X91666666Y-43684819D01*
X91666666Y-43684819D02*
X91761904Y-43732438D01*
X91761904Y-43732438D02*
X91809523Y-43780057D01*
X91809523Y-43780057D02*
X91857142Y-43875295D01*
X91857142Y-43875295D02*
X91857142Y-44018152D01*
X91857142Y-44018152D02*
X91809523Y-44113390D01*
X91809523Y-44113390D02*
X91761904Y-44161009D01*
X91761904Y-44161009D02*
X91666666Y-44208628D01*
X91666666Y-44208628D02*
X91285714Y-44208628D01*
X92809523Y-44684819D02*
X92238095Y-44684819D01*
X92523809Y-44684819D02*
X92523809Y-43684819D01*
X92523809Y-43684819D02*
X92428571Y-43827676D01*
X92428571Y-43827676D02*
X92333333Y-43922914D01*
X92333333Y-43922914D02*
X92238095Y-43970533D01*
X93714285Y-43684819D02*
X93238095Y-43684819D01*
X93238095Y-43684819D02*
X93190476Y-44161009D01*
X93190476Y-44161009D02*
X93238095Y-44113390D01*
X93238095Y-44113390D02*
X93333333Y-44065771D01*
X93333333Y-44065771D02*
X93571428Y-44065771D01*
X93571428Y-44065771D02*
X93666666Y-44113390D01*
X93666666Y-44113390D02*
X93714285Y-44161009D01*
X93714285Y-44161009D02*
X93761904Y-44256247D01*
X93761904Y-44256247D02*
X93761904Y-44494342D01*
X93761904Y-44494342D02*
X93714285Y-44589580D01*
X93714285Y-44589580D02*
X93666666Y-44637200D01*
X93666666Y-44637200D02*
X93571428Y-44684819D01*
X93571428Y-44684819D02*
X93333333Y-44684819D01*
X93333333Y-44684819D02*
X93238095Y-44637200D01*
X93238095Y-44637200D02*
X93190476Y-44589580D01*
X15113095Y-37554819D02*
X15113095Y-38364342D01*
X15113095Y-38364342D02*
X15160714Y-38459580D01*
X15160714Y-38459580D02*
X15208333Y-38507200D01*
X15208333Y-38507200D02*
X15303571Y-38554819D01*
X15303571Y-38554819D02*
X15494047Y-38554819D01*
X15494047Y-38554819D02*
X15589285Y-38507200D01*
X15589285Y-38507200D02*
X15636904Y-38459580D01*
X15636904Y-38459580D02*
X15684523Y-38364342D01*
X15684523Y-38364342D02*
X15684523Y-37554819D01*
X16113095Y-37650057D02*
X16160714Y-37602438D01*
X16160714Y-37602438D02*
X16255952Y-37554819D01*
X16255952Y-37554819D02*
X16494047Y-37554819D01*
X16494047Y-37554819D02*
X16589285Y-37602438D01*
X16589285Y-37602438D02*
X16636904Y-37650057D01*
X16636904Y-37650057D02*
X16684523Y-37745295D01*
X16684523Y-37745295D02*
X16684523Y-37840533D01*
X16684523Y-37840533D02*
X16636904Y-37983390D01*
X16636904Y-37983390D02*
X16065476Y-38554819D01*
X16065476Y-38554819D02*
X16684523Y-38554819D01*
X23458333Y-62199580D02*
X23410714Y-62247200D01*
X23410714Y-62247200D02*
X23267857Y-62294819D01*
X23267857Y-62294819D02*
X23172619Y-62294819D01*
X23172619Y-62294819D02*
X23029762Y-62247200D01*
X23029762Y-62247200D02*
X22934524Y-62151961D01*
X22934524Y-62151961D02*
X22886905Y-62056723D01*
X22886905Y-62056723D02*
X22839286Y-61866247D01*
X22839286Y-61866247D02*
X22839286Y-61723390D01*
X22839286Y-61723390D02*
X22886905Y-61532914D01*
X22886905Y-61532914D02*
X22934524Y-61437676D01*
X22934524Y-61437676D02*
X23029762Y-61342438D01*
X23029762Y-61342438D02*
X23172619Y-61294819D01*
X23172619Y-61294819D02*
X23267857Y-61294819D01*
X23267857Y-61294819D02*
X23410714Y-61342438D01*
X23410714Y-61342438D02*
X23458333Y-61390057D01*
X23934524Y-62294819D02*
X24125000Y-62294819D01*
X24125000Y-62294819D02*
X24220238Y-62247200D01*
X24220238Y-62247200D02*
X24267857Y-62199580D01*
X24267857Y-62199580D02*
X24363095Y-62056723D01*
X24363095Y-62056723D02*
X24410714Y-61866247D01*
X24410714Y-61866247D02*
X24410714Y-61485295D01*
X24410714Y-61485295D02*
X24363095Y-61390057D01*
X24363095Y-61390057D02*
X24315476Y-61342438D01*
X24315476Y-61342438D02*
X24220238Y-61294819D01*
X24220238Y-61294819D02*
X24029762Y-61294819D01*
X24029762Y-61294819D02*
X23934524Y-61342438D01*
X23934524Y-61342438D02*
X23886905Y-61390057D01*
X23886905Y-61390057D02*
X23839286Y-61485295D01*
X23839286Y-61485295D02*
X23839286Y-61723390D01*
X23839286Y-61723390D02*
X23886905Y-61818628D01*
X23886905Y-61818628D02*
X23934524Y-61866247D01*
X23934524Y-61866247D02*
X24029762Y-61913866D01*
X24029762Y-61913866D02*
X24220238Y-61913866D01*
X24220238Y-61913866D02*
X24315476Y-61866247D01*
X24315476Y-61866247D02*
X24363095Y-61818628D01*
X24363095Y-61818628D02*
X24410714Y-61723390D01*
X80857142Y-38484819D02*
X80523809Y-38008628D01*
X80285714Y-38484819D02*
X80285714Y-37484819D01*
X80285714Y-37484819D02*
X80666666Y-37484819D01*
X80666666Y-37484819D02*
X80761904Y-37532438D01*
X80761904Y-37532438D02*
X80809523Y-37580057D01*
X80809523Y-37580057D02*
X80857142Y-37675295D01*
X80857142Y-37675295D02*
X80857142Y-37818152D01*
X80857142Y-37818152D02*
X80809523Y-37913390D01*
X80809523Y-37913390D02*
X80761904Y-37961009D01*
X80761904Y-37961009D02*
X80666666Y-38008628D01*
X80666666Y-38008628D02*
X80285714Y-38008628D01*
X81809523Y-38484819D02*
X81238095Y-38484819D01*
X81523809Y-38484819D02*
X81523809Y-37484819D01*
X81523809Y-37484819D02*
X81428571Y-37627676D01*
X81428571Y-37627676D02*
X81333333Y-37722914D01*
X81333333Y-37722914D02*
X81238095Y-37770533D01*
X82190476Y-37580057D02*
X82238095Y-37532438D01*
X82238095Y-37532438D02*
X82333333Y-37484819D01*
X82333333Y-37484819D02*
X82571428Y-37484819D01*
X82571428Y-37484819D02*
X82666666Y-37532438D01*
X82666666Y-37532438D02*
X82714285Y-37580057D01*
X82714285Y-37580057D02*
X82761904Y-37675295D01*
X82761904Y-37675295D02*
X82761904Y-37770533D01*
X82761904Y-37770533D02*
X82714285Y-37913390D01*
X82714285Y-37913390D02*
X82142857Y-38484819D01*
X82142857Y-38484819D02*
X82761904Y-38484819D01*
X74666666Y-7854819D02*
X74666666Y-8569104D01*
X74666666Y-8569104D02*
X74619047Y-8711961D01*
X74619047Y-8711961D02*
X74523809Y-8807200D01*
X74523809Y-8807200D02*
X74380952Y-8854819D01*
X74380952Y-8854819D02*
X74285714Y-8854819D01*
X75095238Y-7950057D02*
X75142857Y-7902438D01*
X75142857Y-7902438D02*
X75238095Y-7854819D01*
X75238095Y-7854819D02*
X75476190Y-7854819D01*
X75476190Y-7854819D02*
X75571428Y-7902438D01*
X75571428Y-7902438D02*
X75619047Y-7950057D01*
X75619047Y-7950057D02*
X75666666Y-8045295D01*
X75666666Y-8045295D02*
X75666666Y-8140533D01*
X75666666Y-8140533D02*
X75619047Y-8283390D01*
X75619047Y-8283390D02*
X75047619Y-8854819D01*
X75047619Y-8854819D02*
X75666666Y-8854819D01*
X54666666Y-86954819D02*
X54666666Y-87669104D01*
X54666666Y-87669104D02*
X54619047Y-87811961D01*
X54619047Y-87811961D02*
X54523809Y-87907200D01*
X54523809Y-87907200D02*
X54380952Y-87954819D01*
X54380952Y-87954819D02*
X54285714Y-87954819D01*
X55190476Y-87954819D02*
X55380952Y-87954819D01*
X55380952Y-87954819D02*
X55476190Y-87907200D01*
X55476190Y-87907200D02*
X55523809Y-87859580D01*
X55523809Y-87859580D02*
X55619047Y-87716723D01*
X55619047Y-87716723D02*
X55666666Y-87526247D01*
X55666666Y-87526247D02*
X55666666Y-87145295D01*
X55666666Y-87145295D02*
X55619047Y-87050057D01*
X55619047Y-87050057D02*
X55571428Y-87002438D01*
X55571428Y-87002438D02*
X55476190Y-86954819D01*
X55476190Y-86954819D02*
X55285714Y-86954819D01*
X55285714Y-86954819D02*
X55190476Y-87002438D01*
X55190476Y-87002438D02*
X55142857Y-87050057D01*
X55142857Y-87050057D02*
X55095238Y-87145295D01*
X55095238Y-87145295D02*
X55095238Y-87383390D01*
X55095238Y-87383390D02*
X55142857Y-87478628D01*
X55142857Y-87478628D02*
X55190476Y-87526247D01*
X55190476Y-87526247D02*
X55285714Y-87573866D01*
X55285714Y-87573866D02*
X55476190Y-87573866D01*
X55476190Y-87573866D02*
X55571428Y-87526247D01*
X55571428Y-87526247D02*
X55619047Y-87478628D01*
X55619047Y-87478628D02*
X55666666Y-87383390D01*
X62041666Y-31111009D02*
X61708333Y-31111009D01*
X61708333Y-31634819D02*
X61708333Y-30634819D01*
X61708333Y-30634819D02*
X62184523Y-30634819D01*
X62517857Y-30730057D02*
X62565476Y-30682438D01*
X62565476Y-30682438D02*
X62660714Y-30634819D01*
X62660714Y-30634819D02*
X62898809Y-30634819D01*
X62898809Y-30634819D02*
X62994047Y-30682438D01*
X62994047Y-30682438D02*
X63041666Y-30730057D01*
X63041666Y-30730057D02*
X63089285Y-30825295D01*
X63089285Y-30825295D02*
X63089285Y-30920533D01*
X63089285Y-30920533D02*
X63041666Y-31063390D01*
X63041666Y-31063390D02*
X62470238Y-31634819D01*
X62470238Y-31634819D02*
X63089285Y-31634819D01*
X69958333Y-54179580D02*
X69910714Y-54227200D01*
X69910714Y-54227200D02*
X69767857Y-54274819D01*
X69767857Y-54274819D02*
X69672619Y-54274819D01*
X69672619Y-54274819D02*
X69529762Y-54227200D01*
X69529762Y-54227200D02*
X69434524Y-54131961D01*
X69434524Y-54131961D02*
X69386905Y-54036723D01*
X69386905Y-54036723D02*
X69339286Y-53846247D01*
X69339286Y-53846247D02*
X69339286Y-53703390D01*
X69339286Y-53703390D02*
X69386905Y-53512914D01*
X69386905Y-53512914D02*
X69434524Y-53417676D01*
X69434524Y-53417676D02*
X69529762Y-53322438D01*
X69529762Y-53322438D02*
X69672619Y-53274819D01*
X69672619Y-53274819D02*
X69767857Y-53274819D01*
X69767857Y-53274819D02*
X69910714Y-53322438D01*
X69910714Y-53322438D02*
X69958333Y-53370057D01*
X70291667Y-53274819D02*
X70958333Y-53274819D01*
X70958333Y-53274819D02*
X70529762Y-54274819D01*
D11*
%TO.C,D1*%
X19965000Y-30850000D02*
X19965000Y-35150000D01*
X19965000Y-30850000D02*
X25775000Y-30850000D01*
X19965000Y-35150000D02*
X25775000Y-35150000D01*
%TO.C,F1*%
X15272936Y-32090000D02*
X16477064Y-32090000D01*
X15272936Y-33910000D02*
X16477064Y-33910000D01*
%TO.C,C15*%
X76359420Y-20490000D02*
X76640580Y-20490000D01*
X76359420Y-21510000D02*
X76640580Y-21510000D01*
%TO.C,J6*%
X105710000Y-27515000D02*
X105710000Y-29315000D01*
X104260000Y-27515000D02*
X105710000Y-27515000D01*
X101440000Y-28785000D02*
X101440000Y-37215000D01*
X105710000Y-29315000D02*
X106700000Y-29315000D01*
X105710000Y-38485000D02*
X105710000Y-36685000D01*
X104260000Y-38485000D02*
X105710000Y-38485000D01*
%TO.C,U6*%
X62375000Y-45265000D02*
X60175000Y-45265000D01*
X62375000Y-45265000D02*
X64575000Y-45265000D01*
X62375000Y-50735000D02*
X60175000Y-50735000D01*
X62375000Y-50735000D02*
X64575000Y-50735000D01*
X58515000Y-45725000D02*
X58185000Y-45965000D01*
X58185000Y-45485000D01*
X58515000Y-45725000D01*
G36*
X58515000Y-45725000D02*
G01*
X58185000Y-45965000D01*
X58185000Y-45485000D01*
X58515000Y-45725000D01*
G37*
%TO.C,J10*%
X75170000Y-26670000D02*
X76500000Y-26670000D01*
X75170000Y-28000000D02*
X75170000Y-26670000D01*
X75170000Y-29270000D02*
X75170000Y-42030000D01*
X75170000Y-29270000D02*
X77830000Y-29270000D01*
X75170000Y-42030000D02*
X77830000Y-42030000D01*
X77830000Y-29270000D02*
X77830000Y-42030000D01*
%TO.C,C18*%
X15767164Y-47640000D02*
X15982836Y-47640000D01*
X15767164Y-48360000D02*
X15982836Y-48360000D01*
%TO.C,RSH3*%
X22897936Y-54590000D02*
X24352064Y-54590000D01*
X22897936Y-56410000D02*
X24352064Y-56410000D01*
%TO.C,C4*%
X69863748Y-39765000D02*
X70386252Y-39765000D01*
X69863748Y-41235000D02*
X70386252Y-41235000D01*
%TO.C,U5*%
X39125000Y-46440000D02*
X38325000Y-46440000D01*
X39125000Y-46440000D02*
X39925000Y-46440000D01*
X39125000Y-49560000D02*
X38325000Y-49560000D01*
X39125000Y-49560000D02*
X39925000Y-49560000D01*
X37825000Y-46490000D02*
X37585000Y-46160000D01*
X38065000Y-46160000D01*
X37825000Y-46490000D01*
G36*
X37825000Y-46490000D02*
G01*
X37585000Y-46160000D01*
X38065000Y-46160000D01*
X37825000Y-46490000D01*
G37*
%TO.C,R7*%
X90679692Y-20620000D02*
X90986974Y-20620000D01*
X90679692Y-21380000D02*
X90986974Y-21380000D01*
%TO.C,J4*%
X4290000Y-71610000D02*
X4290000Y-69810000D01*
X5740000Y-71610000D02*
X4290000Y-71610000D01*
X8560000Y-70340000D02*
X8560000Y-65660000D01*
X4290000Y-69810000D02*
X3300000Y-69810000D01*
X4290000Y-64390000D02*
X4290000Y-66190000D01*
X5740000Y-64390000D02*
X4290000Y-64390000D01*
%TO.C,C8*%
X15613748Y-62265000D02*
X16136252Y-62265000D01*
X15613748Y-63735000D02*
X16136252Y-63735000D01*
%TO.C,U3*%
X52515000Y-53865000D02*
X52515000Y-53630000D01*
X52515000Y-57610000D02*
X52515000Y-57135000D01*
X52990000Y-53390000D02*
X52815000Y-53390000D01*
X52990000Y-57610000D02*
X52515000Y-57610000D01*
X56260000Y-53390000D02*
X56735000Y-53390000D01*
X56260000Y-57610000D02*
X56735000Y-57610000D01*
X56735000Y-53390000D02*
X56735000Y-53865000D01*
X56735000Y-57610000D02*
X56735000Y-57135000D01*
X52515000Y-53390000D02*
X52275000Y-53060000D01*
X52755000Y-53060000D01*
X52515000Y-53390000D01*
G36*
X52515000Y-53390000D02*
G01*
X52275000Y-53060000D01*
X52755000Y-53060000D01*
X52515000Y-53390000D01*
G37*
%TO.C,C11*%
X19058830Y-20640000D02*
X19274502Y-20640000D01*
X19058830Y-21360000D02*
X19274502Y-21360000D01*
%TO.C,C5*%
X46734420Y-47490000D02*
X47015580Y-47490000D01*
X46734420Y-48510000D02*
X47015580Y-48510000D01*
%TO.C,L2*%
X59965000Y-53090000D02*
X59965000Y-53540000D01*
X59965000Y-53090000D02*
X64785000Y-53090000D01*
X59965000Y-57910000D02*
X59965000Y-57460000D01*
X59965000Y-57910000D02*
X64785000Y-57910000D01*
X64785000Y-53090000D02*
X64785000Y-53540000D01*
X64785000Y-57910000D02*
X64785000Y-57460000D01*
%TO.C,C1*%
X46163748Y-31640000D02*
X47586252Y-31640000D01*
X46163748Y-34360000D02*
X47586252Y-34360000D01*
%TO.C,TP1*%
X93450000Y-57800000D02*
G75*
G03*
X91550000Y-57800000I-950000J0D01*
G01*
X91550000Y-57800000D02*
G75*
G03*
X93450000Y-57800000I950000J0D01*
G01*
%TO.C,TP2*%
X82450000Y-64000000D02*
G75*
G03*
X80550000Y-64000000I-950000J0D01*
G01*
X80550000Y-64000000D02*
G75*
G03*
X82450000Y-64000000I950000J0D01*
G01*
%TO.C,R3*%
X38971359Y-62620000D02*
X39278641Y-62620000D01*
X38971359Y-63380000D02*
X39278641Y-63380000D01*
%TO.C,R14*%
X81346359Y-45020000D02*
X81653641Y-45020000D01*
X81346359Y-45780000D02*
X81653641Y-45780000D01*
%TO.C,C17*%
X39017164Y-40140000D02*
X39232836Y-40140000D01*
X39017164Y-40860000D02*
X39232836Y-40860000D01*
%TO.C,C3*%
X62113748Y-39765000D02*
X62636252Y-39765000D01*
X62113748Y-41235000D02*
X62636252Y-41235000D01*
%TO.C,R2*%
X31221359Y-47620000D02*
X31528641Y-47620000D01*
X31221359Y-48380000D02*
X31528641Y-48380000D01*
%TO.C,R1*%
X23471359Y-47620000D02*
X23778641Y-47620000D01*
X23471359Y-48380000D02*
X23778641Y-48380000D01*
%TO.C,C6*%
X54484420Y-47490000D02*
X54765580Y-47490000D01*
X54484420Y-48510000D02*
X54765580Y-48510000D01*
%TO.C,L1*%
X52215000Y-38090000D02*
X52215000Y-38540000D01*
X52215000Y-38090000D02*
X57035000Y-38090000D01*
X52215000Y-42910000D02*
X52215000Y-42460000D01*
X52215000Y-42910000D02*
X57035000Y-42910000D01*
X57035000Y-38090000D02*
X57035000Y-38540000D01*
X57035000Y-42910000D02*
X57035000Y-42460000D01*
%TO.C,R10*%
X81346359Y-32620000D02*
X81653641Y-32620000D01*
X81346359Y-33380000D02*
X81653641Y-33380000D01*
%TO.C,R11*%
X92346359Y-32620000D02*
X92653641Y-32620000D01*
X92346359Y-33380000D02*
X92653641Y-33380000D01*
%TO.C,Q2*%
X23625000Y-38940000D02*
X22975000Y-38940000D01*
X23625000Y-38940000D02*
X24275000Y-38940000D01*
X23625000Y-42060000D02*
X22975000Y-42060000D01*
X23625000Y-42060000D02*
X24275000Y-42060000D01*
X22462500Y-38990000D02*
X22222500Y-38660000D01*
X22702500Y-38660000D01*
X22462500Y-38990000D01*
G36*
X22462500Y-38990000D02*
G01*
X22222500Y-38660000D01*
X22702500Y-38660000D01*
X22462500Y-38990000D01*
G37*
%TO.C,R8*%
X19013025Y-27620000D02*
X19320307Y-27620000D01*
X19013025Y-28380000D02*
X19320307Y-28380000D01*
%TO.C,TP4*%
X82450000Y-70200000D02*
G75*
G03*
X80550000Y-70200000I-950000J0D01*
G01*
X80550000Y-70200000D02*
G75*
G03*
X82450000Y-70200000I950000J0D01*
G01*
%TO.C,R13*%
X92346359Y-38820000D02*
X92653641Y-38820000D01*
X92346359Y-39580000D02*
X92653641Y-39580000D01*
%TO.C,R9*%
X33346359Y-27620000D02*
X33653641Y-27620000D01*
X33346359Y-28380000D02*
X33653641Y-28380000D01*
%TO.C,SW2*%
X60516666Y-26600000D02*
X63816666Y-26600000D01*
X60516666Y-26900000D02*
X60516666Y-26600000D01*
X60516666Y-29100000D02*
X60516666Y-29400000D01*
X60516666Y-29400000D02*
X63816666Y-29400000D01*
X63816666Y-26600000D02*
X63816666Y-26900000D01*
X63816666Y-29400000D02*
X63816666Y-29100000D01*
%TO.C,C14*%
X62026086Y-20490000D02*
X62307246Y-20490000D01*
X62026086Y-21510000D02*
X62307246Y-21510000D01*
%TO.C,R6*%
X81262742Y-57277500D02*
X81737258Y-57277500D01*
X81262742Y-58322500D02*
X81737258Y-58322500D01*
%TO.C,RSH2*%
X15147936Y-54590000D02*
X16602064Y-54590000D01*
X15147936Y-56410000D02*
X16602064Y-56410000D01*
%TO.C,J3*%
X4290000Y-57985000D02*
X4290000Y-56185000D01*
X5740000Y-57985000D02*
X4290000Y-57985000D01*
X8560000Y-56715000D02*
X8560000Y-53285000D01*
X4290000Y-56185000D02*
X3300000Y-56185000D01*
X4290000Y-52015000D02*
X4290000Y-53815000D01*
X5740000Y-52015000D02*
X4290000Y-52015000D01*
%TO.C,C16*%
X54517164Y-32640000D02*
X54732836Y-32640000D01*
X54517164Y-33360000D02*
X54732836Y-33360000D01*
%TO.C,C12*%
X33392164Y-20640000D02*
X33607836Y-20640000D01*
X33392164Y-21360000D02*
X33607836Y-21360000D01*
%TO.C,F3*%
X30772936Y-54590000D02*
X31977064Y-54590000D01*
X30772936Y-56410000D02*
X31977064Y-56410000D01*
%TO.C,R5*%
X46721359Y-62620000D02*
X47028641Y-62620000D01*
X46721359Y-63380000D02*
X47028641Y-63380000D01*
%TO.C,C13*%
X47725497Y-20640000D02*
X47941169Y-20640000D01*
X47725497Y-21360000D02*
X47941169Y-21360000D01*
D10*
%TO.C,U4*%
X44800000Y-37925000D02*
X48950000Y-37925000D01*
X44800000Y-43075000D02*
X48950000Y-43075000D01*
D11*
X44375000Y-38000000D02*
X44135000Y-37670000D01*
X44615000Y-37670000D01*
X44375000Y-38000000D01*
G36*
X44375000Y-38000000D02*
G01*
X44135000Y-37670000D01*
X44615000Y-37670000D01*
X44375000Y-38000000D01*
G37*
%TO.C,SW1*%
X46183333Y-26600000D02*
X49483333Y-26600000D01*
X46183333Y-26900000D02*
X46183333Y-26600000D01*
X46183333Y-29100000D02*
X46183333Y-29400000D01*
X46183333Y-29400000D02*
X49483333Y-29400000D01*
X49483333Y-26600000D02*
X49483333Y-26900000D01*
X49483333Y-29400000D02*
X49483333Y-29100000D01*
%TO.C,JP1*%
X79450000Y-50600000D02*
X83550000Y-50600000D01*
X79450000Y-52600000D02*
X79450000Y-50600000D01*
X79900000Y-53100000D02*
X80500000Y-53100000D01*
X80200000Y-52800000D02*
X79900000Y-53100000D01*
X80200000Y-52800000D02*
X80500000Y-53100000D01*
X83550000Y-50600000D02*
X83550000Y-52600000D01*
X83550000Y-52600000D02*
X79450000Y-52600000D01*
%TO.C,D3*%
X35615000Y-53850000D02*
X35615000Y-57150000D01*
X35615000Y-53850000D02*
X41125000Y-53850000D01*
X35615000Y-57150000D02*
X41125000Y-57150000D01*
%TO.C,LED1*%
X91015000Y-50865000D02*
X91015000Y-52335000D01*
X91015000Y-52335000D02*
X93300000Y-52335000D01*
X93300000Y-50865000D02*
X91015000Y-50865000D01*
%TO.C,U1*%
X31375000Y-31440000D02*
X30575000Y-31440000D01*
X31375000Y-31440000D02*
X32175000Y-31440000D01*
X31375000Y-34560000D02*
X30575000Y-34560000D01*
X31375000Y-34560000D02*
X32175000Y-34560000D01*
X30075000Y-31490000D02*
X29835000Y-31160000D01*
X30315000Y-31160000D01*
X30075000Y-31490000D01*
G36*
X30075000Y-31490000D02*
G01*
X29835000Y-31160000D01*
X30315000Y-31160000D01*
X30075000Y-31490000D01*
G37*
%TO.C,J1*%
X24800000Y-9450000D02*
X45200000Y-9450000D01*
X24800000Y-14550000D02*
X45200000Y-14550000D01*
G36*
X25550000Y-9240000D02*
G01*
X24950000Y-9240000D01*
X25250000Y-8640000D01*
X25550000Y-9240000D01*
G37*
%TO.C,D2*%
X66465000Y-30850000D02*
X66465000Y-35150000D01*
X66465000Y-30850000D02*
X72275000Y-30850000D01*
X66465000Y-35150000D02*
X72275000Y-35150000D01*
%TO.C,F4*%
X54022936Y-62090000D02*
X55227064Y-62090000D01*
X54022936Y-63910000D02*
X55227064Y-63910000D01*
%TO.C,TP3*%
X93450000Y-64000000D02*
G75*
G03*
X91550000Y-64000000I-950000J0D01*
G01*
X91550000Y-64000000D02*
G75*
G03*
X93450000Y-64000000I950000J0D01*
G01*
%TO.C,C10*%
X31267164Y-62640000D02*
X31482836Y-62640000D01*
X31267164Y-63360000D02*
X31482836Y-63360000D01*
%TO.C,J5*%
X105710000Y-14515000D02*
X105710000Y-16315000D01*
X104260000Y-14515000D02*
X105710000Y-14515000D01*
X101440000Y-15785000D02*
X101440000Y-24215000D01*
X105710000Y-16315000D02*
X106700000Y-16315000D01*
X105710000Y-25485000D02*
X105710000Y-23685000D01*
X104260000Y-25485000D02*
X105710000Y-25485000D01*
%TO.C,RSH1*%
X69397936Y-47090000D02*
X70852064Y-47090000D01*
X69397936Y-48910000D02*
X70852064Y-48910000D01*
%TO.C,D4*%
X43215000Y-53350000D02*
X43215000Y-57650000D01*
X43215000Y-53350000D02*
X49025000Y-53350000D01*
X43215000Y-57650000D02*
X49025000Y-57650000D01*
%TO.C,J8*%
X105785000Y-55390000D02*
X105785000Y-56440000D01*
X103285000Y-55390000D02*
X105785000Y-55390000D01*
X105785000Y-56440000D02*
X106775000Y-56440000D01*
X101315000Y-56560000D02*
X101315000Y-61440000D01*
X105785000Y-62610000D02*
X105785000Y-61560000D01*
X103285000Y-62610000D02*
X105785000Y-62610000D01*
%TO.C,C2*%
X30663748Y-39140000D02*
X32086252Y-39140000D01*
X30663748Y-41860000D02*
X32086252Y-41860000D01*
%TO.C,Q1*%
X39125000Y-31440000D02*
X38475000Y-31440000D01*
X39125000Y-31440000D02*
X39775000Y-31440000D01*
X39125000Y-34560000D02*
X38475000Y-34560000D01*
X39125000Y-34560000D02*
X39775000Y-34560000D01*
X37962500Y-31490000D02*
X37722500Y-31160000D01*
X38202500Y-31160000D01*
X37962500Y-31490000D01*
G36*
X37962500Y-31490000D02*
G01*
X37722500Y-31160000D01*
X38202500Y-31160000D01*
X37962500Y-31490000D01*
G37*
%TO.C,J7*%
X105710000Y-41765000D02*
X105710000Y-43565000D01*
X104260000Y-41765000D02*
X105710000Y-41765000D01*
X101440000Y-43035000D02*
X101440000Y-48965000D01*
X105710000Y-43565000D02*
X106700000Y-43565000D01*
X105710000Y-50235000D02*
X105710000Y-48435000D01*
X104260000Y-50235000D02*
X105710000Y-50235000D01*
%TO.C,R15*%
X92346359Y-45020000D02*
X92653641Y-45020000D01*
X92346359Y-45780000D02*
X92653641Y-45780000D01*
%TO.C,U2*%
X15875000Y-38940000D02*
X15075000Y-38940000D01*
X15875000Y-38940000D02*
X16675000Y-38940000D01*
X15875000Y-42060000D02*
X15075000Y-42060000D01*
X15875000Y-42060000D02*
X16675000Y-42060000D01*
X14575000Y-38990000D02*
X14335000Y-38660000D01*
X14815000Y-38660000D01*
X14575000Y-38990000D01*
G36*
X14575000Y-38990000D02*
G01*
X14335000Y-38660000D01*
X14815000Y-38660000D01*
X14575000Y-38990000D01*
G37*
%TO.C,C9*%
X23517164Y-62640000D02*
X23732836Y-62640000D01*
X23517164Y-63360000D02*
X23732836Y-63360000D01*
%TO.C,R12*%
X81346359Y-38820000D02*
X81653641Y-38820000D01*
X81346359Y-39580000D02*
X81653641Y-39580000D01*
%TO.C,J2*%
X64800000Y-9450000D02*
X85200000Y-9450000D01*
X64800000Y-14550000D02*
X85200000Y-14550000D01*
G36*
X65550000Y-9240000D02*
G01*
X64950000Y-9240000D01*
X65250000Y-8640000D01*
X65550000Y-9240000D01*
G37*
%TO.C,J9*%
X62000000Y-86450000D02*
X48000000Y-86450000D01*
X62000000Y-81550000D02*
X48000000Y-81550000D01*
G36*
X61550000Y-87420000D02*
G01*
X61250000Y-86820000D01*
X61850000Y-86820000D01*
X61550000Y-87420000D01*
G37*
%TO.C,F2*%
X61772936Y-32090000D02*
X62977064Y-32090000D01*
X61772936Y-33910000D02*
X62977064Y-33910000D01*
%TO.C,C7*%
X69863748Y-54765000D02*
X70386252Y-54765000D01*
X69863748Y-56235000D02*
X70386252Y-56235000D01*
%TD*%
M02*
