%TF.GenerationSoftware,KiCad,Pcbnew,7.0.11+dfsg-1build4*%
%TF.CreationDate,2026-09-21T09:38:33+00:00*%
%TF.ProjectId,SKYWARD-COMPUTE-CARRIER,534b5957-4152-4442-9d43-4f4d50555445,rev?*%
%TF.SameCoordinates,Original*%
%TF.FileFunction,Other,User*%
%FSLAX46Y46*%
G04 Gerber Fmt 4.6, Leading zero omitted, Abs format (unit mm)*
G04 Created by KiCad (PCBNEW 7.0.11+dfsg-1build4) date 2026-09-21 09:38:33*
%MOMM*%
%LPD*%
G01*
G04 APERTURE LIST*
%ADD10C,0.050000*%
G04 APERTURE END LIST*
D10*
%TO.C,C16*%
X53715000Y-32540000D02*
X55535000Y-32540000D01*
X53715000Y-33460000D02*
X53715000Y-32540000D01*
X55535000Y-32540000D02*
X55535000Y-33460000D01*
X55535000Y-33460000D02*
X53715000Y-33460000D01*
%TO.C,C6*%
X60895000Y-47270000D02*
X63855000Y-47270000D01*
X60895000Y-48730000D02*
X60895000Y-47270000D01*
X63855000Y-47270000D02*
X63855000Y-48730000D01*
X63855000Y-48730000D02*
X60895000Y-48730000D01*
%TO.C,F3*%
X36845000Y-54380000D02*
X41405000Y-54380000D01*
X36845000Y-56620000D02*
X36845000Y-54380000D01*
X41405000Y-54380000D02*
X41405000Y-56620000D01*
X41405000Y-56620000D02*
X36845000Y-56620000D01*
%TO.C,D3*%
X43375000Y-53750000D02*
X50375000Y-53750000D01*
X43375000Y-57250000D02*
X43375000Y-53750000D01*
X50375000Y-53750000D02*
X50375000Y-57250000D01*
X50375000Y-57250000D02*
X43375000Y-57250000D01*
%TO.C,RSH3*%
X29095000Y-54380000D02*
X33655000Y-54380000D01*
X29095000Y-56620000D02*
X29095000Y-54380000D01*
X33655000Y-54380000D02*
X33655000Y-56620000D01*
X33655000Y-56620000D02*
X29095000Y-56620000D01*
%TO.C,R1*%
X30445000Y-47530000D02*
X32305000Y-47530000D01*
X30445000Y-48470000D02*
X30445000Y-47530000D01*
X32305000Y-47530000D02*
X32305000Y-48470000D01*
X32305000Y-48470000D02*
X30445000Y-48470000D01*
%TO.C,C5*%
X53145000Y-47270000D02*
X56105000Y-47270000D01*
X53145000Y-48730000D02*
X53145000Y-47270000D01*
X56105000Y-47270000D02*
X56105000Y-48730000D01*
X56105000Y-48730000D02*
X53145000Y-48730000D01*
%TO.C,C3*%
X68425000Y-39520000D02*
X71825000Y-39520000D01*
X68425000Y-41480000D02*
X68425000Y-39520000D01*
X71825000Y-39520000D02*
X71825000Y-41480000D01*
X71825000Y-41480000D02*
X68425000Y-41480000D01*
%TO.C,J8*%
X107280000Y-54600000D02*
X100720000Y-54600000D01*
X100720000Y-54600000D02*
X100720000Y-63400000D01*
X107280000Y-63400000D02*
X107280000Y-54600000D01*
X100720000Y-63400000D02*
X107280000Y-63400000D01*
%TO.C,C9*%
X45395000Y-62270000D02*
X48355000Y-62270000D01*
X45395000Y-63730000D02*
X45395000Y-62270000D01*
X48355000Y-62270000D02*
X48355000Y-63730000D01*
X48355000Y-63730000D02*
X45395000Y-63730000D01*
%TO.C,C18*%
X22715000Y-47540000D02*
X24535000Y-47540000D01*
X22715000Y-48460000D02*
X22715000Y-47540000D01*
X24535000Y-47540000D02*
X24535000Y-48460000D01*
X24535000Y-48460000D02*
X22715000Y-48460000D01*
%TO.C,R5*%
X69195000Y-70030000D02*
X71055000Y-70030000D01*
X69195000Y-70970000D02*
X69195000Y-70030000D01*
X71055000Y-70030000D02*
X71055000Y-70970000D01*
X71055000Y-70970000D02*
X69195000Y-70970000D01*
%TO.C,R16*%
X22695000Y-70030000D02*
X24555000Y-70030000D01*
X22695000Y-70970000D02*
X22695000Y-70030000D01*
X24555000Y-70030000D02*
X24555000Y-70970000D01*
X24555000Y-70970000D02*
X22695000Y-70970000D01*
%TO.C,LED1*%
X91020000Y-50870000D02*
X93980000Y-50870000D01*
X91020000Y-52330000D02*
X91020000Y-50870000D01*
X93980000Y-50870000D02*
X93980000Y-52330000D01*
X93980000Y-52330000D02*
X91020000Y-52330000D01*
%TO.C,J2*%
X64700000Y-9350000D02*
X85300000Y-9350000D01*
X64700000Y-14650000D02*
X64700000Y-9350000D01*
X85300000Y-9350000D02*
X85300000Y-14650000D01*
X85300000Y-14650000D02*
X64700000Y-14650000D01*
%TO.C,C17*%
X38215000Y-40040000D02*
X40035000Y-40040000D01*
X38215000Y-40960000D02*
X38215000Y-40040000D01*
X40035000Y-40040000D02*
X40035000Y-40960000D01*
X40035000Y-40960000D02*
X38215000Y-40960000D01*
%TO.C,U6*%
X66275000Y-45250000D02*
X66275000Y-50750000D01*
X66275000Y-50750000D02*
X73975000Y-50750000D01*
X73975000Y-45250000D02*
X66275000Y-45250000D01*
X73975000Y-50750000D02*
X73975000Y-45250000D01*
%TO.C,F1*%
X13595000Y-31880000D02*
X18155000Y-31880000D01*
X13595000Y-34120000D02*
X13595000Y-31880000D01*
X18155000Y-31880000D02*
X18155000Y-34120000D01*
X18155000Y-34120000D02*
X13595000Y-34120000D01*
%TO.C,R14*%
X80570000Y-44930000D02*
X82430000Y-44930000D01*
X80570000Y-45870000D02*
X80570000Y-44930000D01*
X82430000Y-44930000D02*
X82430000Y-45870000D01*
X82430000Y-45870000D02*
X80570000Y-45870000D01*
%TO.C,J9*%
X62100000Y-86550000D02*
X47900000Y-86550000D01*
X62100000Y-81450000D02*
X62100000Y-86550000D01*
X47900000Y-86550000D02*
X47900000Y-81450000D01*
X47900000Y-81450000D02*
X62100000Y-81450000D01*
%TO.C,R19*%
X45945000Y-70030000D02*
X47805000Y-70030000D01*
X45945000Y-70970000D02*
X45945000Y-70030000D01*
X47805000Y-70030000D02*
X47805000Y-70970000D01*
X47805000Y-70970000D02*
X45945000Y-70970000D01*
%TO.C,U2*%
X12395000Y-38750000D02*
X19355000Y-38750000D01*
X12395000Y-42250000D02*
X12395000Y-38750000D01*
X19355000Y-38750000D02*
X19355000Y-42250000D01*
X19355000Y-42250000D02*
X12395000Y-42250000D01*
%TO.C,C10*%
X52925000Y-62020000D02*
X56325000Y-62020000D01*
X52925000Y-63980000D02*
X52925000Y-62020000D01*
X56325000Y-62020000D02*
X56325000Y-63980000D01*
X56325000Y-63980000D02*
X52925000Y-63980000D01*
%TO.C,C2*%
X29075000Y-38900000D02*
X33675000Y-38900000D01*
X29075000Y-42100000D02*
X29075000Y-38900000D01*
X33675000Y-38900000D02*
X33675000Y-42100000D01*
X33675000Y-42100000D02*
X29075000Y-42100000D01*
%TO.C,MH4*%
X107950000Y-85000000D02*
G75*
G03*
X102050000Y-85000000I-2950000J0D01*
G01*
X102050000Y-85000000D02*
G75*
G03*
X107950000Y-85000000I2950000J0D01*
G01*
%TO.C,C22*%
X69215000Y-62540000D02*
X71035000Y-62540000D01*
X69215000Y-63460000D02*
X69215000Y-62540000D01*
X71035000Y-62540000D02*
X71035000Y-63460000D01*
X71035000Y-63460000D02*
X69215000Y-63460000D01*
%TO.C,TP4*%
X82750000Y-70200000D02*
G75*
G03*
X80250000Y-70200000I-1250000J0D01*
G01*
X80250000Y-70200000D02*
G75*
G03*
X82750000Y-70200000I1250000J0D01*
G01*
%TO.C,SW2*%
X59766666Y-26350000D02*
X59766666Y-29650000D01*
X59766666Y-29650000D02*
X64566666Y-29650000D01*
X64566666Y-26350000D02*
X59766666Y-26350000D01*
X64566666Y-29650000D02*
X64566666Y-26350000D01*
%TO.C,R13*%
X91570000Y-38730000D02*
X93430000Y-38730000D01*
X91570000Y-39670000D02*
X91570000Y-38730000D01*
X93430000Y-38730000D02*
X93430000Y-39670000D01*
X93430000Y-39670000D02*
X91570000Y-39670000D01*
%TO.C,R3*%
X14945000Y-70030000D02*
X16805000Y-70030000D01*
X14945000Y-70970000D02*
X14945000Y-70030000D01*
X16805000Y-70030000D02*
X16805000Y-70970000D01*
X16805000Y-70970000D02*
X14945000Y-70970000D01*
%TO.C,R9*%
X32570000Y-27530000D02*
X34430000Y-27530000D01*
X32570000Y-28470000D02*
X32570000Y-27530000D01*
X34430000Y-27530000D02*
X34430000Y-28470000D01*
X34430000Y-28470000D02*
X32570000Y-28470000D01*
%TO.C,J4*%
X2800000Y-72100000D02*
X9200000Y-72100000D01*
X9200000Y-72100000D02*
X9200000Y-63900000D01*
X2800000Y-63900000D02*
X2800000Y-72100000D01*
X9200000Y-63900000D02*
X2800000Y-63900000D01*
%TO.C,F2*%
X60095000Y-31880000D02*
X64655000Y-31880000D01*
X60095000Y-34120000D02*
X60095000Y-31880000D01*
X64655000Y-31880000D02*
X64655000Y-34120000D01*
X64655000Y-34120000D02*
X60095000Y-34120000D01*
%TO.C,C7*%
X29675000Y-62020000D02*
X33075000Y-62020000D01*
X29675000Y-63980000D02*
X29675000Y-62020000D01*
X33075000Y-62020000D02*
X33075000Y-63980000D01*
X33075000Y-63980000D02*
X29675000Y-63980000D01*
%TO.C,R10*%
X80570000Y-32530000D02*
X82430000Y-32530000D01*
X80570000Y-33470000D02*
X80570000Y-32530000D01*
X82430000Y-32530000D02*
X82430000Y-33470000D01*
X82430000Y-33470000D02*
X80570000Y-33470000D01*
%TO.C,D1*%
X19975000Y-30750000D02*
X27275000Y-30750000D01*
X19975000Y-35250000D02*
X19975000Y-30750000D01*
X27275000Y-30750000D02*
X27275000Y-35250000D01*
X27275000Y-35250000D02*
X19975000Y-35250000D01*
%TO.C,D4*%
X50975000Y-53250000D02*
X58275000Y-53250000D01*
X50975000Y-57750000D02*
X50975000Y-53250000D01*
X58275000Y-53250000D02*
X58275000Y-57750000D01*
X58275000Y-57750000D02*
X50975000Y-57750000D01*
%TO.C,SW1*%
X45433333Y-26350000D02*
X45433333Y-29650000D01*
X45433333Y-29650000D02*
X50233333Y-29650000D01*
X50233333Y-26350000D02*
X45433333Y-26350000D01*
X50233333Y-29650000D02*
X50233333Y-26350000D01*
%TO.C,R20*%
X53695000Y-70030000D02*
X55555000Y-70030000D01*
X53695000Y-70970000D02*
X53695000Y-70030000D01*
X55555000Y-70030000D02*
X55555000Y-70970000D01*
X55555000Y-70970000D02*
X53695000Y-70970000D01*
%TO.C,D2*%
X66475000Y-30750000D02*
X73775000Y-30750000D01*
X66475000Y-35250000D02*
X66475000Y-30750000D01*
X73775000Y-30750000D02*
X73775000Y-35250000D01*
X73775000Y-35250000D02*
X66475000Y-35250000D01*
%TO.C,C11*%
X18256666Y-20540000D02*
X20076666Y-20540000D01*
X18256666Y-21460000D02*
X18256666Y-20540000D01*
X20076666Y-20540000D02*
X20076666Y-21460000D01*
X20076666Y-21460000D02*
X18256666Y-21460000D01*
%TO.C,Q5*%
X68205000Y-53800000D02*
X68205000Y-57200000D01*
X68205000Y-57200000D02*
X72045000Y-57200000D01*
X72045000Y-53800000D02*
X68205000Y-53800000D01*
X72045000Y-57200000D02*
X72045000Y-53800000D01*
%TO.C,C15*%
X75020000Y-20270000D02*
X77980000Y-20270000D01*
X75020000Y-21730000D02*
X75020000Y-20270000D01*
X77980000Y-20270000D02*
X77980000Y-21730000D01*
X77980000Y-21730000D02*
X75020000Y-21730000D01*
%TO.C,U4*%
X43125000Y-37750000D02*
X43125000Y-43250000D01*
X43125000Y-37750000D02*
X50625000Y-37750000D01*
X43125000Y-43250000D02*
X50625000Y-43250000D01*
X50625000Y-37750000D02*
X50625000Y-43250000D01*
%TO.C,D5*%
X58875000Y-38750000D02*
X65875000Y-38750000D01*
X58875000Y-42250000D02*
X58875000Y-38750000D01*
X65875000Y-38750000D02*
X65875000Y-42250000D01*
X65875000Y-42250000D02*
X58875000Y-42250000D01*
%TO.C,J10*%
X74700000Y-26200000D02*
X74700000Y-42500000D01*
X74700000Y-42500000D02*
X78300000Y-42500000D01*
X78300000Y-26200000D02*
X74700000Y-26200000D01*
X78300000Y-42500000D02*
X78300000Y-26200000D01*
%TO.C,R8*%
X18236666Y-27530000D02*
X20096666Y-27530000D01*
X18236666Y-28470000D02*
X18236666Y-27530000D01*
X20096666Y-27530000D02*
X20096666Y-28470000D01*
X20096666Y-28470000D02*
X18236666Y-28470000D01*
%TO.C,J1*%
X24700000Y-9350000D02*
X45300000Y-9350000D01*
X24700000Y-14650000D02*
X24700000Y-9350000D01*
X45300000Y-9350000D02*
X45300000Y-14650000D01*
X45300000Y-14650000D02*
X24700000Y-14650000D01*
%TO.C,Q2*%
X21705000Y-38800000D02*
X21705000Y-42200000D01*
X21705000Y-42200000D02*
X25545000Y-42200000D01*
X25545000Y-38800000D02*
X21705000Y-38800000D01*
X25545000Y-42200000D02*
X25545000Y-38800000D01*
%TO.C,Q6*%
X13955000Y-61300000D02*
X13955000Y-64700000D01*
X13955000Y-64700000D02*
X17795000Y-64700000D01*
X17795000Y-61300000D02*
X13955000Y-61300000D01*
X17795000Y-64700000D02*
X17795000Y-61300000D01*
%TO.C,JP1*%
X79200000Y-50350000D02*
X79200000Y-52850000D01*
X79200000Y-50350000D02*
X83800000Y-50350000D01*
X83800000Y-52850000D02*
X79200000Y-52850000D01*
X83800000Y-52850000D02*
X83800000Y-50350000D01*
%TO.C,J5*%
X107200000Y-14020000D02*
X100800000Y-14020000D01*
X100800000Y-14020000D02*
X100800000Y-25980000D01*
X107200000Y-25980000D02*
X107200000Y-14020000D01*
X100800000Y-25980000D02*
X107200000Y-25980000D01*
%TO.C,J6*%
X107200000Y-27020000D02*
X100800000Y-27020000D01*
X100800000Y-27020000D02*
X100800000Y-38980000D01*
X107200000Y-38980000D02*
X107200000Y-27020000D01*
X100800000Y-38980000D02*
X107200000Y-38980000D01*
%TO.C,C1*%
X44575000Y-31400000D02*
X49175000Y-31400000D01*
X44575000Y-34600000D02*
X44575000Y-31400000D01*
X49175000Y-31400000D02*
X49175000Y-34600000D01*
X49175000Y-34600000D02*
X44575000Y-34600000D01*
%TO.C,L2*%
X21225000Y-60600000D02*
X21225000Y-65400000D01*
X21225000Y-65400000D02*
X26025000Y-65400000D01*
X26025000Y-60600000D02*
X21225000Y-60600000D01*
X26025000Y-65400000D02*
X26025000Y-60600000D01*
%TO.C,L1*%
X52225000Y-38100000D02*
X52225000Y-42900000D01*
X52225000Y-42900000D02*
X57025000Y-42900000D01*
X57025000Y-38100000D02*
X52225000Y-38100000D01*
X57025000Y-42900000D02*
X57025000Y-38100000D01*
%TO.C,TP1*%
X93750000Y-57800000D02*
G75*
G03*
X91250000Y-57800000I-1250000J0D01*
G01*
X91250000Y-57800000D02*
G75*
G03*
X93750000Y-57800000I1250000J0D01*
G01*
%TO.C,R11*%
X91570000Y-32530000D02*
X93430000Y-32530000D01*
X91570000Y-33470000D02*
X91570000Y-32530000D01*
X93430000Y-32530000D02*
X93430000Y-33470000D01*
X93430000Y-33470000D02*
X91570000Y-33470000D01*
%TO.C,J3*%
X2800000Y-58480000D02*
X9200000Y-58480000D01*
X9200000Y-58480000D02*
X9200000Y-51520000D01*
X2800000Y-51520000D02*
X2800000Y-58480000D01*
X9200000Y-51520000D02*
X2800000Y-51520000D01*
%TO.C,J7*%
X107200000Y-41280000D02*
X100800000Y-41280000D01*
X100800000Y-41280000D02*
X100800000Y-50720000D01*
X107200000Y-50720000D02*
X107200000Y-41280000D01*
X100800000Y-50720000D02*
X107200000Y-50720000D01*
%TO.C,C13*%
X46923333Y-20540000D02*
X48743333Y-20540000D01*
X46923333Y-21460000D02*
X46923333Y-20540000D01*
X48743333Y-20540000D02*
X48743333Y-21460000D01*
X48743333Y-21460000D02*
X46923333Y-21460000D01*
%TO.C,R7*%
X89903333Y-20530000D02*
X91763333Y-20530000D01*
X89903333Y-21470000D02*
X89903333Y-20530000D01*
X91763333Y-20530000D02*
X91763333Y-21470000D01*
X91763333Y-21470000D02*
X89903333Y-21470000D01*
%TO.C,R18*%
X38195000Y-70030000D02*
X40055000Y-70030000D01*
X38195000Y-70970000D02*
X38195000Y-70030000D01*
X40055000Y-70030000D02*
X40055000Y-70970000D01*
X40055000Y-70970000D02*
X38195000Y-70970000D01*
%TO.C,R2*%
X38195000Y-47530000D02*
X40055000Y-47530000D01*
X38195000Y-48470000D02*
X38195000Y-47530000D01*
X40055000Y-47530000D02*
X40055000Y-48470000D01*
X40055000Y-48470000D02*
X38195000Y-48470000D01*
%TO.C,C12*%
X32590000Y-20540000D02*
X34410000Y-20540000D01*
X32590000Y-21460000D02*
X32590000Y-20540000D01*
X34410000Y-20540000D02*
X34410000Y-21460000D01*
X34410000Y-21460000D02*
X32590000Y-21460000D01*
%TO.C,MH1*%
X7950000Y-5000000D02*
G75*
G03*
X2050000Y-5000000I-2950000J0D01*
G01*
X2050000Y-5000000D02*
G75*
G03*
X7950000Y-5000000I2950000J0D01*
G01*
%TO.C,C8*%
X37425000Y-62020000D02*
X40825000Y-62020000D01*
X37425000Y-63980000D02*
X37425000Y-62020000D01*
X40825000Y-62020000D02*
X40825000Y-63980000D01*
X40825000Y-63980000D02*
X37425000Y-63980000D01*
%TO.C,R12*%
X80570000Y-38730000D02*
X82430000Y-38730000D01*
X80570000Y-39670000D02*
X80570000Y-38730000D01*
X82430000Y-38730000D02*
X82430000Y-39670000D01*
X82430000Y-39670000D02*
X80570000Y-39670000D01*
%TO.C,RSH2*%
X21345000Y-54380000D02*
X25905000Y-54380000D01*
X21345000Y-56620000D02*
X21345000Y-54380000D01*
X25905000Y-54380000D02*
X25905000Y-56620000D01*
X25905000Y-56620000D02*
X21345000Y-56620000D01*
%TO.C,Q1*%
X37205000Y-31300000D02*
X37205000Y-34700000D01*
X37205000Y-34700000D02*
X41045000Y-34700000D01*
X41045000Y-31300000D02*
X37205000Y-31300000D01*
X41045000Y-34700000D02*
X41045000Y-31300000D01*
%TO.C,C14*%
X60686666Y-20270000D02*
X63646666Y-20270000D01*
X60686666Y-21730000D02*
X60686666Y-20270000D01*
X63646666Y-20270000D02*
X63646666Y-21730000D01*
X63646666Y-21730000D02*
X60686666Y-21730000D01*
%TO.C,R6*%
X80020000Y-57070000D02*
X82980000Y-57070000D01*
X80020000Y-58530000D02*
X80020000Y-57070000D01*
X82980000Y-57070000D02*
X82980000Y-58530000D01*
X82980000Y-58530000D02*
X80020000Y-58530000D01*
%TO.C,MH2*%
X107950000Y-5000000D02*
G75*
G03*
X102050000Y-5000000I-2950000J0D01*
G01*
X102050000Y-5000000D02*
G75*
G03*
X107950000Y-5000000I2950000J0D01*
G01*
%TO.C,U3*%
X60175000Y-53300000D02*
X64575000Y-53300000D01*
X60175000Y-57700000D02*
X60175000Y-53300000D01*
X64575000Y-53300000D02*
X64575000Y-57700000D01*
X64575000Y-57700000D02*
X60175000Y-57700000D01*
%TO.C,MH3*%
X7950000Y-85000000D02*
G75*
G03*
X2050000Y-85000000I-2950000J0D01*
G01*
X2050000Y-85000000D02*
G75*
G03*
X7950000Y-85000000I2950000J0D01*
G01*
%TO.C,F4*%
X13595000Y-76880000D02*
X18155000Y-76880000D01*
X13595000Y-79120000D02*
X13595000Y-76880000D01*
X18155000Y-76880000D02*
X18155000Y-79120000D01*
X18155000Y-79120000D02*
X13595000Y-79120000D01*
%TO.C,R21*%
X61445000Y-70030000D02*
X63305000Y-70030000D01*
X61445000Y-70970000D02*
X61445000Y-70030000D01*
X63305000Y-70030000D02*
X63305000Y-70970000D01*
X63305000Y-70970000D02*
X61445000Y-70970000D01*
%TO.C,U5*%
X44825000Y-46300000D02*
X44825000Y-49700000D01*
X44825000Y-49700000D02*
X48925000Y-49700000D01*
X48925000Y-46300000D02*
X44825000Y-46300000D01*
X48925000Y-49700000D02*
X48925000Y-46300000D01*
%TO.C,C21*%
X60675000Y-62020000D02*
X64075000Y-62020000D01*
X60675000Y-63980000D02*
X60675000Y-62020000D01*
X64075000Y-62020000D02*
X64075000Y-63980000D01*
X64075000Y-63980000D02*
X60675000Y-63980000D01*
%TO.C,TP3*%
X93750000Y-64000000D02*
G75*
G03*
X91250000Y-64000000I-1250000J0D01*
G01*
X91250000Y-64000000D02*
G75*
G03*
X93750000Y-64000000I1250000J0D01*
G01*
%TO.C,U1*%
X27895000Y-31250000D02*
X34855000Y-31250000D01*
X27895000Y-34750000D02*
X27895000Y-31250000D01*
X34855000Y-31250000D02*
X34855000Y-34750000D01*
X34855000Y-34750000D02*
X27895000Y-34750000D01*
%TO.C,RSH1*%
X13595000Y-54380000D02*
X18155000Y-54380000D01*
X13595000Y-56620000D02*
X13595000Y-54380000D01*
X18155000Y-54380000D02*
X18155000Y-56620000D01*
X18155000Y-56620000D02*
X13595000Y-56620000D01*
%TO.C,R17*%
X30445000Y-70030000D02*
X32305000Y-70030000D01*
X30445000Y-70970000D02*
X30445000Y-70030000D01*
X32305000Y-70030000D02*
X32305000Y-70970000D01*
X32305000Y-70970000D02*
X30445000Y-70970000D01*
%TO.C,R15*%
X91570000Y-44930000D02*
X93430000Y-44930000D01*
X91570000Y-45870000D02*
X91570000Y-44930000D01*
X93430000Y-44930000D02*
X93430000Y-45870000D01*
X93430000Y-45870000D02*
X91570000Y-45870000D01*
%TO.C,C4*%
X14175000Y-47020000D02*
X17575000Y-47020000D01*
X14175000Y-48980000D02*
X14175000Y-47020000D01*
X17575000Y-47020000D02*
X17575000Y-48980000D01*
X17575000Y-48980000D02*
X14175000Y-48980000D01*
%TO.C,TP2*%
X82750000Y-64000000D02*
G75*
G03*
X80250000Y-64000000I-1250000J0D01*
G01*
X80250000Y-64000000D02*
G75*
G03*
X82750000Y-64000000I1250000J0D01*
G01*
%TD*%
M02*
