M48
; DRILL file {KiCad 7.0.11+dfsg-1build4} date Sat Sep 26 08:06:03 2026
; FORMAT={-:-/ absolute / metric / decimal}
; #@! TF.CreationDate,2026-09-26T08:06:03+00:00
; #@! TF.GenerationSoftware,Kicad,Pcbnew,7.0.11+dfsg-1build4
; #@! TF.FileFunction,Plated,2,3,Buried
FMAT,2
METRIC
; #@! TA.AperFunction,Plated,Buried,ViaDrill
T1C0.100
%
G90
G05
T1
X26.309Y-58.411
X29.559Y-61.611
X30.55Y-9.8
X30.659Y-61.661
X30.85Y-12.45
X31.95Y-15.05
X32.0Y-13.5
X36.95Y-21.4
X49.025Y-110.175
X52.609Y-58.261
X58.325Y-82.375
X58.925Y-79.525
X62.375Y-77.062
X62.91Y-70.475
X63.55Y-55.55
X63.762Y-57.412
X64.575Y-57.025
X65.025Y-51.875
X84.4Y-33.55
X91.075Y-40.45
X105.85Y-46.6
M30
