M48
; DRILL file {KiCad 7.0.11+dfsg-1build4} date Sat Sep 26 08:06:03 2026
; FORMAT={-:-/ absolute / metric / decimal}
; #@! TF.CreationDate,2026-09-26T08:06:03+00:00
; #@! TF.GenerationSoftware,Kicad,Pcbnew,7.0.11+dfsg-1build4
; #@! TF.FileFunction,Plated,1,4,PTH
FMAT,2
METRIC
; #@! TA.AperFunction,Plated,PTH,ComponentDrill
T1C0.300
; #@! TA.AperFunction,Plated,PTH,ViaDrill
T2C0.400
; #@! TA.AperFunction,Plated,PTH,ComponentDrill
T3C0.500
; #@! TA.AperFunction,Plated,PTH,ComponentDrill
T4C0.550
; #@! TA.AperFunction,Plated,PTH,ComponentDrill
T5C1.000
%
G90
G05
T1
X46.275Y-38.7
X46.275Y-39.9
X46.275Y-41.2
X46.275Y-42.3
X47.475Y-38.7
X47.475Y-39.9
X47.475Y-41.2
X47.475Y-42.3
X61.275Y-98.2
X61.275Y-99.4
X61.275Y-100.7
X61.275Y-101.8
X62.475Y-98.2
X62.475Y-99.4
X62.475Y-100.7
X62.475Y-101.8
T2
X4.8Y-65.3
X5.05Y-66.75
X5.3Y-85.2
X6.4Y-66.8
X7.9Y-85.3
X8.8Y-100.6
X10.0Y-95.0
X10.0Y-97.0
X10.0Y-99.0
X10.0Y-101.0
X11.6Y-96.2
X11.8Y-41.6
X12.4Y-65.6
X12.6Y-64.4
X13.0Y-96.0
X14.0Y-37.0
X14.0Y-39.4
X14.4Y-93.2
X14.975Y-41.5
X15.0Y-48.0
X15.36Y-70.495
X16.0Y-95.0
X16.0Y-97.0
X16.0Y-99.0
X16.0Y-101.0
X16.0Y-105.0
X16.2Y-92.4
X18.275Y-39.375
X18.6Y-21.0
X19.0Y-42.4
X19.4Y-34.8
X19.425Y-39.675
X19.6Y-116.4
X20.175Y-40.7
X21.55Y-70.3
X21.55Y-87.6
X21.598Y-62.207
X21.787Y-41.45
X22.675Y-39.55
X22.775Y-41.5
X22.797Y-61.657
X23.7Y-68.15
X23.8Y-103.75
X24.025Y-40.225
X24.235Y-71.42
X24.25Y-37.288
X24.3Y-41.538
X24.4Y-22.3
X25.0Y-103.8
X25.0Y-112.2
X25.2Y-19.8
X25.62Y-116.5
X25.987Y-55.5
X26.0Y-90.8
X26.2Y-36.4
X26.2Y-47.0
X26.2Y-65.4
X26.4Y-54.2
X27.25Y-112.25
X27.4Y-65.2
X27.6Y-48.0
X27.8Y-56.6
X28.175Y-32.725
X28.2Y-110.8
X28.25Y-15.3
X28.35Y-22.6
X28.35Y-35.55
X28.6Y-34.2
X28.8Y-64.2
X28.85Y-31.4
X29.0Y-40.5
X29.0Y-112.2
X29.2Y-12.65
X29.4Y-65.4
X29.6Y-37.6
X29.75Y-15.15
X29.8Y-11.45
X29.925Y-34.2
X30.4Y-21.9
X30.8Y-40.5
X31.0Y-31.8
X31.0Y-45.0
X31.0Y-115.2
X31.05Y-15.03
X31.25Y-62.975
X31.4Y-55.0
X31.412Y-11.362
X31.6Y-116.4
X31.65Y-12.65
X31.65Y-16.75
X31.75Y-9.65
X31.8Y-17.95
X32.1Y-81.05
X32.15Y-22.25
X32.275Y-33.325
X32.4Y-21.0
X32.54Y-25.6
X32.6Y-55.8
X32.75Y-60.4
X32.8Y-26.8
X32.8Y-86.0
X33.0Y-11.4
X33.02Y-12.65
X33.02Y-19.8
X33.27Y-18.6
X33.286Y-116.511
X33.4Y-9.65
X33.95Y-60.8
X34.0Y-28.0
X34.0Y-30.8
X34.0Y-86.0
X34.225Y-33.35
X34.25Y-8.45
X34.35Y-25.65
X34.55Y-20.1
X34.6Y-12.0
X34.675Y-41.125
X34.7Y-16.15
X35.15Y-59.6
X35.15Y-68.45
X35.285Y-63.77
X35.4Y-30.8
X35.45Y-9.25
X35.6Y-34.4
X35.85Y-17.9
X36.0Y-51.8
X36.2Y-12.1
X36.5Y-64.65
X36.625Y-31.25
X36.65Y-9.65
X36.875Y-33.725
X37.05Y-18.25
X37.2Y-40.2
X37.75Y-64.65
X38.0Y-27.5
X38.175Y-63.0
X38.2Y-12.1
X38.2Y-116.4
X38.4Y-40.4
X38.4Y-60.65
X38.45Y-54.0
X38.97Y-9.65
X39.05Y-16.1
X39.374Y-33.011
X40.65Y-83.75
X40.71Y-116.45
X40.8Y-17.85
X40.975Y-111.825
X41.2Y-11.4
X41.6Y-9.6
X41.7Y-10.5
X41.7Y-35.837
X41.95Y-83.75
X42.0Y-11.9
X42.0Y-19.05
X42.0Y-69.8
X43.05Y-35.75
X43.2Y-24.4
X43.2Y-49.65
X43.25Y-83.75
X43.3Y-47.75
X43.45Y-111.8
X43.6Y-11.6
X43.8Y-38.8
X44.4Y-50.2
X44.79Y-11.35
X44.8Y-115.0
X44.85Y-103.2
X45.0Y-118.6
X45.6Y-26.8
X45.8Y-47.0
X45.85Y-51.6
X46.4Y-118.6
X46.45Y-11.85
X46.562Y-62.812
X47.0Y-35.387
X47.05Y-51.6
X47.2Y-44.95
X47.4Y-115.85
X47.6Y-118.6
X47.85Y-120.8
X48.2Y-28.0
X48.2Y-35.6
X48.25Y-51.6
X48.313Y-21.0
X48.4Y-112.6
X48.525Y-44.815
X48.6Y-116.4
X48.9Y-47.95
X49.0Y-43.6
X49.2Y-42.4
X49.2Y-50.0
X49.44Y-51.23
X49.6Y-35.6
X49.6Y-40.0
X49.75Y-58.25
X49.8Y-112.6
X50.475Y-42.405
X50.6Y-92.0
X50.8Y-88.0
X50.8Y-90.6
X50.91Y-68.345
X50.95Y-120.15
X51.0Y-35.6
X51.0Y-89.2
X51.0Y-112.6
X51.2Y-118.0
X51.26Y-107.1
X51.4Y-30.8
X51.45Y-20.7
X51.6Y-45.4
X51.8Y-92.0
X52.2Y-35.6
X52.4Y-46.8
X52.4Y-88.0
X52.5Y-67.95
X52.5Y-93.4
X52.525Y-43.815
X52.525Y-55.5
X52.8Y-108.0
X52.8Y-109.4
X52.8Y-110.6
X53.0Y-64.8
X53.0Y-86.8
X53.0Y-89.2
X53.0Y-91.0
X53.6Y-84.6
X53.725Y-55.5
X53.725Y-62.725
X54.0Y-33.0
X54.0Y-109.35
X54.1Y-121.55
X54.2Y-89.8
X54.4Y-44.55
X54.925Y-55.5
X55.0Y-118.0
X55.125Y-33.025
X55.285Y-70.35
X55.3Y-121.55
X55.6Y-21.0
X55.6Y-45.6
X55.6Y-114.8
X55.75Y-95.15
X55.8Y-37.8
X55.8Y-41.8
X55.81Y-40.5
X55.85Y-54.5
X56.075Y-53.55
X56.2Y-35.6
X56.3Y-117.55
X56.335Y-57.62
X56.867Y-54.698
X57.0Y-114.4
X57.5Y-118.0
X58.2Y-37.8
X58.2Y-113.0
X58.2Y-115.6
X58.275Y-101.905
X58.675Y-62.9
X58.75Y-118.0
X58.8Y-34.2
X58.812Y-58.862
X58.938Y-78.5
X58.938Y-88.4
X59.155Y-76.542
X59.2Y-35.6
X59.212Y-48.062
X59.212Y-55.262
X59.4Y-111.8
X59.4Y-113.75
X59.6Y-116.4
X59.665Y-84.777
X60.0Y-54.075
X60.325Y-58.6
X60.4Y-47.4
X60.587Y-113.05
X60.6Y-35.6
X60.6Y-110.6
X60.6Y-111.8
X60.635Y-61.35
X60.875Y-77.062
X61.2Y-120.0
X61.225Y-53.025
X61.25Y-114.5
X61.29Y-78.56
X61.375Y-94.512
X61.379Y-25.237
X61.4Y-33.9
X61.424Y-42.011
X61.425Y-63.0
X61.438Y-115.75
X61.475Y-75.862
X61.5Y-84.4
X61.525Y-56.6
X61.6Y-48.0
X61.825Y-64.2
X61.925Y-61.9
X62.05Y-81.5
X62.075Y-51.45
X62.095Y-86.5
X62.25Y-40.8
X62.375Y-82.688
X62.45Y-50.25
X62.6Y-33.0
X62.942Y-21.0
X62.95Y-116.1
X63.075Y-56.625
X63.095Y-104.245
X63.125Y-60.75
X63.325Y-63.0
X63.55Y-38.05
X63.9Y-20.5
X63.925Y-75.662
X63.95Y-47.95
X64.075Y-51.45
X64.1Y-114.45
X64.212Y-80.5
X64.4Y-103.8
X64.425Y-61.95
X64.595Y-98.445
X64.6Y-77.8
X64.6Y-106.0
X64.675Y-33.0
X64.779Y-38.987
X64.812Y-82.6
X65.025Y-42.715
X65.285Y-50.32
X65.545Y-74.9
X65.575Y-55.75
X65.6Y-103.8
X65.825Y-99.315
X65.9Y-11.4
X65.9Y-48.788
X65.96Y-46.25
X66.233Y-9.633
X66.379Y-44.038
X66.8Y-95.8
X66.94Y-46.97
X67.0Y-27.8
X67.085Y-51.07
X67.225Y-49.675
X67.245Y-74.15
X67.263Y-76.9
X67.312Y-45.575
X67.425Y-41.615
X67.45Y-39.587
X67.45Y-106.25
X67.5Y-107.7
X67.525Y-88.337
X67.6Y-111.85
X67.625Y-81.763
X67.8Y-104.0
X68.0Y-110.6
X68.225Y-80.562
X68.305Y-89.542
X68.4Y-53.4
X68.4Y-69.4
X68.45Y-50.037
X68.495Y-77.3
X68.525Y-57.75
X68.8Y-96.2
X68.825Y-81.763
X68.912Y-47.075
X69.136Y-108.011
X69.2Y-54.6
X69.4Y-110.6
X69.425Y-80.562
X69.513Y-88.9
X69.515Y-90.277
X69.625Y-63.0
X70.087Y-56.45
X70.25Y-106.25
X70.6Y-104.0
X70.765Y-86.8
X70.8Y-55.2
X70.965Y-96.0
X71.0Y-81.2
X71.0Y-85.2
X71.0Y-94.8
X71.035Y-108.0
X71.4Y-56.4
X71.505Y-63.0
X71.535Y-70.5
X71.55Y-37.8
X71.95Y-44.087
X72.025Y-79.612
X72.2Y-80.8
X72.2Y-85.2
X72.513Y-45.625
X72.6Y-56.8
X72.75Y-96.5
X72.75Y-99.55
X72.765Y-90.727
X73.0Y-103.2
X73.2Y-101.0
X73.462Y-82.6
X74.324Y-46.711
X74.8Y-22.4
X75.2Y-43.4
X75.4Y-45.2
X75.725Y-56.1
X76.0Y-102.2
X77.2Y-43.4
X77.2Y-91.2
X77.438Y-45.75
X77.8Y-106.0
X78.037Y-49.975
X78.037Y-51.175
X78.112Y-78.5
X78.162Y-87.7
X78.6Y-91.2
X79.513Y-61.975
X79.513Y-78.5
X79.65Y-55.65
X80.2Y-32.4
X80.6Y-87.8
X80.987Y-45.4
X81.04Y-34.85
X81.14Y-40.0
X81.562Y-64.05
X82.0Y-47.0
X82.0Y-87.8
X82.175Y-42.3
X82.2Y-45.8
X82.31Y-33.3
X82.975Y-98.815
X83.2Y-47.6
X83.275Y-100.0
X83.4Y-46.2
X83.6Y-34.688
X83.6Y-77.2
X84.2Y-98.8
X84.212Y-78.55
X84.4Y-86.8
X85.75Y-28.55
X85.8Y-86.8
X87.283Y-29.383
X87.4Y-28.15
X87.6Y-100.0
X87.775Y-36.7
X88.7Y-30.1
X89.325Y-34.55
X89.6Y-95.2
X89.715Y-87.977
X89.883Y-26.9
X90.733Y-30.2
X90.888Y-57.025
X91.0Y-96.2
X91.09Y-33.0
X91.09Y-39.2
X91.4Y-100.0
X91.95Y-33.988
X92.087Y-57.575
X92.7Y-29.2
X92.8Y-98.0
X92.8Y-99.4
X92.95Y-63.95
X93.2Y-33.4
X93.2Y-34.6
X93.212Y-80.0
X93.355Y-88.0
X93.4Y-57.8
X93.9Y-29.65
X98.4Y-91.6
X99.2Y-57.9
X99.8Y-90.2
X100.95Y-33.5
X101.0Y-89.0
X101.46Y-52.45
X103.45Y-23.0
X104.0Y-88.8
X104.4Y-56.6
X105.8Y-34.8
X105.81Y-59.1
X105.85Y-23.1
X105.85Y-32.4
X105.85Y-47.9
X106.0Y-57.9
T5
X76.5Y-28.0
X76.5Y-30.54
X76.5Y-33.08
X76.5Y-35.62
X76.5Y-38.16
X76.5Y-40.7
T3
X8.975Y-81.5G85X9.625Y-81.5
G05
X8.975Y-88.5G85X9.625Y-88.5
G05
T4
X6.6Y-82.65G85X6.6Y-82.35
G05
X6.6Y-87.65G85X6.6Y-87.35
G05
M30
