%TF.GenerationSoftware,KiCad,Pcbnew,7.0.11+dfsg-1build4*%
%TF.CreationDate,2026-09-21T09:38:33+00:00*%
%TF.ProjectId,SKYWARD-COMPUTE-CARRIER,534b5957-4152-4442-9d43-4f4d50555445,rev?*%
%TF.SameCoordinates,Original*%
%TF.FileFunction,Paste,Top*%
%TF.FilePolarity,Positive*%
%FSLAX46Y46*%
G04 Gerber Fmt 4.6, Leading zero omitted, Abs format (unit mm)*
G04 Created by KiCad (PCBNEW 7.0.11+dfsg-1build4) date 2026-09-21 09:38:33*
%MOMM*%
%LPD*%
G01*
G04 APERTURE LIST*
G04 Aperture macros list*
%AMRoundRect*
0 Rectangle with rounded corners*
0 $1 Rounding radius*
0 $2 $3 $4 $5 $6 $7 $8 $9 X,Y pos of 4 corners*
0 Add a 4 corners polygon primitive as box body*
4,1,4,$2,$3,$4,$5,$6,$7,$8,$9,$2,$3,0*
0 Add four circle primitives for the rounded corners*
1,1,$1+$1,$2,$3*
1,1,$1+$1,$4,$5*
1,1,$1+$1,$6,$7*
1,1,$1+$1,$8,$9*
0 Add four rect primitives between the rounded corners*
20,1,$1+$1,$2,$3,$4,$5,0*
20,1,$1+$1,$4,$5,$6,$7,0*
20,1,$1+$1,$6,$7,$8,$9,0*
20,1,$1+$1,$8,$9,$2,$3,0*%
G04 Aperture macros list end*
%ADD10RoundRect,0.140000X-0.140000X-0.170000X0.140000X-0.170000X0.140000X0.170000X-0.140000X0.170000X0*%
%ADD11RoundRect,0.225000X-0.225000X-0.250000X0.225000X-0.250000X0.225000X0.250000X-0.225000X0.250000X0*%
%ADD12RoundRect,0.250000X-0.375000X-0.625000X0.375000X-0.625000X0.375000X0.625000X-0.375000X0.625000X0*%
%ADD13RoundRect,0.250000X-1.000000X-0.650000X1.000000X-0.650000X1.000000X0.650000X-1.000000X0.650000X0*%
%ADD14RoundRect,0.250000X-0.312500X-0.625000X0.312500X-0.625000X0.312500X0.625000X-0.312500X0.625000X0*%
%ADD15RoundRect,0.135000X-0.135000X-0.185000X0.135000X-0.185000X0.135000X0.185000X-0.135000X0.185000X0*%
%ADD16RoundRect,0.250000X-0.250000X-0.475000X0.250000X-0.475000X0.250000X0.475000X-0.250000X0.475000X0*%
%ADD17RoundRect,0.150000X-0.625000X0.150000X-0.625000X-0.150000X0.625000X-0.150000X0.625000X0.150000X0*%
%ADD18RoundRect,0.250000X-0.650000X0.350000X-0.650000X-0.350000X0.650000X-0.350000X0.650000X0.350000X0*%
%ADD19RoundRect,0.218750X-0.218750X-0.256250X0.218750X-0.256250X0.218750X0.256250X-0.218750X0.256250X0*%
%ADD20R,0.250000X0.900000*%
%ADD21RoundRect,0.062500X-0.062500X-0.387500X0.062500X-0.387500X0.062500X0.387500X-0.062500X0.387500X0*%
%ADD22RoundRect,0.100000X-0.637500X-0.100000X0.637500X-0.100000X0.637500X0.100000X-0.637500X0.100000X0*%
%ADD23R,0.600000X1.300000*%
%ADD24RoundRect,0.150000X0.150000X0.500000X-0.150000X0.500000X-0.150000X-0.500000X0.150000X-0.500000X0*%
%ADD25R,1.450000X0.450000*%
%ADD26RoundRect,0.250000X-0.325000X-1.100000X0.325000X-1.100000X0.325000X1.100000X-0.325000X1.100000X0*%
%ADD27R,0.900000X1.700000*%
%ADD28RoundRect,0.150000X0.700000X-0.150000X0.700000X0.150000X-0.700000X0.150000X-0.700000X-0.150000X0*%
%ADD29RoundRect,0.250000X1.100000X-0.250000X1.100000X0.250000X-1.100000X0.250000X-1.100000X-0.250000X0*%
%ADD30RoundRect,0.250000X-1.000000X-0.900000X1.000000X-0.900000X1.000000X0.900000X-1.000000X0.900000X0*%
%ADD31RoundRect,0.150000X-0.587500X-0.150000X0.587500X-0.150000X0.587500X0.150000X-0.587500X0.150000X0*%
%ADD32R,1.550000X0.600000*%
%ADD33R,2.600000X3.100000*%
%ADD34RoundRect,0.150000X-0.700000X0.150000X-0.700000X-0.150000X0.700000X-0.150000X0.700000X0.150000X0*%
%ADD35RoundRect,0.250000X-1.100000X0.250000X-1.100000X-0.250000X1.100000X-0.250000X1.100000X0.250000X0*%
%ADD36R,0.980000X3.400000*%
%ADD37RoundRect,0.200000X-0.200000X-0.275000X0.200000X-0.275000X0.200000X0.275000X-0.200000X0.275000X0*%
%ADD38R,0.200000X0.700000*%
%ADD39RoundRect,0.050000X-0.250000X-0.050000X0.250000X-0.050000X0.250000X0.050000X-0.250000X0.050000X0*%
%ADD40RoundRect,0.050000X0.050000X0.300000X-0.050000X0.300000X-0.050000X-0.300000X0.050000X-0.300000X0*%
%ADD41RoundRect,0.050000X-0.050000X-0.250000X0.050000X-0.250000X0.050000X0.250000X-0.050000X0.250000X0*%
%ADD42RoundRect,0.050000X-0.300000X-0.050000X0.300000X-0.050000X0.300000X0.050000X-0.300000X0.050000X0*%
%ADD43RoundRect,0.050000X-0.275000X-0.050000X0.275000X-0.050000X0.275000X0.050000X-0.275000X0.050000X0*%
%ADD44RoundRect,0.050000X-0.290000X-0.050000X0.290000X-0.050000X0.290000X0.050000X-0.290000X0.050000X0*%
%ADD45RoundRect,0.050000X-0.050000X-0.300000X0.050000X-0.300000X0.050000X0.300000X-0.050000X0.300000X0*%
%ADD46RoundRect,0.055000X-0.055000X-0.445000X0.055000X-0.445000X0.055000X0.445000X-0.055000X0.445000X0*%
%ADD47RoundRect,0.055000X-0.055000X-0.420000X0.055000X-0.420000X0.055000X0.420000X-0.055000X0.420000X0*%
%ADD48RoundRect,0.350000X-0.550000X-0.350000X0.550000X-0.350000X0.550000X0.350000X-0.550000X0.350000X0*%
%ADD49RoundRect,0.150000X-0.512500X-0.150000X0.512500X-0.150000X0.512500X0.150000X-0.512500X0.150000X0*%
G04 APERTURE END LIST*
D10*
%TO.C,C16*%
X54145000Y-33000000D03*
X55105000Y-33000000D03*
%TD*%
D11*
%TO.C,C6*%
X61600000Y-48000000D03*
X63150000Y-48000000D03*
%TD*%
D12*
%TO.C,F3*%
X37725000Y-55500000D03*
X40525000Y-55500000D03*
%TD*%
D13*
%TO.C,D3*%
X44875000Y-55500000D03*
X48875000Y-55500000D03*
%TD*%
D14*
%TO.C,RSH3*%
X29912500Y-55500000D03*
X32837500Y-55500000D03*
%TD*%
D15*
%TO.C,R1*%
X30865000Y-48000000D03*
X31885000Y-48000000D03*
%TD*%
D11*
%TO.C,C5*%
X53850000Y-48000000D03*
X55400000Y-48000000D03*
%TD*%
D16*
%TO.C,C3*%
X69175000Y-40500000D03*
X71075000Y-40500000D03*
%TD*%
D17*
%TO.C,J8*%
X106000000Y-57000000D03*
X106000000Y-58000000D03*
X106000000Y-59000000D03*
X106000000Y-60000000D03*
X106000000Y-61000000D03*
D18*
X102125000Y-55700000D03*
X102125000Y-62300000D03*
%TD*%
D11*
%TO.C,C9*%
X46100000Y-63000000D03*
X47650000Y-63000000D03*
%TD*%
D10*
%TO.C,C18*%
X23145000Y-48000000D03*
X24105000Y-48000000D03*
%TD*%
D15*
%TO.C,R5*%
X69615000Y-70500000D03*
X70635000Y-70500000D03*
%TD*%
%TO.C,R16*%
X23115000Y-70500000D03*
X24135000Y-70500000D03*
%TD*%
D19*
%TO.C,LED1*%
X91712500Y-51600000D03*
X93287500Y-51600000D03*
%TD*%
D20*
%TO.C,J2*%
X65200000Y-10500000D03*
D21*
X65200000Y-13500000D03*
X65600000Y-10500000D03*
X65600000Y-13500000D03*
X66000000Y-10500000D03*
X66000000Y-13500000D03*
X66400000Y-10500000D03*
X66400000Y-13500000D03*
X66800000Y-10500000D03*
X66800000Y-13500000D03*
X67200000Y-10500000D03*
X67200000Y-13500000D03*
X67600000Y-10500000D03*
X67600000Y-13500000D03*
X68000000Y-10500000D03*
X68000000Y-13500000D03*
X68400000Y-10500000D03*
X68400000Y-13500000D03*
X68800000Y-10500000D03*
X68800000Y-13500000D03*
X69200000Y-10500000D03*
X69200000Y-13500000D03*
X69600000Y-10500000D03*
X69600000Y-13500000D03*
X70000000Y-10500000D03*
X70000000Y-13500000D03*
X70400000Y-10500000D03*
X70400000Y-13500000D03*
X70800000Y-10500000D03*
X70800000Y-13500000D03*
X71200000Y-10500000D03*
X71200000Y-13500000D03*
X71600000Y-10500000D03*
X71600000Y-13500000D03*
X72000000Y-10500000D03*
X72000000Y-13500000D03*
X72400000Y-10500000D03*
X72400000Y-13500000D03*
X72800000Y-10500000D03*
X72800000Y-13500000D03*
X73200000Y-10500000D03*
X73200000Y-13500000D03*
X73600000Y-10500000D03*
X73600000Y-13500000D03*
X74000000Y-10500000D03*
X74000000Y-13500000D03*
X74400000Y-10500000D03*
X74400000Y-13500000D03*
X74800000Y-10500000D03*
X74800000Y-13500000D03*
X75200000Y-10500000D03*
X75200000Y-13500000D03*
X75600000Y-10500000D03*
X75600000Y-13500000D03*
X76000000Y-10500000D03*
X76000000Y-13500000D03*
X76400000Y-10500000D03*
X76400000Y-13500000D03*
X76800000Y-10500000D03*
X76800000Y-13500000D03*
X77200000Y-10500000D03*
X77200000Y-13500000D03*
X77600000Y-10500000D03*
X77600000Y-13500000D03*
X78000000Y-10500000D03*
X78000000Y-13500000D03*
X78400000Y-10500000D03*
X78400000Y-13500000D03*
X78800000Y-10500000D03*
X78800000Y-13500000D03*
X79200000Y-10500000D03*
X79200000Y-13500000D03*
X79600000Y-10500000D03*
X79600000Y-13500000D03*
X80000000Y-10500000D03*
X80000000Y-13500000D03*
X80400000Y-10500000D03*
X80400000Y-13500000D03*
X80800000Y-10500000D03*
X80800000Y-13500000D03*
X81200000Y-10500000D03*
X81200000Y-13500000D03*
X81600000Y-10500000D03*
X81600000Y-13500000D03*
X82000000Y-10500000D03*
X82000000Y-13500000D03*
X82400000Y-10500000D03*
X82400000Y-13500000D03*
X82800000Y-10500000D03*
X82800000Y-13500000D03*
X83200000Y-10500000D03*
X83200000Y-13500000D03*
X83600000Y-10500000D03*
X83600000Y-13500000D03*
X84000000Y-10500000D03*
X84000000Y-13500000D03*
X84400000Y-10500000D03*
X84400000Y-13500000D03*
X84800000Y-10500000D03*
X84800000Y-13500000D03*
%TD*%
D10*
%TO.C,C17*%
X38645000Y-40500000D03*
X39605000Y-40500000D03*
%TD*%
D22*
%TO.C,U6*%
X67262500Y-45725000D03*
X67262500Y-46375000D03*
X67262500Y-47025000D03*
X67262500Y-47675000D03*
X67262500Y-48325000D03*
X67262500Y-48975000D03*
X67262500Y-49625000D03*
X67262500Y-50275000D03*
X72987500Y-50275000D03*
X72987500Y-49625000D03*
X72987500Y-48975000D03*
X72987500Y-48325000D03*
X72987500Y-47675000D03*
X72987500Y-47025000D03*
X72987500Y-46375000D03*
X72987500Y-45725000D03*
%TD*%
D12*
%TO.C,F1*%
X14475000Y-33000000D03*
X17275000Y-33000000D03*
%TD*%
D15*
%TO.C,R14*%
X80990000Y-45400000D03*
X82010000Y-45400000D03*
%TD*%
D23*
%TO.C,J9*%
X61250000Y-85000000D03*
D24*
X60000000Y-85000000D03*
X58750000Y-85000000D03*
X57500000Y-85000000D03*
X56250000Y-85000000D03*
X55000000Y-85000000D03*
X53750000Y-85000000D03*
X52500000Y-85000000D03*
X51250000Y-85000000D03*
X50000000Y-85000000D03*
X48750000Y-85000000D03*
X61250000Y-83000000D03*
X60000000Y-83000000D03*
X58750000Y-83000000D03*
X57500000Y-83000000D03*
X56250000Y-83000000D03*
X55000000Y-83000000D03*
X53750000Y-83000000D03*
X52500000Y-83000000D03*
X51250000Y-83000000D03*
X50000000Y-83000000D03*
X48750000Y-83000000D03*
%TD*%
D15*
%TO.C,R19*%
X46365000Y-70500000D03*
X47385000Y-70500000D03*
%TD*%
D25*
%TO.C,U2*%
X13675000Y-39525000D03*
X13675000Y-40175000D03*
X13675000Y-40825000D03*
X13675000Y-41475000D03*
X18075000Y-41475000D03*
X18075000Y-40825000D03*
X18075000Y-40175000D03*
X18075000Y-39525000D03*
%TD*%
D16*
%TO.C,C10*%
X53675000Y-63000000D03*
X55575000Y-63000000D03*
%TD*%
D26*
%TO.C,C2*%
X29900000Y-40500000D03*
X32850000Y-40500000D03*
%TD*%
D10*
%TO.C,C22*%
X69645000Y-63000000D03*
X70605000Y-63000000D03*
%TD*%
D27*
%TO.C,SW2*%
X60466666Y-28000000D03*
X63866666Y-28000000D03*
%TD*%
D15*
%TO.C,R13*%
X91990000Y-39200000D03*
X93010000Y-39200000D03*
%TD*%
%TO.C,R3*%
X15365000Y-70500000D03*
X16385000Y-70500000D03*
%TD*%
%TO.C,R9*%
X32990000Y-28000000D03*
X34010000Y-28000000D03*
%TD*%
D28*
%TO.C,J4*%
X4150000Y-69250000D03*
X4150000Y-68000000D03*
X4150000Y-66750000D03*
D29*
X7350000Y-71100000D03*
X7350000Y-64900000D03*
%TD*%
D12*
%TO.C,F2*%
X60975000Y-33000000D03*
X63775000Y-33000000D03*
%TD*%
D16*
%TO.C,C7*%
X30425000Y-63000000D03*
X32325000Y-63000000D03*
%TD*%
D15*
%TO.C,R10*%
X80990000Y-33000000D03*
X82010000Y-33000000D03*
%TD*%
D30*
%TO.C,D1*%
X21475000Y-33000000D03*
X25775000Y-33000000D03*
%TD*%
%TO.C,D4*%
X52475000Y-55500000D03*
X56775000Y-55500000D03*
%TD*%
D27*
%TO.C,SW1*%
X46133333Y-28000000D03*
X49533333Y-28000000D03*
%TD*%
D15*
%TO.C,R20*%
X54115000Y-70500000D03*
X55135000Y-70500000D03*
%TD*%
D30*
%TO.C,D2*%
X67975000Y-33000000D03*
X72275000Y-33000000D03*
%TD*%
D10*
%TO.C,C11*%
X18686666Y-21000000D03*
X19646666Y-21000000D03*
%TD*%
D31*
%TO.C,Q5*%
X69187500Y-54550000D03*
X69187500Y-56450000D03*
X71062500Y-55500000D03*
%TD*%
D11*
%TO.C,C15*%
X75725000Y-21000000D03*
X77275000Y-21000000D03*
%TD*%
D32*
%TO.C,U4*%
X44175000Y-38595000D03*
X44175000Y-39865000D03*
X44175000Y-41135000D03*
X44175000Y-42405000D03*
X49575000Y-42405000D03*
X49575000Y-41135000D03*
X49575000Y-39865000D03*
X49575000Y-38595000D03*
D33*
X46875000Y-40500000D03*
%TD*%
D13*
%TO.C,D5*%
X60375000Y-40500000D03*
X64375000Y-40500000D03*
%TD*%
D15*
%TO.C,R8*%
X18656666Y-28000000D03*
X19676666Y-28000000D03*
%TD*%
D20*
%TO.C,J1*%
X25200000Y-10500000D03*
D21*
X25200000Y-13500000D03*
X25600000Y-10500000D03*
X25600000Y-13500000D03*
X26000000Y-10500000D03*
X26000000Y-13500000D03*
X26400000Y-10500000D03*
X26400000Y-13500000D03*
X26800000Y-10500000D03*
X26800000Y-13500000D03*
X27200000Y-10500000D03*
X27200000Y-13500000D03*
X27600000Y-10500000D03*
X27600000Y-13500000D03*
X28000000Y-10500000D03*
X28000000Y-13500000D03*
X28400000Y-10500000D03*
X28400000Y-13500000D03*
X28800000Y-10500000D03*
X28800000Y-13500000D03*
X29200000Y-10500000D03*
X29200000Y-13500000D03*
X29600000Y-10500000D03*
X29600000Y-13500000D03*
X30000000Y-10500000D03*
X30000000Y-13500000D03*
X30400000Y-10500000D03*
X30400000Y-13500000D03*
X30800000Y-10500000D03*
X30800000Y-13500000D03*
X31200000Y-10500000D03*
X31200000Y-13500000D03*
X31600000Y-10500000D03*
X31600000Y-13500000D03*
X32000000Y-10500000D03*
X32000000Y-13500000D03*
X32400000Y-10500000D03*
X32400000Y-13500000D03*
X32800000Y-10500000D03*
X32800000Y-13500000D03*
X33200000Y-10500000D03*
X33200000Y-13500000D03*
X33600000Y-10500000D03*
X33600000Y-13500000D03*
X34000000Y-10500000D03*
X34000000Y-13500000D03*
X34400000Y-10500000D03*
X34400000Y-13500000D03*
X34800000Y-10500000D03*
X34800000Y-13500000D03*
X35200000Y-10500000D03*
X35200000Y-13500000D03*
X35600000Y-10500000D03*
X35600000Y-13500000D03*
X36000000Y-10500000D03*
X36000000Y-13500000D03*
X36400000Y-10500000D03*
X36400000Y-13500000D03*
X36800000Y-10500000D03*
X36800000Y-13500000D03*
X37200000Y-10500000D03*
X37200000Y-13500000D03*
X37600000Y-10500000D03*
X37600000Y-13500000D03*
X38000000Y-10500000D03*
X38000000Y-13500000D03*
X38400000Y-10500000D03*
X38400000Y-13500000D03*
X38800000Y-10500000D03*
X38800000Y-13500000D03*
X39200000Y-10500000D03*
X39200000Y-13500000D03*
X39600000Y-10500000D03*
X39600000Y-13500000D03*
X40000000Y-10500000D03*
X40000000Y-13500000D03*
X40400000Y-10500000D03*
X40400000Y-13500000D03*
X40800000Y-10500000D03*
X40800000Y-13500000D03*
X41200000Y-10500000D03*
X41200000Y-13500000D03*
X41600000Y-10500000D03*
X41600000Y-13500000D03*
X42000000Y-10500000D03*
X42000000Y-13500000D03*
X42400000Y-10500000D03*
X42400000Y-13500000D03*
X42800000Y-10500000D03*
X42800000Y-13500000D03*
X43200000Y-10500000D03*
X43200000Y-13500000D03*
X43600000Y-10500000D03*
X43600000Y-13500000D03*
X44000000Y-10500000D03*
X44000000Y-13500000D03*
X44400000Y-10500000D03*
X44400000Y-13500000D03*
X44800000Y-10500000D03*
X44800000Y-13500000D03*
%TD*%
D31*
%TO.C,Q2*%
X22687500Y-39550000D03*
X22687500Y-41450000D03*
X24562500Y-40500000D03*
%TD*%
%TO.C,Q6*%
X14937500Y-62050000D03*
X14937500Y-63950000D03*
X16812500Y-63000000D03*
%TD*%
D34*
%TO.C,J5*%
X105850000Y-16875000D03*
X105850000Y-18125000D03*
X105850000Y-19375000D03*
X105850000Y-20625000D03*
X105850000Y-21875000D03*
X105850000Y-23125000D03*
D35*
X102650000Y-15025000D03*
X102650000Y-24975000D03*
%TD*%
D34*
%TO.C,J6*%
X105850000Y-29875000D03*
X105850000Y-31125000D03*
X105850000Y-32375000D03*
X105850000Y-33625000D03*
X105850000Y-34875000D03*
X105850000Y-36125000D03*
D35*
X102650000Y-28025000D03*
X102650000Y-37975000D03*
%TD*%
D26*
%TO.C,C1*%
X45400000Y-33000000D03*
X48350000Y-33000000D03*
%TD*%
D36*
%TO.C,L2*%
X22440000Y-63000000D03*
X24810000Y-63000000D03*
%TD*%
%TO.C,L1*%
X53440000Y-40500000D03*
X55810000Y-40500000D03*
%TD*%
D15*
%TO.C,R11*%
X91990000Y-33000000D03*
X93010000Y-33000000D03*
%TD*%
D28*
%TO.C,J3*%
X4150000Y-55625000D03*
X4150000Y-54375000D03*
D29*
X7350000Y-57475000D03*
X7350000Y-52525000D03*
%TD*%
D34*
%TO.C,J7*%
X105850000Y-44125000D03*
X105850000Y-45375000D03*
X105850000Y-46625000D03*
X105850000Y-47875000D03*
D35*
X102650000Y-42275000D03*
X102650000Y-49725000D03*
%TD*%
D10*
%TO.C,C13*%
X47353333Y-21000000D03*
X48313333Y-21000000D03*
%TD*%
D15*
%TO.C,R7*%
X90323333Y-21000000D03*
X91343333Y-21000000D03*
%TD*%
%TO.C,R18*%
X38615000Y-70500000D03*
X39635000Y-70500000D03*
%TD*%
%TO.C,R2*%
X38615000Y-48000000D03*
X39635000Y-48000000D03*
%TD*%
D10*
%TO.C,C12*%
X33020000Y-21000000D03*
X33980000Y-21000000D03*
%TD*%
D16*
%TO.C,C8*%
X38175000Y-63000000D03*
X40075000Y-63000000D03*
%TD*%
D15*
%TO.C,R12*%
X80990000Y-39200000D03*
X82010000Y-39200000D03*
%TD*%
D14*
%TO.C,RSH2*%
X22162500Y-55500000D03*
X25087500Y-55500000D03*
%TD*%
D31*
%TO.C,Q1*%
X38187500Y-32050000D03*
X38187500Y-33950000D03*
X40062500Y-33000000D03*
%TD*%
D11*
%TO.C,C14*%
X61391666Y-21000000D03*
X62941666Y-21000000D03*
%TD*%
D37*
%TO.C,R6*%
X80675000Y-57800000D03*
X82325000Y-57800000D03*
%TD*%
D38*
%TO.C,U3*%
X61025000Y-53900000D03*
D39*
X60475000Y-54300000D03*
X60475000Y-54700000D03*
X60475000Y-55100000D03*
X60475000Y-55500000D03*
X60475000Y-55900000D03*
X60475000Y-56300000D03*
X60475000Y-56700000D03*
D40*
X60975000Y-57100000D03*
D41*
X61375000Y-57400000D03*
X61775000Y-57400000D03*
X62175000Y-57400000D03*
X62575000Y-57400000D03*
X62975000Y-57400000D03*
X63375000Y-57400000D03*
D40*
X63775000Y-57100000D03*
D42*
X64225000Y-56700000D03*
D43*
X64250000Y-56300000D03*
D44*
X64238000Y-55900000D03*
D39*
X64275000Y-55500000D03*
X64275000Y-55100000D03*
X64275000Y-54700000D03*
X64275000Y-54300000D03*
D45*
X63725000Y-53900000D03*
D46*
X63275000Y-53800000D03*
X62825000Y-53800000D03*
X62375000Y-53800000D03*
X61925000Y-53800000D03*
D47*
X61475000Y-53775000D03*
D48*
X62375000Y-55500000D03*
%TD*%
D12*
%TO.C,F4*%
X14475000Y-78000000D03*
X17275000Y-78000000D03*
%TD*%
D15*
%TO.C,R21*%
X61865000Y-70500000D03*
X62885000Y-70500000D03*
%TD*%
D49*
%TO.C,U5*%
X45737500Y-47050000D03*
X45737500Y-48000000D03*
X45737500Y-48950000D03*
X48012500Y-48950000D03*
X48012500Y-47050000D03*
%TD*%
D16*
%TO.C,C21*%
X61425000Y-63000000D03*
X63325000Y-63000000D03*
%TD*%
D25*
%TO.C,U1*%
X29175000Y-32025000D03*
X29175000Y-32675000D03*
X29175000Y-33325000D03*
X29175000Y-33975000D03*
X33575000Y-33975000D03*
X33575000Y-33325000D03*
X33575000Y-32675000D03*
X33575000Y-32025000D03*
%TD*%
D14*
%TO.C,RSH1*%
X14412500Y-55500000D03*
X17337500Y-55500000D03*
%TD*%
D15*
%TO.C,R17*%
X30865000Y-70500000D03*
X31885000Y-70500000D03*
%TD*%
%TO.C,R15*%
X91990000Y-45400000D03*
X93010000Y-45400000D03*
%TD*%
D16*
%TO.C,C4*%
X14925000Y-48000000D03*
X16825000Y-48000000D03*
%TD*%
M02*
