solid OpenSCAD_Model
  facet normal 0 -0.903986 0.427563
    outer loop
      vertex 1 -3.69552 4.73073
      vertex 110 -3.52768 5.08559
      vertex 1 -3.52768 5.08559
    endloop
  endfacet
  facet normal 0 -0.903986 0.427563
    outer loop
      vertex 110 -3.52768 5.08559
      vertex 1 -3.69552 4.73073
      vertex 110 -3.69552 4.73073
    endloop
  endfacet
  facet normal 0 -0.903986 -0.427563
    outer loop
      vertex 1 -3.52768 1.31441
      vertex 110 -3.69552 1.66927
      vertex 1 -3.69552 1.66927
    endloop
  endfacet
  facet normal 0 -0.903986 -0.427563
    outer loop
      vertex 110 -3.69552 1.66927
      vertex 1 -3.52768 1.31441
      vertex 110 -3.52768 1.31441
    endloop
  endfacet
  facet normal 0 0.740964 0.671545
    outer loop
      vertex 110 3.09204 5.73757
      vertex 1 2.82843 6.02843
      vertex 110 2.82843 6.02843
    endloop
  endfacet
  facet normal 0 0.740964 0.671545
    outer loop
      vertex 1 2.82843 6.02843
      vertex 110 3.09204 5.73757
      vertex 1 3.09204 5.73757
    endloop
  endfacet
  facet normal 0 -0.24298 0.970031
    outer loop
      vertex 1 -0.780361 7.12314
      vertex 110 -1.16114 7.02776
      vertex 110 -0.780361 7.12314
    endloop
  endfacet
  facet normal 0 -0.24298 0.970031
    outer loop
      vertex 110 -1.16114 7.02776
      vertex 1 -0.780361 7.12314
      vertex 1 -1.16114 7.02776
    endloop
  endfacet
  facet normal -0 0.146736 0.989176
    outer loop
      vertex 1 0.780361 7.12314
      vertex 110 0.392068 7.18074
      vertex 110 0.780361 7.12314
    endloop
  endfacet
  facet normal 0 0.146736 0.989176
    outer loop
      vertex 110 0.392068 7.18074
      vertex 1 0.780361 7.12314
      vertex 1 0.392068 7.18074
    endloop
  endfacet
  facet normal 0 0.970032 -0.242979
    outer loop
      vertex 110 3.82776 2.03886
      vertex 1 3.92314 2.41964
      vertex 110 3.92314 2.41964
    endloop
  endfacet
  facet normal 0 0.970032 -0.242979
    outer loop
      vertex 1 3.92314 2.41964
      vertex 110 3.82776 2.03886
      vertex 1 3.82776 2.03886
    endloop
  endfacet
  facet normal 0 -0.857733 0.514095
    outer loop
      vertex 1 -3.52768 5.08559
      vertex 110 -3.32588 5.42228
      vertex 1 -3.32588 5.42228
    endloop
  endfacet
  facet normal 0 -0.857733 0.514095
    outer loop
      vertex 110 -3.32588 5.42228
      vertex 1 -3.52768 5.08559
      vertex 110 -3.52768 5.08559
    endloop
  endfacet
  facet normal -0 0.671545 0.740964
    outer loop
      vertex 1 2.82843 6.02843
      vertex 110 2.53757 6.29204
      vertex 110 2.82843 6.02843
    endloop
  endfacet
  facet normal 0 0.671545 0.740964
    outer loop
      vertex 110 2.53757 6.29204
      vertex 1 2.82843 6.02843
      vertex 1 2.53757 6.29204
    endloop
  endfacet
  facet normal 0 -0.857734 -0.514094
    outer loop
      vertex 1 -3.32588 0.977719
      vertex 110 -3.52768 1.31441
      vertex 1 -3.52768 1.31441
    endloop
  endfacet
  facet normal 0 -0.857734 -0.514094
    outer loop
      vertex 110 -3.52768 1.31441
      vertex 1 -3.32588 0.977719
      vertex 110 -3.32588 0.977719
    endloop
  endfacet
  facet normal 0 -0.970032 0.242979
    outer loop
      vertex 1 -3.92314 3.98036
      vertex 110 -3.82776 4.36114
      vertex 1 -3.82776 4.36114
    endloop
  endfacet
  facet normal 0 -0.970032 0.242979
    outer loop
      vertex 110 -3.82776 4.36114
      vertex 1 -3.92314 3.98036
      vertex 110 -3.92314 3.98036
    endloop
  endfacet
  facet normal 0 0.941545 0.336887
    outer loop
      vertex 110 3.82776 4.36114
      vertex 1 3.69552 4.73073
      vertex 110 3.69552 4.73073
    endloop
  endfacet
  facet normal 0 0.941545 0.336887
    outer loop
      vertex 1 3.69552 4.73073
      vertex 110 3.82776 4.36114
      vertex 1 3.82776 4.36114
    endloop
  endfacet
  facet normal 0 -0.998796 -0.0490647
    outer loop
      vertex 1 -3.98074 2.80793
      vertex 110 -4 3.2
      vertex 1 -4 3.2
    endloop
  endfacet
  facet normal 0 -0.998796 -0.0490647
    outer loop
      vertex 110 -4 3.2
      vertex 1 -3.98074 2.80793
      vertex 110 -3.98074 2.80793
    endloop
  endfacet
  facet normal 1 0 0
    outer loop
      vertex 110 3.98074 3.59207
      vertex 110 3.98074 2.80793
      vertex 110 4 3.2
    endloop
  endfacet
  facet normal 1 0 0
    outer loop
      vertex 110 3.92314 3.98036
      vertex 110 3.98074 2.80793
      vertex 110 3.98074 3.59207
    endloop
  endfacet
  facet normal 1 0 0
    outer loop
      vertex 110 3.92314 3.98036
      vertex 110 3.92314 2.41964
      vertex 110 3.98074 2.80793
    endloop
  endfacet
  facet normal 1 0 0
    outer loop
      vertex 110 3.82776 4.36114
      vertex 110 3.92314 2.41964
      vertex 110 3.92314 3.98036
    endloop
  endfacet
  facet normal 1 0 0
    outer loop
      vertex 110 3.82776 4.36114
      vertex 110 3.82776 2.03886
      vertex 110 3.92314 2.41964
    endloop
  endfacet
  facet normal 1 0 0
    outer loop
      vertex 110 3.69552 4.73073
      vertex 110 3.82776 2.03886
      vertex 110 3.82776 4.36114
    endloop
  endfacet
  facet normal 1 0 0
    outer loop
      vertex 110 3.69552 4.73073
      vertex 110 3.69552 1.66927
      vertex 110 3.82776 2.03886
    endloop
  endfacet
  facet normal 1 0 0
    outer loop
      vertex 110 3.52768 5.08559
      vertex 110 3.69552 1.66927
      vertex 110 3.69552 4.73073
    endloop
  endfacet
  facet normal 1 0 0
    outer loop
      vertex 110 3.52768 5.08559
      vertex 110 3.52768 1.31441
      vertex 110 3.69552 1.66927
    endloop
  endfacet
  facet normal 1 0 0
    outer loop
      vertex 110 3.32588 5.42228
      vertex 110 3.52768 1.31441
      vertex 110 3.52768 5.08559
    endloop
  endfacet
  facet normal 1 0 0
    outer loop
      vertex 110 3.32588 5.42228
      vertex 110 3.32588 0.977719
      vertex 110 3.52768 1.31441
    endloop
  endfacet
  facet normal 1 0 0
    outer loop
      vertex 110 3.09204 5.73757
      vertex 110 3.32588 0.977719
      vertex 110 3.32588 5.42228
    endloop
  endfacet
  facet normal 1 0 0
    outer loop
      vertex 110 3.09204 5.73757
      vertex 110 3.09204 0.662427
      vertex 110 3.32588 0.977719
    endloop
  endfacet
  facet normal 1 0 0
    outer loop
      vertex 110 2.82843 6.02843
      vertex 110 3.09204 0.662427
      vertex 110 3.09204 5.73757
    endloop
  endfacet
  facet normal 1 0 0
    outer loop
      vertex 110 2.82843 6.02843
      vertex 110 2.82843 0.371574
      vertex 110 3.09204 0.662427
    endloop
  endfacet
  facet normal 1 0 0
    outer loop
      vertex 110 2.53757 6.29204
      vertex 110 2.82843 0.371574
      vertex 110 2.82843 6.02843
    endloop
  endfacet
  facet normal 1 0 0
    outer loop
      vertex 110 2.39201 1.90735e-07
      vertex 110 2.82843 0.371574
      vertex 110 2.53757 6.29204
    endloop
  endfacet
  facet normal 1 0 0
    outer loop
      vertex 110 2.82843 0.371574
      vertex 110 2.39201 1.90735e-07
      vertex 110 2.53757 0.107959
    endloop
  endfacet
  facet normal 1 0 0
    outer loop
      vertex 110 2.22228 6.52588
      vertex 110 2.39201 1.90735e-07
      vertex 110 2.53757 6.29204
    endloop
  endfacet
  facet normal 1 0 0
    outer loop
      vertex 110 1.88559 6.72768
      vertex 110 2.39201 1.90735e-07
      vertex 110 2.22228 6.52588
    endloop
  endfacet
  facet normal 1 0 0
    outer loop
      vertex 110 1.53073 6.89552
      vertex 110 2.39201 1.90735e-07
      vertex 110 1.88559 6.72768
    endloop
  endfacet
  facet normal 1 0 0
    outer loop
      vertex 110 1.16114 7.02776
      vertex 110 2.39201 1.90735e-07
      vertex 110 1.53073 6.89552
    endloop
  endfacet
  facet normal 1 0 0
    outer loop
      vertex 110 0.780361 7.12314
      vertex 110 2.39201 1.90735e-07
      vertex 110 1.16114 7.02776
    endloop
  endfacet
  facet normal 1 0 0
    outer loop
      vertex 110 0.392068 7.18074
      vertex 110 2.39201 1.90735e-07
      vertex 110 0.780361 7.12314
    endloop
  endfacet
  facet normal 1 0 0
    outer loop
      vertex 110 0 7.2
      vertex 110 2.39201 1.90735e-07
      vertex 110 0.392068 7.18074
    endloop
  endfacet
  facet normal 1 -0 0
    outer loop
      vertex 110 -0.392068 7.18074
      vertex 110 2.39201 1.90735e-07
      vertex 110 0 7.2
    endloop
  endfacet
  facet normal 1 -0 0
    outer loop
      vertex 110 -0.780361 7.12314
      vertex 110 2.39201 1.90735e-07
      vertex 110 -0.392068 7.18074
    endloop
  endfacet
  facet normal 1 -0 0
    outer loop
      vertex 110 -1.16114 7.02776
      vertex 110 2.39201 1.90735e-07
      vertex 110 -0.780361 7.12314
    endloop
  endfacet
  facet normal 1 -0 0
    outer loop
      vertex 110 -1.53073 6.89552
      vertex 110 2.39201 1.90735e-07
      vertex 110 -1.16114 7.02776
    endloop
  endfacet
  facet normal 1 -0 0
    outer loop
      vertex 110 -1.88559 6.72768
      vertex 110 2.39201 1.90735e-07
      vertex 110 -1.53073 6.89552
    endloop
  endfacet
  facet normal 1 -0 0
    outer loop
      vertex 110 -2.22228 6.52588
      vertex 110 2.39201 1.90735e-07
      vertex 110 -1.88559 6.72768
    endloop
  endfacet
  facet normal 1 0 0
    outer loop
      vertex 110 -2.22228 6.52588
      vertex 110 -2.39201 1.90735e-07
      vertex 110 2.39201 1.90735e-07
    endloop
  endfacet
  facet normal 1 -0 0
    outer loop
      vertex 110 -2.53757 6.29204
      vertex 110 -2.39201 1.90735e-07
      vertex 110 -2.22228 6.52588
    endloop
  endfacet
  facet normal 1 -0 0
    outer loop
      vertex 110 -2.82843 6.02843
      vertex 110 -2.39201 1.90735e-07
      vertex 110 -2.53757 6.29204
    endloop
  endfacet
  facet normal 1 -0 0
    outer loop
      vertex 110 -2.82843 0.371574
      vertex 110 -2.39201 1.90735e-07
      vertex 110 -2.82843 6.02843
    endloop
  endfacet
  facet normal 1 0 0
    outer loop
      vertex 110 -2.39201 1.90735e-07
      vertex 110 -2.82843 0.371574
      vertex 110 -2.53757 0.107959
    endloop
  endfacet
  facet normal 1 -0 0
    outer loop
      vertex 110 -3.09204 5.73757
      vertex 110 -2.82843 0.371574
      vertex 110 -2.82843 6.02843
    endloop
  endfacet
  facet normal 1 0 0
    outer loop
      vertex 110 -3.09204 5.73757
      vertex 110 -3.09204 0.662427
      vertex 110 -2.82843 0.371574
    endloop
  endfacet
  facet normal 1 -0 0
    outer loop
      vertex 110 -3.32588 5.42228
      vertex 110 -3.09204 0.662427
      vertex 110 -3.09204 5.73757
    endloop
  endfacet
  facet normal 1 0 0
    outer loop
      vertex 110 -3.32588 5.42228
      vertex 110 -3.32588 0.977719
      vertex 110 -3.09204 0.662427
    endloop
  endfacet
  facet normal 1 -0 0
    outer loop
      vertex 110 -3.52768 5.08559
      vertex 110 -3.32588 0.977719
      vertex 110 -3.32588 5.42228
    endloop
  endfacet
  facet normal 1 0 0
    outer loop
      vertex 110 -3.52768 5.08559
      vertex 110 -3.52768 1.31441
      vertex 110 -3.32588 0.977719
    endloop
  endfacet
  facet normal 1 -0 0
    outer loop
      vertex 110 -3.69552 4.73073
      vertex 110 -3.52768 1.31441
      vertex 110 -3.52768 5.08559
    endloop
  endfacet
  facet normal 1 0 0
    outer loop
      vertex 110 -3.69552 4.73073
      vertex 110 -3.69552 1.66927
      vertex 110 -3.52768 1.31441
    endloop
  endfacet
  facet normal 1 -0 0
    outer loop
      vertex 110 -3.82776 4.36114
      vertex 110 -3.69552 1.66927
      vertex 110 -3.69552 4.73073
    endloop
  endfacet
  facet normal 1 0 0
    outer loop
      vertex 110 -3.82776 4.36114
      vertex 110 -3.82776 2.03886
      vertex 110 -3.69552 1.66927
    endloop
  endfacet
  facet normal 1 -0 0
    outer loop
      vertex 110 -3.92314 3.98036
      vertex 110 -3.82776 2.03886
      vertex 110 -3.82776 4.36114
    endloop
  endfacet
  facet normal 1 0 0
    outer loop
      vertex 110 -3.92314 3.98036
      vertex 110 -3.92314 2.41964
      vertex 110 -3.82776 2.03886
    endloop
  endfacet
  facet normal 1 -0 0
    outer loop
      vertex 110 -3.98074 3.59207
      vertex 110 -3.92314 2.41964
      vertex 110 -3.92314 3.98036
    endloop
  endfacet
  facet normal 1 0 0
    outer loop
      vertex 110 -3.98074 3.59207
      vertex 110 -3.98074 2.80793
      vertex 110 -3.92314 2.41964
    endloop
  endfacet
  facet normal 1 0 -0
    outer loop
      vertex 110 -3.98074 2.80793
      vertex 110 -3.98074 3.59207
      vertex 110 -4 3.2
    endloop
  endfacet
  facet normal 0 -0.989176 -0.146737
    outer loop
      vertex 1 -3.92314 2.41964
      vertex 110 -3.98074 2.80793
      vertex 1 -3.98074 2.80793
    endloop
  endfacet
  facet normal 0 -0.989176 -0.146737
    outer loop
      vertex 110 -3.98074 2.80793
      vertex 1 -3.92314 2.41964
      vertex 110 -3.92314 2.41964
    endloop
  endfacet
  facet normal 0 0.998796 0.0490647
    outer loop
      vertex 110 4 3.2
      vertex 1 3.98074 3.59207
      vertex 110 3.98074 3.59207
    endloop
  endfacet
  facet normal 0 0.998796 0.0490647
    outer loop
      vertex 1 3.98074 3.59207
      vertex 110 4 3.2
      vertex 1 4 3.2
    endloop
  endfacet
  facet normal 0 0.989176 0.146737
    outer loop
      vertex 110 3.98074 3.59207
      vertex 1 3.92314 3.98036
      vertex 110 3.92314 3.98036
    endloop
  endfacet
  facet normal 0 0.989176 0.146737
    outer loop
      vertex 1 3.92314 3.98036
      vertex 110 3.98074 3.59207
      vertex 1 3.98074 3.59207
    endloop
  endfacet
  facet normal 0 -0.803203 -0.595705
    outer loop
      vertex 1 -3.09204 0.662427
      vertex 110 -3.32588 0.977719
      vertex 1 -3.32588 0.977719
    endloop
  endfacet
  facet normal 0 -0.803203 -0.595705
    outer loop
      vertex 110 -3.32588 0.977719
      vertex 1 -3.09204 0.662427
      vertex 110 -3.09204 0.662427
    endloop
  endfacet
  facet normal 0 0.998796 -0.0490647
    outer loop
      vertex 110 3.98074 2.80793
      vertex 1 4 3.2
      vertex 110 4 3.2
    endloop
  endfacet
  facet normal 0 0.998796 -0.0490647
    outer loop
      vertex 1 4 3.2
      vertex 110 3.98074 2.80793
      vertex 1 3.98074 2.80793
    endloop
  endfacet
  facet normal 0 0.857734 -0.514094
    outer loop
      vertex 110 3.32588 0.977719
      vertex 1 3.52768 1.31441
      vertex 110 3.52768 1.31441
    endloop
  endfacet
  facet normal 0 0.857734 -0.514094
    outer loop
      vertex 1 3.52768 1.31441
      vertex 110 3.32588 0.977719
      vertex 1 3.32588 0.977719
    endloop
  endfacet
  facet normal 0 0.595714 -0.803197
    outer loop
      vertex 1 2.39201 1.90735e-07
      vertex 110 2.53757 0.107959
      vertex 110 2.39201 1.90735e-07
    endloop
  endfacet
  facet normal 0 0.595714 -0.803197
    outer loop
      vertex 110 2.53757 0.107959
      vertex 1 2.39201 1.90735e-07
      vertex 1 2.53757 0.107959
    endloop
  endfacet
  facet normal 0 0.803203 -0.595705
    outer loop
      vertex 110 3.09204 0.662427
      vertex 1 3.32588 0.977719
      vertex 110 3.32588 0.977719
    endloop
  endfacet
  facet normal 0 0.803203 -0.595705
    outer loop
      vertex 1 3.32588 0.977719
      vertex 110 3.09204 0.662427
      vertex 1 3.09204 0.662427
    endloop
  endfacet
  facet normal 0 0.803201 0.595708
    outer loop
      vertex 110 3.32588 5.42228
      vertex 1 3.09204 5.73757
      vertex 110 3.09204 5.73757
    endloop
  endfacet
  facet normal 0 0.803201 0.595708
    outer loop
      vertex 1 3.09204 5.73757
      vertex 110 3.32588 5.42228
      vertex 1 3.32588 5.42228
    endloop
  endfacet
  facet normal 0 0.903986 -0.427563
    outer loop
      vertex 110 3.52768 1.31441
      vertex 1 3.69552 1.66927
      vertex 110 3.69552 1.66927
    endloop
  endfacet
  facet normal 0 0.903986 -0.427563
    outer loop
      vertex 1 3.69552 1.66927
      vertex 110 3.52768 1.31441
      vertex 1 3.52768 1.31441
    endloop
  endfacet
  facet normal 0 0.671552 -0.740958
    outer loop
      vertex 1 2.53757 0.107959
      vertex 110 2.82843 0.371574
      vertex 110 2.53757 0.107959
    endloop
  endfacet
  facet normal 0 0.671552 -0.740958
    outer loop
      vertex 110 2.82843 0.371574
      vertex 1 2.53757 0.107959
      vertex 1 2.82843 0.371574
    endloop
  endfacet
  facet normal -0 0.336887 0.941545
    outer loop
      vertex 1 1.53073 6.89552
      vertex 110 1.16114 7.02776
      vertex 110 1.53073 6.89552
    endloop
  endfacet
  facet normal 0 0.336887 0.941545
    outer loop
      vertex 110 1.16114 7.02776
      vertex 1 1.53073 6.89552
      vertex 1 1.16114 7.02776
    endloop
  endfacet
  facet normal 0 0.989176 -0.146737
    outer loop
      vertex 110 3.92314 2.41964
      vertex 1 3.98074 2.80793
      vertex 110 3.98074 2.80793
    endloop
  endfacet
  facet normal 0 0.989176 -0.146737
    outer loop
      vertex 1 3.98074 2.80793
      vertex 110 3.92314 2.41964
      vertex 1 3.92314 2.41964
    endloop
  endfacet
  facet normal 0 -0.336887 0.941545
    outer loop
      vertex 1 -1.16114 7.02776
      vertex 110 -1.53073 6.89552
      vertex 110 -1.16114 7.02776
    endloop
  endfacet
  facet normal 0 -0.336887 0.941545
    outer loop
      vertex 110 -1.53073 6.89552
      vertex 1 -1.16114 7.02776
      vertex 1 -1.53073 6.89552
    endloop
  endfacet
  facet normal 0 -0.427563 0.903986
    outer loop
      vertex 1 -1.53073 6.89552
      vertex 110 -1.88559 6.72768
      vertex 110 -1.53073 6.89552
    endloop
  endfacet
  facet normal 0 -0.427563 0.903986
    outer loop
      vertex 110 -1.88559 6.72768
      vertex 1 -1.53073 6.89552
      vertex 1 -1.88559 6.72768
    endloop
  endfacet
  facet normal 0 -0.941545 -0.336887
    outer loop
      vertex 1 -3.69552 1.66927
      vertex 110 -3.82776 2.03886
      vertex 1 -3.82776 2.03886
    endloop
  endfacet
  facet normal 0 -0.941545 -0.336887
    outer loop
      vertex 110 -3.82776 2.03886
      vertex 1 -3.69552 1.66927
      vertex 110 -3.69552 1.66927
    endloop
  endfacet
  facet normal 0 -0.595714 -0.803197
    outer loop
      vertex 1 -2.53757 0.107959
      vertex 110 -2.39201 1.90735e-07
      vertex 110 -2.53757 0.107959
    endloop
  endfacet
  facet normal -0 -0.595714 -0.803197
    outer loop
      vertex 110 -2.39201 1.90735e-07
      vertex 1 -2.53757 0.107959
      vertex 1 -2.39201 1.90735e-07
    endloop
  endfacet
  facet normal -0 0.427563 0.903986
    outer loop
      vertex 1 1.88559 6.72768
      vertex 110 1.53073 6.89552
      vertex 110 1.88559 6.72768
    endloop
  endfacet
  facet normal 0 0.427563 0.903986
    outer loop
      vertex 110 1.53073 6.89552
      vertex 1 1.88559 6.72768
      vertex 1 1.53073 6.89552
    endloop
  endfacet
  facet normal 0 0.970032 0.242979
    outer loop
      vertex 110 3.92314 3.98036
      vertex 1 3.82776 4.36114
      vertex 110 3.82776 4.36114
    endloop
  endfacet
  facet normal 0 0.970032 0.242979
    outer loop
      vertex 1 3.82776 4.36114
      vertex 110 3.92314 3.98036
      vertex 1 3.92314 3.98036
    endloop
  endfacet
  facet normal 0 -0.514095 0.857733
    outer loop
      vertex 1 -1.88559 6.72768
      vertex 110 -2.22228 6.52588
      vertex 110 -1.88559 6.72768
    endloop
  endfacet
  facet normal 0 -0.514095 0.857733
    outer loop
      vertex 110 -2.22228 6.52588
      vertex 1 -1.88559 6.72768
      vertex 1 -2.22228 6.52588
    endloop
  endfacet
  facet normal 0 -0.970032 -0.242979
    outer loop
      vertex 1 -3.82776 2.03886
      vertex 110 -3.92314 2.41964
      vertex 1 -3.92314 2.41964
    endloop
  endfacet
  facet normal 0 -0.970032 -0.242979
    outer loop
      vertex 110 -3.92314 2.41964
      vertex 1 -3.82776 2.03886
      vertex 110 -3.82776 2.03886
    endloop
  endfacet
  facet normal 0 0.857733 0.514095
    outer loop
      vertex 110 3.52768 5.08559
      vertex 1 3.32588 5.42228
      vertex 110 3.32588 5.42228
    endloop
  endfacet
  facet normal 0 0.857733 0.514095
    outer loop
      vertex 1 3.32588 5.42228
      vertex 110 3.52768 5.08559
      vertex 1 3.52768 5.08559
    endloop
  endfacet
  facet normal 0 0.903986 0.427563
    outer loop
      vertex 110 3.69552 4.73073
      vertex 1 3.52768 5.08559
      vertex 110 3.52768 5.08559
    endloop
  endfacet
  facet normal 0 0.903986 0.427563
    outer loop
      vertex 1 3.52768 5.08559
      vertex 110 3.69552 4.73073
      vertex 1 3.69552 4.73073
    endloop
  endfacet
  facet normal 0 0 0
    outer loop
      vertex 0 3.88244e-06 7.2
      vertex 0 -3.88244e-06 7.2
      vertex 0 0 7.2
    endloop
  endfacet
  facet normal 0 0.740956 -0.671554
    outer loop
      vertex 110 2.82843 0.371574
      vertex 1 3.09204 0.662427
      vertex 110 3.09204 0.662427
    endloop
  endfacet
  facet normal 0 0.740956 -0.671554
    outer loop
      vertex 1 3.09204 0.662427
      vertex 110 2.82843 0.371574
      vertex 1 2.82843 0.371574
    endloop
  endfacet
  facet normal 0 -0.146736 0.989176
    outer loop
      vertex 1 -0.392068 7.18074
      vertex 110 -0.780361 7.12314
      vertex 110 -0.392068 7.18074
    endloop
  endfacet
  facet normal 0 -0.146736 0.989176
    outer loop
      vertex 110 -0.780361 7.12314
      vertex 1 -0.392068 7.18074
      vertex 1 -0.780361 7.12314
    endloop
  endfacet
  facet normal 0 -0.671545 0.740964
    outer loop
      vertex 1 -2.53757 6.29204
      vertex 110 -2.82843 6.02843
      vertex 110 -2.53757 6.29204
    endloop
  endfacet
  facet normal 0 -0.671545 0.740964
    outer loop
      vertex 110 -2.82843 6.02843
      vertex 1 -2.53757 6.29204
      vertex 1 -2.82843 6.02843
    endloop
  endfacet
  facet normal 0 0.941545 -0.336887
    outer loop
      vertex 110 3.69552 1.66927
      vertex 1 3.82776 2.03886
      vertex 110 3.82776 2.03886
    endloop
  endfacet
  facet normal 0 0.941545 -0.336887
    outer loop
      vertex 1 3.82776 2.03886
      vertex 110 3.69552 1.66927
      vertex 1 3.69552 1.66927
    endloop
  endfacet
  facet normal -0 0.24298 0.970031
    outer loop
      vertex 1 1.16114 7.02776
      vertex 110 0.780361 7.12314
      vertex 110 1.16114 7.02776
    endloop
  endfacet
  facet normal 0 0.24298 0.970031
    outer loop
      vertex 110 0.780361 7.12314
      vertex 1 1.16114 7.02776
      vertex 1 0.780361 7.12314
    endloop
  endfacet
  facet normal 0 -0.595708 0.803201
    outer loop
      vertex 1 -2.22228 6.52588
      vertex 110 -2.53757 6.29204
      vertex 110 -2.22228 6.52588
    endloop
  endfacet
  facet normal 0 -0.595708 0.803201
    outer loop
      vertex 110 -2.53757 6.29204
      vertex 1 -2.22228 6.52588
      vertex 1 -2.53757 6.29204
    endloop
  endfacet
  facet normal 1.74763e-09 -0.049065 0.998796
    outer loop
      vertex 110 0 7.2
      vertex 1 -3.88244e-06 7.2
      vertex 110 -0.392068 7.18074
    endloop
  endfacet
  facet normal -0 0 1
    outer loop
      vertex 0 0 7.2
      vertex 1 -3.88244e-06 7.2
      vertex 110 0 7.2
    endloop
  endfacet
  facet normal 0 0 1
    outer loop
      vertex 1 -3.88244e-06 7.2
      vertex 0 0 7.2
      vertex 0 -3.88244e-06 7.2
    endloop
  endfacet
  facet normal 0 -0.0490655 0.998796
    outer loop
      vertex 110 -0.392068 7.18074
      vertex 1 -3.88244e-06 7.2
      vertex 1 -0.392068 7.18074
    endloop
  endfacet
  facet normal 0 -0.803201 0.595708
    outer loop
      vertex 1 -3.32588 5.42228
      vertex 110 -3.09204 5.73757
      vertex 1 -3.09204 5.73757
    endloop
  endfacet
  facet normal 0 -0.803201 0.595708
    outer loop
      vertex 110 -3.09204 5.73757
      vertex 1 -3.32588 5.42228
      vertex 110 -3.32588 5.42228
    endloop
  endfacet
  facet normal 0 -0.740964 0.671545
    outer loop
      vertex 1 -3.09204 5.73757
      vertex 110 -2.82843 6.02843
      vertex 1 -2.82843 6.02843
    endloop
  endfacet
  facet normal 0 -0.740964 0.671545
    outer loop
      vertex 110 -2.82843 6.02843
      vertex 1 -3.09204 5.73757
      vertex 110 -3.09204 5.73757
    endloop
  endfacet
  facet normal -0 0.595708 0.803201
    outer loop
      vertex 1 2.53757 6.29204
      vertex 110 2.22228 6.52588
      vertex 110 2.53757 6.29204
    endloop
  endfacet
  facet normal 0 0.595708 0.803201
    outer loop
      vertex 110 2.22228 6.52588
      vertex 1 2.53757 6.29204
      vertex 1 2.22228 6.52588
    endloop
  endfacet
  facet normal -0 0.514095 0.857733
    outer loop
      vertex 1 2.22228 6.52588
      vertex 110 1.88559 6.72768
      vertex 110 2.22228 6.52588
    endloop
  endfacet
  facet normal 0 0.514095 0.857733
    outer loop
      vertex 110 1.88559 6.72768
      vertex 1 2.22228 6.52588
      vertex 1 1.88559 6.72768
    endloop
  endfacet
  facet normal 0 -0.998796 0.0490647
    outer loop
      vertex 1 -4 3.2
      vertex 110 -3.98074 3.59207
      vertex 1 -3.98074 3.59207
    endloop
  endfacet
  facet normal 0 -0.998796 0.0490647
    outer loop
      vertex 110 -3.98074 3.59207
      vertex 1 -4 3.2
      vertex 110 -4 3.2
    endloop
  endfacet
  facet normal 0 -0.989176 0.146737
    outer loop
      vertex 1 -3.98074 3.59207
      vertex 110 -3.92314 3.98036
      vertex 1 -3.92314 3.98036
    endloop
  endfacet
  facet normal 0 -0.989176 0.146737
    outer loop
      vertex 110 -3.92314 3.98036
      vertex 1 -3.98074 3.59207
      vertex 110 -3.98074 3.59207
    endloop
  endfacet
  facet normal -0 0.049065 0.998796
    outer loop
      vertex 1 0.392068 7.18074
      vertex 110 0 7.2
      vertex 110 0.392068 7.18074
    endloop
  endfacet
  facet normal 1.74765e-09 0.0490655 0.998796
    outer loop
      vertex 1 3.88244e-06 7.2
      vertex 110 0 7.2
      vertex 1 0.392068 7.18074
    endloop
  endfacet
  facet normal 0 0 1
    outer loop
      vertex 0 0 7.2
      vertex 1 3.88244e-06 7.2
      vertex 0 3.88244e-06 7.2
    endloop
  endfacet
  facet normal 0 0 1
    outer loop
      vertex 1 3.88244e-06 7.2
      vertex 0 0 7.2
      vertex 110 0 7.2
    endloop
  endfacet
  facet normal 0 -0.941545 0.336887
    outer loop
      vertex 1 -3.82776 4.36114
      vertex 110 -3.69552 4.73073
      vertex 1 -3.69552 4.73073
    endloop
  endfacet
  facet normal 0 -0.941545 0.336887
    outer loop
      vertex 110 -3.69552 4.73073
      vertex 1 -3.82776 4.36114
      vertex 110 -3.82776 4.36114
    endloop
  endfacet
  facet normal 0 -0.671552 -0.740958
    outer loop
      vertex 1 -2.82843 0.371574
      vertex 110 -2.53757 0.107959
      vertex 110 -2.82843 0.371574
    endloop
  endfacet
  facet normal -0 -0.671552 -0.740958
    outer loop
      vertex 110 -2.53757 0.107959
      vertex 1 -2.82843 0.371574
      vertex 1 -2.53757 0.107959
    endloop
  endfacet
  facet normal 0 -0.740956 -0.671554
    outer loop
      vertex 1 -2.82843 0.371574
      vertex 110 -3.09204 0.662427
      vertex 1 -3.09204 0.662427
    endloop
  endfacet
  facet normal 0 -0.740956 -0.671554
    outer loop
      vertex 110 -3.09204 0.662427
      vertex 1 -2.82843 0.371574
      vertex 110 -2.82843 0.371574
    endloop
  endfacet
  facet normal 0 0 -1
    outer loop
      vertex 1 -2.39201 1.90735e-07
      vertex 110 2.39201 1.90735e-07
      vertex 110 -2.39201 1.90735e-07
    endloop
  endfacet
  facet normal -0 0 -1
    outer loop
      vertex 110 2.39201 1.90735e-07
      vertex 1 -2.39201 1.90735e-07
      vertex 1 2.39201 1.90735e-07
    endloop
  endfacet
  facet normal 1 0 0
    outer loop
      vertex 1 4 7.2
      vertex 1 3.98074 3.59207
      vertex 1 4 3.2
    endloop
  endfacet
  facet normal 1 0 0
    outer loop
      vertex 1 4 7.2
      vertex 1 3.92314 3.98036
      vertex 1 3.98074 3.59207
    endloop
  endfacet
  facet normal 1 0 0
    outer loop
      vertex 1 4 7.2
      vertex 1 3.82776 4.36114
      vertex 1 3.92314 3.98036
    endloop
  endfacet
  facet normal 1 0 0
    outer loop
      vertex 1 4 7.2
      vertex 1 3.69552 4.73073
      vertex 1 3.82776 4.36114
    endloop
  endfacet
  facet normal 1 0 0
    outer loop
      vertex 1 4 7.2
      vertex 1 3.52768 5.08559
      vertex 1 3.69552 4.73073
    endloop
  endfacet
  facet normal 1 0 0
    outer loop
      vertex 1 4 7.2
      vertex 1 3.32588 5.42228
      vertex 1 3.52768 5.08559
    endloop
  endfacet
  facet normal 1 0 0
    outer loop
      vertex 1 4 7.2
      vertex 1 3.09204 5.73757
      vertex 1 3.32588 5.42228
    endloop
  endfacet
  facet normal 1 0 0
    outer loop
      vertex 1 4 7.2
      vertex 1 2.82843 6.02843
      vertex 1 3.09204 5.73757
    endloop
  endfacet
  facet normal 1 0 0
    outer loop
      vertex 1 4 7.2
      vertex 1 2.53757 6.29204
      vertex 1 2.82843 6.02843
    endloop
  endfacet
  facet normal 1 0 0
    outer loop
      vertex 1 4 7.2
      vertex 1 2.22228 6.52588
      vertex 1 2.53757 6.29204
    endloop
  endfacet
  facet normal 1 0 0
    outer loop
      vertex 1 4 7.2
      vertex 1 1.88559 6.72768
      vertex 1 2.22228 6.52588
    endloop
  endfacet
  facet normal 1 0 0
    outer loop
      vertex 1 4 7.2
      vertex 1 1.53073 6.89552
      vertex 1 1.88559 6.72768
    endloop
  endfacet
  facet normal 1 0 0
    outer loop
      vertex 1 4 7.2
      vertex 1 1.16114 7.02776
      vertex 1 1.53073 6.89552
    endloop
  endfacet
  facet normal 1 0 0
    outer loop
      vertex 1 4 7.2
      vertex 1 0.780361 7.12314
      vertex 1 1.16114 7.02776
    endloop
  endfacet
  facet normal 1 0 0
    outer loop
      vertex 1 4 7.2
      vertex 1 0.392068 7.18074
      vertex 1 0.780361 7.12314
    endloop
  endfacet
  facet normal 1 0 -0
    outer loop
      vertex 1 0.392068 7.18074
      vertex 1 4 7.2
      vertex 1 3.88244e-06 7.2
    endloop
  endfacet
  facet normal 1 -0 0
    outer loop
      vertex 1 3.98074 2.80793
      vertex 1 4 0
      vertex 1 4 3.2
    endloop
  endfacet
  facet normal 1 -0 0
    outer loop
      vertex 1 3.92314 2.41964
      vertex 1 4 0
      vertex 1 3.98074 2.80793
    endloop
  endfacet
  facet normal 1 -0 0
    outer loop
      vertex 1 3.82776 2.03886
      vertex 1 4 0
      vertex 1 3.92314 2.41964
    endloop
  endfacet
  facet normal 1 -0 0
    outer loop
      vertex 1 3.69552 1.66927
      vertex 1 4 0
      vertex 1 3.82776 2.03886
    endloop
  endfacet
  facet normal 1 -0 0
    outer loop
      vertex 1 3.52768 1.31441
      vertex 1 4 0
      vertex 1 3.69552 1.66927
    endloop
  endfacet
  facet normal 1 -0 0
    outer loop
      vertex 1 3.32588 0.977719
      vertex 1 4 0
      vertex 1 3.52768 1.31441
    endloop
  endfacet
  facet normal 1 -0 0
    outer loop
      vertex 1 3.09204 0.662427
      vertex 1 4 0
      vertex 1 3.32588 0.977719
    endloop
  endfacet
  facet normal 1 -0 0
    outer loop
      vertex 1 2.82843 0.371574
      vertex 1 4 0
      vertex 1 3.09204 0.662427
    endloop
  endfacet
  facet normal 1 -0 0
    outer loop
      vertex 1 2.53757 0.107959
      vertex 1 4 0
      vertex 1 2.82843 0.371574
    endloop
  endfacet
  facet normal 1 -0 0
    outer loop
      vertex 1 2.39201 1.90735e-07
      vertex 1 4 0
      vertex 1 2.53757 0.107959
    endloop
  endfacet
  facet normal 1 -0 0
    outer loop
      vertex 1 -2.39201 1.90735e-07
      vertex 1 4 0
      vertex 1 2.39201 1.90735e-07
    endloop
  endfacet
  facet normal 1 0 0
    outer loop
      vertex 1 -2.39201 1.90735e-07
      vertex 1 -4 0
      vertex 1 4 0
    endloop
  endfacet
  facet normal 1 0 0
    outer loop
      vertex 1 -2.53757 0.107959
      vertex 1 -4 0
      vertex 1 -2.39201 1.90735e-07
    endloop
  endfacet
  facet normal 1 0 0
    outer loop
      vertex 1 -2.82843 0.371574
      vertex 1 -4 0
      vertex 1 -2.53757 0.107959
    endloop
  endfacet
  facet normal 1 0 0
    outer loop
      vertex 1 -3.09204 0.662427
      vertex 1 -4 0
      vertex 1 -2.82843 0.371574
    endloop
  endfacet
  facet normal 1 0 0
    outer loop
      vertex 1 -3.32588 0.977719
      vertex 1 -4 0
      vertex 1 -3.09204 0.662427
    endloop
  endfacet
  facet normal 1 0 0
    outer loop
      vertex 1 -3.52768 1.31441
      vertex 1 -4 0
      vertex 1 -3.32588 0.977719
    endloop
  endfacet
  facet normal 1 0 0
    outer loop
      vertex 1 -3.69552 1.66927
      vertex 1 -4 0
      vertex 1 -3.52768 1.31441
    endloop
  endfacet
  facet normal 1 0 0
    outer loop
      vertex 1 -3.82776 2.03886
      vertex 1 -4 0
      vertex 1 -3.69552 1.66927
    endloop
  endfacet
  facet normal 1 0 0
    outer loop
      vertex 1 -3.92314 2.41964
      vertex 1 -4 0
      vertex 1 -3.82776 2.03886
    endloop
  endfacet
  facet normal 1 0 0
    outer loop
      vertex 1 -3.98074 2.80793
      vertex 1 -4 0
      vertex 1 -3.92314 2.41964
    endloop
  endfacet
  facet normal 1 0 0
    outer loop
      vertex 1 -4 0
      vertex 1 -3.98074 2.80793
      vertex 1 -4 3.2
    endloop
  endfacet
  facet normal 1 -0 0
    outer loop
      vertex 1 -4 7.2
      vertex 1 -0.392068 7.18074
      vertex 1 -3.88244e-06 7.2
    endloop
  endfacet
  facet normal 1 0 0
    outer loop
      vertex 1 -4 7.2
      vertex 1 -0.780361 7.12314
      vertex 1 -0.392068 7.18074
    endloop
  endfacet
  facet normal 1 0 0
    outer loop
      vertex 1 -4 7.2
      vertex 1 -1.16114 7.02776
      vertex 1 -0.780361 7.12314
    endloop
  endfacet
  facet normal 1 0 0
    outer loop
      vertex 1 -4 7.2
      vertex 1 -1.53073 6.89552
      vertex 1 -1.16114 7.02776
    endloop
  endfacet
  facet normal 1 0 0
    outer loop
      vertex 1 -4 7.2
      vertex 1 -1.88559 6.72768
      vertex 1 -1.53073 6.89552
    endloop
  endfacet
  facet normal 1 0 0
    outer loop
      vertex 1 -4 7.2
      vertex 1 -2.22228 6.52588
      vertex 1 -1.88559 6.72768
    endloop
  endfacet
  facet normal 1 0 0
    outer loop
      vertex 1 -4 7.2
      vertex 1 -2.53757 6.29204
      vertex 1 -2.22228 6.52588
    endloop
  endfacet
  facet normal 1 0 0
    outer loop
      vertex 1 -4 7.2
      vertex 1 -2.82843 6.02843
      vertex 1 -2.53757 6.29204
    endloop
  endfacet
  facet normal 1 0 0
    outer loop
      vertex 1 -4 7.2
      vertex 1 -3.09204 5.73757
      vertex 1 -2.82843 6.02843
    endloop
  endfacet
  facet normal 1 0 0
    outer loop
      vertex 1 -4 7.2
      vertex 1 -3.32588 5.42228
      vertex 1 -3.09204 5.73757
    endloop
  endfacet
  facet normal 1 0 0
    outer loop
      vertex 1 -4 7.2
      vertex 1 -3.52768 5.08559
      vertex 1 -3.32588 5.42228
    endloop
  endfacet
  facet normal 1 0 0
    outer loop
      vertex 1 -4 7.2
      vertex 1 -3.69552 4.73073
      vertex 1 -3.52768 5.08559
    endloop
  endfacet
  facet normal 1 0 0
    outer loop
      vertex 1 -4 7.2
      vertex 1 -3.82776 4.36114
      vertex 1 -3.69552 4.73073
    endloop
  endfacet
  facet normal 1 0 0
    outer loop
      vertex 1 -4 7.2
      vertex 1 -3.92314 3.98036
      vertex 1 -3.82776 4.36114
    endloop
  endfacet
  facet normal 1 0 0
    outer loop
      vertex 1 -4 7.2
      vertex 1 -3.98074 3.59207
      vertex 1 -3.92314 3.98036
    endloop
  endfacet
  facet normal 1 0 0
    outer loop
      vertex 1 -3.98074 3.59207
      vertex 1 -4 7.2
      vertex 1 -4 3.2
    endloop
  endfacet
  facet normal 0 0 1
    outer loop
      vertex 1 4 7.2
      vertex 0 3.88244e-06 7.2
      vertex 1 3.88244e-06 7.2
    endloop
  endfacet
  facet normal 0 0 1
    outer loop
      vertex 0 3.88244e-06 7.2
      vertex -12 4 7.2
      vertex 0 -3.88244e-06 7.2
    endloop
  endfacet
  facet normal -0 0 1
    outer loop
      vertex -12 4 7.2
      vertex 0 3.88244e-06 7.2
      vertex 1 4 7.2
    endloop
  endfacet
  facet normal -0 0 1
    outer loop
      vertex 0 -3.88244e-06 7.2
      vertex 1 -4 7.2
      vertex 1 -3.88244e-06 7.2
    endloop
  endfacet
  facet normal 0 0 1
    outer loop
      vertex -12 -4 7.2
      vertex 0 -3.88244e-06 7.2
      vertex -12 4 7.2
    endloop
  endfacet
  facet normal 0 0 1
    outer loop
      vertex 0 -3.88244e-06 7.2
      vertex -12 -4 7.2
      vertex 1 -4 7.2
    endloop
  endfacet
  facet normal 0 0 -1
    outer loop
      vertex -12 -4 0
      vertex 1 4 0
      vertex 1 -4 0
    endloop
  endfacet
  facet normal -0 0 -1
    outer loop
      vertex 1 4 0
      vertex -12 -4 0
      vertex -12 4 0
    endloop
  endfacet
  facet normal -1 0 0
    outer loop
      vertex -12 -4 0
      vertex -12 4 7.2
      vertex -12 4 0
    endloop
  endfacet
  facet normal -1 -0 0
    outer loop
      vertex -12 4 7.2
      vertex -12 -4 0
      vertex -12 -4 7.2
    endloop
  endfacet
  facet normal 0 1 -0
    outer loop
      vertex 1 4 3.2
      vertex -12 4 7.2
      vertex 1 4 7.2
    endloop
  endfacet
  facet normal 0 1 0
    outer loop
      vertex -12 4 0
      vertex 1 4 3.2
      vertex 1 4 0
    endloop
  endfacet
  facet normal 0 1 0
    outer loop
      vertex 1 4 3.2
      vertex -12 4 0
      vertex -12 4 7.2
    endloop
  endfacet
  facet normal 0 -1 0
    outer loop
      vertex -12 -4 7.2
      vertex 1 -4 3.2
      vertex 1 -4 7.2
    endloop
  endfacet
  facet normal 0 -1 0
    outer loop
      vertex -12 -4 0
      vertex 1 -4 3.2
      vertex -12 -4 7.2
    endloop
  endfacet
  facet normal 0 -1 -0
    outer loop
      vertex 1 -4 3.2
      vertex -12 -4 0
      vertex 1 -4 0
    endloop
  endfacet
  facet normal -1 0 0
    outer loop
      vertex 0 14 6.84999
      vertex 0 16.4 6.84999
      vertex 0 16.4214 6.41382
    endloop
  endfacet
  facet normal -1 0 0
    outer loop
      vertex 0 16.4 6.84999
      vertex 0 15.5549 11.1956
      vertex 0 16.0063 11.6937
    endloop
  endfacet
  facet normal -1 0 0
    outer loop
      vertex 0 14 6.84999
      vertex 0 16.4214 6.41382
      vertex 0 16.4855 5.98184
    endloop
  endfacet
  facet normal -1 0 0
    outer loop
      vertex 0 16.4 6.84999
      vertex 0 15.1544 10.6557
      vertex 0 15.5549 11.1956
    endloop
  endfacet
  facet normal -1 0 0
    outer loop
      vertex 0 14 6.84999
      vertex 0 16.4855 5.98184
      vertex 0 16.5916 5.55823
    endloop
  endfacet
  facet normal -1 0 0
    outer loop
      vertex 0 16.4 6.84999
      vertex 0 14.8088 10.0791
      vertex 0 15.1544 10.6557
    endloop
  endfacet
  facet normal -1 0 0
    outer loop
      vertex 0 14 3.6
      vertex 0 16.5916 5.55823
      vertex 0 16.7387 5.14706
    endloop
  endfacet
  facet normal -1 0 0
    outer loop
      vertex 0 16.4 6.84999
      vertex 0 14.5214 9.47137
      vertex 0 14.8088 10.0791
    endloop
  endfacet
  facet normal -1 0 0
    outer loop
      vertex 0 14 3.6
      vertex 0 16.7387 5.14706
      vertex 0 16.9255 4.75229
    endloop
  endfacet
  facet normal -1 0 0
    outer loop
      vertex 0 16.4 6.84999
      vertex 0 14.295 8.83844
      vertex 0 14.5214 9.47137
    endloop
  endfacet
  facet normal -1 0 0
    outer loop
      vertex 0 14 3.6
      vertex 0 16.9255 4.75229
      vertex 0 17.15 4.37772
    endloop
  endfacet
  facet normal -1 0 0
    outer loop
      vertex 0 16.4 6.84999
      vertex 0 14.1316 8.18636
      vertex 0 14.295 8.83844
    endloop
  endfacet
  facet normal -1 0 0
    outer loop
      vertex 0 14 3.6
      vertex 0 17.15 4.37772
      vertex 0 17.4101 4.02695
    endloop
  endfacet
  facet normal -1 0 0
    outer loop
      vertex 0 16.4 6.84999
      vertex 0 14.033 7.52141
      vertex 0 14.1316 8.18636
    endloop
  endfacet
  facet normal -1 0 0
    outer loop
      vertex 0 14 3.6
      vertex 0 17.4101 4.02695
      vertex 0 17.7034 3.70337
    endloop
  endfacet
  facet normal -1 0 0
    outer loop
      vertex 0 14 3.6
      vertex 0 17.7034 3.70337
      vertex 0 17.8174 3.6
    endloop
  endfacet
  facet normal -1 -0 0
    outer loop
      vertex 0 16.5916 5.55823
      vertex 0 14 3.6
      vertex 0 14 6.84999
    endloop
  endfacet
  facet normal -1 0 0
    outer loop
      vertex 0 16.4 6.84999
      vertex 0 14 6.84999
      vertex 0 14.033 7.52141
    endloop
  endfacet
  facet normal -1 0 0
    outer loop
      vertex 0 24.2383 9.72998
      vertex 0 26.8912 10.0791
      vertex 0 27.0563 9.72998
    endloop
  endfacet
  facet normal -1 -0 0
    outer loop
      vertex 0 26.8912 10.0791
      vertex 0 24.2383 9.72998
      vertex 0 26.5456 10.6557
    endloop
  endfacet
  facet normal -1 -0 0
    outer loop
      vertex 0 26.5456 10.6557
      vertex 0 24.2383 9.72998
      vertex 0 26.1451 11.1956
    endloop
  endfacet
  facet normal -1 -0 0
    outer loop
      vertex 0 26.1451 11.1956
      vertex 0 24.2383 9.72998
      vertex 0 25.6937 11.6937
    endloop
  endfacet
  facet normal -1 0 0
    outer loop
      vertex 0 23.9966 9.99661
      vertex 0 25.6937 11.6937
      vertex 0 24.2383 9.72998
    endloop
  endfacet
  facet normal -1 -0 0
    outer loop
      vertex 0 25.6937 11.6937
      vertex 0 23.9966 9.99661
      vertex 0 25.1956 12.1451
    endloop
  endfacet
  facet normal -1 -0 0
    outer loop
      vertex 0 25.1956 12.1451
      vertex 0 23.9966 9.99661
      vertex 0 24.6556 12.5456
    endloop
  endfacet
  facet normal -1 -0 0
    outer loop
      vertex 0 24.6556 12.5456
      vertex 0 23.9966 9.99661
      vertex 0 24.0791 12.8912
    endloop
  endfacet
  facet normal -1 0 0
    outer loop
      vertex 0 23.9966 9.99661
      vertex 0 23.4714 13.1786
      vertex 0 24.0791 12.8912
    endloop
  endfacet
  facet normal -1 0 0
    outer loop
      vertex 0 21.4932 12.5
      vertex 0 23.4714 13.1786
      vertex 0 23.9966 9.99661
    endloop
  endfacet
  facet normal -1 -0 0
    outer loop
      vertex 0 23.4714 13.1786
      vertex 0 21.4932 12.5
      vertex 0 22.8384 13.405
    endloop
  endfacet
  facet normal -1 -0 0
    outer loop
      vertex 0 22.8384 13.405
      vertex 0 21.4932 12.5
      vertex 0 22.1864 13.5684
    endloop
  endfacet
  facet normal -1 -0 0
    outer loop
      vertex 0 22.1864 13.5684
      vertex 0 21.4932 12.5
      vertex 0 21.5214 13.667
    endloop
  endfacet
  facet normal -1 0 0
    outer loop
      vertex 0 21.4932 12.5
      vertex 0 20.85 13.7
      vertex 0 21.5214 13.667
    endloop
  endfacet
  facet normal -1 0 0
    outer loop
      vertex 0 20.2068 12.5
      vertex 0 20.85 13.7
      vertex 0 21.4932 12.5
    endloop
  endfacet
  facet normal -1 0 0
    outer loop
      vertex 0 20.2068 12.5
      vertex 0 20.1786 13.667
      vertex 0 20.85 13.7
    endloop
  endfacet
  facet normal -1 0 0
    outer loop
      vertex 0 20.2068 12.5
      vertex 0 19.5136 13.5684
      vertex 0 20.1786 13.667
    endloop
  endfacet
  facet normal -1 0 0
    outer loop
      vertex 0 20.2068 12.5
      vertex 0 18.8616 13.405
      vertex 0 19.5136 13.5684
    endloop
  endfacet
  facet normal -1 0 0
    outer loop
      vertex 0 20.2068 12.5
      vertex 0 18.2286 13.1786
      vertex 0 18.8616 13.405
    endloop
  endfacet
  facet normal -1 0 0
    outer loop
      vertex 0 17.7034 9.99661
      vertex 0 18.2286 13.1786
      vertex 0 20.2068 12.5
    endloop
  endfacet
  facet normal -1 0 0
    outer loop
      vertex 0 17.7034 9.99661
      vertex 0 17.6209 12.8912
      vertex 0 18.2286 13.1786
    endloop
  endfacet
  facet normal -1 0 0
    outer loop
      vertex 0 16.0063 11.6937
      vertex 0 17.7034 9.99661
      vertex 0 17.4101 9.67303
    endloop
  endfacet
  facet normal -1 0 0
    outer loop
      vertex 0 16.0063 11.6937
      vertex 0 17.4101 9.67303
      vertex 0 17.15 9.32227
    endloop
  endfacet
  facet normal -1 0 0
    outer loop
      vertex 0 17.7034 9.99661
      vertex 0 17.0444 12.5456
      vertex 0 17.6209 12.8912
    endloop
  endfacet
  facet normal -1 0 0
    outer loop
      vertex 0 16.0063 11.6937
      vertex 0 17.15 9.32227
      vertex 0 16.9255 8.94769
    endloop
  endfacet
  facet normal -1 0 0
    outer loop
      vertex 0 16.0063 11.6937
      vertex 0 16.9255 8.94769
      vertex 0 16.7387 8.55292
    endloop
  endfacet
  facet normal -1 0 0
    outer loop
      vertex 0 16.0063 11.6937
      vertex 0 16.7387 8.55292
      vertex 0 16.5916 8.14175
    endloop
  endfacet
  facet normal -1 0 0
    outer loop
      vertex 0 17.7034 9.99661
      vertex 0 16.5044 12.1451
      vertex 0 17.0444 12.5456
    endloop
  endfacet
  facet normal -1 0 0
    outer loop
      vertex 0 16.0063 11.6937
      vertex 0 16.5916 8.14175
      vertex 0 16.4855 7.71814
    endloop
  endfacet
  facet normal -1 0 0
    outer loop
      vertex 0 16.0063 11.6937
      vertex 0 16.4855 7.71814
      vertex 0 16.4214 7.28616
    endloop
  endfacet
  facet normal -1 0 0
    outer loop
      vertex 0 16.0063 11.6937
      vertex 0 16.4214 7.28616
      vertex 0 16.4 6.84999
    endloop
  endfacet
  facet normal -1 0 0
    outer loop
      vertex 0 17.7034 9.99661
      vertex 0 16.0063 11.6937
      vertex 0 16.5044 12.1451
    endloop
  endfacet
  facet normal -1 0 0
    outer loop
      vertex 0 27.7 3.6
      vertex 0 24.2383 3.97
      vertex 0 27.7 3.97
    endloop
  endfacet
  facet normal -1 0 0
    outer loop
      vertex 0 27.7 3.6
      vertex 0 23.9966 3.70337
      vertex 0 24.2383 3.97
    endloop
  endfacet
  facet normal -1 0 -0
    outer loop
      vertex 0 23.9966 3.70337
      vertex 0 27.7 3.6
      vertex 0 23.8826 3.6
    endloop
  endfacet
  facet normal 1 0 0
    outer loop
      vertex 110 24.2383 9.72998
      vertex 110 26.8912 10.0791
      vertex 110 26.5456 10.6557
    endloop
  endfacet
  facet normal 1 0 0
    outer loop
      vertex 110 24.2383 9.72998
      vertex 110 26.5456 10.6557
      vertex 110 26.1451 11.1956
    endloop
  endfacet
  facet normal 1 0 0
    outer loop
      vertex 110 24.2383 9.72998
      vertex 110 26.1451 11.1956
      vertex 110 25.6937 11.6937
    endloop
  endfacet
  facet normal 1 0 0
    outer loop
      vertex 110 23.9966 9.99661
      vertex 110 25.6937 11.6937
      vertex 110 25.1956 12.1451
    endloop
  endfacet
  facet normal 1 0 0
    outer loop
      vertex 110 23.9966 9.99661
      vertex 110 25.1956 12.1451
      vertex 110 24.6556 12.5456
    endloop
  endfacet
  facet normal 1 0 0
    outer loop
      vertex 110 26.8912 10.0791
      vertex 110 24.2383 9.72998
      vertex 110 27.0563 9.72998
    endloop
  endfacet
  facet normal 1 0 0
    outer loop
      vertex 110 23.9966 9.99661
      vertex 110 24.6556 12.5456
      vertex 110 24.0791 12.8912
    endloop
  endfacet
  facet normal 1 0 0
    outer loop
      vertex 110 25.6937 11.6937
      vertex 110 23.9966 9.99661
      vertex 110 24.2383 9.72998
    endloop
  endfacet
  facet normal 1 0 0
    outer loop
      vertex 110 23.4714 13.1786
      vertex 110 23.9966 9.99661
      vertex 110 24.0791 12.8912
    endloop
  endfacet
  facet normal 1 0 0
    outer loop
      vertex 110 21.4932 12.5
      vertex 110 23.4714 13.1786
      vertex 110 22.8384 13.405
    endloop
  endfacet
  facet normal 1 0 0
    outer loop
      vertex 110 21.4932 12.5
      vertex 110 22.8384 13.405
      vertex 110 22.1864 13.5684
    endloop
  endfacet
  facet normal 1 0 0
    outer loop
      vertex 110 21.4932 12.5
      vertex 110 22.1864 13.5684
      vertex 110 21.5214 13.667
    endloop
  endfacet
  facet normal 1 0 0
    outer loop
      vertex 110 23.4714 13.1786
      vertex 110 21.4932 12.5
      vertex 110 23.9966 9.99661
    endloop
  endfacet
  facet normal 1 0 0
    outer loop
      vertex 110 20.85 13.7
      vertex 110 21.4932 12.5
      vertex 110 21.5214 13.667
    endloop
  endfacet
  facet normal 1 0 0
    outer loop
      vertex 110 20.85 13.7
      vertex 110 20.2068 12.5
      vertex 110 21.4932 12.5
    endloop
  endfacet
  facet normal 1 -0 0
    outer loop
      vertex 110 20.1786 13.667
      vertex 110 20.2068 12.5
      vertex 110 20.85 13.7
    endloop
  endfacet
  facet normal 1 -0 0
    outer loop
      vertex 110 19.5136 13.5684
      vertex 110 20.2068 12.5
      vertex 110 20.1786 13.667
    endloop
  endfacet
  facet normal 1 -0 0
    outer loop
      vertex 110 18.8616 13.405
      vertex 110 20.2068 12.5
      vertex 110 19.5136 13.5684
    endloop
  endfacet
  facet normal 1 -0 0
    outer loop
      vertex 110 18.2286 13.1786
      vertex 110 20.2068 12.5
      vertex 110 18.8616 13.405
    endloop
  endfacet
  facet normal 1 0 0
    outer loop
      vertex 110 18.2286 13.1786
      vertex 110 17.7034 9.99661
      vertex 110 20.2068 12.5
    endloop
  endfacet
  facet normal 1 -0 0
    outer loop
      vertex 110 17.6209 12.8912
      vertex 110 17.7034 9.99661
      vertex 110 18.2286 13.1786
    endloop
  endfacet
  facet normal 1 -0 0
    outer loop
      vertex 110 17.0444 12.5456
      vertex 110 17.7034 9.99661
      vertex 110 17.6209 12.8912
    endloop
  endfacet
  facet normal 1 -0 0
    outer loop
      vertex 110 16.5044 12.1451
      vertex 110 17.7034 9.99661
      vertex 110 17.0444 12.5456
    endloop
  endfacet
  facet normal 1 -0 0
    outer loop
      vertex 110 16.0063 11.6937
      vertex 110 17.7034 9.99661
      vertex 110 16.5044 12.1451
    endloop
  endfacet
  facet normal 1 0 0
    outer loop
      vertex 110 17.7034 9.99661
      vertex 110 16.0063 11.6937
      vertex 110 17.4101 9.67303
    endloop
  endfacet
  facet normal 1 -0 0
    outer loop
      vertex 110 15.5549 11.1956
      vertex 110 17.4101 9.67303
      vertex 110 16.0063 11.6937
    endloop
  endfacet
  facet normal 1 0 0
    outer loop
      vertex 110 17.4101 9.67303
      vertex 110 15.5549 11.1956
      vertex 110 17.15 9.32227
    endloop
  endfacet
  facet normal 1 -0 0
    outer loop
      vertex 110 15.1544 10.6557
      vertex 110 17.15 9.32227
      vertex 110 15.5549 11.1956
    endloop
  endfacet
  facet normal 1 0 0
    outer loop
      vertex 110 17.15 9.32227
      vertex 110 15.1544 10.6557
      vertex 110 16.9255 8.94769
    endloop
  endfacet
  facet normal 1 -0 0
    outer loop
      vertex 110 14.8088 10.0791
      vertex 110 16.9255 8.94769
      vertex 110 15.1544 10.6557
    endloop
  endfacet
  facet normal 1 0 0
    outer loop
      vertex 110 16.9255 8.94769
      vertex 110 14.8088 10.0791
      vertex 110 16.7387 8.55292
    endloop
  endfacet
  facet normal 1 -0 0
    outer loop
      vertex 110 14.5214 9.47137
      vertex 110 16.7387 8.55292
      vertex 110 14.8088 10.0791
    endloop
  endfacet
  facet normal 1 0 0
    outer loop
      vertex 110 23.9966 3.70337
      vertex 110 27.7 3.97
      vertex 110 24.2383 3.97
    endloop
  endfacet
  facet normal 1 0 0
    outer loop
      vertex 110 27.7 3.97
      vertex 110 23.9966 3.70337
      vertex 110 27.7 0
    endloop
  endfacet
  facet normal 1 -0 0
    outer loop
      vertex 110 23.673 3.4101
      vertex 110 27.7 0
      vertex 110 23.9966 3.70337
    endloop
  endfacet
  facet normal 1 -0 0
    outer loop
      vertex 110 23.3223 3.14996
      vertex 110 27.7 0
      vertex 110 23.673 3.4101
    endloop
  endfacet
  facet normal 1 -0 0
    outer loop
      vertex 110 22.9477 2.92545
      vertex 110 27.7 0
      vertex 110 23.3223 3.14996
    endloop
  endfacet
  facet normal 1 -0 0
    outer loop
      vertex 110 22.5529 2.73874
      vertex 110 27.7 0
      vertex 110 22.9477 2.92545
    endloop
  endfacet
  facet normal 1 -0 0
    outer loop
      vertex 110 22.1418 2.59161
      vertex 110 27.7 0
      vertex 110 22.5529 2.73874
    endloop
  endfacet
  facet normal 1 -0 0
    outer loop
      vertex 110 21.7181 2.4855
      vertex 110 27.7 0
      vertex 110 22.1418 2.59161
    endloop
  endfacet
  facet normal 1 -0 0
    outer loop
      vertex 110 21.2862 2.42143
      vertex 110 27.7 0
      vertex 110 21.7181 2.4855
    endloop
  endfacet
  facet normal 1 -0 0
    outer loop
      vertex 110 20.85 2.39999
      vertex 110 27.7 0
      vertex 110 21.2862 2.42143
    endloop
  endfacet
  facet normal 1 0 0
    outer loop
      vertex 110 14 0
      vertex 110 20.85 2.39999
      vertex 110 20.4138 2.42143
    endloop
  endfacet
  facet normal 1 0 0
    outer loop
      vertex 110 14 0
      vertex 110 20.4138 2.42143
      vertex 110 19.9819 2.4855
    endloop
  endfacet
  facet normal 1 0 0
    outer loop
      vertex 110 14 0
      vertex 110 19.9819 2.4855
      vertex 110 19.5582 2.59161
    endloop
  endfacet
  facet normal 1 0 0
    outer loop
      vertex 110 16.7387 8.55292
      vertex 110 14.5214 9.47137
      vertex 110 16.5916 8.14175
    endloop
  endfacet
  facet normal 1 -0 0
    outer loop
      vertex 110 14.295 8.83844
      vertex 110 16.5916 8.14175
      vertex 110 14.5214 9.47137
    endloop
  endfacet
  facet normal 1 0 0
    outer loop
      vertex 110 16.5916 8.14175
      vertex 110 14.295 8.83844
      vertex 110 16.4855 7.71814
    endloop
  endfacet
  facet normal 1 -0 0
    outer loop
      vertex 110 14.1316 8.18636
      vertex 110 16.4855 7.71814
      vertex 110 14.295 8.83844
    endloop
  endfacet
  facet normal 1 0 0
    outer loop
      vertex 110 16.4855 7.71814
      vertex 110 14.1316 8.18636
      vertex 110 16.4214 7.28616
    endloop
  endfacet
  facet normal 1 -0 0
    outer loop
      vertex 110 14.033 7.52141
      vertex 110 16.4214 7.28616
      vertex 110 14.1316 8.18636
    endloop
  endfacet
  facet normal 1 0 0
    outer loop
      vertex 110 16.4214 7.28616
      vertex 110 14.033 7.52141
      vertex 110 16.4 6.84999
    endloop
  endfacet
  facet normal 1 0 0
    outer loop
      vertex 110 14 6.84999
      vertex 110 16.4 6.84999
      vertex 110 14.033 7.52141
    endloop
  endfacet
  facet normal 1 0 0
    outer loop
      vertex 110 16.4 6.84999
      vertex 110 14 6.84999
      vertex 110 16.4214 6.41382
    endloop
  endfacet
  facet normal 1 0 0
    outer loop
      vertex 110 16.4214 6.41382
      vertex 110 14 6.84999
      vertex 110 16.4855 5.98184
    endloop
  endfacet
  facet normal 1 0 0
    outer loop
      vertex 110 16.4855 5.98184
      vertex 110 14 6.84999
      vertex 110 16.5916 5.55823
    endloop
  endfacet
  facet normal 1 0 0
    outer loop
      vertex 110 16.5916 5.55823
      vertex 110 14 6.84999
      vertex 110 16.7387 5.14706
    endloop
  endfacet
  facet normal 1 0 0
    outer loop
      vertex 110 16.7387 5.14706
      vertex 110 14 6.84999
      vertex 110 16.9255 4.75229
    endloop
  endfacet
  facet normal 1 0 0
    outer loop
      vertex 110 14 0
      vertex 110 16.9255 4.75229
      vertex 110 14 6.84999
    endloop
  endfacet
  facet normal 1 0 0
    outer loop
      vertex 110 16.9255 4.75229
      vertex 110 14 0
      vertex 110 17.15 4.37772
    endloop
  endfacet
  facet normal 1 0 0
    outer loop
      vertex 110 17.15 4.37772
      vertex 110 14 0
      vertex 110 17.4101 4.02695
    endloop
  endfacet
  facet normal 1 0 0
    outer loop
      vertex 110 17.4101 4.02695
      vertex 110 14 0
      vertex 110 17.7034 3.70337
    endloop
  endfacet
  facet normal 1 0 0
    outer loop
      vertex 110 20.85 2.39999
      vertex 110 14 0
      vertex 110 27.7 0
    endloop
  endfacet
  facet normal 1 0 0
    outer loop
      vertex 110 19.1471 2.73874
      vertex 110 14 0
      vertex 110 19.5582 2.59161
    endloop
  endfacet
  facet normal 1 0 0
    outer loop
      vertex 110 18.7523 2.92545
      vertex 110 14 0
      vertex 110 19.1471 2.73874
    endloop
  endfacet
  facet normal 1 0 0
    outer loop
      vertex 110 18.3777 3.14996
      vertex 110 14 0
      vertex 110 18.7523 2.92545
    endloop
  endfacet
  facet normal 1 0 0
    outer loop
      vertex 110 18.027 3.4101
      vertex 110 14 0
      vertex 110 18.3777 3.14996
    endloop
  endfacet
  facet normal 1 0 0
    outer loop
      vertex 110 17.7034 3.70337
      vertex 110 14 0
      vertex 110 18.027 3.4101
    endloop
  endfacet
  facet normal -0 0 1
    outer loop
      vertex 0 27.7 3.97
      vertex 110 24.2383 3.97
      vertex 110 27.7 3.97
    endloop
  endfacet
  facet normal 0 0 1
    outer loop
      vertex 110 24.2383 3.97
      vertex 0 27.7 3.97
      vertex 0 24.2383 3.97
    endloop
  endfacet
  facet normal 0 -0.740895 0.671621
    outer loop
      vertex 0 23.9966 3.70337
      vertex 110 24.2383 3.97
      vertex 0 24.2383 3.97
    endloop
  endfacet
  facet normal 0 -0.740895 0.671621
    outer loop
      vertex 110 24.2383 3.97
      vertex 0 23.9966 3.70337
      vertex 110 23.9966 3.70337
    endloop
  endfacet
  facet normal -3.72922e-07 -0.671529 0.740978
    outer loop
      vertex 110 23.9966 3.70337
      vertex 1 23.8826 3.6
      vertex 110 23.673 3.4101
    endloop
  endfacet
  facet normal 0 -0.671725 0.740801
    outer loop
      vertex 0 23.9966 3.70337
      vertex 1 23.8826 3.6
      vertex 110 23.9966 3.70337
    endloop
  endfacet
  facet normal 0 -0.671725 0.740801
    outer loop
      vertex 1 23.8826 3.6
      vertex 0 23.9966 3.70337
      vertex 0 23.8826 3.6
    endloop
  endfacet
  facet normal 0 -0.671422 0.741075
    outer loop
      vertex 110 23.673 3.4101
      vertex 1 23.8826 3.6
      vertex 1 23.673 3.4101
    endloop
  endfacet
  facet normal 0 -0.595763 0.80316
    outer loop
      vertex 1 23.673 3.4101
      vertex 110 23.3223 3.14996
      vertex 110 23.673 3.4101
    endloop
  endfacet
  facet normal 0 -0.595763 0.80316
    outer loop
      vertex 110 23.3223 3.14996
      vertex 1 23.673 3.4101
      vertex 1 23.3223 3.14996
    endloop
  endfacet
  facet normal 0 -0.514075 0.857745
    outer loop
      vertex 1 23.3223 3.14996
      vertex 110 22.9477 2.92545
      vertex 110 23.3223 3.14996
    endloop
  endfacet
  facet normal 0 -0.514075 0.857745
    outer loop
      vertex 110 22.9477 2.92545
      vertex 1 23.3223 3.14996
      vertex 1 22.9477 2.92545
    endloop
  endfacet
  facet normal 0 -0.427524 0.904004
    outer loop
      vertex 1 22.9477 2.92545
      vertex 110 22.5529 2.73874
      vertex 110 22.9477 2.92545
    endloop
  endfacet
  facet normal 0 -0.427524 0.904004
    outer loop
      vertex 110 22.5529 2.73874
      vertex 1 22.9477 2.92545
      vertex 1 22.5529 2.73874
    endloop
  endfacet
  facet normal 0 -0.336963 0.941518
    outer loop
      vertex 1 22.5529 2.73874
      vertex 110 22.1418 2.59161
      vertex 110 22.5529 2.73874
    endloop
  endfacet
  facet normal 0 -0.336963 0.941518
    outer loop
      vertex 110 22.1418 2.59161
      vertex 1 22.5529 2.73874
      vertex 1 22.1418 2.59161
    endloop
  endfacet
  facet normal 0 -0.242934 0.970043
    outer loop
      vertex 1 22.1418 2.59161
      vertex 110 21.7181 2.4855
      vertex 110 22.1418 2.59161
    endloop
  endfacet
  facet normal 0 -0.242934 0.970043
    outer loop
      vertex 110 21.7181 2.4855
      vertex 1 22.1418 2.59161
      vertex 1 21.7181 2.4855
    endloop
  endfacet
  facet normal 0 -0.146739 0.989175
    outer loop
      vertex 1 21.7181 2.4855
      vertex 110 21.2862 2.42143
      vertex 110 21.7181 2.4855
    endloop
  endfacet
  facet normal 0 -0.146739 0.989175
    outer loop
      vertex 110 21.2862 2.42143
      vertex 1 21.7181 2.4855
      vertex 1 21.2862 2.42143
    endloop
  endfacet
  facet normal 0 -0.0490925 0.998794
    outer loop
      vertex 1 21.2862 2.42143
      vertex 110 20.85 2.39999
      vertex 110 21.2862 2.42143
    endloop
  endfacet
  facet normal 0 -0.0490925 0.998794
    outer loop
      vertex 110 20.85 2.39999
      vertex 1 21.2862 2.42143
      vertex 1 20.85 2.39999
    endloop
  endfacet
  facet normal -0 0.0490925 0.998794
    outer loop
      vertex 1 20.85 2.39999
      vertex 110 20.4138 2.42143
      vertex 110 20.85 2.39999
    endloop
  endfacet
  facet normal 0 0.0490925 0.998794
    outer loop
      vertex 110 20.4138 2.42143
      vertex 1 20.85 2.39999
      vertex 1 20.4138 2.42143
    endloop
  endfacet
  facet normal -0 0.146739 0.989175
    outer loop
      vertex 1 20.4138 2.42143
      vertex 110 19.9819 2.4855
      vertex 110 20.4138 2.42143
    endloop
  endfacet
  facet normal 0 0.146739 0.989175
    outer loop
      vertex 110 19.9819 2.4855
      vertex 1 20.4138 2.42143
      vertex 1 19.9819 2.4855
    endloop
  endfacet
  facet normal -0 0.242934 0.970043
    outer loop
      vertex 1 19.9819 2.4855
      vertex 110 19.5582 2.59161
      vertex 110 19.9819 2.4855
    endloop
  endfacet
  facet normal 0 0.242934 0.970043
    outer loop
      vertex 110 19.5582 2.59161
      vertex 1 19.9819 2.4855
      vertex 1 19.5582 2.59161
    endloop
  endfacet
  facet normal -0 0.336963 0.941518
    outer loop
      vertex 1 19.5582 2.59161
      vertex 110 19.1471 2.73874
      vertex 110 19.5582 2.59161
    endloop
  endfacet
  facet normal 0 0.336963 0.941518
    outer loop
      vertex 110 19.1471 2.73874
      vertex 1 19.5582 2.59161
      vertex 1 19.1471 2.73874
    endloop
  endfacet
  facet normal -0 0.427524 0.904004
    outer loop
      vertex 1 19.1471 2.73874
      vertex 110 18.7523 2.92545
      vertex 110 19.1471 2.73874
    endloop
  endfacet
  facet normal 0 0.427524 0.904004
    outer loop
      vertex 110 18.7523 2.92545
      vertex 1 19.1471 2.73874
      vertex 1 18.7523 2.92545
    endloop
  endfacet
  facet normal -0 0.514075 0.857745
    outer loop
      vertex 1 18.7523 2.92545
      vertex 110 18.3777 3.14996
      vertex 110 18.7523 2.92545
    endloop
  endfacet
  facet normal 0 0.514075 0.857745
    outer loop
      vertex 110 18.3777 3.14996
      vertex 1 18.7523 2.92545
      vertex 1 18.3777 3.14996
    endloop
  endfacet
  facet normal -0 0.595763 0.80316
    outer loop
      vertex 1 18.3777 3.14996
      vertex 110 18.027 3.4101
      vertex 110 18.3777 3.14996
    endloop
  endfacet
  facet normal 0 0.595763 0.80316
    outer loop
      vertex 110 18.027 3.4101
      vertex 1 18.3777 3.14996
      vertex 1 18.027 3.4101
    endloop
  endfacet
  facet normal -0 0.671529 0.740978
    outer loop
      vertex 1 18.027 3.4101
      vertex 110 17.7034 3.70337
      vertex 110 18.027 3.4101
    endloop
  endfacet
  facet normal -5.75826e-07 0.671422 0.741075
    outer loop
      vertex 1 17.8174 3.6
      vertex 110 17.7034 3.70337
      vertex 1 18.027 3.4101
    endloop
  endfacet
  facet normal 0 0.671725 0.740801
    outer loop
      vertex 0 17.7034 3.70337
      vertex 1 17.8174 3.6
      vertex 0 17.8174 3.6
    endloop
  endfacet
  facet normal 0 0.671725 0.740801
    outer loop
      vertex 1 17.8174 3.6
      vertex 0 17.7034 3.70337
      vertex 110 17.7034 3.70337
    endloop
  endfacet
  facet normal 0 0.740924 0.671589
    outer loop
      vertex 110 17.7034 3.70337
      vertex 0 17.4101 4.02695
      vertex 110 17.4101 4.02695
    endloop
  endfacet
  facet normal 0 0.740924 0.671589
    outer loop
      vertex 0 17.4101 4.02695
      vertex 110 17.7034 3.70337
      vertex 0 17.7034 3.70337
    endloop
  endfacet
  facet normal 0 0.803261 0.595627
    outer loop
      vertex 110 17.4101 4.02695
      vertex 0 17.15 4.37772
      vertex 110 17.15 4.37772
    endloop
  endfacet
  facet normal 0 0.803261 0.595627
    outer loop
      vertex 0 17.15 4.37772
      vertex 110 17.4101 4.02695
      vertex 0 17.4101 4.02695
    endloop
  endfacet
  facet normal 0 0.857737 0.514088
    outer loop
      vertex 110 17.15 4.37772
      vertex 0 16.9255 4.75229
      vertex 110 16.9255 4.75229
    endloop
  endfacet
  facet normal 0 0.857737 0.514088
    outer loop
      vertex 0 16.9255 4.75229
      vertex 110 17.15 4.37772
      vertex 0 17.15 4.37772
    endloop
  endfacet
  facet normal 0 0.903912 0.427719
    outer loop
      vertex 110 16.9255 4.75229
      vertex 0 16.7387 5.14706
      vertex 110 16.7387 5.14706
    endloop
  endfacet
  facet normal 0 0.903912 0.427719
    outer loop
      vertex 0 16.7387 5.14706
      vertex 110 16.9255 4.75229
      vertex 0 16.9255 4.75229
    endloop
  endfacet
  facet normal 0 0.941558 0.336851
    outer loop
      vertex 110 16.7387 5.14706
      vertex 0 16.5916 5.55823
      vertex 110 16.5916 5.55823
    endloop
  endfacet
  facet normal 0 0.941558 0.336851
    outer loop
      vertex 0 16.5916 5.55823
      vertex 110 16.7387 5.14706
      vertex 0 16.7387 5.14706
    endloop
  endfacet
  facet normal 0 0.970036 0.242961
    outer loop
      vertex 110 16.5916 5.55823
      vertex 0 16.4855 5.98184
      vertex 110 16.4855 5.98184
    endloop
  endfacet
  facet normal 0 0.970036 0.242961
    outer loop
      vertex 0 16.4855 5.98184
      vertex 110 16.5916 5.55823
      vertex 0 16.5916 5.55823
    endloop
  endfacet
  facet normal 0 0.989169 0.146779
    outer loop
      vertex 110 16.4855 5.98184
      vertex 0 16.4214 6.41382
      vertex 110 16.4214 6.41382
    endloop
  endfacet
  facet normal 0 0.989169 0.146779
    outer loop
      vertex 0 16.4214 6.41382
      vertex 110 16.4855 5.98184
      vertex 0 16.4855 5.98184
    endloop
  endfacet
  facet normal 0 0.998799 0.0490045
    outer loop
      vertex 110 16.4214 6.41382
      vertex 0 16.4 6.84999
      vertex 110 16.4 6.84999
    endloop
  endfacet
  facet normal 0 0.998799 0.0490045
    outer loop
      vertex 0 16.4 6.84999
      vertex 110 16.4214 6.41382
      vertex 0 16.4214 6.41382
    endloop
  endfacet
  facet normal 0 0.998799 -0.0490045
    outer loop
      vertex 110 16.4 6.84999
      vertex 0 16.4214 7.28616
      vertex 110 16.4214 7.28616
    endloop
  endfacet
  facet normal 0 0.998799 -0.0490045
    outer loop
      vertex 0 16.4214 7.28616
      vertex 110 16.4 6.84999
      vertex 0 16.4 6.84999
    endloop
  endfacet
  facet normal 0 0.989169 -0.146779
    outer loop
      vertex 110 16.4214 7.28616
      vertex 0 16.4855 7.71814
      vertex 110 16.4855 7.71814
    endloop
  endfacet
  facet normal 0 0.989169 -0.146779
    outer loop
      vertex 0 16.4855 7.71814
      vertex 110 16.4214 7.28616
      vertex 0 16.4214 7.28616
    endloop
  endfacet
  facet normal 0 0.970036 -0.242961
    outer loop
      vertex 110 16.4855 7.71814
      vertex 0 16.5916 8.14175
      vertex 110 16.5916 8.14175
    endloop
  endfacet
  facet normal 0 0.970036 -0.242961
    outer loop
      vertex 0 16.5916 8.14175
      vertex 110 16.4855 7.71814
      vertex 0 16.4855 7.71814
    endloop
  endfacet
  facet normal 0 0.941558 -0.336851
    outer loop
      vertex 110 16.5916 8.14175
      vertex 0 16.7387 8.55292
      vertex 110 16.7387 8.55292
    endloop
  endfacet
  facet normal 0 0.941558 -0.336851
    outer loop
      vertex 0 16.7387 8.55292
      vertex 110 16.5916 8.14175
      vertex 0 16.5916 8.14175
    endloop
  endfacet
  facet normal 0 0.903912 -0.427719
    outer loop
      vertex 110 16.7387 8.55292
      vertex 0 16.9255 8.94769
      vertex 110 16.9255 8.94769
    endloop
  endfacet
  facet normal 0 0.903912 -0.427719
    outer loop
      vertex 0 16.9255 8.94769
      vertex 110 16.7387 8.55292
      vertex 0 16.7387 8.55292
    endloop
  endfacet
  facet normal 0 0.857743 -0.514078
    outer loop
      vertex 110 16.9255 8.94769
      vertex 0 17.15 9.32227
      vertex 110 17.15 9.32227
    endloop
  endfacet
  facet normal 0 0.857743 -0.514078
    outer loop
      vertex 0 17.15 9.32227
      vertex 110 16.9255 8.94769
      vertex 0 16.9255 8.94769
    endloop
  endfacet
  facet normal 0 0.803253 -0.595638
    outer loop
      vertex 110 17.15 9.32227
      vertex 0 17.4101 9.67303
      vertex 110 17.4101 9.67303
    endloop
  endfacet
  facet normal 0 0.803253 -0.595638
    outer loop
      vertex 0 17.4101 9.67303
      vertex 110 17.15 9.32227
      vertex 0 17.15 9.32227
    endloop
  endfacet
  facet normal 0 0.740924 -0.671589
    outer loop
      vertex 110 17.4101 9.67303
      vertex 0 17.7034 9.99661
      vertex 110 17.7034 9.99661
    endloop
  endfacet
  facet normal 0 0.740924 -0.671589
    outer loop
      vertex 0 17.7034 9.99661
      vertex 110 17.4101 9.67303
      vertex 0 17.4101 9.67303
    endloop
  endfacet
  facet normal 0 0.707105 -0.707108
    outer loop
      vertex 110 17.7034 9.99661
      vertex 0 20.2068 12.5
      vertex 110 20.2068 12.5
    endloop
  endfacet
  facet normal 0 0.707105 -0.707108
    outer loop
      vertex 0 20.2068 12.5
      vertex 110 17.7034 9.99661
      vertex 0 17.7034 9.99661
    endloop
  endfacet
  facet normal 0 0 -1
    outer loop
      vertex 0 20.2068 12.5
      vertex 110 21.4932 12.5
      vertex 110 20.2068 12.5
    endloop
  endfacet
  facet normal -0 0 -1
    outer loop
      vertex 110 21.4932 12.5
      vertex 0 20.2068 12.5
      vertex 0 21.4932 12.5
    endloop
  endfacet
  facet normal 0 -0.707105 -0.707108
    outer loop
      vertex 0 23.9966 9.99661
      vertex 110 21.4932 12.5
      vertex 0 21.4932 12.5
    endloop
  endfacet
  facet normal 0 -0.707105 -0.707108
    outer loop
      vertex 110 21.4932 12.5
      vertex 0 23.9966 9.99661
      vertex 110 23.9966 9.99661
    endloop
  endfacet
  facet normal 0 -0.740895 -0.671621
    outer loop
      vertex 0 24.2383 9.72998
      vertex 110 23.9966 9.99661
      vertex 0 23.9966 9.99661
    endloop
  endfacet
  facet normal 0 -0.740895 -0.671621
    outer loop
      vertex 110 23.9966 9.99661
      vertex 0 24.2383 9.72998
      vertex 110 24.2383 9.72998
    endloop
  endfacet
  facet normal 0 0 -1
    outer loop
      vertex 0 24.2383 9.72998
      vertex 110 27.0563 9.72998
      vertex 110 24.2383 9.72998
    endloop
  endfacet
  facet normal -0 0 -1
    outer loop
      vertex 110 27.0563 9.72998
      vertex 0 24.2383 9.72998
      vertex 0 27.0563 9.72998
    endloop
  endfacet
  facet normal 0 0.904011 0.42751
    outer loop
      vertex 110 27.0563 9.72998
      vertex 0 26.8912 10.0791
      vertex 110 26.8912 10.0791
    endloop
  endfacet
  facet normal 0 0.904011 0.42751
    outer loop
      vertex 0 26.8912 10.0791
      vertex 110 27.0563 9.72998
      vertex 0 27.0563 9.72998
    endloop
  endfacet
  facet normal 0 0.857729 0.514102
    outer loop
      vertex 110 26.8912 10.0791
      vertex 0 26.5456 10.6557
      vertex 110 26.5456 10.6557
    endloop
  endfacet
  facet normal 0 0.857729 0.514102
    outer loop
      vertex 0 26.5456 10.6557
      vertex 110 26.8912 10.0791
      vertex 0 26.8912 10.0791
    endloop
  endfacet
  facet normal 0 0.803149 0.595779
    outer loop
      vertex 110 26.5456 10.6557
      vertex 0 26.1451 11.1956
      vertex 110 26.1451 11.1956
    endloop
  endfacet
  facet normal 0 0.803149 0.595779
    outer loop
      vertex 0 26.1451 11.1956
      vertex 110 26.5456 10.6557
      vertex 0 26.5456 10.6557
    endloop
  endfacet
  facet normal 0 0.740989 0.671517
    outer loop
      vertex 110 26.1451 11.1956
      vertex 0 25.6937 11.6937
      vertex 110 25.6937 11.6937
    endloop
  endfacet
  facet normal 0 0.740989 0.671517
    outer loop
      vertex 0 25.6937 11.6937
      vertex 110 26.1451 11.1956
      vertex 0 26.1451 11.1956
    endloop
  endfacet
  facet normal -0 0.671517 0.740989
    outer loop
      vertex 0 25.6937 11.6937
      vertex 110 25.1956 12.1451
      vertex 110 25.6937 11.6937
    endloop
  endfacet
  facet normal 0 0.671517 0.740989
    outer loop
      vertex 110 25.1956 12.1451
      vertex 0 25.6937 11.6937
      vertex 0 25.1956 12.1451
    endloop
  endfacet
  facet normal -0 0.595708 0.803201
    outer loop
      vertex 0 25.1956 12.1451
      vertex 110 24.6556 12.5456
      vertex 110 25.1956 12.1451
    endloop
  endfacet
  facet normal 0 0.595708 0.803201
    outer loop
      vertex 110 24.6556 12.5456
      vertex 0 25.1956 12.1451
      vertex 0 24.6556 12.5456
    endloop
  endfacet
  facet normal -0 0.514168 0.85769
    outer loop
      vertex 0 24.6556 12.5456
      vertex 110 24.0791 12.8912
      vertex 110 24.6556 12.5456
    endloop
  endfacet
  facet normal 0 0.514168 0.85769
    outer loop
      vertex 110 24.0791 12.8912
      vertex 0 24.6556 12.5456
      vertex 0 24.0791 12.8912
    endloop
  endfacet
  facet normal -0 0.42753 0.904001
    outer loop
      vertex 0 24.0791 12.8912
      vertex 110 23.4714 13.1786
      vertex 110 24.0791 12.8912
    endloop
  endfacet
  facet normal 0 0.42753 0.904001
    outer loop
      vertex 110 23.4714 13.1786
      vertex 0 24.0791 12.8912
      vertex 0 23.4714 13.1786
    endloop
  endfacet
  facet normal -0 0.33677 0.941587
    outer loop
      vertex 0 23.4714 13.1786
      vertex 110 22.8384 13.405
      vertex 110 23.4714 13.1786
    endloop
  endfacet
  facet normal 0 0.33677 0.941587
    outer loop
      vertex 110 22.8384 13.405
      vertex 0 23.4714 13.1786
      vertex 0 22.8384 13.405
    endloop
  endfacet
  facet normal -0 0.243096 0.970002
    outer loop
      vertex 0 22.8384 13.405
      vertex 110 22.1864 13.5684
      vertex 110 22.8384 13.405
    endloop
  endfacet
  facet normal 0 0.243096 0.970002
    outer loop
      vertex 110 22.1864 13.5684
      vertex 0 22.8384 13.405
      vertex 0 22.1864 13.5684
    endloop
  endfacet
  facet normal -0 0.146667 0.989186
    outer loop
      vertex 0 22.1864 13.5684
      vertex 110 21.5214 13.667
      vertex 110 22.1864 13.5684
    endloop
  endfacet
  facet normal 0 0.146667 0.989186
    outer loop
      vertex 110 21.5214 13.667
      vertex 0 22.1864 13.5684
      vertex 0 21.5214 13.667
    endloop
  endfacet
  facet normal -0 0.0490918 0.998794
    outer loop
      vertex 0 21.5214 13.667
      vertex 110 20.85 13.7
      vertex 110 21.5214 13.667
    endloop
  endfacet
  facet normal 0 0.0490918 0.998794
    outer loop
      vertex 110 20.85 13.7
      vertex 0 21.5214 13.667
      vertex 0 20.85 13.7
    endloop
  endfacet
  facet normal 0 -0.0490918 0.998794
    outer loop
      vertex 0 20.85 13.7
      vertex 110 20.1786 13.667
      vertex 110 20.85 13.7
    endloop
  endfacet
  facet normal 0 -0.0490918 0.998794
    outer loop
      vertex 110 20.1786 13.667
      vertex 0 20.85 13.7
      vertex 0 20.1786 13.667
    endloop
  endfacet
  facet normal 0 -0.146667 0.989186
    outer loop
      vertex 0 20.1786 13.667
      vertex 110 19.5136 13.5684
      vertex 110 20.1786 13.667
    endloop
  endfacet
  facet normal 0 -0.146667 0.989186
    outer loop
      vertex 110 19.5136 13.5684
      vertex 0 20.1786 13.667
      vertex 0 19.5136 13.5684
    endloop
  endfacet
  facet normal 0 -0.243096 0.970002
    outer loop
      vertex 0 19.5136 13.5684
      vertex 110 18.8616 13.405
      vertex 110 19.5136 13.5684
    endloop
  endfacet
  facet normal 0 -0.243096 0.970002
    outer loop
      vertex 110 18.8616 13.405
      vertex 0 19.5136 13.5684
      vertex 0 18.8616 13.405
    endloop
  endfacet
  facet normal 0 -0.33677 0.941587
    outer loop
      vertex 0 18.8616 13.405
      vertex 110 18.2286 13.1786
      vertex 110 18.8616 13.405
    endloop
  endfacet
  facet normal 0 -0.33677 0.941587
    outer loop
      vertex 110 18.2286 13.1786
      vertex 0 18.8616 13.405
      vertex 0 18.2286 13.1786
    endloop
  endfacet
  facet normal 0 -0.42753 0.904001
    outer loop
      vertex 0 18.2286 13.1786
      vertex 110 17.6209 12.8912
      vertex 110 18.2286 13.1786
    endloop
  endfacet
  facet normal 0 -0.42753 0.904001
    outer loop
      vertex 110 17.6209 12.8912
      vertex 0 18.2286 13.1786
      vertex 0 17.6209 12.8912
    endloop
  endfacet
  facet normal 0 -0.514168 0.85769
    outer loop
      vertex 0 17.6209 12.8912
      vertex 110 17.0444 12.5456
      vertex 110 17.6209 12.8912
    endloop
  endfacet
  facet normal 0 -0.514168 0.85769
    outer loop
      vertex 110 17.0444 12.5456
      vertex 0 17.6209 12.8912
      vertex 0 17.0444 12.5456
    endloop
  endfacet
  facet normal 0 -0.595708 0.803201
    outer loop
      vertex 0 17.0444 12.5456
      vertex 110 16.5044 12.1451
      vertex 110 17.0444 12.5456
    endloop
  endfacet
  facet normal 0 -0.595708 0.803201
    outer loop
      vertex 110 16.5044 12.1451
      vertex 0 17.0444 12.5456
      vertex 0 16.5044 12.1451
    endloop
  endfacet
  facet normal 0 -0.671517 0.740989
    outer loop
      vertex 0 16.5044 12.1451
      vertex 110 16.0063 11.6937
      vertex 110 16.5044 12.1451
    endloop
  endfacet
  facet normal 0 -0.671517 0.740989
    outer loop
      vertex 110 16.0063 11.6937
      vertex 0 16.5044 12.1451
      vertex 0 16.0063 11.6937
    endloop
  endfacet
  facet normal 0 -0.740989 0.671517
    outer loop
      vertex 0 15.5549 11.1956
      vertex 110 16.0063 11.6937
      vertex 0 16.0063 11.6937
    endloop
  endfacet
  facet normal 0 -0.740989 0.671517
    outer loop
      vertex 110 16.0063 11.6937
      vertex 0 15.5549 11.1956
      vertex 110 15.5549 11.1956
    endloop
  endfacet
  facet normal 0 -0.803149 0.595779
    outer loop
      vertex 0 15.1544 10.6557
      vertex 110 15.5549 11.1956
      vertex 0 15.5549 11.1956
    endloop
  endfacet
  facet normal 0 -0.803149 0.595779
    outer loop
      vertex 110 15.5549 11.1956
      vertex 0 15.1544 10.6557
      vertex 110 15.1544 10.6557
    endloop
  endfacet
  facet normal 0 -0.857729 0.514102
    outer loop
      vertex 0 14.8088 10.0791
      vertex 110 15.1544 10.6557
      vertex 0 15.1544 10.6557
    endloop
  endfacet
  facet normal 0 -0.857729 0.514102
    outer loop
      vertex 110 15.1544 10.6557
      vertex 0 14.8088 10.0791
      vertex 110 14.8088 10.0791
    endloop
  endfacet
  facet normal 0 -0.904009 0.427513
    outer loop
      vertex 0 14.5214 9.47137
      vertex 110 14.8088 10.0791
      vertex 0 14.8088 10.0791
    endloop
  endfacet
  facet normal 0 -0.904009 0.427513
    outer loop
      vertex 110 14.8088 10.0791
      vertex 0 14.5214 9.47137
      vertex 110 14.5214 9.47137
    endloop
  endfacet
  facet normal 0 -0.941575 0.336803
    outer loop
      vertex 0 14.295 8.83844
      vertex 110 14.5214 9.47137
      vertex 0 14.5214 9.47137
    endloop
  endfacet
  facet normal 0 -0.941575 0.336803
    outer loop
      vertex 110 14.5214 9.47137
      vertex 0 14.295 8.83844
      vertex 110 14.295 8.83844
    endloop
  endfacet
  facet normal 0 -0.970009 0.243068
    outer loop
      vertex 0 14.1316 8.18636
      vertex 110 14.295 8.83844
      vertex 0 14.295 8.83844
    endloop
  endfacet
  facet normal 0 -0.970009 0.243068
    outer loop
      vertex 110 14.295 8.83844
      vertex 0 14.1316 8.18636
      vertex 110 14.1316 8.18636
    endloop
  endfacet
  facet normal 0 -0.989184 0.146678
    outer loop
      vertex 0 14.033 7.52141
      vertex 110 14.1316 8.18636
      vertex 0 14.1316 8.18636
    endloop
  endfacet
  facet normal 0 -0.989184 0.146678
    outer loop
      vertex 110 14.1316 8.18636
      vertex 0 14.033 7.52141
      vertex 110 14.033 7.52141
    endloop
  endfacet
  facet normal 0 -0.998794 0.0490903
    outer loop
      vertex 0 14 6.84999
      vertex 110 14.033 7.52141
      vertex 0 14.033 7.52141
    endloop
  endfacet
  facet normal 0 -0.998794 0.0490903
    outer loop
      vertex 110 14.033 7.52141
      vertex 0 14 6.84999
      vertex 110 14 6.84999
    endloop
  endfacet
  facet normal 0 -1 0
    outer loop
      vertex 1 14 3.6
      vertex 0 14 6.84999
      vertex 0 14 3.6
    endloop
  endfacet
  facet normal 0 -1 0
    outer loop
      vertex 0 14 6.84999
      vertex 1 14 3.6
      vertex 110 14 6.84999
    endloop
  endfacet
  facet normal 0 -1 0
    outer loop
      vertex 110 14 0
      vertex 1 14 3.6
      vertex 1 14 0
    endloop
  endfacet
  facet normal 0 -1 0
    outer loop
      vertex 1 14 3.6
      vertex 110 14 0
      vertex 110 14 6.84999
    endloop
  endfacet
  facet normal 0 0 -1
    outer loop
      vertex 1 14 0
      vertex -12 14 0
      vertex 1 27.7 0
    endloop
  endfacet
  facet normal 0 0 -1
    outer loop
      vertex -12 27.7 0
      vertex 1 27.7 0
      vertex -12 14 0
    endloop
  endfacet
  facet normal 0 0 -1
    outer loop
      vertex 1 14 0
      vertex 110 27.7 0
      vertex 110 14 0
    endloop
  endfacet
  facet normal -0 0 -1
    outer loop
      vertex 110 27.7 0
      vertex 1 14 0
      vertex 1 27.7 0
    endloop
  endfacet
  facet normal 0 1 0
    outer loop
      vertex 110 27.7 3.97
      vertex 1 27.7 3.6
      vertex 0 27.7 3.97
    endloop
  endfacet
  facet normal 0 1 -0
    outer loop
      vertex 110 27.7 0
      vertex 1 27.7 3.6
      vertex 110 27.7 3.97
    endloop
  endfacet
  facet normal 0 1 0
    outer loop
      vertex 1 27.7 3.6
      vertex 110 27.7 0
      vertex 1 27.7 0
    endloop
  endfacet
  facet normal 0 1 0
    outer loop
      vertex 0 27.7 3.97
      vertex 1 27.7 3.6
      vertex 0 27.7 3.6
    endloop
  endfacet
  facet normal 1 0 0
    outer loop
      vertex 1 23.8826 3.6
      vertex 1 23.3223 3.14996
      vertex 1 23.673 3.4101
    endloop
  endfacet
  facet normal 1 0 0
    outer loop
      vertex 1 23.8826 3.6
      vertex 1 22.9477 2.92545
      vertex 1 23.3223 3.14996
    endloop
  endfacet
  facet normal 1 0 0
    outer loop
      vertex 1 23.8826 3.6
      vertex 1 22.5529 2.73874
      vertex 1 22.9477 2.92545
    endloop
  endfacet
  facet normal 1 0 0
    outer loop
      vertex 1 23.8826 3.6
      vertex 1 22.1418 2.59161
      vertex 1 22.5529 2.73874
    endloop
  endfacet
  facet normal 1 0 0
    outer loop
      vertex 1 23.8826 3.6
      vertex 1 21.7181 2.4855
      vertex 1 22.1418 2.59161
    endloop
  endfacet
  facet normal 1 0 0
    outer loop
      vertex 1 23.8826 3.6
      vertex 1 21.2862 2.42143
      vertex 1 21.7181 2.4855
    endloop
  endfacet
  facet normal 1 0 0
    outer loop
      vertex 1 23.8826 3.6
      vertex 1 20.85 2.39999
      vertex 1 21.2862 2.42143
    endloop
  endfacet
  facet normal 1 0 0
    outer loop
      vertex 1 23.8826 3.6
      vertex 1 20.4138 2.42143
      vertex 1 20.85 2.39999
    endloop
  endfacet
  facet normal 1 0 0
    outer loop
      vertex 1 23.8826 3.6
      vertex 1 19.9819 2.4855
      vertex 1 20.4138 2.42143
    endloop
  endfacet
  facet normal 1 0 0
    outer loop
      vertex 1 23.8826 3.6
      vertex 1 19.5582 2.59161
      vertex 1 19.9819 2.4855
    endloop
  endfacet
  facet normal 1 0 0
    outer loop
      vertex 1 23.8826 3.6
      vertex 1 19.1471 2.73874
      vertex 1 19.5582 2.59161
    endloop
  endfacet
  facet normal 1 0 0
    outer loop
      vertex 1 23.8826 3.6
      vertex 1 18.7523 2.92545
      vertex 1 19.1471 2.73874
    endloop
  endfacet
  facet normal 1 0 0
    outer loop
      vertex 1 23.8826 3.6
      vertex 1 18.3777 3.14996
      vertex 1 18.7523 2.92545
    endloop
  endfacet
  facet normal 1 -0 0
    outer loop
      vertex 1 17.8174 3.6
      vertex 1 18.3777 3.14996
      vertex 1 23.8826 3.6
    endloop
  endfacet
  facet normal 1 0 0
    outer loop
      vertex 1 18.3777 3.14996
      vertex 1 17.8174 3.6
      vertex 1 18.027 3.4101
    endloop
  endfacet
  facet normal -0 0 1
    outer loop
      vertex -12 27.7 3.6
      vertex 0 23.8826 3.6
      vertex 0 27.7 3.6
    endloop
  endfacet
  facet normal 0 0 1
    outer loop
      vertex 0 23.8826 3.6
      vertex -12 27.7 3.6
      vertex 0 17.8174 3.6
    endloop
  endfacet
  facet normal 0 0 1
    outer loop
      vertex -12 14 3.6
      vertex 0 17.8174 3.6
      vertex -12 27.7 3.6
    endloop
  endfacet
  facet normal 0 0 0
    outer loop
      vertex -12 27.7 3.6
      vertex 0 27.7 3.6
      vertex 1 27.7 3.6
    endloop
  endfacet
  facet normal -0 0 1
    outer loop
      vertex 0 23.8826 3.6
      vertex 1 17.8174 3.6
      vertex 1 23.8826 3.6
    endloop
  endfacet
  facet normal 0 0 1
    outer loop
      vertex 1 17.8174 3.6
      vertex 0 23.8826 3.6
      vertex 0 17.8174 3.6
    endloop
  endfacet
  facet normal 0 0 -0
    outer loop
      vertex 0 14 3.6
      vertex -12 14 3.6
      vertex 1 14 3.6
    endloop
  endfacet
  facet normal 0 0 1
    outer loop
      vertex 0 17.8174 3.6
      vertex -12 14 3.6
      vertex 0 14 3.6
    endloop
  endfacet
  facet normal -1 0 0
    outer loop
      vertex -12 14 0
      vertex -12 27.7 3.6
      vertex -12 27.7 0
    endloop
  endfacet
  facet normal -1 -0 0
    outer loop
      vertex -12 27.7 3.6
      vertex -12 14 0
      vertex -12 14 3.6
    endloop
  endfacet
  facet normal 0 1 -0
    outer loop
      vertex 1 27.7 0
      vertex -12 27.7 3.6
      vertex 1 27.7 3.6
    endloop
  endfacet
  facet normal 0 1 0
    outer loop
      vertex -12 27.7 3.6
      vertex 1 27.7 0
      vertex -12 27.7 0
    endloop
  endfacet
  facet normal 0 -1 0
    outer loop
      vertex -12 14 0
      vertex 1 14 3.6
      vertex -12 14 3.6
    endloop
  endfacet
  facet normal 0 -1 -0
    outer loop
      vertex 1 14 3.6
      vertex -12 14 0
      vertex 1 14 0
    endloop
  endfacet
endsolid OpenSCAD_Model
