solid OpenSCAD_Model
  facet normal -1 0 0
    outer loop
      vertex 28.8 4 3
      vertex 28.8 6.8 19
      vertex 28.8 6.8 3
    endloop
  endfacet
  facet normal -1 -0 0
    outer loop
      vertex 28.8 6.8 19
      vertex 28.8 4 3
      vertex 28.8 4 19
    endloop
  endfacet
  facet normal -0 0 1
    outer loop
      vertex 4 6.8 3
      vertex 28.8 4 3
      vertex 28.8 6.8 3
    endloop
  endfacet
  facet normal 0 0 1
    outer loop
      vertex 28.8 4 3
      vertex 4 6.8 3
      vertex 4 4 3
    endloop
  endfacet
  facet normal 1 -0 0
    outer loop
      vertex 4 4 19
      vertex 4 6.8 3
      vertex 4 6.8 19
    endloop
  endfacet
  facet normal 1 0 0
    outer loop
      vertex 4 6.8 3
      vertex 4 4 19
      vertex 4 4 3
    endloop
  endfacet
  facet normal 0 -1 0
    outer loop
      vertex 4 6.8 3
      vertex 28.8 6.8 19
      vertex 4 6.8 19
    endloop
  endfacet
  facet normal 0 -1 -0
    outer loop
      vertex 28.8 6.8 19
      vertex 4 6.8 3
      vertex 28.8 6.8 3
    endloop
  endfacet
  facet normal 0 1 -0
    outer loop
      vertex 28.8 4 3
      vertex 4 4 19
      vertex 28.8 4 19
    endloop
  endfacet
  facet normal 0 1 0
    outer loop
      vertex 4 4 19
      vertex 28.8 4 3
      vertex 4 4 3
    endloop
  endfacet
  facet normal -1 0 0
    outer loop
      vertex 28.8 9.8 3
      vertex 28.8 12.6 19
      vertex 28.8 12.6 3
    endloop
  endfacet
  facet normal -1 -0 0
    outer loop
      vertex 28.8 12.6 19
      vertex 28.8 9.8 3
      vertex 28.8 9.8 19
    endloop
  endfacet
  facet normal -0 0 1
    outer loop
      vertex 4 12.6 3
      vertex 28.8 9.8 3
      vertex 28.8 12.6 3
    endloop
  endfacet
  facet normal 0 0 1
    outer loop
      vertex 28.8 9.8 3
      vertex 4 12.6 3
      vertex 4 9.8 3
    endloop
  endfacet
  facet normal 1 -0 0
    outer loop
      vertex 4 9.8 19
      vertex 4 12.6 3
      vertex 4 12.6 19
    endloop
  endfacet
  facet normal 1 0 0
    outer loop
      vertex 4 12.6 3
      vertex 4 9.8 19
      vertex 4 9.8 3
    endloop
  endfacet
  facet normal 0 -1 0
    outer loop
      vertex 4 12.6 3
      vertex 28.8 12.6 19
      vertex 4 12.6 19
    endloop
  endfacet
  facet normal 0 -1 -0
    outer loop
      vertex 28.8 12.6 19
      vertex 4 12.6 3
      vertex 28.8 12.6 3
    endloop
  endfacet
  facet normal 0 1 -0
    outer loop
      vertex 28.8 9.8 3
      vertex 4 9.8 19
      vertex 28.8 9.8 19
    endloop
  endfacet
  facet normal 0 1 0
    outer loop
      vertex 4 9.8 19
      vertex 28.8 9.8 3
      vertex 4 9.8 3
    endloop
  endfacet
  facet normal -1 0 0
    outer loop
      vertex 28.8 15.6 3
      vertex 28.8 18.4 19
      vertex 28.8 18.4 3
    endloop
  endfacet
  facet normal -1 -0 0
    outer loop
      vertex 28.8 18.4 19
      vertex 28.8 15.6 3
      vertex 28.8 15.6 19
    endloop
  endfacet
  facet normal -0 0 1
    outer loop
      vertex 4 18.4 3
      vertex 28.8 15.6 3
      vertex 28.8 18.4 3
    endloop
  endfacet
  facet normal 0 0 1
    outer loop
      vertex 28.8 15.6 3
      vertex 4 18.4 3
      vertex 4 15.6 3
    endloop
  endfacet
  facet normal 1 -0 0
    outer loop
      vertex 4 15.6 19
      vertex 4 18.4 3
      vertex 4 18.4 19
    endloop
  endfacet
  facet normal 1 0 0
    outer loop
      vertex 4 18.4 3
      vertex 4 15.6 19
      vertex 4 15.6 3
    endloop
  endfacet
  facet normal 0 -1 0
    outer loop
      vertex 4 18.4 3
      vertex 28.8 18.4 19
      vertex 4 18.4 19
    endloop
  endfacet
  facet normal 0 -1 -0
    outer loop
      vertex 28.8 18.4 19
      vertex 4 18.4 3
      vertex 28.8 18.4 3
    endloop
  endfacet
  facet normal 0 1 -0
    outer loop
      vertex 28.8 15.6 3
      vertex 4 15.6 19
      vertex 28.8 15.6 19
    endloop
  endfacet
  facet normal 0 1 0
    outer loop
      vertex 4 15.6 19
      vertex 28.8 15.6 3
      vertex 4 15.6 3
    endloop
  endfacet
  facet normal -1 0 0
    outer loop
      vertex 28.8 21.4 3
      vertex 28.8 24.2 19
      vertex 28.8 24.2 3
    endloop
  endfacet
  facet normal -1 -0 0
    outer loop
      vertex 28.8 24.2 19
      vertex 28.8 21.4 3
      vertex 28.8 21.4 19
    endloop
  endfacet
  facet normal -0 0 1
    outer loop
      vertex 4 24.2 3
      vertex 28.8 21.4 3
      vertex 28.8 24.2 3
    endloop
  endfacet
  facet normal 0 0 1
    outer loop
      vertex 28.8 21.4 3
      vertex 4 24.2 3
      vertex 4 21.4 3
    endloop
  endfacet
  facet normal 1 -0 0
    outer loop
      vertex 4 21.4 19
      vertex 4 24.2 3
      vertex 4 24.2 19
    endloop
  endfacet
  facet normal 1 0 0
    outer loop
      vertex 4 24.2 3
      vertex 4 21.4 19
      vertex 4 21.4 3
    endloop
  endfacet
  facet normal 0 -1 0
    outer loop
      vertex 4 24.2 3
      vertex 28.8 24.2 19
      vertex 4 24.2 19
    endloop
  endfacet
  facet normal 0 -1 -0
    outer loop
      vertex 28.8 24.2 19
      vertex 4 24.2 3
      vertex 28.8 24.2 3
    endloop
  endfacet
  facet normal 0 1 -0
    outer loop
      vertex 28.8 21.4 3
      vertex 4 21.4 19
      vertex 28.8 21.4 19
    endloop
  endfacet
  facet normal 0 1 0
    outer loop
      vertex 4 21.4 19
      vertex 28.8 21.4 3
      vertex 4 21.4 3
    endloop
  endfacet
  facet normal -1 0 0
    outer loop
      vertex 28.8 27.2 3
      vertex 28.8 30 19
      vertex 28.8 30 3
    endloop
  endfacet
  facet normal -1 -0 0
    outer loop
      vertex 28.8 30 19
      vertex 28.8 27.2 3
      vertex 28.8 27.2 19
    endloop
  endfacet
  facet normal -0 0 1
    outer loop
      vertex 4 30 3
      vertex 28.8 27.2 3
      vertex 28.8 30 3
    endloop
  endfacet
  facet normal 0 0 1
    outer loop
      vertex 28.8 27.2 3
      vertex 4 30 3
      vertex 4 27.2 3
    endloop
  endfacet
  facet normal 1 -0 0
    outer loop
      vertex 4 27.2 19
      vertex 4 30 3
      vertex 4 30 19
    endloop
  endfacet
  facet normal 1 0 0
    outer loop
      vertex 4 30 3
      vertex 4 27.2 19
      vertex 4 27.2 3
    endloop
  endfacet
  facet normal 0 -1 0
    outer loop
      vertex 4 30 3
      vertex 28.8 30 19
      vertex 4 30 19
    endloop
  endfacet
  facet normal 0 -1 -0
    outer loop
      vertex 28.8 30 19
      vertex 4 30 3
      vertex 28.8 30 3
    endloop
  endfacet
  facet normal 0 1 -0
    outer loop
      vertex 28.8 27.2 3
      vertex 4 27.2 19
      vertex 28.8 27.2 19
    endloop
  endfacet
  facet normal 0 1 0
    outer loop
      vertex 4 27.2 19
      vertex 28.8 27.2 3
      vertex 4 27.2 3
    endloop
  endfacet
  facet normal -1 0 0
    outer loop
      vertex 28.8 33 3
      vertex 28.8 35.8 19
      vertex 28.8 35.8 3
    endloop
  endfacet
  facet normal -1 -0 0
    outer loop
      vertex 28.8 35.8 19
      vertex 28.8 33 3
      vertex 28.8 33 19
    endloop
  endfacet
  facet normal -0 0 1
    outer loop
      vertex 4 35.8 3
      vertex 28.8 33 3
      vertex 28.8 35.8 3
    endloop
  endfacet
  facet normal 0 0 1
    outer loop
      vertex 28.8 33 3
      vertex 4 35.8 3
      vertex 4 33 3
    endloop
  endfacet
  facet normal 1 -0 0
    outer loop
      vertex 4 33 19
      vertex 4 35.8 3
      vertex 4 35.8 19
    endloop
  endfacet
  facet normal 1 0 0
    outer loop
      vertex 4 35.8 3
      vertex 4 33 19
      vertex 4 33 3
    endloop
  endfacet
  facet normal 0 -1 0
    outer loop
      vertex 4 35.8 3
      vertex 28.8 35.8 19
      vertex 4 35.8 19
    endloop
  endfacet
  facet normal 0 -1 -0
    outer loop
      vertex 28.8 35.8 19
      vertex 4 35.8 3
      vertex 28.8 35.8 3
    endloop
  endfacet
  facet normal 0 1 -0
    outer loop
      vertex 28.8 33 3
      vertex 4 33 19
      vertex 28.8 33 19
    endloop
  endfacet
  facet normal 0 1 0
    outer loop
      vertex 4 33 19
      vertex 28.8 33 3
      vertex 4 33 3
    endloop
  endfacet
  facet normal -1 0 0
    outer loop
      vertex 43.4 4 10
      vertex 43.4 5.6 19
      vertex 43.4 5.6 10
    endloop
  endfacet
  facet normal -1 -0 0
    outer loop
      vertex 43.4 5.6 19
      vertex 43.4 4 10
      vertex 43.4 4 19
    endloop
  endfacet
  facet normal -0 0 1
    outer loop
      vertex 31.8 5.6 10
      vertex 43.4 4 10
      vertex 43.4 5.6 10
    endloop
  endfacet
  facet normal 0 0 1
    outer loop
      vertex 43.4 4 10
      vertex 31.8 5.6 10
      vertex 31.8 4 10
    endloop
  endfacet
  facet normal 1 -0 0
    outer loop
      vertex 31.8 4 19
      vertex 31.8 5.6 10
      vertex 31.8 5.6 19
    endloop
  endfacet
  facet normal 1 0 0
    outer loop
      vertex 31.8 5.6 10
      vertex 31.8 4 19
      vertex 31.8 4 10
    endloop
  endfacet
  facet normal 0 -1 0
    outer loop
      vertex 31.8 5.6 10
      vertex 43.4 5.6 19
      vertex 31.8 5.6 19
    endloop
  endfacet
  facet normal 0 -1 -0
    outer loop
      vertex 43.4 5.6 19
      vertex 31.8 5.6 10
      vertex 43.4 5.6 10
    endloop
  endfacet
  facet normal 0 1 -0
    outer loop
      vertex 43.4 4 10
      vertex 31.8 4 19
      vertex 43.4 4 19
    endloop
  endfacet
  facet normal 0 1 0
    outer loop
      vertex 31.8 4 19
      vertex 43.4 4 10
      vertex 31.8 4 10
    endloop
  endfacet
  facet normal -1 0 0
    outer loop
      vertex 43.4 8.6 10
      vertex 43.4 10.2 19
      vertex 43.4 10.2 10
    endloop
  endfacet
  facet normal -1 -0 0
    outer loop
      vertex 43.4 10.2 19
      vertex 43.4 8.6 10
      vertex 43.4 8.6 19
    endloop
  endfacet
  facet normal -0 0 1
    outer loop
      vertex 31.8 10.2 10
      vertex 43.4 8.6 10
      vertex 43.4 10.2 10
    endloop
  endfacet
  facet normal 0 0 1
    outer loop
      vertex 43.4 8.6 10
      vertex 31.8 10.2 10
      vertex 31.8 8.6 10
    endloop
  endfacet
  facet normal 1 -0 0
    outer loop
      vertex 31.8 8.6 19
      vertex 31.8 10.2 10
      vertex 31.8 10.2 19
    endloop
  endfacet
  facet normal 1 0 0
    outer loop
      vertex 31.8 10.2 10
      vertex 31.8 8.6 19
      vertex 31.8 8.6 10
    endloop
  endfacet
  facet normal 0 -1 0
    outer loop
      vertex 31.8 10.2 10
      vertex 43.4 10.2 19
      vertex 31.8 10.2 19
    endloop
  endfacet
  facet normal 0 -1 -0
    outer loop
      vertex 43.4 10.2 19
      vertex 31.8 10.2 10
      vertex 43.4 10.2 10
    endloop
  endfacet
  facet normal 0 1 -0
    outer loop
      vertex 43.4 8.6 10
      vertex 31.8 8.6 19
      vertex 43.4 8.6 19
    endloop
  endfacet
  facet normal 0 1 0
    outer loop
      vertex 31.8 8.6 19
      vertex 43.4 8.6 10
      vertex 31.8 8.6 10
    endloop
  endfacet
  facet normal -1 0 0
    outer loop
      vertex 43.4 13.2 10
      vertex 43.4 14.8 19
      vertex 43.4 14.8 10
    endloop
  endfacet
  facet normal -1 -0 0
    outer loop
      vertex 43.4 14.8 19
      vertex 43.4 13.2 10
      vertex 43.4 13.2 19
    endloop
  endfacet
  facet normal -0 0 1
    outer loop
      vertex 31.8 14.8 10
      vertex 43.4 13.2 10
      vertex 43.4 14.8 10
    endloop
  endfacet
  facet normal 0 0 1
    outer loop
      vertex 43.4 13.2 10
      vertex 31.8 14.8 10
      vertex 31.8 13.2 10
    endloop
  endfacet
  facet normal 1 -0 0
    outer loop
      vertex 31.8 13.2 19
      vertex 31.8 14.8 10
      vertex 31.8 14.8 19
    endloop
  endfacet
  facet normal 1 0 0
    outer loop
      vertex 31.8 14.8 10
      vertex 31.8 13.2 19
      vertex 31.8 13.2 10
    endloop
  endfacet
  facet normal 0 -1 0
    outer loop
      vertex 31.8 14.8 10
      vertex 43.4 14.8 19
      vertex 31.8 14.8 19
    endloop
  endfacet
  facet normal 0 -1 -0
    outer loop
      vertex 43.4 14.8 19
      vertex 31.8 14.8 10
      vertex 43.4 14.8 10
    endloop
  endfacet
  facet normal 0 1 -0
    outer loop
      vertex 43.4 13.2 10
      vertex 31.8 13.2 19
      vertex 43.4 13.2 19
    endloop
  endfacet
  facet normal 0 1 0
    outer loop
      vertex 31.8 13.2 19
      vertex 43.4 13.2 10
      vertex 31.8 13.2 10
    endloop
  endfacet
  facet normal -1 0 0
    outer loop
      vertex 43.4 17.8 10
      vertex 43.4 19.4 19
      vertex 43.4 19.4 10
    endloop
  endfacet
  facet normal -1 -0 0
    outer loop
      vertex 43.4 19.4 19
      vertex 43.4 17.8 10
      vertex 43.4 17.8 19
    endloop
  endfacet
  facet normal -0 0 1
    outer loop
      vertex 31.8 19.4 10
      vertex 43.4 17.8 10
      vertex 43.4 19.4 10
    endloop
  endfacet
  facet normal 0 0 1
    outer loop
      vertex 43.4 17.8 10
      vertex 31.8 19.4 10
      vertex 31.8 17.8 10
    endloop
  endfacet
  facet normal 1 -0 0
    outer loop
      vertex 31.8 17.8 19
      vertex 31.8 19.4 10
      vertex 31.8 19.4 19
    endloop
  endfacet
  facet normal 1 0 0
    outer loop
      vertex 31.8 19.4 10
      vertex 31.8 17.8 19
      vertex 31.8 17.8 10
    endloop
  endfacet
  facet normal 0 -1 0
    outer loop
      vertex 31.8 19.4 10
      vertex 43.4 19.4 19
      vertex 31.8 19.4 19
    endloop
  endfacet
  facet normal 0 -1 -0
    outer loop
      vertex 43.4 19.4 19
      vertex 31.8 19.4 10
      vertex 43.4 19.4 10
    endloop
  endfacet
  facet normal 0 1 -0
    outer loop
      vertex 43.4 17.8 10
      vertex 31.8 17.8 19
      vertex 43.4 17.8 19
    endloop
  endfacet
  facet normal 0 1 0
    outer loop
      vertex 31.8 17.8 19
      vertex 43.4 17.8 10
      vertex 31.8 17.8 10
    endloop
  endfacet
  facet normal -1 0 0
    outer loop
      vertex 43.4 22.4 10
      vertex 43.4 24 19
      vertex 43.4 24 10
    endloop
  endfacet
  facet normal -1 -0 0
    outer loop
      vertex 43.4 24 19
      vertex 43.4 22.4 10
      vertex 43.4 22.4 19
    endloop
  endfacet
  facet normal -0 0 1
    outer loop
      vertex 31.8 24 10
      vertex 43.4 22.4 10
      vertex 43.4 24 10
    endloop
  endfacet
  facet normal 0 0 1
    outer loop
      vertex 43.4 22.4 10
      vertex 31.8 24 10
      vertex 31.8 22.4 10
    endloop
  endfacet
  facet normal 1 -0 0
    outer loop
      vertex 31.8 22.4 19
      vertex 31.8 24 10
      vertex 31.8 24 19
    endloop
  endfacet
  facet normal 1 0 0
    outer loop
      vertex 31.8 24 10
      vertex 31.8 22.4 19
      vertex 31.8 22.4 10
    endloop
  endfacet
  facet normal 0 -1 0
    outer loop
      vertex 31.8 24 10
      vertex 43.4 24 19
      vertex 31.8 24 19
    endloop
  endfacet
  facet normal 0 -1 -0
    outer loop
      vertex 43.4 24 19
      vertex 31.8 24 10
      vertex 43.4 24 10
    endloop
  endfacet
  facet normal 0 1 -0
    outer loop
      vertex 43.4 22.4 10
      vertex 31.8 22.4 19
      vertex 43.4 22.4 19
    endloop
  endfacet
  facet normal 0 1 0
    outer loop
      vertex 31.8 22.4 19
      vertex 43.4 22.4 10
      vertex 31.8 22.4 10
    endloop
  endfacet
  facet normal -1 0 0
    outer loop
      vertex 43.4 27 10
      vertex 43.4 28.6 19
      vertex 43.4 28.6 10
    endloop
  endfacet
  facet normal -1 -0 0
    outer loop
      vertex 43.4 28.6 19
      vertex 43.4 27 10
      vertex 43.4 27 19
    endloop
  endfacet
  facet normal -0 0 1
    outer loop
      vertex 31.8 28.6 10
      vertex 43.4 27 10
      vertex 43.4 28.6 10
    endloop
  endfacet
  facet normal 0 0 1
    outer loop
      vertex 43.4 27 10
      vertex 31.8 28.6 10
      vertex 31.8 27 10
    endloop
  endfacet
  facet normal 1 -0 0
    outer loop
      vertex 31.8 27 19
      vertex 31.8 28.6 10
      vertex 31.8 28.6 19
    endloop
  endfacet
  facet normal 1 0 0
    outer loop
      vertex 31.8 28.6 10
      vertex 31.8 27 19
      vertex 31.8 27 10
    endloop
  endfacet
  facet normal 0 -1 0
    outer loop
      vertex 31.8 28.6 10
      vertex 43.4 28.6 19
      vertex 31.8 28.6 19
    endloop
  endfacet
  facet normal 0 -1 -0
    outer loop
      vertex 43.4 28.6 19
      vertex 31.8 28.6 10
      vertex 43.4 28.6 10
    endloop
  endfacet
  facet normal 0 1 -0
    outer loop
      vertex 43.4 27 10
      vertex 31.8 27 19
      vertex 43.4 27 19
    endloop
  endfacet
  facet normal 0 1 0
    outer loop
      vertex 31.8 27 19
      vertex 43.4 27 10
      vertex 31.8 27 10
    endloop
  endfacet
  facet normal -1 0 0
    outer loop
      vertex 43.4 31.6 10
      vertex 43.4 33.2 19
      vertex 43.4 33.2 10
    endloop
  endfacet
  facet normal -1 -0 0
    outer loop
      vertex 43.4 33.2 19
      vertex 43.4 31.6 10
      vertex 43.4 31.6 19
    endloop
  endfacet
  facet normal -0 0 1
    outer loop
      vertex 31.8 33.2 10
      vertex 43.4 31.6 10
      vertex 43.4 33.2 10
    endloop
  endfacet
  facet normal 0 0 1
    outer loop
      vertex 43.4 31.6 10
      vertex 31.8 33.2 10
      vertex 31.8 31.6 10
    endloop
  endfacet
  facet normal 1 -0 0
    outer loop
      vertex 31.8 31.6 19
      vertex 31.8 33.2 10
      vertex 31.8 33.2 19
    endloop
  endfacet
  facet normal 1 0 0
    outer loop
      vertex 31.8 33.2 10
      vertex 31.8 31.6 19
      vertex 31.8 31.6 10
    endloop
  endfacet
  facet normal 0 -1 0
    outer loop
      vertex 31.8 33.2 10
      vertex 43.4 33.2 19
      vertex 31.8 33.2 19
    endloop
  endfacet
  facet normal 0 -1 -0
    outer loop
      vertex 43.4 33.2 19
      vertex 31.8 33.2 10
      vertex 43.4 33.2 10
    endloop
  endfacet
  facet normal 0 1 -0
    outer loop
      vertex 43.4 31.6 10
      vertex 31.8 31.6 19
      vertex 43.4 31.6 19
    endloop
  endfacet
  facet normal 0 1 0
    outer loop
      vertex 31.8 31.6 19
      vertex 43.4 31.6 10
      vertex 31.8 31.6 10
    endloop
  endfacet
  facet normal -1 0 0
    outer loop
      vertex 43.4 36.2 10
      vertex 43.4 37.8 19
      vertex 43.4 37.8 10
    endloop
  endfacet
  facet normal -1 -0 0
    outer loop
      vertex 43.4 37.8 19
      vertex 43.4 36.2 10
      vertex 43.4 36.2 19
    endloop
  endfacet
  facet normal -0 0 1
    outer loop
      vertex 31.8 37.8 10
      vertex 43.4 36.2 10
      vertex 43.4 37.8 10
    endloop
  endfacet
  facet normal 0 0 1
    outer loop
      vertex 43.4 36.2 10
      vertex 31.8 37.8 10
      vertex 31.8 36.2 10
    endloop
  endfacet
  facet normal 1 -0 0
    outer loop
      vertex 31.8 36.2 19
      vertex 31.8 37.8 10
      vertex 31.8 37.8 19
    endloop
  endfacet
  facet normal 1 0 0
    outer loop
      vertex 31.8 37.8 10
      vertex 31.8 36.2 19
      vertex 31.8 36.2 10
    endloop
  endfacet
  facet normal 0 -1 0
    outer loop
      vertex 31.8 37.8 10
      vertex 43.4 37.8 19
      vertex 31.8 37.8 19
    endloop
  endfacet
  facet normal 0 -1 -0
    outer loop
      vertex 43.4 37.8 19
      vertex 31.8 37.8 10
      vertex 43.4 37.8 10
    endloop
  endfacet
  facet normal 0 1 -0
    outer loop
      vertex 43.4 36.2 10
      vertex 31.8 36.2 19
      vertex 43.4 36.2 19
    endloop
  endfacet
  facet normal 0 1 0
    outer loop
      vertex 31.8 36.2 19
      vertex 43.4 36.2 10
      vertex 31.8 36.2 10
    endloop
  endfacet
  facet normal -1 0 0
    outer loop
      vertex 59.2 4 7
      vertex 59.2 9.2 19
      vertex 59.2 9.2 7
    endloop
  endfacet
  facet normal -1 -0 0
    outer loop
      vertex 59.2 9.2 19
      vertex 59.2 4 7
      vertex 59.2 4 19
    endloop
  endfacet
  facet normal -0 0 1
    outer loop
      vertex 46.4 9.2 7
      vertex 59.2 4 7
      vertex 59.2 9.2 7
    endloop
  endfacet
  facet normal 0 0 1
    outer loop
      vertex 59.2 4 7
      vertex 46.4 9.2 7
      vertex 46.4 4 7
    endloop
  endfacet
  facet normal 1 -0 0
    outer loop
      vertex 46.4 4 19
      vertex 46.4 9.2 7
      vertex 46.4 9.2 19
    endloop
  endfacet
  facet normal 1 0 0
    outer loop
      vertex 46.4 9.2 7
      vertex 46.4 4 19
      vertex 46.4 4 7
    endloop
  endfacet
  facet normal 0 -1 0
    outer loop
      vertex 46.4 9.2 7
      vertex 59.2 9.2 19
      vertex 46.4 9.2 19
    endloop
  endfacet
  facet normal 0 -1 -0
    outer loop
      vertex 59.2 9.2 19
      vertex 46.4 9.2 7
      vertex 59.2 9.2 7
    endloop
  endfacet
  facet normal 0 1 -0
    outer loop
      vertex 59.2 4 7
      vertex 46.4 4 19
      vertex 59.2 4 19
    endloop
  endfacet
  facet normal 0 1 0
    outer loop
      vertex 46.4 4 19
      vertex 59.2 4 7
      vertex 46.4 4 7
    endloop
  endfacet
  facet normal -1 0 0
    outer loop
      vertex 59.2 12.2 7
      vertex 59.2 17.4 19
      vertex 59.2 17.4 7
    endloop
  endfacet
  facet normal -1 -0 0
    outer loop
      vertex 59.2 17.4 19
      vertex 59.2 12.2 7
      vertex 59.2 12.2 19
    endloop
  endfacet
  facet normal -0 0 1
    outer loop
      vertex 46.4 17.4 7
      vertex 59.2 12.2 7
      vertex 59.2 17.4 7
    endloop
  endfacet
  facet normal 0 0 1
    outer loop
      vertex 59.2 12.2 7
      vertex 46.4 17.4 7
      vertex 46.4 12.2 7
    endloop
  endfacet
  facet normal 1 -0 0
    outer loop
      vertex 46.4 12.2 19
      vertex 46.4 17.4 7
      vertex 46.4 17.4 19
    endloop
  endfacet
  facet normal 1 0 0
    outer loop
      vertex 46.4 17.4 7
      vertex 46.4 12.2 19
      vertex 46.4 12.2 7
    endloop
  endfacet
  facet normal 0 -1 0
    outer loop
      vertex 46.4 17.4 7
      vertex 59.2 17.4 19
      vertex 46.4 17.4 19
    endloop
  endfacet
  facet normal 0 -1 -0
    outer loop
      vertex 59.2 17.4 19
      vertex 46.4 17.4 7
      vertex 59.2 17.4 7
    endloop
  endfacet
  facet normal 0 1 -0
    outer loop
      vertex 59.2 12.2 7
      vertex 46.4 12.2 19
      vertex 59.2 12.2 19
    endloop
  endfacet
  facet normal 0 1 0
    outer loop
      vertex 46.4 12.2 19
      vertex 59.2 12.2 7
      vertex 46.4 12.2 7
    endloop
  endfacet
  facet normal -1 0 0
    outer loop
      vertex 59.2 20.4 7
      vertex 59.2 25.6 19
      vertex 59.2 25.6 7
    endloop
  endfacet
  facet normal -1 -0 0
    outer loop
      vertex 59.2 25.6 19
      vertex 59.2 20.4 7
      vertex 59.2 20.4 19
    endloop
  endfacet
  facet normal -0 0 1
    outer loop
      vertex 46.4 25.6 7
      vertex 59.2 20.4 7
      vertex 59.2 25.6 7
    endloop
  endfacet
  facet normal 0 0 1
    outer loop
      vertex 59.2 20.4 7
      vertex 46.4 25.6 7
      vertex 46.4 20.4 7
    endloop
  endfacet
  facet normal 1 -0 0
    outer loop
      vertex 46.4 20.4 19
      vertex 46.4 25.6 7
      vertex 46.4 25.6 19
    endloop
  endfacet
  facet normal 1 0 0
    outer loop
      vertex 46.4 25.6 7
      vertex 46.4 20.4 19
      vertex 46.4 20.4 7
    endloop
  endfacet
  facet normal 0 -1 0
    outer loop
      vertex 46.4 25.6 7
      vertex 59.2 25.6 19
      vertex 46.4 25.6 19
    endloop
  endfacet
  facet normal 0 -1 -0
    outer loop
      vertex 59.2 25.6 19
      vertex 46.4 25.6 7
      vertex 59.2 25.6 7
    endloop
  endfacet
  facet normal 0 1 -0
    outer loop
      vertex 59.2 20.4 7
      vertex 46.4 20.4 19
      vertex 59.2 20.4 19
    endloop
  endfacet
  facet normal 0 1 0
    outer loop
      vertex 46.4 20.4 19
      vertex 59.2 20.4 7
      vertex 46.4 20.4 7
    endloop
  endfacet
  facet normal -1 0 0
    outer loop
      vertex 59.2 28.6 7
      vertex 59.2 33.8 19
      vertex 59.2 33.8 7
    endloop
  endfacet
  facet normal -1 -0 0
    outer loop
      vertex 59.2 33.8 19
      vertex 59.2 28.6 7
      vertex 59.2 28.6 19
    endloop
  endfacet
  facet normal -0 0 1
    outer loop
      vertex 46.4 33.8 7
      vertex 59.2 28.6 7
      vertex 59.2 33.8 7
    endloop
  endfacet
  facet normal 0 0 1
    outer loop
      vertex 59.2 28.6 7
      vertex 46.4 33.8 7
      vertex 46.4 28.6 7
    endloop
  endfacet
  facet normal 1 -0 0
    outer loop
      vertex 46.4 28.6 19
      vertex 46.4 33.8 7
      vertex 46.4 33.8 19
    endloop
  endfacet
  facet normal 1 0 0
    outer loop
      vertex 46.4 33.8 7
      vertex 46.4 28.6 19
      vertex 46.4 28.6 7
    endloop
  endfacet
  facet normal 0 -1 0
    outer loop
      vertex 46.4 33.8 7
      vertex 59.2 33.8 19
      vertex 46.4 33.8 19
    endloop
  endfacet
  facet normal 0 -1 -0
    outer loop
      vertex 59.2 33.8 19
      vertex 46.4 33.8 7
      vertex 59.2 33.8 7
    endloop
  endfacet
  facet normal 0 1 -0
    outer loop
      vertex 59.2 28.6 7
      vertex 46.4 28.6 19
      vertex 59.2 28.6 19
    endloop
  endfacet
  facet normal 0 1 0
    outer loop
      vertex 46.4 28.6 19
      vertex 59.2 28.6 7
      vertex 46.4 28.6 7
    endloop
  endfacet
  facet normal 0.471429 -0.881904 0
    outer loop
      vertex 61.3481 0.228363 0
      vertex 61.8667 0.505585 19
      vertex 61.3481 0.228363 19
    endloop
  endfacet
  facet normal 0.471429 -0.881904 0
    outer loop
      vertex 61.8667 0.505585 19
      vertex 61.3481 0.228363 0
      vertex 61.8667 0.505585 0
    endloop
  endfacet
  facet normal -0.290277 -0.956943 0
    outer loop
      vertex 1.85194 0.228363 0
      vertex 2.41473 0.0576477 19
      vertex 1.85194 0.228363 19
    endloop
  endfacet
  facet normal -0.290277 -0.956943 -0
    outer loop
      vertex 2.41473 0.0576477 19
      vertex 1.85194 0.228363 0
      vertex 2.41473 0.0576477 0
    endloop
  endfacet
  facet normal -0.881927 -0.471387 0
    outer loop
      vertex 0.505585 1.33328 0
      vertex 0.228363 1.85194 19
      vertex 0.228363 1.85194 0
    endloop
  endfacet
  facet normal -0.881927 -0.471387 0
    outer loop
      vertex 0.228363 1.85194 19
      vertex 0.505585 1.33328 0
      vertex 0.505585 1.33328 19
    endloop
  endfacet
  facet normal -0.634402 -0.773003 0
    outer loop
      vertex 0.878677 0.878677 0
      vertex 1.33328 0.505585 19
      vertex 0.878677 0.878677 19
    endloop
  endfacet
  facet normal -0.634402 -0.773003 -0
    outer loop
      vertex 1.33328 0.505585 19
      vertex 0.878677 0.878677 0
      vertex 1.33328 0.505585 0
    endloop
  endfacet
  facet normal 0.290272 -0.956944 0
    outer loop
      vertex 60.7853 0.0576477 0
      vertex 61.3481 0.228363 19
      vertex 60.7853 0.0576477 19
    endloop
  endfacet
  facet normal 0.290272 -0.956944 0
    outer loop
      vertex 61.3481 0.228363 19
      vertex 60.7853 0.0576477 0
      vertex 61.3481 0.228363 0
    endloop
  endfacet
  facet normal 0.95695 -0.290253 0
    outer loop
      vertex 62.9716 1.85194 19
      vertex 63.1423 2.41473 0
      vertex 63.1423 2.41473 19
    endloop
  endfacet
  facet normal 0.95695 -0.290253 0
    outer loop
      vertex 63.1423 2.41473 0
      vertex 62.9716 1.85194 19
      vertex 62.9716 1.85194 0
    endloop
  endfacet
  facet normal 0.0980183 -0.995185 0
    outer loop
      vertex 60.2 0 0
      vertex 60.7853 0.0576477 19
      vertex 60.2 0 19
    endloop
  endfacet
  facet normal 0.0980183 -0.995185 0
    outer loop
      vertex 60.7853 0.0576477 19
      vertex 60.2 0 0
      vertex 60.7853 0.0576477 0
    endloop
  endfacet
  facet normal 0.995176 0.0981064 0
    outer loop
      vertex 63.2 38.8 19
      vertex 63.1423 39.3853 0
      vertex 63.1423 39.3853 19
    endloop
  endfacet
  facet normal 0.995176 0.0981064 0
    outer loop
      vertex 63.1423 39.3853 0
      vertex 63.2 38.8 19
      vertex 63.2 38.8 0
    endloop
  endfacet
  facet normal 1 -0 0
    outer loop
      vertex 63.2 3 19
      vertex 63.2 38.8 0
      vertex 63.2 38.8 19
    endloop
  endfacet
  facet normal 1 0 0
    outer loop
      vertex 63.2 38.8 0
      vertex 63.2 3 19
      vertex 63.2 3 0
    endloop
  endfacet
  facet normal 0 -1 0
    outer loop
      vertex 3 0 0
      vertex 60.2 0 19
      vertex 3 0 19
    endloop
  endfacet
  facet normal 0 -1 -0
    outer loop
      vertex 60.2 0 19
      vertex 3 0 0
      vertex 60.2 0 0
    endloop
  endfacet
  facet normal 0.634405 -0.773001 0
    outer loop
      vertex 61.8667 0.505585 0
      vertex 62.3213 0.878677 19
      vertex 61.8667 0.505585 19
    endloop
  endfacet
  facet normal 0.634405 -0.773001 0
    outer loop
      vertex 62.3213 0.878677 19
      vertex 61.8667 0.505585 0
      vertex 62.3213 0.878677 0
    endloop
  endfacet
  facet normal -0.956943 -0.290277 0
    outer loop
      vertex 0.228363 1.85194 0
      vertex 0.0576477 2.41473 19
      vertex 0.0576477 2.41473 0
    endloop
  endfacet
  facet normal -0.956943 -0.290277 0
    outer loop
      vertex 0.0576477 2.41473 19
      vertex 0.228363 1.85194 0
      vertex 0.228363 1.85194 19
    endloop
  endfacet
  facet normal -0.471387 -0.881927 0
    outer loop
      vertex 1.33328 0.505585 0
      vertex 1.85194 0.228363 19
      vertex 1.33328 0.505585 19
    endloop
  endfacet
  facet normal -0.471387 -0.881927 -0
    outer loop
      vertex 1.85194 0.228363 19
      vertex 1.33328 0.505585 0
      vertex 1.85194 0.228363 0
    endloop
  endfacet
  facet normal 0.772994 0.634413 0
    outer loop
      vertex 62.6944 40.4667 19
      vertex 62.3213 40.9213 0
      vertex 62.3213 40.9213 19
    endloop
  endfacet
  facet normal 0.772994 0.634413 0
    outer loop
      vertex 62.3213 40.9213 0
      vertex 62.6944 40.4667 19
      vertex 62.6944 40.4667 0
    endloop
  endfacet
  facet normal -0.290253 0.95695 0
    outer loop
      vertex 2.41473 41.7423 0
      vertex 1.85194 41.5716 19
      vertex 2.41473 41.7423 19
    endloop
  endfacet
  facet normal -0.290253 0.95695 0
    outer loop
      vertex 1.85194 41.5716 19
      vertex 2.41473 41.7423 0
      vertex 1.85194 41.5716 0
    endloop
  endfacet
  facet normal 0 1 -0
    outer loop
      vertex 60.2 41.8 0
      vertex 3 41.8 19
      vertex 60.2 41.8 19
    endloop
  endfacet
  facet normal 0 1 0
    outer loop
      vertex 3 41.8 19
      vertex 60.2 41.8 0
      vertex 3 41.8 0
    endloop
  endfacet
  facet normal -0.0981113 0.995175 0
    outer loop
      vertex 3 41.8 0
      vertex 2.41473 41.7423 19
      vertex 3 41.8 19
    endloop
  endfacet
  facet normal -0.0981113 0.995175 0
    outer loop
      vertex 2.41473 41.7423 19
      vertex 3 41.8 0
      vertex 2.41473 41.7423 0
    endloop
  endfacet
  facet normal 0.772996 -0.634411 0
    outer loop
      vertex 62.3213 0.878677 19
      vertex 62.6944 1.33328 0
      vertex 62.6944 1.33328 19
    endloop
  endfacet
  facet normal 0.772996 -0.634411 0
    outer loop
      vertex 62.6944 1.33328 0
      vertex 62.3213 0.878677 19
      vertex 62.3213 0.878677 0
    endloop
  endfacet
  facet normal -0.471358 0.881942 0
    outer loop
      vertex 1.85194 41.5716 0
      vertex 1.33328 41.2944 19
      vertex 1.85194 41.5716 19
    endloop
  endfacet
  facet normal -0.471358 0.881942 0
    outer loop
      vertex 1.33328 41.2944 19
      vertex 1.85194 41.5716 0
      vertex 1.33328 41.2944 0
    endloop
  endfacet
  facet normal 0.634413 0.772994 -0
    outer loop
      vertex 62.3213 40.9213 0
      vertex 61.8667 41.2944 19
      vertex 62.3213 40.9213 19
    endloop
  endfacet
  facet normal 0.634413 0.772994 0
    outer loop
      vertex 61.8667 41.2944 19
      vertex 62.3213 40.9213 0
      vertex 61.8667 41.2944 0
    endloop
  endfacet
  facet normal -0.634411 0.772996 0
    outer loop
      vertex 1.33328 41.2944 0
      vertex 0.878677 40.9213 19
      vertex 1.33328 41.2944 19
    endloop
  endfacet
  facet normal -0.634411 0.772996 0
    outer loop
      vertex 0.878677 40.9213 19
      vertex 1.33328 41.2944 0
      vertex 0.878677 40.9213 0
    endloop
  endfacet
  facet normal 0.881942 -0.471358 0
    outer loop
      vertex 62.6944 1.33328 19
      vertex 62.9716 1.85194 0
      vertex 62.9716 1.85194 19
    endloop
  endfacet
  facet normal 0.881942 -0.471358 0
    outer loop
      vertex 62.9716 1.85194 0
      vertex 62.6944 1.33328 19
      vertex 62.6944 1.33328 0
    endloop
  endfacet
  facet normal -1 0 0
    outer loop
      vertex 0 3 0
      vertex 0 38.8 19
      vertex 0 38.8 0
    endloop
  endfacet
  facet normal -1 -0 0
    outer loop
      vertex 0 38.8 19
      vertex 0 3 0
      vertex 0 3 19
    endloop
  endfacet
  facet normal 0.995175 -0.0981113 0
    outer loop
      vertex 63.1423 2.41473 19
      vertex 63.2 3 0
      vertex 63.2 3 19
    endloop
  endfacet
  facet normal 0.995175 -0.0981113 0
    outer loop
      vertex 63.2 3 0
      vertex 63.1423 2.41473 19
      vertex 63.1423 2.41473 0
    endloop
  endfacet
  facet normal 0.4714 0.881919 -0
    outer loop
      vertex 61.8667 41.2944 0
      vertex 61.3481 41.5716 19
      vertex 61.8667 41.2944 19
    endloop
  endfacet
  facet normal 0.4714 0.881919 0
    outer loop
      vertex 61.3481 41.5716 19
      vertex 61.8667 41.2944 0
      vertex 61.3481 41.5716 0
    endloop
  endfacet
  facet normal -0 0 1
    outer loop
      vertex 4 9.8 19
      vertex 28.8 6.8 19
      vertex 28.8 9.8 19
    endloop
  endfacet
  facet normal 0 0 1
    outer loop
      vertex 28.8 6.8 19
      vertex 4 9.8 19
      vertex 4 6.8 19
    endloop
  endfacet
  facet normal -0 0 1
    outer loop
      vertex 4 15.6 19
      vertex 28.8 12.6 19
      vertex 28.8 15.6 19
    endloop
  endfacet
  facet normal 0 0 1
    outer loop
      vertex 28.8 12.6 19
      vertex 4 15.6 19
      vertex 4 12.6 19
    endloop
  endfacet
  facet normal -0 0 1
    outer loop
      vertex 4 21.4 19
      vertex 28.8 18.4 19
      vertex 28.8 21.4 19
    endloop
  endfacet
  facet normal 0 0 1
    outer loop
      vertex 28.8 18.4 19
      vertex 4 21.4 19
      vertex 4 18.4 19
    endloop
  endfacet
  facet normal -0 0 1
    outer loop
      vertex 4 27.2 19
      vertex 28.8 24.2 19
      vertex 28.8 27.2 19
    endloop
  endfacet
  facet normal 0 0 1
    outer loop
      vertex 28.8 24.2 19
      vertex 4 27.2 19
      vertex 4 24.2 19
    endloop
  endfacet
  facet normal -0 0 1
    outer loop
      vertex 4 33 19
      vertex 28.8 30 19
      vertex 28.8 33 19
    endloop
  endfacet
  facet normal 0 0 1
    outer loop
      vertex 28.8 30 19
      vertex 4 33 19
      vertex 4 30 19
    endloop
  endfacet
  facet normal -0 0 1
    outer loop
      vertex 31.8 8.6 19
      vertex 43.4 5.6 19
      vertex 43.4 8.6 19
    endloop
  endfacet
  facet normal 0 0 1
    outer loop
      vertex 43.4 5.6 19
      vertex 31.8 8.6 19
      vertex 31.8 5.6 19
    endloop
  endfacet
  facet normal -0 0 1
    outer loop
      vertex 31.8 13.2 19
      vertex 43.4 10.2 19
      vertex 43.4 13.2 19
    endloop
  endfacet
  facet normal 0 0 1
    outer loop
      vertex 43.4 10.2 19
      vertex 31.8 13.2 19
      vertex 31.8 10.2 19
    endloop
  endfacet
  facet normal -0 0 1
    outer loop
      vertex 31.8 17.8 19
      vertex 43.4 14.8 19
      vertex 43.4 17.8 19
    endloop
  endfacet
  facet normal 0 0 1
    outer loop
      vertex 43.4 14.8 19
      vertex 31.8 17.8 19
      vertex 31.8 14.8 19
    endloop
  endfacet
  facet normal -0 0 1
    outer loop
      vertex 31.8 22.4 19
      vertex 43.4 19.4 19
      vertex 43.4 22.4 19
    endloop
  endfacet
  facet normal 0 0 1
    outer loop
      vertex 43.4 19.4 19
      vertex 31.8 22.4 19
      vertex 31.8 19.4 19
    endloop
  endfacet
  facet normal -0 0 1
    outer loop
      vertex 31.8 27 19
      vertex 43.4 24 19
      vertex 43.4 27 19
    endloop
  endfacet
  facet normal 0 0 1
    outer loop
      vertex 43.4 24 19
      vertex 31.8 27 19
      vertex 31.8 24 19
    endloop
  endfacet
  facet normal -0 0 1
    outer loop
      vertex 31.8 31.6 19
      vertex 43.4 28.6 19
      vertex 43.4 31.6 19
    endloop
  endfacet
  facet normal 0 0 1
    outer loop
      vertex 43.4 28.6 19
      vertex 31.8 31.6 19
      vertex 31.8 28.6 19
    endloop
  endfacet
  facet normal -0 0 1
    outer loop
      vertex 31.8 36.2 19
      vertex 43.4 33.2 19
      vertex 43.4 36.2 19
    endloop
  endfacet
  facet normal 0 0 1
    outer loop
      vertex 43.4 33.2 19
      vertex 31.8 36.2 19
      vertex 31.8 33.2 19
    endloop
  endfacet
  facet normal -0 0 1
    outer loop
      vertex 46.4 12.2 19
      vertex 59.2 9.2 19
      vertex 59.2 12.2 19
    endloop
  endfacet
  facet normal 0 0 1
    outer loop
      vertex 59.2 9.2 19
      vertex 46.4 12.2 19
      vertex 46.4 9.2 19
    endloop
  endfacet
  facet normal -0 0 1
    outer loop
      vertex 46.4 20.4 19
      vertex 59.2 17.4 19
      vertex 59.2 20.4 19
    endloop
  endfacet
  facet normal 0 0 1
    outer loop
      vertex 59.2 17.4 19
      vertex 46.4 20.4 19
      vertex 46.4 17.4 19
    endloop
  endfacet
  facet normal -0 0 1
    outer loop
      vertex 46.4 28.6 19
      vertex 59.2 25.6 19
      vertex 59.2 28.6 19
    endloop
  endfacet
  facet normal 0 0 1
    outer loop
      vertex 59.2 25.6 19
      vertex 46.4 28.6 19
      vertex 46.4 25.6 19
    endloop
  endfacet
  facet normal 0 0 1
    outer loop
      vertex 60.2 41.8 19
      vertex 63.2 38.8 19
      vertex 63.1423 39.3853 19
    endloop
  endfacet
  facet normal 0 0 1
    outer loop
      vertex 63.2 38.8 19
      vertex 59.2 20.4 19
      vertex 63.2 3 19
    endloop
  endfacet
  facet normal 0 0 1
    outer loop
      vertex 60.2 41.8 19
      vertex 63.1423 39.3853 19
      vertex 62.9716 39.948 19
    endloop
  endfacet
  facet normal -0 0 1
    outer loop
      vertex 59.2 17.4 19
      vertex 63.2 3 19
      vertex 59.2 20.4 19
    endloop
  endfacet
  facet normal 0 0 1
    outer loop
      vertex 60.2 41.8 19
      vertex 62.9716 39.948 19
      vertex 62.6944 40.4667 19
    endloop
  endfacet
  facet normal -0 0 1
    outer loop
      vertex 59.2 12.2 19
      vertex 63.2 3 19
      vertex 59.2 17.4 19
    endloop
  endfacet
  facet normal 0 0 1
    outer loop
      vertex 60.2 41.8 19
      vertex 62.6944 40.4667 19
      vertex 62.3213 40.9213 19
    endloop
  endfacet
  facet normal -0 0 1
    outer loop
      vertex 59.2 9.2 19
      vertex 63.2 3 19
      vertex 59.2 12.2 19
    endloop
  endfacet
  facet normal 0 0 1
    outer loop
      vertex 60.2 41.8 19
      vertex 62.3213 40.9213 19
      vertex 61.8667 41.2944 19
    endloop
  endfacet
  facet normal -0 0 1
    outer loop
      vertex 59.2 4 19
      vertex 63.2 3 19
      vertex 59.2 9.2 19
    endloop
  endfacet
  facet normal 0 0 1
    outer loop
      vertex 60.2 41.8 19
      vertex 61.8667 41.2944 19
      vertex 61.3481 41.5716 19
    endloop
  endfacet
  facet normal 0 0 1
    outer loop
      vertex 63.2 3 19
      vertex 59.2 4 19
      vertex 63.1423 2.41473 19
    endloop
  endfacet
  facet normal 0 0 1
    outer loop
      vertex 60.2 41.8 19
      vertex 61.3481 41.5716 19
      vertex 60.7853 41.7423 19
    endloop
  endfacet
  facet normal 0 0 1
    outer loop
      vertex 63.1423 2.41473 19
      vertex 59.2 4 19
      vertex 62.9716 1.85194 19
    endloop
  endfacet
  facet normal 0 0 1
    outer loop
      vertex 63.2 38.8 19
      vertex 60.2 41.8 19
      vertex 59.2 33.8 19
    endloop
  endfacet
  facet normal 0 0 1
    outer loop
      vertex 62.9716 1.85194 19
      vertex 59.2 4 19
      vertex 62.6944 1.33328 19
    endloop
  endfacet
  facet normal 0 0 1
    outer loop
      vertex 63.2 38.8 19
      vertex 59.2 33.8 19
      vertex 59.2 28.6 19
    endloop
  endfacet
  facet normal 0 0 1
    outer loop
      vertex 60.2 41.8 19
      vertex 46.4 33.8 19
      vertex 59.2 33.8 19
    endloop
  endfacet
  facet normal -0 0 1
    outer loop
      vertex 43.4 31.6 19
      vertex 46.4 28.6 19
      vertex 46.4 33.8 19
    endloop
  endfacet
  facet normal 0 0 1
    outer loop
      vertex 43.4 27 19
      vertex 46.4 28.6 19
      vertex 43.4 28.6 19
    endloop
  endfacet
  facet normal 0 0 1
    outer loop
      vertex 43.4 24 19
      vertex 46.4 25.6 19
      vertex 43.4 27 19
    endloop
  endfacet
  facet normal 0 0 1
    outer loop
      vertex 43.4 22.4 19
      vertex 46.4 25.6 19
      vertex 43.4 24 19
    endloop
  endfacet
  facet normal 0 0 1
    outer loop
      vertex 46.4 20.4 19
      vertex 43.4 19.4 19
      vertex 46.4 17.4 19
    endloop
  endfacet
  facet normal -0 0 1
    outer loop
      vertex 43.4 17.8 19
      vertex 46.4 17.4 19
      vertex 43.4 19.4 19
    endloop
  endfacet
  facet normal -0 0 1
    outer loop
      vertex 43.4 36.2 19
      vertex 46.4 33.8 19
      vertex 43.4 37.8 19
    endloop
  endfacet
  facet normal 0 0 1
    outer loop
      vertex 60.2 41.8 19
      vertex 43.4 37.8 19
      vertex 46.4 33.8 19
    endloop
  endfacet
  facet normal 0 0 1
    outer loop
      vertex 60.2 41.8 19
      vertex 31.8 37.8 19
      vertex 43.4 37.8 19
    endloop
  endfacet
  facet normal 0 0 1
    outer loop
      vertex 28.8 35.8 19
      vertex 31.8 36.2 19
      vertex 31.8 37.8 19
    endloop
  endfacet
  facet normal 0 0 1
    outer loop
      vertex 31.8 36.2 19
      vertex 28.8 35.8 19
      vertex 31.8 33.2 19
    endloop
  endfacet
  facet normal 0 0 1
    outer loop
      vertex 28.8 33 19
      vertex 31.8 33.2 19
      vertex 28.8 35.8 19
    endloop
  endfacet
  facet normal 0 0 1
    outer loop
      vertex 28.8 30 19
      vertex 31.8 31.6 19
      vertex 28.8 33 19
    endloop
  endfacet
  facet normal 0 0 1
    outer loop
      vertex 31.8 31.6 19
      vertex 28.8 30 19
      vertex 31.8 28.6 19
    endloop
  endfacet
  facet normal 0 0 1
    outer loop
      vertex 31.8 28.6 19
      vertex 28.8 27.2 19
      vertex 31.8 27 19
    endloop
  endfacet
  facet normal 0 0 1
    outer loop
      vertex 28.8 24.2 19
      vertex 31.8 27 19
      vertex 28.8 27.2 19
    endloop
  endfacet
  facet normal 0 0 1
    outer loop
      vertex 31.8 24 19
      vertex 28.8 24.2 19
      vertex 31.8 22.4 19
    endloop
  endfacet
  facet normal 0 0 1
    outer loop
      vertex 28.8 21.4 19
      vertex 31.8 22.4 19
      vertex 28.8 24.2 19
    endloop
  endfacet
  facet normal 0 0 1
    outer loop
      vertex 31.8 22.4 19
      vertex 28.8 21.4 19
      vertex 31.8 19.4 19
    endloop
  endfacet
  facet normal 0 0 1
    outer loop
      vertex 31.8 19.4 19
      vertex 28.8 18.4 19
      vertex 31.8 17.8 19
    endloop
  endfacet
  facet normal 0 0 1
    outer loop
      vertex 28.8 15.6 19
      vertex 31.8 17.8 19
      vertex 28.8 18.4 19
    endloop
  endfacet
  facet normal 0 0 1
    outer loop
      vertex 31.8 17.8 19
      vertex 28.8 15.6 19
      vertex 31.8 14.8 19
    endloop
  endfacet
  facet normal 0 0 1
    outer loop
      vertex 31.8 14.8 19
      vertex 28.8 12.6 19
      vertex 31.8 13.2 19
    endloop
  endfacet
  facet normal 0 0 1
    outer loop
      vertex 31.8 33.2 19
      vertex 28.8 33 19
      vertex 31.8 31.6 19
    endloop
  endfacet
  facet normal 0 0 1
    outer loop
      vertex 3 41.8 19
      vertex 28.8 35.8 19
      vertex 31.8 37.8 19
    endloop
  endfacet
  facet normal -0 0 1
    outer loop
      vertex 3 41.8 19
      vertex 31.8 37.8 19
      vertex 60.2 41.8 19
    endloop
  endfacet
  facet normal 0 0 1
    outer loop
      vertex 0 38.8 19
      vertex 4 33 19
      vertex 4 35.8 19
    endloop
  endfacet
  facet normal 0 0 1
    outer loop
      vertex 4 33 19
      vertex 0 38.8 19
      vertex 4 30 19
    endloop
  endfacet
  facet normal 0 0 1
    outer loop
      vertex 4 30 19
      vertex 0 38.8 19
      vertex 4 27.2 19
    endloop
  endfacet
  facet normal 0 0 1
    outer loop
      vertex 4 27.2 19
      vertex 0 38.8 19
      vertex 4 24.2 19
    endloop
  endfacet
  facet normal 0 0 1
    outer loop
      vertex 4 24.2 19
      vertex 0 38.8 19
      vertex 4 21.4 19
    endloop
  endfacet
  facet normal 0 0 1
    outer loop
      vertex 0 3 19
      vertex 4 21.4 19
      vertex 0 38.8 19
    endloop
  endfacet
  facet normal 0 0 1
    outer loop
      vertex 4 21.4 19
      vertex 0 3 19
      vertex 4 18.4 19
    endloop
  endfacet
  facet normal 0 0 1
    outer loop
      vertex 4 18.4 19
      vertex 0 3 19
      vertex 4 15.6 19
    endloop
  endfacet
  facet normal 0 0 1
    outer loop
      vertex 4 15.6 19
      vertex 0 3 19
      vertex 4 12.6 19
    endloop
  endfacet
  facet normal 0 0 1
    outer loop
      vertex 4 12.6 19
      vertex 0 3 19
      vertex 4 9.8 19
    endloop
  endfacet
  facet normal -0 0 1
    outer loop
      vertex 0 38.8 19
      vertex 4 35.8 19
      vertex 3 41.8 19
    endloop
  endfacet
  facet normal 0 0 1
    outer loop
      vertex 28.8 35.8 19
      vertex 3 41.8 19
      vertex 4 35.8 19
    endloop
  endfacet
  facet normal 0 0 1
    outer loop
      vertex 63.2 38.8 19
      vertex 59.2 28.6 19
      vertex 59.2 25.6 19
    endloop
  endfacet
  facet normal 0 0 1
    outer loop
      vertex 63.2 38.8 19
      vertex 59.2 25.6 19
      vertex 59.2 20.4 19
    endloop
  endfacet
  facet normal 0 0 1
    outer loop
      vertex 62.6944 1.33328 19
      vertex 59.2 4 19
      vertex 62.3213 0.878677 19
    endloop
  endfacet
  facet normal 0 0 1
    outer loop
      vertex 62.3213 0.878677 19
      vertex 59.2 4 19
      vertex 61.8667 0.505585 19
    endloop
  endfacet
  facet normal 0 0 1
    outer loop
      vertex 61.8667 0.505585 19
      vertex 59.2 4 19
      vertex 61.3481 0.228363 19
    endloop
  endfacet
  facet normal 0 0 1
    outer loop
      vertex 61.3481 0.228363 19
      vertex 59.2 4 19
      vertex 60.7853 0.0576477 19
    endloop
  endfacet
  facet normal 0 0 1
    outer loop
      vertex 60.7853 0.0576477 19
      vertex 59.2 4 19
      vertex 60.2 0 19
    endloop
  endfacet
  facet normal -0 0 1
    outer loop
      vertex 46.4 4 19
      vertex 60.2 0 19
      vertex 59.2 4 19
    endloop
  endfacet
  facet normal 0 0 1
    outer loop
      vertex 43.4 33.2 19
      vertex 46.4 33.8 19
      vertex 43.4 36.2 19
    endloop
  endfacet
  facet normal 0 0 1
    outer loop
      vertex 43.4 31.6 19
      vertex 46.4 33.8 19
      vertex 43.4 33.2 19
    endloop
  endfacet
  facet normal 0 0 1
    outer loop
      vertex 46.4 28.6 19
      vertex 43.4 31.6 19
      vertex 43.4 28.6 19
    endloop
  endfacet
  facet normal 0 0 1
    outer loop
      vertex 46.4 28.6 19
      vertex 43.4 27 19
      vertex 46.4 25.6 19
    endloop
  endfacet
  facet normal 0 0 1
    outer loop
      vertex 46.4 25.6 19
      vertex 43.4 22.4 19
      vertex 46.4 20.4 19
    endloop
  endfacet
  facet normal 0 0 1
    outer loop
      vertex 43.4 19.4 19
      vertex 46.4 20.4 19
      vertex 43.4 22.4 19
    endloop
  endfacet
  facet normal 0 0 1
    outer loop
      vertex 43.4 14.8 19
      vertex 46.4 17.4 19
      vertex 43.4 17.8 19
    endloop
  endfacet
  facet normal 0 0 1
    outer loop
      vertex 46.4 17.4 19
      vertex 43.4 14.8 19
      vertex 46.4 12.2 19
    endloop
  endfacet
  facet normal -0 0 1
    outer loop
      vertex 43.4 13.2 19
      vertex 46.4 12.2 19
      vertex 43.4 14.8 19
    endloop
  endfacet
  facet normal 0 0 1
    outer loop
      vertex 43.4 10.2 19
      vertex 46.4 12.2 19
      vertex 43.4 13.2 19
    endloop
  endfacet
  facet normal 0 0 1
    outer loop
      vertex 46.4 12.2 19
      vertex 43.4 10.2 19
      vertex 46.4 9.2 19
    endloop
  endfacet
  facet normal 0 0 1
    outer loop
      vertex 43.4 8.6 19
      vertex 46.4 9.2 19
      vertex 43.4 10.2 19
    endloop
  endfacet
  facet normal 0 0 1
    outer loop
      vertex 43.4 5.6 19
      vertex 46.4 9.2 19
      vertex 43.4 8.6 19
    endloop
  endfacet
  facet normal 0 0 1
    outer loop
      vertex 46.4 9.2 19
      vertex 43.4 5.6 19
      vertex 46.4 4 19
    endloop
  endfacet
  facet normal 0 0 1
    outer loop
      vertex 43.4 4 19
      vertex 46.4 4 19
      vertex 43.4 5.6 19
    endloop
  endfacet
  facet normal -0 0 1
    outer loop
      vertex 43.4 4 19
      vertex 60.2 0 19
      vertex 46.4 4 19
    endloop
  endfacet
  facet normal -0 0 1
    outer loop
      vertex 31.8 4 19
      vertex 60.2 0 19
      vertex 43.4 4 19
    endloop
  endfacet
  facet normal 0 0 1
    outer loop
      vertex 28.8 27.2 19
      vertex 31.8 28.6 19
      vertex 28.8 30 19
    endloop
  endfacet
  facet normal 0 0 1
    outer loop
      vertex 31.8 27 19
      vertex 28.8 24.2 19
      vertex 31.8 24 19
    endloop
  endfacet
  facet normal 0 0 1
    outer loop
      vertex 28.8 18.4 19
      vertex 31.8 19.4 19
      vertex 28.8 21.4 19
    endloop
  endfacet
  facet normal 0 0 1
    outer loop
      vertex 28.8 12.6 19
      vertex 31.8 14.8 19
      vertex 28.8 15.6 19
    endloop
  endfacet
  facet normal 0 0 1
    outer loop
      vertex 31.8 13.2 19
      vertex 28.8 12.6 19
      vertex 31.8 10.2 19
    endloop
  endfacet
  facet normal 0 0 1
    outer loop
      vertex 28.8 9.8 19
      vertex 31.8 10.2 19
      vertex 28.8 12.6 19
    endloop
  endfacet
  facet normal 0 0 1
    outer loop
      vertex 31.8 10.2 19
      vertex 28.8 9.8 19
      vertex 31.8 8.6 19
    endloop
  endfacet
  facet normal 0 0 1
    outer loop
      vertex 28.8 6.8 19
      vertex 31.8 8.6 19
      vertex 28.8 9.8 19
    endloop
  endfacet
  facet normal 0 0 1
    outer loop
      vertex 31.8 8.6 19
      vertex 28.8 6.8 19
      vertex 31.8 5.6 19
    endloop
  endfacet
  facet normal 0 0 1
    outer loop
      vertex 28.8 4 19
      vertex 31.8 5.6 19
      vertex 28.8 6.8 19
    endloop
  endfacet
  facet normal 0 0 1
    outer loop
      vertex 31.8 5.6 19
      vertex 28.8 4 19
      vertex 31.8 4 19
    endloop
  endfacet
  facet normal 0 0 1
    outer loop
      vertex 3 0 19
      vertex 31.8 4 19
      vertex 28.8 4 19
    endloop
  endfacet
  facet normal 0 0 1
    outer loop
      vertex 3 0 19
      vertex 28.8 4 19
      vertex 4 4 19
    endloop
  endfacet
  facet normal 0 0 1
    outer loop
      vertex 31.8 4 19
      vertex 3 0 19
      vertex 60.2 0 19
    endloop
  endfacet
  facet normal 0 0 1
    outer loop
      vertex 4 9.8 19
      vertex 0 3 19
      vertex 4 6.8 19
    endloop
  endfacet
  facet normal 0 0 1
    outer loop
      vertex 0 38.8 19
      vertex 3 41.8 19
      vertex 2.41473 41.7423 19
    endloop
  endfacet
  facet normal 0 0 1
    outer loop
      vertex 4 6.8 19
      vertex 0 3 19
      vertex 4 4 19
    endloop
  endfacet
  facet normal 0 0 1
    outer loop
      vertex 0 38.8 19
      vertex 2.41473 41.7423 19
      vertex 1.85194 41.5716 19
    endloop
  endfacet
  facet normal 0 -0 1
    outer loop
      vertex 0.0576477 2.41473 19
      vertex 4 4 19
      vertex 0 3 19
    endloop
  endfacet
  facet normal 0 0 1
    outer loop
      vertex 0 38.8 19
      vertex 1.85194 41.5716 19
      vertex 1.33328 41.2944 19
    endloop
  endfacet
  facet normal 0 0 1
    outer loop
      vertex 4 4 19
      vertex 2.41473 0.0576477 19
      vertex 3 0 19
    endloop
  endfacet
  facet normal 0 0 1
    outer loop
      vertex 0 38.8 19
      vertex 1.33328 41.2944 19
      vertex 0.878677 40.9213 19
    endloop
  endfacet
  facet normal 0 0 1
    outer loop
      vertex 4 4 19
      vertex 1.85194 0.228363 19
      vertex 2.41473 0.0576477 19
    endloop
  endfacet
  facet normal 0 0 1
    outer loop
      vertex 0 38.8 19
      vertex 0.878677 40.9213 19
      vertex 0.505585 40.4667 19
    endloop
  endfacet
  facet normal 0 0 1
    outer loop
      vertex 4 4 19
      vertex 1.33328 0.505585 19
      vertex 1.85194 0.228363 19
    endloop
  endfacet
  facet normal 0 0 1
    outer loop
      vertex 0 38.8 19
      vertex 0.505585 40.4667 19
      vertex 0.228363 39.948 19
    endloop
  endfacet
  facet normal 0 0 1
    outer loop
      vertex 4 4 19
      vertex 0.878677 0.878677 19
      vertex 1.33328 0.505585 19
    endloop
  endfacet
  facet normal 0 0 1
    outer loop
      vertex 0 38.8 19
      vertex 0.228363 39.948 19
      vertex 0.0576477 39.3853 19
    endloop
  endfacet
  facet normal 0 0 1
    outer loop
      vertex 4 4 19
      vertex 0.505585 1.33328 19
      vertex 0.878677 0.878677 19
    endloop
  endfacet
  facet normal 0 0 1
    outer loop
      vertex 4 4 19
      vertex 0.228363 1.85194 19
      vertex 0.505585 1.33328 19
    endloop
  endfacet
  facet normal 0 0 1
    outer loop
      vertex 4 4 19
      vertex 0.0576477 2.41473 19
      vertex 0.228363 1.85194 19
    endloop
  endfacet
  facet normal -0.95693 0.290319 0
    outer loop
      vertex 0.0576477 39.3853 0
      vertex 0.228363 39.948 19
      vertex 0.228363 39.948 0
    endloop
  endfacet
  facet normal -0.95693 0.290319 0
    outer loop
      vertex 0.228363 39.948 19
      vertex 0.0576477 39.3853 0
      vertex 0.0576477 39.3853 19
    endloop
  endfacet
  facet normal 0.290248 0.956951 -0
    outer loop
      vertex 61.3481 41.5716 0
      vertex 60.7853 41.7423 19
      vertex 61.3481 41.5716 19
    endloop
  endfacet
  facet normal 0.290248 0.956951 0
    outer loop
      vertex 60.7853 41.7423 19
      vertex 61.3481 41.5716 0
      vertex 60.7853 41.7423 0
    endloop
  endfacet
  facet normal 0.881957 0.471329 0
    outer loop
      vertex 62.9716 39.948 19
      vertex 62.6944 40.4667 0
      vertex 62.6944 40.4667 19
    endloop
  endfacet
  facet normal 0.881957 0.471329 0
    outer loop
      vertex 62.6944 40.4667 0
      vertex 62.9716 39.948 19
      vertex 62.9716 39.948 0
    endloop
  endfacet
  facet normal -0.995184 -0.0980233 0
    outer loop
      vertex 0.0576477 2.41473 0
      vertex 0 3 19
      vertex 0 3 0
    endloop
  endfacet
  facet normal -0.995184 -0.0980233 0
    outer loop
      vertex 0 3 19
      vertex 0.0576477 2.41473 0
      vertex 0.0576477 2.41473 19
    endloop
  endfacet
  facet normal 0.0981064 0.995176 -0
    outer loop
      vertex 60.7853 41.7423 0
      vertex 60.2 41.8 19
      vertex 60.7853 41.7423 19
    endloop
  endfacet
  facet normal 0.0981064 0.995176 0
    outer loop
      vertex 60.2 41.8 19
      vertex 60.7853 41.7423 0
      vertex 60.2 41.8 0
    endloop
  endfacet
  facet normal -0.881942 0.471358 0
    outer loop
      vertex 0.228363 39.948 0
      vertex 0.505585 40.4667 19
      vertex 0.505585 40.4667 0
    endloop
  endfacet
  facet normal -0.881942 0.471358 0
    outer loop
      vertex 0.505585 40.4667 19
      vertex 0.228363 39.948 0
      vertex 0.228363 39.948 19
    endloop
  endfacet
  facet normal -0.773003 -0.634402 0
    outer loop
      vertex 0.878677 0.878677 0
      vertex 0.505585 1.33328 19
      vertex 0.505585 1.33328 0
    endloop
  endfacet
  facet normal -0.773003 -0.634402 0
    outer loop
      vertex 0.505585 1.33328 19
      vertex 0.878677 0.878677 0
      vertex 0.878677 0.878677 19
    endloop
  endfacet
  facet normal 0 0 -1
    outer loop
      vertex 60.2 0 0
      vertex 63.2 3 0
      vertex 63.1423 2.41473 0
    endloop
  endfacet
  facet normal -0 0 -1
    outer loop
      vertex 63.2 3 0
      vertex 60.2 0 0
      vertex 63.2 38.8 0
    endloop
  endfacet
  facet normal 0 0 -1
    outer loop
      vertex 60.2 0 0
      vertex 63.1423 2.41473 0
      vertex 62.9716 1.85194 0
    endloop
  endfacet
  facet normal 0 0 -1
    outer loop
      vertex 60.2 41.8 0
      vertex 63.2 38.8 0
      vertex 60.2 0 0
    endloop
  endfacet
  facet normal 0 0 -1
    outer loop
      vertex 60.2 0 0
      vertex 62.9716 1.85194 0
      vertex 62.6944 1.33328 0
    endloop
  endfacet
  facet normal 0 0 -1
    outer loop
      vertex 63.2 38.8 0
      vertex 60.2 41.8 0
      vertex 63.1423 39.3853 0
    endloop
  endfacet
  facet normal 0 0 -1
    outer loop
      vertex 60.2 0 0
      vertex 62.6944 1.33328 0
      vertex 62.3213 0.878677 0
    endloop
  endfacet
  facet normal 0 0 -1
    outer loop
      vertex 63.1423 39.3853 0
      vertex 60.2 41.8 0
      vertex 62.9716 39.948 0
    endloop
  endfacet
  facet normal 0 0 -1
    outer loop
      vertex 60.2 0 0
      vertex 62.3213 0.878677 0
      vertex 61.8667 0.505585 0
    endloop
  endfacet
  facet normal 0 0 -1
    outer loop
      vertex 62.9716 39.948 0
      vertex 60.2 41.8 0
      vertex 62.6944 40.4667 0
    endloop
  endfacet
  facet normal 0 0 -1
    outer loop
      vertex 60.2 0 0
      vertex 61.8667 0.505585 0
      vertex 61.3481 0.228363 0
    endloop
  endfacet
  facet normal 0 0 -1
    outer loop
      vertex 62.6944 40.4667 0
      vertex 60.2 41.8 0
      vertex 62.3213 40.9213 0
    endloop
  endfacet
  facet normal 0 0 -1
    outer loop
      vertex 60.2 0 0
      vertex 61.3481 0.228363 0
      vertex 60.7853 0.0576477 0
    endloop
  endfacet
  facet normal 0 0 -1
    outer loop
      vertex 62.3213 40.9213 0
      vertex 60.2 41.8 0
      vertex 61.8667 41.2944 0
    endloop
  endfacet
  facet normal 0 0 -1
    outer loop
      vertex 61.8667 41.2944 0
      vertex 60.2 41.8 0
      vertex 61.3481 41.5716 0
    endloop
  endfacet
  facet normal 0 0 -1
    outer loop
      vertex 61.3481 41.5716 0
      vertex 60.2 41.8 0
      vertex 60.7853 41.7423 0
    endloop
  endfacet
  facet normal 0 0 -1
    outer loop
      vertex 3 0 0
      vertex 60.2 41.8 0
      vertex 60.2 0 0
    endloop
  endfacet
  facet normal 0 0 -1
    outer loop
      vertex 3 0 0
      vertex 3 41.8 0
      vertex 60.2 41.8 0
    endloop
  endfacet
  facet normal 0 0 -1
    outer loop
      vertex 0 3 0
      vertex 3 0 0
      vertex 2.41473 0.0576477 0
    endloop
  endfacet
  facet normal 0 0 -1
    outer loop
      vertex 3 0 0
      vertex 0 3 0
      vertex 3 41.8 0
    endloop
  endfacet
  facet normal 0 0 -1
    outer loop
      vertex 0 3 0
      vertex 2.41473 0.0576477 0
      vertex 1.85194 0.228363 0
    endloop
  endfacet
  facet normal 0 0 -1
    outer loop
      vertex 0 38.8 0
      vertex 3 41.8 0
      vertex 0 3 0
    endloop
  endfacet
  facet normal 0 0 -1
    outer loop
      vertex 0 3 0
      vertex 1.85194 0.228363 0
      vertex 1.33328 0.505585 0
    endloop
  endfacet
  facet normal 0 0 -1
    outer loop
      vertex 3 41.8 0
      vertex 0 38.8 0
      vertex 2.41473 41.7423 0
    endloop
  endfacet
  facet normal 0 0 -1
    outer loop
      vertex 0 3 0
      vertex 1.33328 0.505585 0
      vertex 0.878677 0.878677 0
    endloop
  endfacet
  facet normal 0 0 -1
    outer loop
      vertex 2.41473 41.7423 0
      vertex 0 38.8 0
      vertex 1.85194 41.5716 0
    endloop
  endfacet
  facet normal 0 0 -1
    outer loop
      vertex 0 3 0
      vertex 0.878677 0.878677 0
      vertex 0.505585 1.33328 0
    endloop
  endfacet
  facet normal 0 0 -1
    outer loop
      vertex 1.85194 41.5716 0
      vertex 0 38.8 0
      vertex 1.33328 41.2944 0
    endloop
  endfacet
  facet normal 0 0 -1
    outer loop
      vertex 0 3 0
      vertex 0.505585 1.33328 0
      vertex 0.228363 1.85194 0
    endloop
  endfacet
  facet normal 0 0 -1
    outer loop
      vertex 1.33328 41.2944 0
      vertex 0 38.8 0
      vertex 0.878677 40.9213 0
    endloop
  endfacet
  facet normal 0 0 -1
    outer loop
      vertex 0 3 0
      vertex 0.228363 1.85194 0
      vertex 0.0576477 2.41473 0
    endloop
  endfacet
  facet normal 0 0 -1
    outer loop
      vertex 0.878677 40.9213 0
      vertex 0 38.8 0
      vertex 0.505585 40.4667 0
    endloop
  endfacet
  facet normal 0 0 -1
    outer loop
      vertex 0.505585 40.4667 0
      vertex 0 38.8 0
      vertex 0.228363 39.948 0
    endloop
  endfacet
  facet normal 0 0 -1
    outer loop
      vertex 0.228363 39.948 0
      vertex 0 38.8 0
      vertex 0.0576477 39.3853 0
    endloop
  endfacet
  facet normal -0.0980233 -0.995184 0
    outer loop
      vertex 2.41473 0.0576477 0
      vertex 3 0 19
      vertex 2.41473 0.0576477 19
    endloop
  endfacet
  facet normal -0.0980233 -0.995184 -0
    outer loop
      vertex 3 0 19
      vertex 2.41473 0.0576477 0
      vertex 3 0 0
    endloop
  endfacet
  facet normal 0.956937 0.290295 0
    outer loop
      vertex 63.1423 39.3853 19
      vertex 62.9716 39.948 0
      vertex 62.9716 39.948 19
    endloop
  endfacet
  facet normal 0.956937 0.290295 0
    outer loop
      vertex 62.9716 39.948 0
      vertex 63.1423 39.3853 19
      vertex 63.1423 39.3853 0
    endloop
  endfacet
  facet normal -0.773001 0.634405 0
    outer loop
      vertex 0.505585 40.4667 0
      vertex 0.878677 40.9213 19
      vertex 0.878677 40.9213 0
    endloop
  endfacet
  facet normal -0.773001 0.634405 0
    outer loop
      vertex 0.878677 40.9213 19
      vertex 0.505585 40.4667 0
      vertex 0.505585 40.4667 19
    endloop
  endfacet
  facet normal -0.995185 0.0980183 0
    outer loop
      vertex 0 38.8 0
      vertex 0.0576477 39.3853 19
      vertex 0.0576477 39.3853 0
    endloop
  endfacet
  facet normal -0.995185 0.0980183 0
    outer loop
      vertex 0.0576477 39.3853 19
      vertex 0 38.8 0
      vertex 0 38.8 19
    endloop
  endfacet
endsolid OpenSCAD_Model
