solid OpenSCAD_Model
  facet normal 0 0 -1
    outer loop
      vertex 53.3621 0 0
      vertex 49.3621 8 0
      vertex 53.3621 17 0
    endloop
  endfacet
  facet normal 0 0 -1
    outer loop
      vertex 53.3621 0 0
      vertex 35.3216 8 0
      vertex 49.3621 8 0
    endloop
  endfacet
  facet normal 0 0 -1
    outer loop
      vertex 26.3316 4.33707 0
      vertex 35.3216 8 0
      vertex 53.3621 0 0
    endloop
  endfacet
  facet normal 0 0 -1
    outer loop
      vertex 35.3216 8 0
      vertex 27.182 5.60982 0
      vertex 27.2204 6 0
    endloop
  endfacet
  facet normal 0 0 -1
    outer loop
      vertex 35.3216 8 0
      vertex 27.0682 5.23463 0
      vertex 27.182 5.60982 0
    endloop
  endfacet
  facet normal 0 0 -1
    outer loop
      vertex 35.3216 8 0
      vertex 26.8834 4.88885 0
      vertex 27.0682 5.23463 0
    endloop
  endfacet
  facet normal 0 0 -1
    outer loop
      vertex 35.3216 8 0
      vertex 26.6346 4.58578 0
      vertex 26.8834 4.88885 0
    endloop
  endfacet
  facet normal 0 0 -1
    outer loop
      vertex 35.3216 8 0
      vertex 26.3316 4.33707 0
      vertex 26.6346 4.58578 0
    endloop
  endfacet
  facet normal 0 0 -1
    outer loop
      vertex 53.3621 0 0
      vertex 25.9858 4.15224 0
      vertex 26.3316 4.33707 0
    endloop
  endfacet
  facet normal 0 0 -1
    outer loop
      vertex 53.3621 0 0
      vertex 25.6106 4.03844 0
      vertex 25.9858 4.15224 0
    endloop
  endfacet
  facet normal 0 0 -1
    outer loop
      vertex 53.3621 0 0
      vertex 25.2204 4 0
      vertex 25.6106 4.03844 0
    endloop
  endfacet
  facet normal 0 0 -1
    outer loop
      vertex 1.42242e-05 0 0
      vertex 25.2204 4 0
      vertex 53.3621 0 0
    endloop
  endfacet
  facet normal 0 0 -1
    outer loop
      vertex 1.42242e-05 0 0
      vertex 4.00001 47.2183 0
      vertex 4.00001 6 0
    endloop
  endfacet
  facet normal -0 0 -1
    outer loop
      vertex 25.2204 4 0
      vertex 1.42242e-05 0 0
      vertex 6.00001 4 0
    endloop
  endfacet
  facet normal 0 0 -1
    outer loop
      vertex 1.42242e-05 0 0
      vertex 5.60983 4.03844 0
      vertex 6.00001 4 0
    endloop
  endfacet
  facet normal 0 0 -1
    outer loop
      vertex 1.42242e-05 0 0
      vertex 5.23465 4.15224 0
      vertex 5.60983 4.03844 0
    endloop
  endfacet
  facet normal 0 0 -1
    outer loop
      vertex 1.42242e-05 0 0
      vertex 4.88887 4.33707 0
      vertex 5.23465 4.15224 0
    endloop
  endfacet
  facet normal 0 0 -1
    outer loop
      vertex 1.42242e-05 0 0
      vertex 4.5858 4.58578 0
      vertex 4.88887 4.33707 0
    endloop
  endfacet
  facet normal 0 0 -1
    outer loop
      vertex 1.42242e-05 0 0
      vertex 4.33708 4.88885 0
      vertex 4.5858 4.58578 0
    endloop
  endfacet
  facet normal 0 0 -1
    outer loop
      vertex 1.42242e-05 0 0
      vertex 4.15225 5.23463 0
      vertex 4.33708 4.88885 0
    endloop
  endfacet
  facet normal 0 0 -1
    outer loop
      vertex 1.42242e-05 0 0
      vertex 4.03845 5.60982 0
      vertex 4.15225 5.23463 0
    endloop
  endfacet
  facet normal 0 0 -1
    outer loop
      vertex 1.42242e-05 0 0
      vertex 4.00001 6 0
      vertex 4.03845 5.60982 0
    endloop
  endfacet
  facet normal -0 0 -1
    outer loop
      vertex 4.00001 47.2183 0
      vertex 1.42242e-05 0 0
      vertex 1.42242e-05 74.2826 0
    endloop
  endfacet
  facet normal 0 0 -1
    outer loop
      vertex 4.00001 47.2183 0
      vertex 1.42242e-05 74.2826 0
      vertex 3.62524 75.9731 0
    endloop
  endfacet
  facet normal -0 0 -1
    outer loop
      vertex 53.3621 17 0
      vertex 49.3621 8 0
      vertex 49.3621 17 0
    endloop
  endfacet
  facet normal 0 0 -1
    outer loop
      vertex 27.182 6.39018 0
      vertex 35.3216 8 0
      vertex 27.2204 6 0
    endloop
  endfacet
  facet normal 0 0 -1
    outer loop
      vertex 27.033 6.84523 0
      vertex 35.3216 8 0
      vertex 27.182 6.39018 0
    endloop
  endfacet
  facet normal 0 0 -1
    outer loop
      vertex 7.81264 48.0636 0
      vertex 35.3216 8 0
      vertex 27.033 6.84523 0
    endloop
  endfacet
  facet normal 0 0 -1
    outer loop
      vertex 3.62524 75.9731 0
      vertex 7.81264 48.0636 0
      vertex 7.6129 48.401 0
    endloop
  endfacet
  facet normal 0 0 -1
    outer loop
      vertex 7.81264 48.0636 0
      vertex 3.62524 75.9731 0
      vertex 35.3216 8 0
    endloop
  endfacet
  facet normal 0 0 -1
    outer loop
      vertex 7.3512 48.6929 0
      vertex 3.62524 75.9731 0
      vertex 7.6129 48.401 0
    endloop
  endfacet
  facet normal 0 0 -1
    outer loop
      vertex 7.03757 48.9282 0
      vertex 3.62524 75.9731 0
      vertex 7.3512 48.6929 0
    endloop
  endfacet
  facet normal 0 0 -1
    outer loop
      vertex 6.68405 49.0977 0
      vertex 3.62524 75.9731 0
      vertex 7.03757 48.9282 0
    endloop
  endfacet
  facet normal 0 0 -1
    outer loop
      vertex 6.30426 49.1951 0
      vertex 3.62524 75.9731 0
      vertex 6.68405 49.0977 0
    endloop
  endfacet
  facet normal 0 0 -1
    outer loop
      vertex 5.91278 49.2164 0
      vertex 3.62524 75.9731 0
      vertex 6.30426 49.1951 0
    endloop
  endfacet
  facet normal 0 0 -1
    outer loop
      vertex 5.52464 49.161 0
      vertex 3.62524 75.9731 0
      vertex 5.91278 49.2164 0
    endloop
  endfacet
  facet normal 0 0 -1
    outer loop
      vertex 5.15478 49.031 0
      vertex 3.62524 75.9731 0
      vertex 5.52464 49.161 0
    endloop
  endfacet
  facet normal 0 0 -1
    outer loop
      vertex 4.8174 48.8312 0
      vertex 3.62524 75.9731 0
      vertex 5.15478 49.031 0
    endloop
  endfacet
  facet normal 0 0 -1
    outer loop
      vertex 4.52547 48.5695 0
      vertex 3.62524 75.9731 0
      vertex 4.8174 48.8312 0
    endloop
  endfacet
  facet normal 0 0 -1
    outer loop
      vertex 4.29019 48.2559 0
      vertex 3.62524 75.9731 0
      vertex 4.52547 48.5695 0
    endloop
  endfacet
  facet normal 0 0 -1
    outer loop
      vertex 4.12064 47.9024 0
      vertex 3.62524 75.9731 0
      vertex 4.29019 48.2559 0
    endloop
  endfacet
  facet normal 0 0 -1
    outer loop
      vertex 4.02328 47.5226 0
      vertex 3.62524 75.9731 0
      vertex 4.12064 47.9024 0
    endloop
  endfacet
  facet normal 0 0 -1
    outer loop
      vertex 3.62524 75.9731 0
      vertex 4.02328 47.5226 0
      vertex 4.00001 47.2183 0
    endloop
  endfacet
  facet normal 0 0 1
    outer loop
      vertex 35.3216 8 70
      vertex 27.182 6.39018 70
      vertex 27.2204 6 70
    endloop
  endfacet
  facet normal 0 0 1
    outer loop
      vertex 35.3216 8 70
      vertex 27.033 6.84523 70
      vertex 27.182 6.39018 70
    endloop
  endfacet
  facet normal 0 0 1
    outer loop
      vertex 35.3216 8 70
      vertex 7.81264 48.0636 70
      vertex 27.033 6.84523 70
    endloop
  endfacet
  facet normal 0 0 1
    outer loop
      vertex 3.62524 75.9731 70
      vertex 7.81264 48.0636 70
      vertex 35.3216 8 70
    endloop
  endfacet
  facet normal 0 0 1
    outer loop
      vertex 4.02328 47.5226 70
      vertex 1.42242e-05 74.2826 70
      vertex 4.00001 47.2183 70
    endloop
  endfacet
  facet normal 0 0 1
    outer loop
      vertex 4.12064 47.9024 70
      vertex 1.42242e-05 74.2826 70
      vertex 4.02328 47.5226 70
    endloop
  endfacet
  facet normal 0 0 1
    outer loop
      vertex 4.29019 48.2559 70
      vertex 1.42242e-05 74.2826 70
      vertex 4.12064 47.9024 70
    endloop
  endfacet
  facet normal 0 0 1
    outer loop
      vertex 4.52547 48.5695 70
      vertex 1.42242e-05 74.2826 70
      vertex 4.29019 48.2559 70
    endloop
  endfacet
  facet normal 0 0 1
    outer loop
      vertex 4.8174 48.8312 70
      vertex 1.42242e-05 74.2826 70
      vertex 4.52547 48.5695 70
    endloop
  endfacet
  facet normal 0 0 1
    outer loop
      vertex 5.15478 49.031 70
      vertex 1.42242e-05 74.2826 70
      vertex 4.8174 48.8312 70
    endloop
  endfacet
  facet normal 0 0 1
    outer loop
      vertex 5.52464 49.161 70
      vertex 1.42242e-05 74.2826 70
      vertex 5.15478 49.031 70
    endloop
  endfacet
  facet normal 0 0 1
    outer loop
      vertex 5.91278 49.2164 70
      vertex 1.42242e-05 74.2826 70
      vertex 5.52464 49.161 70
    endloop
  endfacet
  facet normal 0 0 1
    outer loop
      vertex 6.30426 49.1951 70
      vertex 1.42242e-05 74.2826 70
      vertex 5.91278 49.2164 70
    endloop
  endfacet
  facet normal -0 0 1
    outer loop
      vertex 1.42242e-05 74.2826 70
      vertex 6.30426 49.1951 70
      vertex 3.62524 75.9731 70
    endloop
  endfacet
  facet normal 0 0 1
    outer loop
      vertex 6.68405 49.0977 70
      vertex 3.62524 75.9731 70
      vertex 6.30426 49.1951 70
    endloop
  endfacet
  facet normal 0 0 1
    outer loop
      vertex 7.03757 48.9282 70
      vertex 3.62524 75.9731 70
      vertex 6.68405 49.0977 70
    endloop
  endfacet
  facet normal 0 0 1
    outer loop
      vertex 7.3512 48.6929 70
      vertex 3.62524 75.9731 70
      vertex 7.03757 48.9282 70
    endloop
  endfacet
  facet normal 0 0 1
    outer loop
      vertex 7.6129 48.401 70
      vertex 3.62524 75.9731 70
      vertex 7.3512 48.6929 70
    endloop
  endfacet
  facet normal 0 0 1
    outer loop
      vertex 7.81264 48.0636 70
      vertex 3.62524 75.9731 70
      vertex 7.6129 48.401 70
    endloop
  endfacet
  facet normal 0 0 1
    outer loop
      vertex 49.3621 8 70
      vertex 53.3621 17 70
      vertex 49.3621 17 70
    endloop
  endfacet
  facet normal 0 0 1
    outer loop
      vertex 53.3621 17 70
      vertex 49.3621 8 70
      vertex 53.3621 0 70
    endloop
  endfacet
  facet normal -0 0 1
    outer loop
      vertex 35.3216 8 70
      vertex 53.3621 0 70
      vertex 49.3621 8 70
    endloop
  endfacet
  facet normal 0 0 1
    outer loop
      vertex 27.182 5.60982 70
      vertex 35.3216 8 70
      vertex 27.2204 6 70
    endloop
  endfacet
  facet normal 0 0 1
    outer loop
      vertex 27.0682 5.23463 70
      vertex 35.3216 8 70
      vertex 27.182 5.60982 70
    endloop
  endfacet
  facet normal 0 0 1
    outer loop
      vertex 26.8834 4.88885 70
      vertex 35.3216 8 70
      vertex 27.0682 5.23463 70
    endloop
  endfacet
  facet normal 0 0 1
    outer loop
      vertex 26.6346 4.58578 70
      vertex 35.3216 8 70
      vertex 26.8834 4.88885 70
    endloop
  endfacet
  facet normal 0 0 1
    outer loop
      vertex 26.3316 4.33707 70
      vertex 35.3216 8 70
      vertex 26.6346 4.58578 70
    endloop
  endfacet
  facet normal 0 0 1
    outer loop
      vertex 35.3216 8 70
      vertex 26.3316 4.33707 70
      vertex 53.3621 0 70
    endloop
  endfacet
  facet normal -0 0 1
    outer loop
      vertex 25.9858 4.15224 70
      vertex 53.3621 0 70
      vertex 26.3316 4.33707 70
    endloop
  endfacet
  facet normal -0 0 1
    outer loop
      vertex 25.6106 4.03844 70
      vertex 53.3621 0 70
      vertex 25.9858 4.15224 70
    endloop
  endfacet
  facet normal -0 0 1
    outer loop
      vertex 25.2204 4 70
      vertex 53.3621 0 70
      vertex 25.6106 4.03844 70
    endloop
  endfacet
  facet normal 0 0 1
    outer loop
      vertex 1.42242e-05 0 70
      vertex 25.2204 4 70
      vertex 6.00001 4 70
    endloop
  endfacet
  facet normal 0 0 1
    outer loop
      vertex 1.42242e-05 0 70
      vertex 4.00001 47.2183 70
      vertex 1.42242e-05 74.2826 70
    endloop
  endfacet
  facet normal 0 0 1
    outer loop
      vertex 25.2204 4 70
      vertex 1.42242e-05 0 70
      vertex 53.3621 0 70
    endloop
  endfacet
  facet normal 0 0 1
    outer loop
      vertex 5.60983 4.03844 70
      vertex 1.42242e-05 0 70
      vertex 6.00001 4 70
    endloop
  endfacet
  facet normal 0 0 1
    outer loop
      vertex 5.23465 4.15224 70
      vertex 1.42242e-05 0 70
      vertex 5.60983 4.03844 70
    endloop
  endfacet
  facet normal 0 0 1
    outer loop
      vertex 4.88887 4.33707 70
      vertex 1.42242e-05 0 70
      vertex 5.23465 4.15224 70
    endloop
  endfacet
  facet normal 0 0 1
    outer loop
      vertex 4.5858 4.58578 70
      vertex 1.42242e-05 0 70
      vertex 4.88887 4.33707 70
    endloop
  endfacet
  facet normal 0 0 1
    outer loop
      vertex 4.33708 4.88885 70
      vertex 1.42242e-05 0 70
      vertex 4.5858 4.58578 70
    endloop
  endfacet
  facet normal 0 0 1
    outer loop
      vertex 4.15225 5.23463 70
      vertex 1.42242e-05 0 70
      vertex 4.33708 4.88885 70
    endloop
  endfacet
  facet normal 0 0 1
    outer loop
      vertex 4.03845 5.60982 70
      vertex 1.42242e-05 0 70
      vertex 4.15225 5.23463 70
    endloop
  endfacet
  facet normal 0 0 1
    outer loop
      vertex 4.00001 6 70
      vertex 1.42242e-05 0 70
      vertex 4.03845 5.60982 70
    endloop
  endfacet
  facet normal 0 0 1
    outer loop
      vertex 4.00001 47.2183 70
      vertex 1.42242e-05 0 70
      vertex 4.00001 6 70
    endloop
  endfacet
  facet normal 0 1 -0
    outer loop
      vertex 53.3621 17 0
      vertex 49.3621 17 28.5
      vertex 53.3621 17 28.5
    endloop
  endfacet
  facet normal 0 1 0
    outer loop
      vertex 49.3621 17 28.5
      vertex 53.3621 17 0
      vertex 49.3621 17 0
    endloop
  endfacet
  facet normal 0 1 -0
    outer loop
      vertex 53.3621 17 41.5
      vertex 49.3621 17 70
      vertex 53.3621 17 70
    endloop
  endfacet
  facet normal 0 1 0
    outer loop
      vertex 49.3621 17 70
      vertex 53.3621 17 41.5
      vertex 49.3621 17 41.5
    endloop
  endfacet
  facet normal -1 0 0
    outer loop
      vertex 49.3621 8 0
      vertex 49.3621 17 28.5
      vertex 49.3621 17 0
    endloop
  endfacet
  facet normal -1 -0 0
    outer loop
      vertex 49.3621 17 28.5
      vertex 49.3621 8 0
      vertex 49.3621 8 28.5
    endloop
  endfacet
  facet normal -1 0 0
    outer loop
      vertex 49.3621 8 41.5
      vertex 49.3621 17 70
      vertex 49.3621 17 41.5
    endloop
  endfacet
  facet normal -1 -0 0
    outer loop
      vertex 49.3621 17 70
      vertex 49.3621 8 41.5
      vertex 49.3621 8 70
    endloop
  endfacet
  facet normal 0 1 0
    outer loop
      vertex 49.3621 8 28.5
      vertex 49.3621 8 0
      vertex 35.3216 8 28.5
    endloop
  endfacet
  facet normal 0 1 -0
    outer loop
      vertex 49.3621 8 41.5
      vertex 35.3216 8 70
      vertex 49.3621 8 70
    endloop
  endfacet
  facet normal 0 1 0
    outer loop
      vertex 35.3216 8 41.5
      vertex 35.3216 8 70
      vertex 49.3621 8 41.5
    endloop
  endfacet
  facet normal 0 0 0
    outer loop
      vertex 35.3216 8 28.5
      vertex 35.3216 8 70
      vertex 35.3216 8 41.5
    endloop
  endfacet
  facet normal 0 -0 0
    outer loop
      vertex 35.3216 8 28.5
      vertex 35.3216 8 0
      vertex 35.3216 8 70
    endloop
  endfacet
  facet normal 0 1 0
    outer loop
      vertex 35.3216 8 0
      vertex 35.3216 8 28.5
      vertex 49.3621 8 0
    endloop
  endfacet
  facet normal 0.906308 0.422618 0
    outer loop
      vertex 35.3216 8 70
      vertex 3.62524 75.9731 0
      vertex 3.62524 75.9731 70
    endloop
  endfacet
  facet normal 0.906308 0.422618 0
    outer loop
      vertex 3.62524 75.9731 0
      vertex 35.3216 8 70
      vertex 35.3216 8 0
    endloop
  endfacet
  facet normal -0.422624 0.906305 0
    outer loop
      vertex 3.62524 75.9731 0
      vertex 1.42242e-05 74.2826 70
      vertex 3.62524 75.9731 70
    endloop
  endfacet
  facet normal -0.422624 0.906305 0
    outer loop
      vertex 1.42242e-05 74.2826 70
      vertex 3.62524 75.9731 0
      vertex 1.42242e-05 74.2826 0
    endloop
  endfacet
  facet normal -1 0 0
    outer loop
      vertex 1.42242e-05 0 0
      vertex 1.42242e-05 74.2826 70
      vertex 1.42242e-05 74.2826 0
    endloop
  endfacet
  facet normal -1 -0 0
    outer loop
      vertex 1.42242e-05 74.2826 70
      vertex 1.42242e-05 0 0
      vertex 1.42242e-05 0 70
    endloop
  endfacet
  facet normal 0 -1 0
    outer loop
      vertex 1.42242e-05 0 70
      vertex 35.3216 0 41.5
      vertex 53.3621 0 70
    endloop
  endfacet
  facet normal 0 -1 0
    outer loop
      vertex 1.42242e-05 0 70
      vertex 35.3216 0 28.5
      vertex 35.3216 0 41.5
    endloop
  endfacet
  facet normal 0 -1 0
    outer loop
      vertex 1.42242e-05 0 0
      vertex 35.3216 0 28.5
      vertex 1.42242e-05 0 70
    endloop
  endfacet
  facet normal 0 -1 0
    outer loop
      vertex 53.3621 0 0
      vertex 35.3216 0 28.5
      vertex 1.42242e-05 0 0
    endloop
  endfacet
  facet normal 0 -1 0
    outer loop
      vertex 35.3216 0 28.5
      vertex 53.3621 0 0
      vertex 53.3621 0 28.5
    endloop
  endfacet
  facet normal 0 -1 -0
    outer loop
      vertex 53.3621 0 70
      vertex 35.3216 0 41.5
      vertex 53.3621 0 41.5
    endloop
  endfacet
  facet normal 1 -0 0
    outer loop
      vertex 53.3621 0 28.5
      vertex 53.3621 17 0
      vertex 53.3621 17 28.5
    endloop
  endfacet
  facet normal 1 0 0
    outer loop
      vertex 53.3621 17 0
      vertex 53.3621 0 28.5
      vertex 53.3621 0 0
    endloop
  endfacet
  facet normal 1 -0 0
    outer loop
      vertex 53.3621 0 70
      vertex 53.3621 17 41.5
      vertex 53.3621 17 70
    endloop
  endfacet
  facet normal 1 0 0
    outer loop
      vertex 53.3621 17 41.5
      vertex 53.3621 0 70
      vertex 53.3621 0 41.5
    endloop
  endfacet
  facet normal 0.098044 0.995182 -0
    outer loop
      vertex 6.00001 4 0
      vertex 5.60983 4.03844 70
      vertex 6.00001 4 70
    endloop
  endfacet
  facet normal 0.098044 0.995182 0
    outer loop
      vertex 5.60983 4.03844 70
      vertex 6.00001 4 0
      vertex 5.60983 4.03844 0
    endloop
  endfacet
  facet normal 0.290262 0.956947 -0
    outer loop
      vertex 5.60983 4.03844 0
      vertex 5.23465 4.15224 70
      vertex 5.60983 4.03844 70
    endloop
  endfacet
  facet normal 0.290262 0.956947 0
    outer loop
      vertex 5.23465 4.15224 70
      vertex 5.60983 4.03844 0
      vertex 5.23465 4.15224 0
    endloop
  endfacet
  facet normal 0.47141 0.881914 -0
    outer loop
      vertex 5.23465 4.15224 0
      vertex 4.88887 4.33707 70
      vertex 5.23465 4.15224 70
    endloop
  endfacet
  facet normal 0.47141 0.881914 0
    outer loop
      vertex 4.88887 4.33707 70
      vertex 5.23465 4.15224 0
      vertex 4.88887 4.33707 0
    endloop
  endfacet
  facet normal 0.634373 0.773027 -0
    outer loop
      vertex 4.88887 4.33707 0
      vertex 4.5858 4.58578 70
      vertex 4.88887 4.33707 70
    endloop
  endfacet
  facet normal 0.634373 0.773027 0
    outer loop
      vertex 4.5858 4.58578 70
      vertex 4.88887 4.33707 0
      vertex 4.5858 4.58578 0
    endloop
  endfacet
  facet normal 0.773014 0.634389 0
    outer loop
      vertex 4.5858 4.58578 70
      vertex 4.33708 4.88885 0
      vertex 4.33708 4.88885 70
    endloop
  endfacet
  facet normal 0.773014 0.634389 0
    outer loop
      vertex 4.33708 4.88885 0
      vertex 4.5858 4.58578 70
      vertex 4.5858 4.58578 0
    endloop
  endfacet
  facet normal 0.881914 0.47141 0
    outer loop
      vertex 4.33708 4.88885 70
      vertex 4.15225 5.23463 0
      vertex 4.15225 5.23463 70
    endloop
  endfacet
  facet normal 0.881914 0.47141 0
    outer loop
      vertex 4.15225 5.23463 0
      vertex 4.33708 4.88885 70
      vertex 4.33708 4.88885 0
    endloop
  endfacet
  facet normal 0.956949 0.290255 0
    outer loop
      vertex 4.15225 5.23463 70
      vertex 4.03845 5.60982 0
      vertex 4.03845 5.60982 70
    endloop
  endfacet
  facet normal 0.956949 0.290255 0
    outer loop
      vertex 4.03845 5.60982 0
      vertex 4.15225 5.23463 70
      vertex 4.15225 5.23463 0
    endloop
  endfacet
  facet normal 0.995182 0.098044 0
    outer loop
      vertex 4.03845 5.60982 70
      vertex 4.00001 6 0
      vertex 4.00001 6 70
    endloop
  endfacet
  facet normal 0.995182 0.098044 0
    outer loop
      vertex 4.00001 6 0
      vertex 4.03845 5.60982 70
      vertex 4.03845 5.60982 0
    endloop
  endfacet
  facet normal 1 -0 0
    outer loop
      vertex 4.00001 6 70
      vertex 4.00001 47.2183 0
      vertex 4.00001 47.2183 70
    endloop
  endfacet
  facet normal 1 0 0
    outer loop
      vertex 4.00001 47.2183 0
      vertex 4.00001 6 70
      vertex 4.00001 6 0
    endloop
  endfacet
  facet normal 0.997089 -0.076248 0
    outer loop
      vertex 4.00001 47.2183 70
      vertex 4.02328 47.5226 0
      vertex 4.02328 47.5226 70
    endloop
  endfacet
  facet normal 0.997089 -0.076248 0
    outer loop
      vertex 4.02328 47.5226 0
      vertex 4.00001 47.2183 70
      vertex 4.00001 47.2183 0
    endloop
  endfacet
  facet normal 0.968679 -0.248316 0
    outer loop
      vertex 4.02328 47.5226 70
      vertex 4.12064 47.9024 0
      vertex 4.12064 47.9024 70
    endloop
  endfacet
  facet normal 0.968679 -0.248316 0
    outer loop
      vertex 4.12064 47.9024 0
      vertex 4.02328 47.5226 70
      vertex 4.02328 47.5226 0
    endloop
  endfacet
  facet normal 0.901652 -0.432462 0
    outer loop
      vertex 4.12064 47.9024 70
      vertex 4.29019 48.2559 0
      vertex 4.29019 48.2559 70
    endloop
  endfacet
  facet normal 0.901652 -0.432462 0
    outer loop
      vertex 4.29019 48.2559 0
      vertex 4.12064 47.9024 70
      vertex 4.12064 47.9024 0
    endloop
  endfacet
  facet normal 0.799902 -0.600131 0
    outer loop
      vertex 4.29019 48.2559 70
      vertex 4.52547 48.5695 0
      vertex 4.52547 48.5695 70
    endloop
  endfacet
  facet normal 0.799902 -0.600131 0
    outer loop
      vertex 4.52547 48.5695 0
      vertex 4.29019 48.2559 70
      vertex 4.29019 48.2559 0
    endloop
  endfacet
  facet normal 0.667502 -0.744608 0
    outer loop
      vertex 4.52547 48.5695 0
      vertex 4.8174 48.8312 70
      vertex 4.52547 48.5695 70
    endloop
  endfacet
  facet normal 0.667502 -0.744608 0
    outer loop
      vertex 4.8174 48.8312 70
      vertex 4.52547 48.5695 0
      vertex 4.8174 48.8312 0
    endloop
  endfacet
  facet normal 0.509559 -0.860436 0
    outer loop
      vertex 4.8174 48.8312 0
      vertex 5.15478 49.031 70
      vertex 4.8174 48.8312 70
    endloop
  endfacet
  facet normal 0.509559 -0.860436 0
    outer loop
      vertex 5.15478 49.031 70
      vertex 4.8174 48.8312 0
      vertex 5.15478 49.031 0
    endloop
  endfacet
  facet normal 0.331598 -0.943421 0
    outer loop
      vertex 5.15478 49.031 0
      vertex 5.52464 49.161 70
      vertex 5.15478 49.031 70
    endloop
  endfacet
  facet normal 0.331598 -0.943421 0
    outer loop
      vertex 5.52464 49.161 70
      vertex 5.15478 49.031 0
      vertex 5.52464 49.161 0
    endloop
  endfacet
  facet normal 0.1413 -0.989967 0
    outer loop
      vertex 5.52464 49.161 0
      vertex 5.91278 49.2164 70
      vertex 5.52464 49.161 70
    endloop
  endfacet
  facet normal 0.1413 -0.989967 0
    outer loop
      vertex 5.91278 49.2164 70
      vertex 5.52464 49.161 0
      vertex 5.91278 49.2164 0
    endloop
  endfacet
  facet normal -0.0543286 -0.998523 0
    outer loop
      vertex 5.91278 49.2164 0
      vertex 6.30426 49.1951 70
      vertex 5.91278 49.2164 70
    endloop
  endfacet
  facet normal -0.0543286 -0.998523 -0
    outer loop
      vertex 6.30426 49.1951 70
      vertex 5.91278 49.2164 0
      vertex 6.30426 49.1951 0
    endloop
  endfacet
  facet normal -0.248418 -0.968653 0
    outer loop
      vertex 6.30426 49.1951 0
      vertex 6.68405 49.0977 70
      vertex 6.30426 49.1951 70
    endloop
  endfacet
  facet normal -0.248418 -0.968653 -0
    outer loop
      vertex 6.68405 49.0977 70
      vertex 6.30426 49.1951 0
      vertex 6.68405 49.0977 0
    endloop
  endfacet
  facet normal -0.432338 -0.901712 0
    outer loop
      vertex 6.68405 49.0977 0
      vertex 7.03757 48.9282 70
      vertex 6.68405 49.0977 70
    endloop
  endfacet
  facet normal -0.432338 -0.901712 -0
    outer loop
      vertex 7.03757 48.9282 70
      vertex 6.68405 49.0977 0
      vertex 7.03757 48.9282 0
    endloop
  endfacet
  facet normal -0.600126 -0.799905 0
    outer loop
      vertex 7.03757 48.9282 0
      vertex 7.3512 48.6929 70
      vertex 7.03757 48.9282 70
    endloop
  endfacet
  facet normal -0.600126 -0.799905 -0
    outer loop
      vertex 7.3512 48.6929 70
      vertex 7.03757 48.9282 0
      vertex 7.3512 48.6929 0
    endloop
  endfacet
  facet normal -0.744574 -0.66754 0
    outer loop
      vertex 7.6129 48.401 0
      vertex 7.3512 48.6929 70
      vertex 7.3512 48.6929 0
    endloop
  endfacet
  facet normal -0.744574 -0.66754 0
    outer loop
      vertex 7.3512 48.6929 70
      vertex 7.6129 48.401 0
      vertex 7.6129 48.401 70
    endloop
  endfacet
  facet normal -0.860516 -0.509423 0
    outer loop
      vertex 7.81264 48.0636 0
      vertex 7.6129 48.401 70
      vertex 7.6129 48.401 0
    endloop
  endfacet
  facet normal -0.860516 -0.509423 0
    outer loop
      vertex 7.6129 48.401 70
      vertex 7.81264 48.0636 0
      vertex 7.81264 48.0636 70
    endloop
  endfacet
  facet normal -0.906308 -0.422617 0
    outer loop
      vertex 27.033 6.84523 0
      vertex 7.81264 48.0636 70
      vertex 7.81264 48.0636 0
    endloop
  endfacet
  facet normal -0.906308 -0.422617 0
    outer loop
      vertex 7.81264 48.0636 70
      vertex 27.033 6.84523 0
      vertex 27.033 6.84523 70
    endloop
  endfacet
  facet normal -0.950351 -0.31118 0
    outer loop
      vertex 27.182 6.39018 0
      vertex 27.033 6.84523 70
      vertex 27.033 6.84523 0
    endloop
  endfacet
  facet normal -0.950351 -0.31118 0
    outer loop
      vertex 27.033 6.84523 70
      vertex 27.182 6.39018 0
      vertex 27.182 6.39018 70
    endloop
  endfacet
  facet normal -0.995192 -0.0979429 0
    outer loop
      vertex 27.2204 6 0
      vertex 27.182 6.39018 70
      vertex 27.182 6.39018 0
    endloop
  endfacet
  facet normal -0.995192 -0.0979429 0
    outer loop
      vertex 27.182 6.39018 70
      vertex 27.2204 6 0
      vertex 27.2204 6 70
    endloop
  endfacet
  facet normal -0.995192 0.0979429 0
    outer loop
      vertex 27.182 5.60982 0
      vertex 27.2204 6 70
      vertex 27.2204 6 0
    endloop
  endfacet
  facet normal -0.995192 0.0979429 0
    outer loop
      vertex 27.2204 6 70
      vertex 27.182 5.60982 0
      vertex 27.182 5.60982 70
    endloop
  endfacet
  facet normal -0.956949 0.290255 0
    outer loop
      vertex 27.0682 5.23463 0
      vertex 27.182 5.60982 70
      vertex 27.182 5.60982 0
    endloop
  endfacet
  facet normal -0.956949 0.290255 0
    outer loop
      vertex 27.182 5.60982 70
      vertex 27.0682 5.23463 0
      vertex 27.0682 5.23463 70
    endloop
  endfacet
  facet normal -0.881946 0.471351 0
    outer loop
      vertex 26.8834 4.88885 0
      vertex 27.0682 5.23463 70
      vertex 27.0682 5.23463 0
    endloop
  endfacet
  facet normal -0.881946 0.471351 0
    outer loop
      vertex 27.0682 5.23463 70
      vertex 26.8834 4.88885 0
      vertex 26.8834 4.88885 70
    endloop
  endfacet
  facet normal -0.772914 0.63451 0
    outer loop
      vertex 26.6346 4.58578 0
      vertex 26.8834 4.88885 70
      vertex 26.8834 4.88885 0
    endloop
  endfacet
  facet normal -0.772914 0.63451 0
    outer loop
      vertex 26.8834 4.88885 70
      vertex 26.6346 4.58578 0
      vertex 26.6346 4.58578 70
    endloop
  endfacet
  facet normal -0.634461 0.772955 0
    outer loop
      vertex 26.6346 4.58578 0
      vertex 26.3316 4.33707 70
      vertex 26.6346 4.58578 70
    endloop
  endfacet
  facet normal -0.634461 0.772955 0
    outer loop
      vertex 26.3316 4.33707 70
      vertex 26.6346 4.58578 0
      vertex 26.3316 4.33707 0
    endloop
  endfacet
  facet normal -0.471389 0.881925 0
    outer loop
      vertex 26.3316 4.33707 0
      vertex 25.9858 4.15224 70
      vertex 26.3316 4.33707 70
    endloop
  endfacet
  facet normal -0.471389 0.881925 0
    outer loop
      vertex 25.9858 4.15224 70
      vertex 26.3316 4.33707 0
      vertex 25.9858 4.15224 0
    endloop
  endfacet
  facet normal -0.290248 0.956951 0
    outer loop
      vertex 25.9858 4.15224 0
      vertex 25.6106 4.03844 70
      vertex 25.9858 4.15224 70
    endloop
  endfacet
  facet normal -0.290248 0.956951 0
    outer loop
      vertex 25.6106 4.03844 70
      vertex 25.9858 4.15224 0
      vertex 25.6106 4.03844 0
    endloop
  endfacet
  facet normal -0.098039 0.995183 0
    outer loop
      vertex 25.6106 4.03844 0
      vertex 25.2204 4 70
      vertex 25.6106 4.03844 70
    endloop
  endfacet
  facet normal -0.098039 0.995183 0
    outer loop
      vertex 25.2204 4 70
      vertex 25.6106 4.03844 0
      vertex 25.2204 4 0
    endloop
  endfacet
  facet normal 0 1 -0
    outer loop
      vertex 25.2204 4 0
      vertex 6.00001 4 70
      vertex 25.2204 4 70
    endloop
  endfacet
  facet normal 0 1 0
    outer loop
      vertex 6.00001 4 70
      vertex 25.2204 4 0
      vertex 6.00001 4 0
    endloop
  endfacet
  facet normal 0 0 -1
    outer loop
      vertex 53.3621 0 41.5
      vertex 49.3621 8 41.5
      vertex 53.3621 17 41.5
    endloop
  endfacet
  facet normal 0 0 -1
    outer loop
      vertex 35.3216 0 41.5
      vertex 49.3621 8 41.5
      vertex 53.3621 0 41.5
    endloop
  endfacet
  facet normal -0 0 -1
    outer loop
      vertex 49.3621 8 41.5
      vertex 35.3216 0 41.5
      vertex 35.3216 8 41.5
    endloop
  endfacet
  facet normal -0 0 -1
    outer loop
      vertex 53.3621 17 41.5
      vertex 49.3621 8 41.5
      vertex 49.3621 17 41.5
    endloop
  endfacet
  facet normal 0 0 1
    outer loop
      vertex 49.3621 8 28.5
      vertex 53.3621 17 28.5
      vertex 49.3621 17 28.5
    endloop
  endfacet
  facet normal 0 0 1
    outer loop
      vertex 53.3621 17 28.5
      vertex 49.3621 8 28.5
      vertex 53.3621 0 28.5
    endloop
  endfacet
  facet normal 0 0 1
    outer loop
      vertex 35.3216 0 28.5
      vertex 49.3621 8 28.5
      vertex 35.3216 8 28.5
    endloop
  endfacet
  facet normal 0 0 1
    outer loop
      vertex 49.3621 8 28.5
      vertex 35.3216 0 28.5
      vertex 53.3621 0 28.5
    endloop
  endfacet
  facet normal 1 -0 0
    outer loop
      vertex 35.3216 0 41.5
      vertex 35.3216 8 28.5
      vertex 35.3216 8 41.5
    endloop
  endfacet
  facet normal 1 0 0
    outer loop
      vertex 35.3216 8 28.5
      vertex 35.3216 0 41.5
      vertex 35.3216 0 28.5
    endloop
  endfacet
endsolid OpenSCAD_Model
